<svg xmlns="http://www.w3.org/2000/svg" xmlns:xlink="http://www.w3.org/1999/xlink" width="160" height="600" viewBox="0 0 160 600">
  <defs>
    <clipPath id="clip-path">
      <rect id="crop_area" data-name="crop area" width="160" height="451" fill="#00a"/>
    </clipPath>
    <clipPath id="clip-path-2">
      <path id="far_leg" data-name="far leg" d="M9935.633,3987.264c3.8,1.276,35.067,29.658,35.067,29.658s-3.443,11.33-6.729,8.936-31.226-26.011-31.226-26.011l-24.024-4.536-3.76-5.835S9931.835,3985.988,9935.633,3987.264Z" transform="translate(-9904.962 -3986.984)" fill="#b062cc"/>
    </clipPath>
    <clipPath id="clip-path-3">
      <path id="near_leg" data-name="near leg" d="M9906.221,3989.253l33.48.667s2.938.889,2.7,3.334,4.631,30.364,4.631,30.364-8.1,5.9-9.587,3.18-7.035-26.424-7.035-26.424,1.129-.154-7.568,0-25.439,2.735-26.447.735,3.323-11.855,3.323-11.855Z" transform="translate(-9896.243 -3989.253)" fill="#dc7bff"/>
    </clipPath>
    <clipPath id="clip-JetBlue_Retail_Refresh_Your_Getaway_160x600_Frame02_1">
      <rect width="160" height="600"/>
    </clipPath>
  </defs>
  <g id="JetBlue_Retail_Refresh_Your_Getaway_160x600_Frame02_1" data-name="JetBlue_Retail_Refresh_Your_Getaway_160x600_Frame02 – 1" clip-path="url(#clip-JetBlue_Retail_Refresh_Your_Getaway_160x600_Frame02_1)">
    <g id="illustration" clip-path="url(#clip-path)">
      <g id="Lady_sleeping_in_seat" data-name="Lady sleeping in seat" transform="translate(-10209.646 -3538.584)">
        <ellipse id="shadow" cx="71.315" cy="5.533" rx="71.315" ry="5.533" transform="translate(10216.001 3922.957)" opacity="0.122"/>
        <g id="Near_Shoe" data-name="Near Shoe" transform="translate(10305.938 3914.333)">
          <path id="near_foot" data-name="near foot" d="M10359.666,3974.843l2,8.06,6.226,2.253-1.314-13.411Z" transform="translate(-10359.281 -3971.745)" fill="#d68053"/>
          <path id="Path_99337" data-name="Path 99337" d="M10366.661,3980.836s4.467,4.1,8.7,5.031,4.735,1.782,4.735,1.782,1.194.806,1.194,1.695c2.012,2.85-7.848,3.159-12.216,2.417-6.25.96-8.354.01-9.586-1.306-1.86-4.084,1.5-7.5,1.5-7.5s.169.964,3.374.3S10366.661,3980.836,10366.661,3980.836Z" transform="translate(-10358.925 -3974.796)" fill="#00a"/>
        </g>
        <g id="Far_Shoe" data-name="Far Shoe" transform="translate(10328.767 3915.833) rotate(-40)">
          <path id="near_foot-2" data-name="near foot" d="M0,3.112l2.123,8.1,6.615,2.264L7.341,0Z" transform="translate(0.426 0)" fill="#d68053"/>
          <path id="Path_99337-2" data-name="Path 99337" d="M7.97,0s4.59,4.63,8.938,5.686S21.48,7.051,21.48,7.051s1.227.911,1.227,1.916c2.067,3.221-7.771,4.219-12.26,3.38-6.425,1.085-8.586.01-9.852-1.477A7.789,7.789,0,0,1,1.995,2.8s.315.685,3.61-.061S7.97,0,7.97,0Z" transform="translate(0 6.068)" fill="#00a"/>
        </g>
        <g id="Far_leg-2" data-name="Far leg" transform="translate(10271.133 3879.988)">
          <path id="far_leg-3" data-name="far leg" d="M9935.633,3987.264c3.8,1.276,35.067,29.658,35.067,29.658s-3.443,11.33-6.729,8.936-31.226-26.011-31.226-26.011l-24.024-4.536-3.76-5.835S9931.835,3985.988,9935.633,3987.264Z" transform="translate(-9904.962 -3986.984)" fill="#c463e6"/>
          <g id="Mask_Group_5" data-name="Mask Group 5" transform="translate(0.001)" clip-path="url(#clip-path-2)">
            <path id="Path_99336" data-name="Path 99336" d="M9965.973,4025.5c-.513.161-13.653-4.513-13.653-4.513l-18.68-20.813-36.33-1.231,1.738,8.64,36.807,11.9,16.465,17.964h15.593Z" transform="translate(-9902.217 -3991.274)" opacity="0.07"/>
          </g>
        </g>
        <g id="Near_Leg-2" data-name="Near Leg" transform="translate(10265.544 3882.122)">
          <path id="near_leg-3" data-name="near leg" d="M9906.221,3989.253l33.48.667s2.938.889,2.7,3.334,4.631,30.364,4.631,30.364-8.1,5.9-9.587,3.18-7.035-26.424-7.035-26.424,1.129-.154-7.568,0-25.439,1.377-26.447-.624,3.323-10.5,3.323-10.5Z" transform="translate(-9896.243 -3989.253)" fill="#dc7bff"/>
          <g id="Mask_Group_2" data-name="Mask Group 2" clip-path="url(#clip-path-3)">
            <path id="Path_99330" data-name="Path 99330" d="M9902.511,3985.859s.8-6.48-2.613,2.547,1.634,7.232,1.634,7.232l26.359-1.213s4.779,25.167,7.863,26.124a36.549,36.549,0,0,0,8.342.975l1.959,3.283-17.3,2.975-4.987-20.534-38.022-4.086,7.658-17.3Z" transform="translate(-9892.475 -3987.227)" opacity="0.108"/>
          </g>
        </g>
        <g id="Pink_Top" data-name="Pink Top" transform="translate(10235.229 3845.637)">
          <path id="top" d="M9848.963,3933.838s11.754,40.509,10.469,37.192-3.3-20.425-3.3-20.425l3.917,17.872s-3.01,8.273,1.028,9.63.058-.718,10.471,1.4,11.278-.629,11.278-.629l8.711-13.288s-5.782,2.143-8.711,0-9.717-10.6-10.746-13.427-1.166-7.921-1.166-7.921-3.166-4.422-4.749-6.611-3.9-5.129-6.116-5.277S9848.963,3933.838,9848.963,3933.838Z" transform="translate(-9848.963 -3932.347)" fill="#fc3388"/>
          <path id="Top_shdow" data-name="Top shdow" d="M9861.143,3985.371l1.973,1.945s8.822,3.4,8.563,0-8.053-7.231-9.605-13.617a41.471,41.471,0,0,1-.93-12.481l3.637-1.837s-6.393-2.479-8.193-2.445-2.094,3.758-2.094,3.758l5.264,20.8Z" transform="translate(-9850.947 -3941.171)" fill="#d13376"/>
        </g>
        <g id="seat_left" data-name="seat left" transform="translate(10216.324 3816.713)">
          <rect id="Rectangle_3179" data-name="Rectangle 3179" width="38.79" height="1.687" transform="translate(30.357 109.304)" fill="#5e5e5e"/>
          <path id="Path_47807" data-name="Path 47807" d="M46.416,101.783c.171,1.817-1.237,11.315-7.593,15.081s-8.838,2.995-10.806,2.91c-1.027-.086-2.567,1.283-2.824,1.711s-.257,1.711,0,1.883,14.12,0,14.12,0-.085-1.541-.855-1.8-.343-.856,1.369-1.711,7.787-3.424,11.039-13.948c0,0,3.679-3.167,4.877-3.252s9.24-.639,10.183-.876a2.948,2.948,0,0,1,3.424,2.331,121,121,0,0,1,1.711,14.034c0,2.481-.343,5.286,0,5.3s4.706,0,4.706,0,.071-3.415-.692-3.415-1.021.086-1.191-1.027-.427-20.708-.427-20.708l-6.931-2.567Z" transform="translate(-3.249 -12.443)" fill="#5e5e5e"/>
          <path id="Path_47798" data-name="Path 47798" d="M30.754,87.23c2.424-.947,4.621-2.139,12.065-1.283a117.945,117.945,0,0,0,24.56.476c9.071-.819,8.471,4.915,7.958,8.252s-1.027,5.477-3.594,5.049-2.909-3.251-2.909-3.251l-9.5,2.849s-23.7,2.593-27.126,0S27.636,88.45,30.754,87.23" transform="translate(-3.761 -11.133)" fill="#999"/>
          <path id="Path_47799" data-name="Path 47799" d="M14.715,20.917h-3.36A2.138,2.138,0,0,1,9.216,18.78V2.462A2.138,2.138,0,0,1,11.354.324h2.133a2.138,2.138,0,0,1,2.138,2.138l1.227,16.317a2.138,2.138,0,0,1-2.137,2.139Z" transform="translate(-1.198 -0.042)" fill="#5e5e5e"/>
          <path id="Path_47800" data-name="Path 47800" d="M4.826.452a6.059,6.059,0,0,1,4.621,0c.172.342-.855,4.022-.6,10.867S9.1,20.9,11.414,27.065,32.637,69.166,27.331,76.1c-2.909,2.054-4.621.771-4.621.771L16.492,63.49,11.843,50.6,6.965,36.135,2.6,19.277V3.874Z" transform="translate(-0.338 0)" fill="#999"/>
          <path id="Path_47801" data-name="Path 47801" d="M8.148,57.234c.21-1.268.819-1.769,3.73-.913s4.963.428,6.417,2.567a31.229,31.229,0,0,1,2.654,5.22L17.7,65.136s-.826-4-2.385-4.64c-2.093-.866-7.569-.808-7.162-3.262" transform="translate(-1.056 -7.265)" fill="#5e5e5e"/>
          <path id="Path_47802" data-name="Path 47802" d="M57.717,66.34c-.633.356-.97.628-9.186,1.426s-19,2.91-23.9,4.792c-3.657,2.226-6.789,1.2-7.759-.913-.856-2.362-.627-6.275,4.268-6.593A119.92,119.92,0,0,1,35.867,64c9.984-.171,22.787-.742,23.032,0a2.461,2.461,0,0,1-1.182,2.339" transform="translate(-2.143 -8.271)" fill="#5e5e5e"/>
          <path id="Path_47803" data-name="Path 47803" d="M21.762,65.662c-.913-1.423,3.309-2,15.4-2.647,7.691-.414,21.678-.149,22.249.137s.457.855-.457.913-21.621.193-25.786.581-9.127.845-11.409,1.016" transform="translate(-2.813 -8.163)" fill="#999"/>
          <path id="Path_47804" data-name="Path 47804" d="M21.421,74.173c.434.324,3.081-.8,3.823,1.312S28.7,89.64,39.677,91.323c9.378,1.437,23.418-2.317,26.356-.378,2.232,1.473,3.41,4.033,2.8,4.678-1.114,1.168-4.621,2.132-20.652,4.128s-19.139.465-24.987-5.954c-6.792-7.453-7.047-19.737-6.718-20.08s2.04-1.712,4.95.456" transform="translate(-2.129 -9.486)" fill="#5e5e5e"/>
          <path id="Path_47805" data-name="Path 47805" d="M3.945,1.371c-1.084.228-2.4.456-2.852,3.023s-2.339,9.128.228,21.451c.114.228.342.456,1.2.228a5.293,5.293,0,0,1,.171.513s-1.54.342-1.483.571S7.6,47.409,7.6,47.409s.284.685,1.483.571c.057,0,.572-.388,1.141,1.089.065.017,2,.85,2,.85S4.574,27.214,3.6,22.194s-.514-17.4.342-20.823" transform="translate(0 -0.178)" fill="#5e5e5e"/>
        </g>
        <g id="Hand" transform="translate(10241.588 3898.095)">
          <path id="hand-2" data-name="hand" d="M6.971,3.59s-.38,7.378-.251,7.747,1.221,2.12,1.517,3.076a21.4,21.4,0,0,1,.054,4.327S6.7,21.389,5.919,22.527c-.988,1.258-1.237,3.013-1.943,2.262A2.49,2.49,0,0,1,3.8,22.876c.309-1.8,2.731-4.893,1.642-6.075S5,16.927,3.9,18.938c0,0-.544,1.471-1.024,1.366s-.331-.525-.306-1.941a16.952,16.952,0,0,1,.039-2.955c.162-.787-.085-1.853.075-2.206.582-1.8-.88-4.895-.863-6.864S0,0,0,0L5.441,1.67Z" transform="matrix(0.995, -0.105, 0.105, 0.995, 0, 0.876)" fill="#d57f54"/>
          <path id="Path_99336-2" data-name="Path 99336" d="M4.817,1.124l-.034,0L.307.679A.34.34,0,1,1,.374,0L4.85.445a.34.34,0,0,1-.033.679Z" transform="translate(3.451 11.428) rotate(-8)" fill="#fff"/>
        </g>
        <path id="sleeve" d="M9846.173,3933.838s-3.684.9-4.655,4.328c-.745,2.632,0,20.965,0,20.965s2.61,10.458,2.854,11.9c1.049,6.189,7.343,19.081,7.283,21.725s11.714,1.276,11.714,1.276-5.441-19.685-6.729-23-3.3-20.425-3.3-20.425,6.135-18.1,3.918-18.248S9846.173,3933.838,9846.173,3933.838Z" transform="translate(389.057 -86.711)" fill="#fc3388"/>
        <g id="head" transform="translate(10223.092 3820.651)">
          <path id="Path_99329" data-name="Path 99329" d="M9836.87,3922.668a3.923,3.923,0,0,0,0,5.267c2.32,2.817,15.966,8.089,20.417,5.617s1.973-5.617.2-7.216-8.074.516-11.5-1.591a61.29,61.29,0,0,0-6.28-3.384Z" transform="translate(-9829.89 -3905.107)" fill="#c4ac28"/>
          <path id="Path_99339" data-name="Path 99339" d="M24.436,32.881l4.825,7.472L16.9,38.009V30.463Z" transform="translate(-6.509 -11.994)" fill="#7b4226"/>
          <path id="Path_99328" data-name="Path 99328" d="M9836.907,3922.668a3.83,3.83,0,0,0,0,5.267c2.4,2.817,16.509,8.089,21.11,5.617s2.655-5.877.205-7.216-8.351.516-11.9-1.591a64.235,64.235,0,0,0-6.491-3.384Z" transform="translate(-9832.043 -3902.497)" fill="gold"/>
          <path id="Path_99325" data-name="Path 99325" d="M8.572.611s3.14-1.655,5.007.484S17.846,4.9,18.134,7.3a16.852,16.852,0,0,1-1.325,7.643c-.882,2.08-1.051,2.562-2.258,2.9s-2.653.054-5.026-.792-2.3-1.712-2.939-2.176c-.176-.136-2.863,1.062-3.652.951-1.847-.26.734-1.549.734-1.549s-3.8-1.654-1.764-2.907S0,7.3,0,7.3s5.167,2.577,4.777,0-.41-5.472.78-6.2A5.353,5.353,0,0,1,8.572.611Z" transform="matrix(0.998, -0.07, 0.07, 0.998, 3.151, 4.974)" fill="#d68054" opacity="0.998"/>
          <path id="Path_99326" data-name="Path 99326" d="M2.66,4.15C6.64.594,6.168.983,10.19.758S13.9-1.664,17.774,2.648c.855.9,2.884,5.245,4.251,10.534,1.324,3.032-1.016,9.6-1.016,9.6s.368-3.706-1.261-2.82l.617-4.146S20.31,16.2,19.39,17a8.217,8.217,0,0,0,1.069-2.54,12.9,12.9,0,0,0-.769-4.831C18.7,6.68,15.782,4.348,14.437,4.15c-.854-.126-2.512.61-3.775.836.575,1.855-1.545,5.469-2.36,7.236,3.3,5.259-1.027,2.5-1.027,2.5a4.093,4.093,0,0,0-.635-.315l2.981,3.019A7.725,7.725,0,0,0,10.7,19.762c.922,1.487,4.111,3.017,4.111,3.017s-4.838-1.335-4.7-.764c.5,1.967,3.31,4.092,2.684,4C8.63,24.365,6.029,24,2.66,19.039-.424,17.883-1.321,7.706,2.66,4.15Z" transform="matrix(0.998, -0.07, 0.07, 0.998, 0, 1.565)"/>
          <path id="Path_99327" data-name="Path 99327" d="M3.381,3.089S4.592.493,1.913.058C1.814.043,1.719.03,1.459,0-.852-.093.274,1.544.274,1.544S1.487,4.332,2.665,4.393s1.808-1.3,1.808-1.3Z" transform="matrix(0.998, -0.07, 0.07, 0.998, 6.735, 14.44)" fill="#d57f54"/>
          <path id="Path_53982" data-name="Path 53982" d="M.491,5.992A4.5,4.5,0,0,0,4.344,8.157C6,8.126,7.037,6.106,7.982,6.12c.786.011,2.024,1.846,3.209,1.863a3,3,0,0,0,2.432-1.489c.362-.744,1.294-3.556-.392-5.246C12.749.637,10.06.036,8.037.007c-4.779-.068-6,.34-6.818,1.071A4.232,4.232,0,0,0,.491,5.992Z" transform="translate(7.722 10.988) rotate(-22)" fill="#00e1ff"/>
          <ellipse id="Ellipse_155" data-name="Ellipse 155" cx="0.665" cy="1.108" rx="0.665" ry="1.108" transform="translate(8.017 17.742) rotate(-36)" fill="#fff"/>
        </g>
      </g>
    </g>
  </g>
</svg>
