<svg xmlns="http://www.w3.org/2000/svg" xmlns:xlink="http://www.w3.org/1999/xlink" width="32.735" height="43.351" viewBox="0 0 32.735 43.351">
  <defs>
    <clipPath id="clip-path">
      <path id="Subtraction_1" data-name="Subtraction 1" d="M13.9,38.411A13.884,13.884,0,0,1,0,24.514V13.9A13.9,13.9,0,0,1,26.7,8.489,13.814,13.814,0,0,1,27.793,13.9V24.514a13.883,13.883,0,0,1-13.9,13.9Z" fill="#00e1ff" stroke="#646060" stroke-width="4"/>
    </clipPath>
  </defs>
  <g id="Group_20968" data-name="Group 20968" transform="translate(0)">
    <g id="sun" transform="translate(0)" fill="none" opacity="0.999">
      <path d="M16.367,0A16.367,16.367,0,0,1,32.735,16.367V26.984A16.367,16.367,0,0,1,0,26.984V16.367A16.367,16.367,0,0,1,16.367,0Z" stroke="none"/>
      <path d="M 16.36732292175293 2.499992370605469 C 12.66323280334473 2.499992370605469 9.180843353271484 3.94244384765625 6.561653137207031 6.5616455078125 C 3.942453384399414 9.180835723876953 2.500003814697266 12.66322326660156 2.500003814697266 16.36732482910156 L 2.500003814697266 26.98396301269531 C 2.500003814697266 30.68806457519531 3.942453384399414 34.17045593261719 6.561643600463867 36.78964233398438 C 9.18083381652832 39.40883255004883 12.66322326660156 40.85128402709961 16.36732292175293 40.85128402709961 C 20.0714225769043 40.85128402709961 23.55381393432617 39.40883255004883 26.17300224304199 36.78964233398438 C 28.79219245910645 34.17045593261719 30.23464202880859 30.68806457519531 30.23464202880859 26.98396301269531 L 30.23464202880859 16.36732482910156 C 30.23464202880859 12.66322326660156 28.79219245910645 9.180835723876953 26.17300224304199 6.5616455078125 C 23.55381393432617 3.94244384765625 20.0714225769043 2.499992370605469 16.36732292175293 2.499992370605469 M 16.36732292175293 -7.62939453125e-06 C 25.40675354003906 -7.62939453125e-06 32.73464202880859 7.327903747558594 32.73464202880859 16.36732482910156 L 32.73464202880859 26.98396301269531 C 32.73464202880859 36.02339553833008 25.40675354003906 43.35128402709961 16.36732292175293 43.35128402709961 C 7.327903747558594 43.35128402709961 3.814697265625e-06 36.02339553833008 3.814697265625e-06 26.98396301269531 L 3.814697265625e-06 16.36732482910156 C 3.814697265625e-06 7.327903747558594 7.327903747558594 -7.62939453125e-06 16.36732292175293 -7.62939453125e-06 Z" stroke="none" fill="#c6c6c6"/>
    </g>
    <g id="sun-2" data-name="sun" transform="translate(0)" fill="none" opacity="0.996">
      <path d="M16.367,0A16.367,16.367,0,0,1,32.735,16.367V26.984A16.367,16.367,0,0,1,0,26.984V16.367A16.367,16.367,0,0,1,16.367,0Z" stroke="none"/>
      <path d="M 16.36732292175293 1.499992370605469 C 12.39612197875977 1.499992370605469 8.662612915039062 3.046463012695312 5.854543685913086 5.854534149169922 C 3.046472549438477 8.662605285644531 1.500003814697266 12.39611434936523 1.500003814697266 16.36732482910156 L 1.500003814697266 26.98396301269531 C 1.500003814697266 30.95517349243164 3.046472549438477 34.68868255615234 5.854543685913086 37.49675369262695 C 8.662603378295898 40.30481338500977 12.3961124420166 41.85128402709961 16.36732292175293 41.85128402709961 C 20.33853149414062 41.85128402709961 24.07204246520996 40.30481338500977 26.88011360168457 37.49675369262695 C 29.68817329406738 34.68868255615234 31.23464202880859 30.95517349243164 31.23464202880859 26.98396301269531 L 31.23464202880859 16.36732482910156 C 31.23464202880859 12.39611434936523 29.68817329406738 8.662605285644531 26.88011360168457 5.854534149169922 C 24.07204246520996 3.046463012695312 20.33853149414062 1.499992370605469 16.36732292175293 1.499992370605469 M 16.36732292175293 -7.62939453125e-06 C 25.40675354003906 -7.62939453125e-06 32.73464202880859 7.327903747558594 32.73464202880859 16.36732482910156 L 32.73464202880859 26.98396301269531 C 32.73464202880859 36.02339553833008 25.40675354003906 43.35128402709961 16.36732292175293 43.35128402709961 C 7.327903747558594 43.35128402709961 3.814697265625e-06 36.02339553833008 3.814697265625e-06 26.98396301269531 L 3.814697265625e-06 16.36732482910156 C 3.814697265625e-06 7.327903747558594 7.327903747558594 -7.62939453125e-06 16.36732292175293 -7.62939453125e-06 Z" stroke="none" fill="#fff"/>
    </g>
    <g id="Group_20967" data-name="Group 20967" transform="translate(2.471 2.47)">
      <g id="Mask_Group_6" data-name="Mask Group 6" transform="translate(0 0)" clip-path="url(#clip-path)">
        <path id="Path_99338" data-name="Path 99338" d="M9946.073,3884.37h50.9l-13.956-22.356-30.463-1.055Z" transform="translate(-9954.059 -3878.467)" fill="#fff"/>
        <path id="Path_99339" data-name="Path 99339" d="M.3.491A5.562,5.562,0,0,1-2.5-.191.309.309,0,0,1-2.191-.5H2.75a.309.309,0,0,1,.309.309A5.325,5.325,0,0,1,.3.491Z" transform="translate(13.617 3.4)" fill="#b1aeae"/>
      </g>
    </g>
  </g>
</svg>
