<svg xmlns="http://www.w3.org/2000/svg" xmlns:xlink="http://www.w3.org/1999/xlink" width="1018" height="90" viewBox="0 0 1018 90">
  <defs>
    <clipPath id="clip-_728x90_WiFi_DEV_ASSET_3">
      <rect width="1018" height="90"/>
    </clipPath>
  </defs>
  <g id="_728x90_WiFi_DEV_ASSET_3" data-name="728x90_WiFi_DEV ASSET – 3" clip-path="url(#clip-_728x90_WiFi_DEV_ASSET_3)">
    <g id="_1" data-name="1" transform="translate(67 30)">
      <path id="Path_47978" data-name="Path 47978" d="M650.585,619.976h5.153s-.16-.694-1.362-.587a1.456,1.456,0,0,0-1.976-.011s-.614-.2-.8.3c0,0-.774-.08-1.014.294" transform="translate(-650.585 -607.668)" fill="#fff"/>
      <path id="Path_47979" data-name="Path 47979" d="M727.188,608.077h9.878a1.258,1.258,0,0,0-1.228-1s-.908-1.906-2.777-.384c0,0-2.243-.908-3.2.694,0,0-1.816-.454-2.67.694" transform="translate(-721.394 -595.769)" fill="#fff"/>
      <path id="Path_47980" data-name="Path 47980" d="M866.274,481.818h46.562a7.785,7.785,0,0,0-7.609-5.259,5.992,5.992,0,0,0-5.927-4.646c-4.966,0-6.808,2.163-6.808,2.163s-.961-4.565-4.886-4.565a5.472,5.472,0,0,0-5.126,3.524s-6.488-2.563-7.689,4.645c0,0-3.124,0-3.6,2.161,0,0-3.5-3.175-4.912,1.978" transform="translate(-849.961 -469.51)" fill="#fff"/>
    </g>
    <g id="_1-2" data-name="1" transform="translate(365.524 19.438)">
      <path id="Path_47978-2" data-name="Path 47978" d="M655.738,619.976h-5.153s.16-.694,1.362-.587a1.456,1.456,0,0,1,1.976-.011s.614-.2.8.3c0,0,.774-.08,1.014.294" transform="translate(-601.91 -609.218)" fill="#fff"/>
      <path id="Path_47979-2" data-name="Path 47979" d="M737.066,608.077h-9.878a1.258,1.258,0,0,1,1.228-1s.908-1.906,2.777-.384c0,0,2.243-.908,3.2.694,0,0,1.816-.454,2.67.694" transform="translate(-689.032 -597.318)" fill="#fff"/>
      <path id="Path_47980-2" data-name="Path 47980" d="M903.788,480.268H866.274s1.355-4.737,6.13-4.6c0,0,.774-4.061,4.775-4.061s5.485,1.89,5.485,1.89.774-3.991,3.936-3.991a4.5,4.5,0,0,1,4.13,3.081s5.227-2.24,6.2,4.061c0,0,2.517,0,2.9,1.889,0,0,2.818-2.775,3.958,1.729" transform="translate(-866.274 -469.51)" fill="#fff"/>
    </g>
    <g id="_5" data-name="5" transform="translate(269.876 40.438)">
      <path id="Path_47971" data-name="Path 47971" d="M1370.03,228.7h-51.066s4.758-5.392,9.621-3.383c0,0,2.537-13.956,12.264-8.035,0,0,7.084-2.732,9.093,4.978,0,0,4.229-2.757,6.449,2.318,0,0,4.018-1.48,5.815,2.326a15.365,15.365,0,0,1,7.824,1.8" transform="translate(-1318.964 -215.816)" fill="#fff"/>
    </g>
    <g id="_2" data-name="2" transform="translate(455.501 23.695)">
      <path id="Path_47977" data-name="Path 47977" d="M753.158,12.142H800.07a7.85,7.85,0,0,0-4.829-2.815,9.377,9.377,0,0,0-9.8-4.575A10.248,10.248,0,0,0,776.614,0a6.862,6.862,0,0,0-6.485,4.829,8.438,8.438,0,0,0-5.795,3.45,12.661,12.661,0,0,0-11.176,3.863" transform="translate(-753.158 0)" fill="#fff"/>
    </g>
    <g id="_2-2" data-name="2" transform="translate(729.501 30)">
      <path id="Path_47977-2" data-name="Path 47977" d="M753.158,12.142H800.07a7.85,7.85,0,0,0-4.829-2.815,9.377,9.377,0,0,0-9.8-4.575A10.248,10.248,0,0,0,776.614,0a6.862,6.862,0,0,0-6.485,4.829,8.438,8.438,0,0,0-5.795,3.45,12.661,12.661,0,0,0-11.176,3.863" transform="translate(-753.158 0)" fill="#fff"/>
    </g>
    <g id="_2-3" data-name="2" transform="translate(945.498 44.438)">
      <path id="Path_47977-3" data-name="Path 47977" d="M753.158,12.142H800.07a7.85,7.85,0,0,0-4.829-2.815,9.377,9.377,0,0,0-9.8-4.575A10.248,10.248,0,0,0,776.614,0a6.862,6.862,0,0,0-6.485,4.829,8.438,8.438,0,0,0-5.795,3.45,12.661,12.661,0,0,0-11.176,3.863" transform="translate(-753.158 0)" fill="#fff"/>
    </g>
    <g id="_2-4" data-name="2" transform="translate(573.299 18.952)">
      <path id="Path_47977-4" data-name="Path 47977" d="M753.158,9.486h36.651a6.133,6.133,0,0,0-3.773-2.2,7.326,7.326,0,0,0-7.653-3.574A8.006,8.006,0,0,0,771.484,0a5.361,5.361,0,0,0-5.066,3.773,6.592,6.592,0,0,0-4.527,2.7,9.892,9.892,0,0,0-8.732,3.018" transform="translate(-753.158 0)" fill="#fff"/>
    </g>
  </g>
</svg>

