<svg xmlns="http://www.w3.org/2000/svg" xmlns:xlink="http://www.w3.org/1999/xlink" width="52.999" height="70.188" viewBox="0 0 52.999 70.188">
  <defs>
    <clipPath id="clip-path">
      <path id="Subtraction_1" data-name="Subtraction 1" d="M-9803.5-3604.812a22.359,22.359,0,0,1-8.758-1.766,22.418,22.418,0,0,1-7.152-4.823,22.4,22.4,0,0,1-4.822-7.154,22.362,22.362,0,0,1-1.767-8.755v-17.19a22.362,22.362,0,0,1,1.767-8.755,22.428,22.428,0,0,1,4.822-7.154,22.418,22.418,0,0,1,7.152-4.823A22.359,22.359,0,0,1-9803.5-3667a22.353,22.353,0,0,1,8.756,1.766,22.457,22.457,0,0,1,7.154,4.823,22.456,22.456,0,0,1,4.822,7.154A22.362,22.362,0,0,1-9781-3644.5v17.19a22.362,22.362,0,0,1-1.767,8.755,22.428,22.428,0,0,1-4.822,7.154,22.457,22.457,0,0,1-7.154,4.823A22.353,22.353,0,0,1-9803.5-3604.812Z" transform="translate(9955 3883.305)" fill="#00e1ff" stroke="#646060" stroke-width="4"/>
    </clipPath>
  </defs>
  <g id="Group_20968" data-name="Group 20968" transform="translate(-125 -212.305)">
    <g id="sun" transform="translate(125 212.305)" fill="none" opacity="0.999">
      <path d="M26.5,0A26.5,26.5,0,0,1,53,26.5V43.688a26.5,26.5,0,0,1-53,0V26.5A26.5,26.5,0,0,1,26.5,0Z" stroke="none"/>
      <path d="M 26.49936294555664 4 C 23.46021270751953 4 20.51408767700195 4.594322204589844 17.74282455444336 5.766471862792969 C 15.06410217285156 6.89947509765625 12.65751266479492 8.522312164306641 10.58991241455078 10.58991241455078 C 8.522312164306641 12.65751266479492 6.89947509765625 15.0640983581543 5.766475677490234 17.74282455444336 C 4.594326019287109 20.51408767700195 4 23.46021270751953 4 26.49936294555664 L 4 43.68813705444336 C 4 46.72730255126953 4.594326019287109 49.67342376708984 5.766475677490234 52.44467544555664 C 6.89947509765625 55.1234130859375 8.522312164306641 57.52999877929688 10.58991241455078 59.59758758544922 C 12.65751266479492 61.66518783569336 15.06410217285156 63.28802490234375 17.74282455444336 64.42103576660156 C 20.51408767700195 65.59317779541016 23.46021270751953 66.1875 26.49936294555664 66.1875 C 29.53852462768555 66.1875 32.48464965820312 65.59317779541016 35.25590133666992 64.42103576660156 C 37.93463897705078 63.28802490234375 40.34122467041016 61.66518783569336 42.4088134765625 59.59758758544922 C 44.47641372680664 57.52999877929688 46.09925079345703 55.1234130859375 47.23226165771484 52.44467544555664 C 48.40439987182617 49.67342376708984 48.99872589111328 46.72730255126953 48.99872589111328 43.68813705444336 L 48.99872589111328 26.49936294555664 C 48.99872589111328 23.46021270751953 48.40439987182617 20.51408767700195 47.23226165771484 17.74282455444336 C 46.09925079345703 15.0640983581543 44.47641372680664 12.65751266479492 42.4088134765625 10.58991241455078 C 40.34122467041016 8.522312164306641 37.93463897705078 6.89947509765625 35.25590133666992 5.766471862792969 C 32.48464965820312 4.594322204589844 29.53852462768555 4 26.49936294555664 4 M 26.49936294555664 0 C 41.13456344604492 0 52.99872589111328 11.86417388916016 52.99872589111328 26.49936294555664 L 52.99872589111328 43.68813705444336 C 52.99872589111328 58.32333755493164 41.13456344604492 70.1875 26.49936294555664 70.1875 C 11.86417388916016 70.1875 0 58.32333755493164 0 43.68813705444336 L 0 26.49936294555664 C 0 11.86417388916016 11.86417388916016 0 26.49936294555664 0 Z" stroke="none" fill="#c6c6c6"/>
    </g>
    <g id="sun-2" data-name="sun" transform="translate(125 212.305)" fill="none" opacity="0.996">
      <path d="M26.5,0A26.5,26.5,0,0,1,53,26.5V43.688a26.5,26.5,0,0,1-53,0V26.5A26.5,26.5,0,0,1,26.5,0Z" stroke="none"/>
      <path d="M 26.49936294555664 3 C 23.32564544677734 3 20.24845886230469 3.620903015136719 17.35326766967773 4.845466613769531 C 14.55533981323242 6.028892517089844 12.04191589355469 7.723690032958984 9.882808685302734 9.882808685302734 C 7.72369384765625 12.04191589355469 6.028892517089844 14.55533981323242 4.845470428466797 17.35326766967773 C 3.620903015136719 20.24845504760742 3 23.32564544677734 3 26.49936294555664 L 3 43.68814086914062 C 3 46.86185455322266 3.620903015136719 49.93904495239258 4.845470428466797 52.83423233032227 C 6.028892517089844 55.63216400146484 7.72369384765625 58.14558410644531 9.882808685302734 60.30470275878906 C 12.04191589355469 62.46380996704102 14.55533981323242 64.15860748291016 17.35326766967773 65.342041015625 C 20.24845886230469 66.56659698486328 23.32564544677734 67.1875 26.49936294555664 67.1875 C 29.67308044433594 67.1875 32.75026702880859 66.56659698486328 35.64545440673828 65.342041015625 C 38.44338607788086 64.15860748291016 40.95682144165039 62.46380996704102 43.11592864990234 60.30470275878906 C 45.27503204345703 58.14559936523438 46.96983337402344 55.63216400146484 48.15326690673828 52.83423233032227 C 49.37782287597656 49.93904495239258 49.99872589111328 46.86185455322266 49.99872589111328 43.68814086914062 L 49.99872589111328 26.49936294555664 C 49.99872589111328 23.32564544677734 49.37782287597656 20.24845504760742 48.15326690673828 17.35326766967773 C 46.96983337402344 14.55533981323242 45.27503204345703 12.04191589355469 43.11592864990234 9.882808685302734 C 40.95680999755859 7.723690032958984 38.44338607788086 6.028892517089844 35.64545440673828 4.845466613769531 C 32.75026702880859 3.620903015136719 29.67308044433594 3 26.49936294555664 3 M 26.49936294555664 0 C 41.13456344604492 0 52.99872589111328 11.86417388916016 52.99872589111328 26.49936294555664 L 52.99872589111328 43.68814086914062 C 52.99872589111328 58.32333755493164 41.13456344604492 70.1875 26.49936294555664 70.1875 C 11.86417388916016 70.1875 0 58.32333755493164 0 43.68814086914062 L 0 26.49936294555664 C 0 11.86417388916016 11.86417388916016 0 26.49936294555664 0 Z" stroke="none" fill="#fff"/>
    </g>
    <g id="Group_20967" data-name="Group 20967">
      <g id="Mask_Group_6" data-name="Mask Group 6" clip-path="url(#clip-path)">
        <path id="Path_99338" data-name="Path 99338" d="M9946.073,3898.862h82.407l-22.593-36.2-49.32-1.707Z" transform="translate(-9830 -3673)" fill="#fff"/>
        <path id="Path_99339" data-name="Path 99339" d="M2.038,1.1C.017,1.1-2.5.276-2.5,0A.5.5,0,0,1-2-.5H6a.5.5,0,0,1,.5.5C6.5.276,4.059,1.1,2.038,1.1Z" transform="translate(149.5 221.5)" fill="#b1aeae"/>
      </g>
    </g>
  </g>
</svg>
