<svg id="EX_MARK" data-name="EX MARK" xmlns="http://www.w3.org/2000/svg" width="24.482" height="55.479" viewBox="0 0 24.482 55.479">
  <g id="EX_MARK-2" data-name="EX MARK" transform="matrix(0.998, 0.07, -0.07, 0.998, 3.778, 0)">
    <g id="cuff" transform="translate(0 0)">
      <path id="cuff-2" data-name="cuff" d="M8.681,40.316a8.2,8.2,0,0,1-1.923.17,5.667,5.667,0,0,1-4.437-1.923C1.021,38.5,0,37.893,0,37.153c0-.639.762-1.179,1.808-1.355a4.533,4.533,0,0,1,2.6-2.42C2.3,31.859,2.5,30.364,3.434,29.169a8.763,8.763,0,0,1-.893-4.052c.393-3.322,1.888-3.95,1.888-3.95-2.08-2.353-1.482-4.84.141-6.744a3.32,3.32,0,0,1-.6-1.86,3.571,3.571,0,0,1,.356-1.513,8.807,8.807,0,0,1-.215-1.945c0-1.924,1.472-3.617,2.976-4.672a2.886,2.886,0,0,1-.381-1.3,1.236,1.236,0,0,1-.759-1.008C5.949,1.5,6.694.962,7.723.78A3.182,3.182,0,0,1,9.823,0a3.058,3.058,0,0,1,3.119,2.993q0,.1-.006.192a3.05,3.05,0,0,1,1.081,2.352,3.117,3.117,0,0,1-.3,1.334,4.181,4.181,0,0,1,2.394,6.645c.136.464.281.984.437,1.564a14.162,14.162,0,0,1,.5,4.468,17.191,17.191,0,0,1,1.5,2.986,5.651,5.651,0,0,1-.143,4.28q.056.032.106.067a5.251,5.251,0,0,1,2.238,4.266,5.111,5.111,0,0,1-.9,2.892,4.444,4.444,0,0,1,.367,1.776,4.152,4.152,0,0,1-4.034,4.26,3.842,3.842,0,0,1-1.713-.4,3.262,3.262,0,0,1-3.293,1.891A3.166,3.166,0,0,1,8.681,40.316Z" transform="translate(20.754 41.564) rotate(180)" fill="#fff"/>
    </g>
    <g id="cufflink" transform="translate(10.97 40.811) rotate(45)">
      <path id="Union_2" data-name="Union 2" d="M2.411,7.008H2.333A2.536,2.536,0,0,1,0,4.314,2.529,2.529,0,0,1,2.33,1.622a1.963,1.963,0,0,1,.6.092.856.856,0,0,0,.154.7A2.532,2.532,0,0,1,5.3,0c1.248,0,2.26,1.34,2.261,2.991,0,.016,0,.032,0,.048a1.086,1.086,0,0,1,.773-.383A1.555,1.555,0,0,1,9.75,4.32a1.67,1.67,0,0,1-.928,1.562A1.663,1.663,0,0,1,7.34,7.42a1.222,1.222,0,0,1-.552-.134C6.419,8.521,5.668,9.134,4.736,9.134A2.529,2.529,0,0,1,2.411,7.008Z" transform="translate(9.75 9.134) rotate(180)" fill="#fff"/>
    </g>
  </g>
</svg>
