<svg id="heart_2" data-name="heart 2" xmlns="http://www.w3.org/2000/svg" width="38.777" height="34.388" viewBox="0 0 38.777 34.388">
  <g id="Heart" transform="translate(0 0)">
    <path id="Union_4" data-name="Union 4" d="M15.847,31.664c-1.047.054-1.166-.452-1.845-1.32a3.852,3.852,0,0,1-1.372-.878c-4.031-.774-5.012-3.234-5.1-5.2-2.594-.332-4.57-2.047-4.57-4.113a2.743,2.743,0,0,1,.018-.3C1.311,18.692,0,16.713,0,15.185A4.713,4.713,0,0,1,.651,12.54,5.631,5.631,0,0,1,0,9.878,5.223,5.223,0,0,1,1.9,5.724,4.1,4.1,0,0,1,5.858,3.2h.081C6.662,1.243,7.507,1.069,9.314.474c2.368-.781,5.694,1.157,6.2,3.044a3.067,3.067,0,0,1,.076.373,3.8,3.8,0,0,1,1.15,1.116,5.735,5.735,0,0,1,1.945-.329,5.972,5.972,0,0,1,1.211.122,4.1,4.1,0,0,1,3.969-2.551,4.729,4.729,0,0,1,1.559.26A4.329,4.329,0,0,1,29.043.034c3.161-.261,4.422,1.044,4.948,2.533,1.454.03,4.4.557,3.3,4.462a2.949,2.949,0,0,1,1.018,1.7c2.087,4.012-3.448,7.853-3.208,8.19a3.072,3.072,0,0,1,0,3.446,5,5,0,0,1-2.575,1.649A4.792,4.792,0,0,1,31.7,24a5.9,5.9,0,0,1-3.583,2.331A3.392,3.392,0,0,1,25.373,29.2,7.121,7.121,0,0,1,22.795,31a4.064,4.064,0,0,1-1.463.365c-.08,1.3-1.311,2.988-2.426,3.02h-.031C17.839,34.388,16.186,32.907,15.847,31.664Z" fill="#fff"/>
  </g>
</svg>
