<svg xmlns="http://www.w3.org/2000/svg" xmlns:xlink="http://www.w3.org/1999/xlink" width="300" height="250" viewBox="0 0 300 250">
  <defs>
    <clipPath id="clip-path">
      <rect id="crop_area" data-name="crop area" width="300" height="176" fill="#00a"/>
    </clipPath>
    <clipPath id="clip-JetBlue_Retail_Refresh_Your_Getaway_300x250_Frame04_1">
      <rect width="300" height="250"/>
    </clipPath>
  </defs>
  <g id="JetBlue_Retail_Refresh_Your_Getaway_300x250_Frame04_1" data-name="JetBlue_Retail_Refresh_Your_Getaway_300x250_Frame04 – 1" clip-path="url(#clip-JetBlue_Retail_Refresh_Your_Getaway_300x250_Frame04_1)">
    <g id="illustration" clip-path="url(#clip-path)">
      <g id="Group_20968" data-name="Group 20968" transform="translate(155.483 68.961)">
        <g id="sun" fill="#00e1ff" opacity="0.999">
          <path d="M 14.51892471313477 37.20552444458008 C 10.97466468811035 37.20552444458008 7.642544746398926 35.82531356811523 5.1363844871521 33.31915283203125 C 2.630214691162109 30.81298446655273 1.250004768371582 27.48086357116699 1.250004768371582 23.93660354614258 L 1.250004768371582 14.51892375946045 C 1.250004768371582 10.97466373443604 2.630214691162109 7.642544269561768 5.1363844871521 5.136384010314941 C 7.642544746398926 2.630214214324951 10.97466468811035 1.250004172325134 14.51892471313477 1.250004172325134 C 18.06318473815918 1.250004172325134 21.39530563354492 2.630214214324951 23.90147399902344 5.136384010314941 C 26.40764427185059 7.642544269561768 27.78785514831543 10.97466373443604 27.78785514831543 14.51892375946045 L 27.78785514831543 23.93660354614258 C 27.78785514831543 27.48086357116699 26.40764427185059 30.81298446655273 23.90147399902344 33.31915283203125 C 21.39530563354492 35.82531356811523 18.06318473815918 37.20552444458008 14.51892471313477 37.20552444458008 Z" stroke="none"/>
          <path d="M 14.51892471313477 2.500003814697266 C 11.30855560302734 2.500003814697266 8.290334701538086 3.750194549560547 6.020254135131836 6.020263671875 C 3.750185012817383 8.290334701538086 2.499994277954102 11.30855369567871 2.499994277954102 14.51892471313477 L 2.499994277954102 23.93660354614258 C 2.499994277954102 27.14697456359863 3.750185012817383 30.16519546508789 6.020254135131836 32.43526458740234 C 8.290334701538086 34.70534515380859 11.30855560302734 35.95552444458008 14.51892471313477 35.95552444458008 C 17.72929382324219 35.95552444458008 20.74751472473145 34.70534515380859 23.01758575439453 32.43526458740234 C 25.28765487670898 30.16519546508789 26.53784561157227 27.14697456359863 26.53784561157227 23.93660354614258 L 26.53784561157227 14.51892471313477 C 26.53784561157227 11.30855369567871 25.28765487670898 8.290334701538086 23.01758575439453 6.020263671875 C 20.74751472473145 3.750194549560547 17.72929382324219 2.500003814697266 14.51892471313477 2.500003814697266 M 14.51892471313477 3.814697265625e-06 C 22.53750419616699 3.814697265625e-06 29.03784561157227 6.500343322753906 29.03784561157227 14.51892471313477 L 29.03784561157227 23.93660354614258 C 29.03784561157227 31.9551944732666 22.53750419616699 38.45552444458008 14.51892471313477 38.45552444458008 C 6.500345230102539 38.45552444458008 -5.7220458984375e-06 31.9551944732666 -5.7220458984375e-06 23.93660354614258 L -5.7220458984375e-06 14.51892471313477 C -5.7220458984375e-06 6.500343322753906 6.500345230102539 3.814697265625e-06 14.51892471313477 3.814697265625e-06 Z" stroke="none" fill="#c6c6c6"/>
        </g>
      </g>
    </g>
  </g>
</svg>
