<svg xmlns="http://www.w3.org/2000/svg" xmlns:xlink="http://www.w3.org/1999/xlink" width="728" height="90" viewBox="0 0 728 90">
  <defs>
    <clipPath id="clip-path">
      <rect id="crop_area" data-name="crop area" width="504" height="90" fill="#00a"/>
    </clipPath>
    <clipPath id="clip-JetBlue_Retail_Refresh_Live_TV_728x90_Frame04_v02_1">
      <rect width="728" height="90"/>
    </clipPath>
  </defs>
  <g id="JetBlue_Retail_Refresh_Live_TV_728x90_Frame04_v02_1" data-name="JetBlue_Retail_Refresh_Live_TV_728x90_Frame04_v02 – 1" clip-path="url(#clip-JetBlue_Retail_Refresh_Live_TV_728x90_Frame04_v02_1)">
    <g id="illustration" clip-path="url(#clip-path)">
      <g id="plane_seatback" data-name="plane seatback" transform="translate(298.039 4.067)">
        <g id="play_icon" data-name="play icon" transform="translate(58.264 31.498)">
          <path id="Path_48110" data-name="Path 48110" d="M116.2,49.764c-.059-.062-.12-.121-.181-.181a7.77,7.77,0,0,0-5.442-2.2h0v1.55a6.2,6.2,0,0,1,4.359,1.76,5.836,5.836,0,0,1,.155,8.252c-.05.052-.1.1-.154.154a6.279,6.279,0,0,1-8.719,0,5.836,5.836,0,0,1-.153-8.253c.05-.052.1-.1.153-.153a6.2,6.2,0,0,1,4.358-1.76v-1.55a7.772,7.772,0,0,0-5.441,2.2,7.386,7.386,0,0,0-.179,10.445c.059.061.118.12.179.179a7.831,7.831,0,0,0,10.885,0,7.386,7.386,0,0,0,.18-10.444" transform="translate(-102.882 -47.382)" fill="#fc3388"/>
          <circle id="Ellipse_1" data-name="Ellipse 1" cx="6.743" cy="6.743" r="6.743" transform="translate(0.854 0.786)" fill="#fc3388"/>
          <path id="Path_48111" data-name="Path 48111" d="M112.7,61.256a.271.271,0,0,1-.144-.237V55.673a.272.272,0,0,1,.144-.237.3.3,0,0,1,.288,0l4.9,2.673a.268.268,0,0,1,0,.476l-4.9,2.673a.3.3,0,0,1-.288,0" transform="translate(-107.046 -50.833)" fill="#fff"/>
        </g>
      </g>
    </g>
  </g>
</svg>
