<svg xmlns="http://www.w3.org/2000/svg" xmlns:xlink="http://www.w3.org/1999/xlink" width="300" height="600" viewBox="0 0 300 600">
  <defs>
    <clipPath id="clip-path">
      <rect id="crop_area" data-name="crop area" width="300" height="458" fill="#00a"/>
    </clipPath>
    <clipPath id="clip-JetBlue_Retail_Refresh_Live_TV_300x600_Frame04_v02_1">
      <rect width="300" height="600"/>
    </clipPath>
  </defs>
  <g id="JetBlue_Retail_Refresh_Live_TV_300x600_Frame04_v02_1" data-name="JetBlue_Retail_Refresh_Live_TV_300x600_Frame04_v02 – 1" clip-path="url(#clip-JetBlue_Retail_Refresh_Live_TV_300x600_Frame04_v02_1)">
    <g id="illustration" clip-path="url(#clip-path)">
      <g id="plane_seatback" data-name="plane seatback" transform="translate(8.151 186.276)">
        <path id="Path_48261" data-name="Path 48261" d="M142.188,344.055,33.841,344.3,23.906,209.232H142.188Z" transform="translate(5.375 47.041)" fill="#000064"/>
        <path id="Path_48262" data-name="Path 48262" d="M13.2,284.281c-3.6-.138-10.813,0-11.644-2.5s-3.05-15.249,0-26.062c.554-1.663,11.922-26.062,13.587-26.895s11,0,11,0l3.137,27.542,1.393,25.138s-3.051,3.325-17.47,2.773" transform="translate(0 51.364)" fill="#8e8e8e"/>
        <path id="Path_48263" data-name="Path 48263" d="M18.93,201.823H32.984s2.218,5.944.462,11.4c0,.216-3.989,10.508-3.989,10.508l8.328,121.994H30.852L18.93,223.45Z" transform="translate(4.256 45.375)" fill="#44447e"/>
        <path id="Path_48264" data-name="Path 48264" d="M2.406,274.085H28.74s1.657,54.778,0,55.637-23.562.8-24.949,0c-1.385-1.079-1.385-55.637-1.385-55.637" transform="translate(0.541 61.622)" fill="#8e8e8e"/>
        <path id="Path_48265" data-name="Path 48265" d="M111.148,344.055,219.5,344.3l9.935-135.072H111.148Z" transform="translate(24.989 47.041)" fill="#000064"/>
        <path id="Path_48266" data-name="Path 48266" d="M224.05,284.281c3.6-.138,10.813,0,11.644-2.5s3.05-15.249,0-26.062c-.554-1.663-11.922-26.062-13.587-26.895s-11,0-11,0l-3.137,27.542-1.393,25.138s3.052,3.325,17.47,2.773" transform="translate(46.445 51.364)" fill="#8e8e8e"/>
        <path id="Path_48267" data-name="Path 48267" d="M216.155,201.823H202.1s-2.218,5.944-.462,11.4c0,.216,3.989,10.508,3.989,10.508L197.3,345.721h6.931L216.155,223.45Z" transform="translate(44.358 45.375)" fill="#44447e"/>
        <path id="Path_48268" data-name="Path 48268" d="M234.188,274.085H207.854s-1.658,54.778,0,55.637,23.561.8,24.947,0c1.386-1.079,1.386-55.637,1.386-55.637" transform="translate(46.565 61.622)" fill="#8e8e8e"/>
        <path id="Path_48269" data-name="Path 48269" d="M18.868,144.143c0,.278-2.67,0-2.4,3.623s13.349,66.021,13.349,66.021a5.552,5.552,0,0,0,3.739,1.951c2.136,0,.441-1.115,1.242,3.345S36.13,411.318,36.13,411.318H240.669S241.2,223.542,242,219.083s-.893-3.345,1.243-3.345a5.547,5.547,0,0,0,3.738-1.951s13.082-62.4,13.349-66.021-2.4-3.345-2.4-3.623" transform="translate(3.697 32.407)" fill="#000064"/>
        <path id="Path_48271" data-name="Path 48271" d="M274.516,124.061c-.57-16.189-4.052-51.388-9.375-69.04-5.241-17.38-3.156-41.65-34.6-45.3-31.043-3.6-72.7-3.381-90.115-3.376S81.356,6.122,50.313,9.723c-31.44,3.648-29.355,27.917-34.6,45.3-5.323,17.652-8.8,52.851-9.375,69.04-.469,13.344,6.237,36.374,8.781,44.58a4.284,4.284,0,0,0,4.161,2.975h2.2l-.168,3.2H19.885a2.033,2.033,0,0,0-2.009,2.418L29.25,227.169H251.608l11.374-49.936a2.034,2.034,0,0,0-2.009-2.418h-1.432l-.167-3.2h2.2a4.284,4.284,0,0,0,4.161-2.975c2.544-8.206,9.251-31.236,8.781-44.58" transform="translate(1.421 1.426)" fill="#000064"/>
      </g>
    </g>
  </g>
</svg>
