<svg id="basketball" xmlns="http://www.w3.org/2000/svg" width="41.348" height="41.349" viewBox="0 0 41.348 41.349">
  <path id="Path_48054" data-name="Path 48054" d="M87.877,147.563A20.674,20.674,0,1,1,67.2,126.888a20.675,20.675,0,0,1,20.675,20.675" transform="translate(-46.529 -126.888)" fill="#ee7c54"/>
  <path id="Path_48055" data-name="Path 48055" d="M87.877,147.563A20.674,20.674,0,1,1,67.2,126.888a20.675,20.675,0,0,1,20.675,20.675" transform="translate(-46.529 -126.888)" fill="#ff6433"/>
  <path id="Path_48056" data-name="Path 48056" d="M86.448,142.071A20.679,20.679,0,0,1,46.8,152.87a20.677,20.677,0,1,0,39.644-10.8" transform="translate(-46.569 -129.061)" fill="#cc4b29"/>
  <path id="Path_48057" data-name="Path 48057" d="M63.115,127.992q-.945.3-1.85.679A22.3,22.3,0,0,1,83,150.943a28.9,28.9,0,0,1-4.036,15.066q.7-.369,1.365-.789a29.74,29.74,0,0,0,3.468-14.276,23.108,23.108,0,0,0-20.677-22.951" transform="translate(-48.638 -127.046)" fill="#402f28"/>
  <path id="Path_48058" data-name="Path 48058" d="M52.708,162.8c4.223-13.452,17.629-24.668,32.148-25.887q-.269-.378-.554-.742a38.594,38.594,0,0,0-22.235,10.641,37.763,37.763,0,0,0-9.955,15.3c.194.233.392.463.6.686" transform="translate(-47.328 -128.217)" fill="#402f28"/>
  <path id="Path_48059" data-name="Path 48059" d="M88.363,144.808c-1.164-1.749-3.581-2.421-6.16-1.712a7.331,7.331,0,0,0-5.489,6.727,32.348,32.348,0,0,1-4.7,16,16.19,16.19,0,0,1-4.11,4.558q.585.067,1.178.1a18.635,18.635,0,0,0,3.6-4.228,33.146,33.146,0,0,0,4.821-16.393,6.46,6.46,0,0,1,4.906-6c2.206-.607,4.331-.05,5.285,1.386a28.292,28.292,0,0,1,3.083,7.117,20.785,20.785,0,0,0,.149-2.13,25.187,25.187,0,0,0-2.569-5.428" transform="translate(-49.589 -129.168)" fill="#402f28"/>
  <path id="Path_48060" data-name="Path 48060" d="M74.938,131.136a2.89,2.89,0,0,1-1.2,2.245,7.779,7.779,0,0,1-6.281,1.084,20.8,20.8,0,0,0-15.979,2.99,28.711,28.711,0,0,0-3.19,2.331q-.324.775-.586,1.581a28.311,28.311,0,0,1,4.2-3.236,20.013,20.013,0,0,1,15.375-2.889A8.61,8.61,0,0,0,74.238,134a3.619,3.619,0,0,0,1.5-2.869,7.963,7.963,0,0,0-.454-2.48q-.49-.2-.991-.381a8.047,8.047,0,0,1,.649,2.861" transform="translate(-46.698 -127.086)" fill="#402f28"/>
  <path id="Path_48061" data-name="Path 48061" d="M62.1,148.5a37.707,37.707,0,0,1,3.268-3.1c.572-.488,1.161-.954,1.759-1.409s1.212-.889,1.841-1.3a39.829,39.829,0,0,1,3.9-2.261A33.942,33.942,0,0,1,77,138.653c-.7.26-1.392.562-2.074.872s-1.356.642-2.021.988-1.321.709-1.971,1.083c-.321.193-.646.38-.962.581l-.478.3-.471.308c-.628.408-1.238.845-1.841,1.29-.3.229-.6.451-.891.686l-.44.349-.435.356q-.866.717-1.7,1.476c-.554.506-1.1,1.024-1.618,1.565" transform="translate(-48.757 -128.572)" fill="#f2ad7f"/>
  <path id="Path_48062" data-name="Path 48062" d="M54.718,137.127a18.686,18.686,0,0,1,4.274-1.746,17.03,17.03,0,0,1,2.27-.464,18.456,18.456,0,0,1,2.312-.147,26.5,26.5,0,0,1,4.6.465c.38.067.758.137,1.138.2l.285.045.285.038.286.026c.1.005.192.012.288.015a8.48,8.48,0,0,0,1.152-.041,8.292,8.292,0,0,0,1.138-.195,8.228,8.228,0,0,1-1.135.22,8.532,8.532,0,0,1-1.156.067c-.1,0-.193-.007-.29-.01l-.29-.023-.288-.034L69.3,135.5c-.381-.058-.761-.123-1.141-.185-.76-.123-1.521-.241-2.287-.319a22.242,22.242,0,0,0-2.3-.122,17.024,17.024,0,0,0-4.56.584,20.1,20.1,0,0,0-2.194.711c-.36.136-.715.286-1.066.444s-.7.327-1.035.514" transform="translate(-47.701 -128.016)" fill="#f2ad7f"/>
  <path id="Path_48063" data-name="Path 48063" d="M70.207,129.61c.4.131.781.29,1.164.452.189.085.38.171.568.26s.376.179.561.275a22.26,22.26,0,0,1,2.161,1.256l.26.172c.087.058.171.121.255.181l.509.363.494.383c.081.064.167.125.245.194l.238.2c.157.136.319.268.472.409l.456.428c.075.073.153.142.224.217l.216.226.428.454-.448-.434-.224-.217c-.075-.073-.155-.139-.232-.208l-.464-.416c-.156-.136-.32-.264-.48-.4-.318-.267-.655-.512-.983-.764l-.509-.359c-.086-.058-.17-.12-.256-.177l-.261-.17c-.343-.233-.7-.447-1.053-.664l-.541-.31-.546-.3c-.183-.1-.369-.191-.554-.287s-.374-.182-.56-.272c-.376-.177-.756-.346-1.143-.5" transform="translate(-49.918 -127.278)" fill="#f2ad7f"/>
</svg>
