<svg xmlns="http://www.w3.org/2000/svg" xmlns:xlink="http://www.w3.org/1999/xlink" width="753" height="90" viewBox="0 0 753 90">
  <defs>
    <clipPath id="clip-_728x90_WiFi_DEV_ASSET_4">
      <rect width="753" height="90"/>
    </clipPath>
  </defs>
  <g id="_728x90_WiFi_DEV_ASSET_4" data-name="728x90_WiFi_DEV ASSET – 4" clip-path="url(#clip-_728x90_WiFi_DEV_ASSET_4)">
    <g id="_7" data-name="7" transform="translate(130.456 21.462)">
      <path id="Path_47982" data-name="Path 47982" d="M324.713,103.281h24.055s-2.987-3.54-6.9-3.024c0,0-2.151-3.171-5.322-3.171a6.642,6.642,0,0,0-5.027,2.655s-6.514.074-6.809,3.54" transform="translate(-324.713 -97.086)" fill="#fff"/>
    </g>
    <g id="_7-2" data-name="7" transform="translate(253.222 44.747)">
      <path id="Path_47982-2" data-name="Path 47982" d="M324.713,103.281h24.055s-2.987-3.54-6.9-3.024c0,0-2.151-3.171-5.322-3.171a6.642,6.642,0,0,0-5.027,2.655s-6.514.074-6.809,3.54" transform="translate(-324.713 -97.086)" fill="#fff"/>
    </g>
    <g id="_2" data-name="2" transform="translate(184.374 31.246)">
      <path id="Path_47977" data-name="Path 47977" d="M753.158,6.154h23.777a3.979,3.979,0,0,0-2.448-1.427,4.753,4.753,0,0,0-4.965-2.319A5.194,5.194,0,0,0,765.046,0a3.478,3.478,0,0,0-3.287,2.448A4.277,4.277,0,0,0,758.823,4.2a6.417,6.417,0,0,0-5.664,1.958" transform="translate(-753.158 0)" fill="#fff"/>
    </g>
    <g id="_2-2" data-name="2" transform="translate(184.374 57.48)">
      <path id="Path_47977-2" data-name="Path 47977" d="M753.158,6.154h23.777a3.979,3.979,0,0,0-2.448-1.427,4.753,4.753,0,0,0-4.965-2.319A5.194,5.194,0,0,0,765.046,0a3.478,3.478,0,0,0-3.287,2.448A4.277,4.277,0,0,0,758.823,4.2a6.417,6.417,0,0,0-5.664,1.958" transform="translate(-753.158 0)" fill="#fff"/>
    </g>
    <g id="_2-3" data-name="2" transform="translate(21.113 24.504)">
      <path id="Path_47977-3" data-name="Path 47977" d="M753.158,6.154h23.777a3.979,3.979,0,0,0-2.448-1.427,4.753,4.753,0,0,0-4.965-2.319A5.194,5.194,0,0,0,765.046,0a3.478,3.478,0,0,0-3.287,2.448A4.277,4.277,0,0,0,758.823,4.2a6.417,6.417,0,0,0-5.664,1.958" transform="translate(-753.158 0)" fill="#fff"/>
    </g>
    <g id="_2-4" data-name="2" transform="translate(21.113 44.788)">
      <path id="Path_47977-4" data-name="Path 47977" d="M753.158,6.154h23.777a3.979,3.979,0,0,0-2.448-1.427,4.753,4.753,0,0,0-4.965-2.319A5.194,5.194,0,0,0,765.046,0a3.478,3.478,0,0,0-3.287,2.448A4.277,4.277,0,0,0,758.823,4.2a6.417,6.417,0,0,0-5.664,1.958" transform="translate(-753.158 0)" fill="#fff"/>
    </g>
    <g id="_2-5" data-name="2" transform="translate(9.225 12.841)">
      <path id="Path_47977-5" data-name="Path 47977" d="M753.158,6.154h23.777a3.979,3.979,0,0,0-2.448-1.427,4.753,4.753,0,0,0-4.965-2.319A5.194,5.194,0,0,0,765.046,0a3.478,3.478,0,0,0-3.287,2.448A4.277,4.277,0,0,0,758.823,4.2a6.417,6.417,0,0,0-5.664,1.958" transform="translate(-753.158 0)" fill="#fff"/>
    </g>
    <g id="_2-6" data-name="2" transform="translate(94.99 51.326)">
      <path id="Path_47977-6" data-name="Path 47977" d="M753.158,6.154h23.777a3.979,3.979,0,0,0-2.448-1.427,4.753,4.753,0,0,0-4.965-2.319A5.194,5.194,0,0,0,765.046,0a3.478,3.478,0,0,0-3.287,2.448A4.277,4.277,0,0,0,758.823,4.2a6.417,6.417,0,0,0-5.664,1.958" transform="translate(-753.158)" fill="#fff"/>
    </g>
    <g id="_5" data-name="5" transform="translate(346.481 20.949)">
      <path id="Path_47971" data-name="Path 47971" d="M1318.964,222.927h28.189s-2.626-2.976-5.311-1.868c0,0-1.4-7.7-6.77-4.436a3.656,3.656,0,0,0-5.019,2.748,2.329,2.329,0,0,0-3.56,1.279,2.552,2.552,0,0,0-3.21,1.284,8.482,8.482,0,0,0-4.319.992" transform="translate(-1318.964 -215.816)" fill="#fff"/>
    </g>
    <g id="_5-2" data-name="5" transform="translate(380.068 57.48)">
      <path id="Path_47971-2" data-name="Path 47971" d="M1318.964,222.927h28.189s-2.626-2.976-5.311-1.868c0,0-1.4-7.7-6.77-4.436a3.656,3.656,0,0,0-5.019,2.748,2.329,2.329,0,0,0-3.56,1.279,2.552,2.552,0,0,0-3.21,1.284,8.482,8.482,0,0,0-4.319.992" transform="translate(-1318.964 -215.816)" fill="#fff"/>
    </g>
    <g id="_2-7" data-name="2" transform="translate(452.138 22.965)">
      <path id="Path_47977-7" data-name="Path 47977" d="M753.158,6.154h23.777a3.979,3.979,0,0,0-2.448-1.427,4.753,4.753,0,0,0-4.965-2.319A5.194,5.194,0,0,0,765.046,0a3.478,3.478,0,0,0-3.287,2.448A4.277,4.277,0,0,0,758.823,4.2a6.417,6.417,0,0,0-5.664,1.958" transform="translate(-753.158 0)" fill="#fff"/>
    </g>
    <g id="_2-8" data-name="2" transform="translate(517.903 48.033)">
      <path id="Path_47977-8" data-name="Path 47977" d="M753.158,6.154h23.777a3.979,3.979,0,0,0-2.448-1.427,4.753,4.753,0,0,0-4.965-2.319A5.194,5.194,0,0,0,765.046,0a3.478,3.478,0,0,0-3.287,2.448A4.277,4.277,0,0,0,758.823,4.2a6.417,6.417,0,0,0-5.664,1.958" transform="translate(-753.158 0)" fill="#fff"/>
    </g>
    <g id="_6" data-name="6" transform="translate(596.916 12.625)">
      <path id="Path_47981" data-name="Path 47981" d="M522.872,222.373H554.04s-1.49-4.125-7.334-2.75c0,0-1.26-5.157-5.386-5.157a6.175,6.175,0,0,0-5.615,3.094s-5.386-.917-7.792,2.979c0,0-3.781.229-5.042,1.833" transform="translate(-522.872 -214.466)" fill="#fff"/>
    </g>
    <g id="_6-2" data-name="6" transform="translate(682.682 51.11)">
      <path id="Path_47981-2" data-name="Path 47981" d="M522.872,222.373H554.04s-1.49-4.125-7.334-2.75c0,0-1.26-5.157-5.386-5.157a6.175,6.175,0,0,0-5.615,3.094s-5.386-.917-7.792,2.979c0,0-3.781.229-5.042,1.833" transform="translate(-522.872 -214.466)" fill="#fff"/>
    </g>
    <g id="_7-3" data-name="7" transform="translate(625.084 8.349)">
      <path id="Path_47982-3" data-name="Path 47982" d="M324.713,101.5h17.15s-2.13-2.524-4.917-2.156c0,0-1.534-2.261-3.795-2.261a4.735,4.735,0,0,0-3.584,1.893s-4.644.053-4.855,2.524" transform="translate(-324.713 -97.086)" fill="#fff"/>
    </g>
    <g id="_7-4" data-name="7" transform="translate(710.85 46.834)">
      <path id="Path_47982-4" data-name="Path 47982" d="M324.713,101.5h17.15s-2.13-2.524-4.917-2.156c0,0-1.534-2.261-3.795-2.261a4.735,4.735,0,0,0-3.584,1.893s-4.644.053-4.855,2.524" transform="translate(-324.713 -97.086)" fill="#fff"/>
    </g>
    <g id="_7-5" data-name="7" transform="translate(154 20.332)">
      <path id="Path_47982-5" data-name="Path 47982" d="M324.713,101.5h17.15s-2.13-2.524-4.917-2.156c0,0-1.534-2.261-3.795-2.261a4.735,4.735,0,0,0-3.584,1.893s-4.644.053-4.855,2.524" transform="translate(-324.713 -97.086)" fill="#fff"/>
    </g>
    <g id="_7-6" data-name="7" transform="translate(276.766 43.616)">
      <path id="Path_47982-6" data-name="Path 47982" d="M324.713,101.5h17.15s-2.13-2.524-4.917-2.156c0,0-1.534-2.261-3.795-2.261a4.735,4.735,0,0,0-3.584,1.893s-4.644.053-4.855,2.524" transform="translate(-324.713 -97.086)" fill="#fff"/>
    </g>
    <g id="_2-9" data-name="2" transform="translate(555.276 32.161)">
      <path id="Path_47977-9" data-name="Path 47977" d="M753.158,4.033h15.583a2.608,2.608,0,0,0-1.6-.935,3.115,3.115,0,0,0-3.254-1.52A3.4,3.4,0,0,0,760.95,0,2.279,2.279,0,0,0,758.8,1.6a2.8,2.8,0,0,0-1.925,1.146,4.206,4.206,0,0,0-3.713,1.283" transform="translate(-753.158 0)" fill="#fff"/>
    </g>
    <g id="_2-10" data-name="2" transform="translate(570.859 45)">
      <path id="Path_47977-10" data-name="Path 47977" d="M753.158,4.033h15.583a2.608,2.608,0,0,0-1.6-.935,3.115,3.115,0,0,0-3.254-1.52A3.4,3.4,0,0,0,760.95,0,2.279,2.279,0,0,0,758.8,1.6a2.8,2.8,0,0,0-1.925,1.146,4.206,4.206,0,0,0-3.713,1.283" transform="translate(-753.158 0)" fill="#fff"/>
    </g>
    <g id="_2-11" data-name="2" transform="translate(372.276 20.949)">
      <path id="Path_47977-11" data-name="Path 47977" d="M753.158,4.033h15.583a2.608,2.608,0,0,0-1.6-.935,3.115,3.115,0,0,0-3.254-1.52A3.4,3.4,0,0,0,760.95,0,2.279,2.279,0,0,0,758.8,1.6a2.8,2.8,0,0,0-1.925,1.146,4.206,4.206,0,0,0-3.713,1.283" transform="translate(-753.158 0)" fill="#fff"/>
    </g>
    <g id="_2-12" data-name="2" transform="translate(405.863 57.48)">
      <path id="Path_47977-12" data-name="Path 47977" d="M753.158,4.033h15.583a2.608,2.608,0,0,0-1.6-.935,3.115,3.115,0,0,0-3.254-1.52A3.4,3.4,0,0,0,760.95,0,2.279,2.279,0,0,0,758.8,1.6a2.8,2.8,0,0,0-1.925,1.146,4.206,4.206,0,0,0-3.713,1.283" transform="translate(-753.158 0)" fill="#fff"/>
    </g>
  </g>
</svg>
