<svg xmlns="http://www.w3.org/2000/svg" xmlns:xlink="http://www.w3.org/1999/xlink" width="300" height="600" viewBox="0 0 300 600">
  <defs>
    <clipPath id="clip-path">
      <path id="far_leg" data-name="far leg" d="M9954.852,3987.44c6.181,2.076,57.039,48.241,57.039,48.241s-5.6,18.428-10.944,14.535-50.792-42.309-50.792-42.309l-39.076-7.379-6.116-9.492S9948.674,3985.365,9954.852,3987.44Z" transform="translate(-9904.962 -3986.984)" fill="#b062cc"/>
    </clipPath>
    <clipPath id="clip-path-2">
      <path id="near_leg" data-name="near leg" d="M9912.472,3989.253l54.46,1.085s4.779,1.446,4.395,5.423,7.532,49.39,7.532,49.39-13.182,9.594-15.595,5.173-11.442-42.981-11.442-42.981,1.835-.251-12.312,0-41.378,4.45-43.019,1.2,5.406-19.284,5.406-19.284Z" transform="translate(-9896.243 -3989.253)" fill="#dc7bff"/>
    </clipPath>
    <clipPath id="clip-JetBlue_Retail_Refresh_Your_Getaway_300x600_Dynamic_Frame01_1">
      <rect width="300" height="600"/>
    </clipPath>
  </defs>
  <g id="JetBlue_Retail_Refresh_Your_Getaway_300x600_Dynamic_Frame01_1" data-name="JetBlue_Retail_Refresh_Your_Getaway_300x600_Dynamic_Frame01 – 1" clip-path="url(#clip-JetBlue_Retail_Refresh_Your_Getaway_300x600_Dynamic_Frame01_1)">
    <g id="Lady_sleeping_in_seat" data-name="Lady sleeping in seat" transform="translate(-10193.571 -3600.528)">
      <ellipse id="shadow" cx="116" cy="9" rx="116" ry="9" transform="translate(10216.001 3989.528)" opacity="0.122"/>
      <g id="Near_Shoe" data-name="Near Shoe" transform="translate(10362.293 3975.5)">
        <path id="near_foot" data-name="near foot" d="M10359.666,3976.784l3.251,13.11,10.129,3.666-2.14-21.814Z" transform="translate(-10359.041 -3971.745)" fill="#d68053"/>
        <path id="Path_99337" data-name="Path 99337" d="M10371.511,3980.836s7.265,6.663,14.146,8.183,7.7,2.9,7.7,2.9,1.941,1.312,1.941,2.757c3.272,4.636-12.766,5.139-19.87,3.932-10.168,1.561-13.588.015-15.592-2.125-3.026-6.643,2.44-12.2,2.44-12.2s.274,1.567,5.489.494S10371.511,3980.836,10371.511,3980.836Z" transform="translate(-10358.926 -3971.012)" fill="#00a"/>
      </g>
      <g id="Far_Shoe" data-name="Far Shoe" transform="translate(10399.423 3977.941) rotate(-40)">
        <path id="near_foot-2" data-name="near foot" d="M0,5.062,3.454,18.234l10.76,3.682L11.941,0Z" transform="translate(0.693 0)" fill="#d68053"/>
        <path id="Path_99337-2" data-name="Path 99337" d="M12.963,0S20.429,7.53,27.5,9.249s7.437,2.22,7.437,2.22,2,1.482,2,3.117c3.363,5.239-12.641,6.863-19.942,5.5C6.542,21.849,3.027,20.1.967,17.682-2.143,10.175,3.244,4.55,3.244,4.55s.512,1.114,5.872-.1S12.963,0,12.963,0Z" transform="translate(0 9.87)" fill="#00a"/>
      </g>
      <g id="Far_leg-2" data-name="Far leg" transform="translate(10305.678 3919.635)">
        <path id="far_leg-3" data-name="far leg" d="M9954.852,3987.44c6.181,2.076,57.039,48.241,57.039,48.241s-5.6,18.428-10.944,14.535-50.792-42.309-50.792-42.309l-39.076-7.379-6.116-9.492S9948.674,3985.365,9954.852,3987.44Z" transform="translate(-9904.962 -3986.984)" fill="#c463e6"/>
        <g id="Mask_Group_5" data-name="Mask Group 5" transform="translate(0.001)" clip-path="url(#clip-path)">
          <path id="Path_99336" data-name="Path 99336" d="M10009,4042.139c-.835.262-22.209-7.34-22.209-7.34l-30.384-33.855-59.095-2,2.828,14.054,59.869,19.355,26.781,29.22h25.362Z" transform="translate(-9905.292 -3986.471)" opacity="0.07"/>
        </g>
      </g>
      <g id="Near_Leg-2" data-name="Near Leg" transform="translate(10296.587 3923.106)">
        <path id="near_leg-3" data-name="near leg" d="M9912.472,3989.253l54.46,1.085s4.779,1.446,4.395,5.423,7.532,49.39,7.532,49.39-13.182,9.594-15.595,5.173-11.442-42.981-11.442-42.981,1.835-.251-12.312,0-41.378,2.24-43.019-1.014,5.406-17.075,5.406-17.075Z" transform="translate(-9896.243 -3989.253)" fill="#dc7bff"/>
        <g id="Mask_Group_2" data-name="Mask Group 2" clip-path="url(#clip-path-2)">
          <path id="Path_99330" data-name="Path 99330" d="M9913.021,3987.269s1.3-10.541-4.25,4.145,2.656,11.763,2.656,11.763l42.875-1.975s7.774,40.937,12.793,42.494,13.567,1.585,13.567,1.585l3.187,5.339-28.147,4.838-8.112-33.4-61.849-6.647,12.458-28.144Z" transform="translate(-9896.695 -3989.495)" opacity="0.108"/>
        </g>
      </g>
      <g id="Pink_Top" data-name="Pink Top" transform="translate(10247.277 3863.76)">
        <path id="top" d="M9848.963,3934.772s19.12,65.891,17.028,60.5-5.374-33.224-5.374-33.224l6.371,29.071s-4.9,13.458,1.672,15.665.095-1.168,17.03,2.283,18.348-1.023,18.348-1.023l14.169-21.614s-9.406,3.486-14.169,0-15.807-17.243-17.479-21.841-1.9-12.885-1.9-12.885-5.148-7.193-7.725-10.753-6.343-8.343-9.947-8.584S9848.963,3934.772,9848.963,3934.772Z" transform="translate(-9848.963 -3932.347)" fill="#fc3388"/>
        <path id="Top_shdow" data-name="Top shdow" d="M9865.31,4003.188l3.208,3.164s14.352,5.538,13.928,0-13.1-11.762-15.624-22.148a67.54,67.54,0,0,1-1.512-20.3l5.916-2.989s-10.4-4.032-13.326-3.977-3.406,6.112-3.406,6.112l8.562,33.836Z" transform="translate(-9848.727 -3931.293)" fill="#d13376"/>
      </g>
      <g id="seat_left" data-name="seat left" transform="translate(10216.527 3816.713)">
        <rect id="Rectangle_3179" data-name="Rectangle 3179" width="63.095" height="2.744" transform="translate(49.378 177.792)" fill="#5e5e5e"/>
        <path id="Path_47807" data-name="Path 47807" d="M59.834,105.578c.279,2.956-2.012,18.406-12.35,24.53s-14.375,4.871-17.576,4.734c-1.67-.14-4.176,2.087-4.594,2.784s-.417,2.784,0,3.062,22.967,0,22.967,0-.139-2.506-1.391-2.924-.558-1.393,2.227-2.784,12.666-5.569,17.956-22.688c0,0,5.985-5.151,7.933-5.29s15.03-1.04,16.563-1.425a4.8,4.8,0,0,1,5.569,3.791A196.811,196.811,0,0,1,99.921,132.2c0,4.036-.558,8.6,0,8.614s7.655,0,7.655,0,.116-5.555-1.125-5.555-1.66.14-1.937-1.67-.695-33.684-.695-33.684L92.544,95.727Z" transform="translate(10.38 39.742)" fill="#5e5e5e"/>
        <path id="Path_47798" data-name="Path 47798" d="M31.895,88.219c3.943-1.541,7.516-3.48,19.625-2.087a191.847,191.847,0,0,0,39.949.774c14.754-1.332,13.779,7.994,12.944,13.423s-1.67,8.908-5.846,8.212-4.732-5.288-4.732-5.288l-15.451,4.635s-38.556,4.217-44.123,0S26.823,90.2,31.895,88.219" transform="translate(12.012 35.56)" fill="#999"/>
        <path id="Path_47799" data-name="Path 47799" d="M18.16,33.821H12.694a3.477,3.477,0,0,1-3.478-3.477V3.8A3.477,3.477,0,0,1,12.694.324h3.47A3.477,3.477,0,0,1,19.641,3.8l2,26.541a3.477,3.477,0,0,1-3.476,3.478Z" transform="translate(3.827 0.134)" fill="#5e5e5e"/>
        <path id="Path_47800" data-name="Path 47800" d="M6.22.734c1.252-.835,4.871-1.114,7.516,0,.28.556-1.391,6.542-.974,17.677S13.179,34,16.937,44.023s34.52,68.481,25.89,79.756c-4.732,3.341-7.516,1.254-7.516,1.254L25.2,103.272,17.634,82.3,9.7,58.777,2.6,31.356V6.3Z" transform="translate(1.08 0)" fill="#999"/>
        <path id="Path_47801" data-name="Path 47801" d="M8.16,58.073c.341-2.062,1.332-2.877,6.067-1.485s8.072.7,10.438,4.176a50.8,50.8,0,0,1,4.318,8.491l-5.291,1.67s-1.343-6.5-3.879-7.547c-3.4-1.408-12.312-1.315-11.65-5.305" transform="translate(3.375 23.206)" fill="#5e5e5e"/>
        <path id="Path_47802" data-name="Path 47802" d="M83.552,68.038c-1.03.579-1.578,1.022-14.941,2.319s-30.9,4.734-38.879,7.795c-5.948,3.62-11.043,1.953-12.62-1.485-1.393-3.842-1.02-10.208,6.943-10.724,4.323-.28,7.718-1.432,23.957-1.71s37.066-1.207,37.464,0-.768,3.154-1.923,3.8" transform="translate(6.844 26.417)" fill="#5e5e5e"/>
        <path id="Path_47803" data-name="Path 47803" d="M21.837,67.455c-1.485-2.315,5.382-3.248,25.054-4.306,12.51-.674,35.262-.242,36.19.224s.743,1.391-.743,1.485S47.17,65.171,40.4,65.8s-14.846,1.374-18.558,1.653" transform="translate(8.985 26.073)" fill="#999"/>
        <path id="Path_47804" data-name="Path 47804" d="M24.578,74.924c.706.526,5.011-1.3,6.218,2.134s5.614,23.025,23.476,25.762c15.254,2.338,38.092-3.769,42.871-.614,3.63,2.4,5.546,6.559,4.547,7.609-1.811,1.9-7.516,3.469-33.592,6.715s-31.132.756-40.643-9.685C16.407,94.72,15.992,74.74,16.527,74.182s3.319-2.785,8.051.742" transform="translate(6.802 30.296)" fill="#5e5e5e"/>
        <path id="Path_47805" data-name="Path 47805" d="M6.418,1.371c-1.763.371-3.9.742-4.639,4.918s-3.805,14.848.371,34.892c.185.371.556.742,1.949.371a8.61,8.61,0,0,1,.277.835s-2.5.556-2.411.928S12.357,76.256,12.357,76.256s.463,1.114,2.411.928c.093,0,.93-.631,1.857,1.772.106.028,3.248,1.383,3.248,1.383S7.44,43.407,5.862,35.242s-.836-28.3.556-33.871" transform="translate(0 0.569)" fill="#5e5e5e"/>
      </g>
      <g id="Hand" transform="translate(10257.62 3949.088)">
        <path id="hand-2" data-name="hand" d="M11.339,5.84s-.618,12-.408,12.6,1.986,3.448,2.467,5,.087,7.037.087,7.037S10.9,34.79,9.628,36.642c-1.606,2.046-2.012,4.9-3.16,3.679a4.05,4.05,0,0,1-.29-3.111c.5-2.933,4.442-7.959,2.67-9.882s-.709.205-2.5,3.477c0,0-.884,2.393-1.666,2.223s-.539-.854-.5-3.157-.261-1.96.064-4.807c.263-1.28-.138-3.015.122-3.589.946-2.928-1.431-7.962-1.4-11.165S0,0,0,0L8.85,2.716Z" transform="matrix(0.995, -0.105, 0.105, 0.995, 0, 1.426)" fill="#d57f54"/>
        <path id="Path_99336-2" data-name="Path 99336" d="M7.836,1.829l-.055,0L.5,1.1A.553.553,0,1,1,.608,0L7.889.724a.553.553,0,0,1-.054,1.1Z" transform="translate(5.613 18.589) rotate(-8)" fill="#fff"/>
      </g>
      <path id="sleeve" d="M9849.3,3934.772s-5.993,1.459-7.57,7.04c-1.212,4.281,0,34.1,0,34.1s4.244,17.01,4.64,19.355c1.707,10.067,11.944,31.037,11.848,35.338s19.054,2.076,19.054,2.076-8.852-32.019-10.944-37.414-5.374-33.224-5.374-33.224,9.978-29.441,6.373-29.682S9849.3,3934.772,9849.3,3934.772Z" transform="translate(397.981 -68.587)" fill="#fc3388"/>
      <g id="head" transform="translate(10227.534 3822.697)">
        <path id="Path_99329" data-name="Path 99329" d="M9837.517,3923.487a6.383,6.383,0,0,0,0,8.568c3.775,4.582,25.971,13.157,33.21,9.136s3.21-9.136.319-11.738-13.132.839-18.708-2.588a99.774,99.774,0,0,0-10.214-5.5Z" transform="translate(-9826.162 -3894.5)" fill="#c4ac28"/>
        <path id="Path_99339" data-name="Path 99339" d="M29.159,34.4,37.007,46.55,16.9,42.737V30.463Z" fill="#7b4226"/>
        <path id="Path_99328" data-name="Path 99328" d="M9837.575,3923.487a6.232,6.232,0,0,0,0,8.568c3.9,4.582,26.854,13.157,34.339,9.136s4.318-9.559.334-11.738-13.581.839-19.351-2.588a104.407,104.407,0,0,0-10.559-5.5Z" transform="translate(-9829.663 -3890.256)" fill="gold"/>
        <path id="Path_99325" data-name="Path 99325" d="M13.943.993s5.107-2.692,8.144.788S29.029,7.972,29.5,11.874s-.722,9.049-2.156,12.432-1.709,4.168-3.672,4.711-4.315.088-8.176-1.288-3.748-2.785-4.78-3.54c-.286-.222-4.657,1.728-5.94,1.547-3-.423,1.194-2.52,1.194-2.52S-.207,20.526,3.1,18.488,0,11.874,0,11.874s8.405,4.191,7.77,0S7.1,2.973,9.039,1.781A8.707,8.707,0,0,1,13.943.993Z" transform="matrix(0.998, -0.07, 0.07, 0.998, 5.126, 8.514)" fill="#d68054" opacity="0.998"/>
        <path id="Path_99326" data-name="Path 99326" d="M4.327,6.751C10.8.967,10.033,1.6,16.575,1.234s6.04-3.941,12.335,3.073c1.39,1.462,4.691,8.532,6.915,17.135,2.154,4.932-1.653,15.608-1.653,15.608s.6-6.029-2.05-4.588l1-6.745s-.09.634-1.586,1.938a13.365,13.365,0,0,0,1.738-4.131,20.986,20.986,0,0,0-1.251-7.858c-1.617-4.8-6.357-8.593-8.545-8.915-1.389-.2-4.086.992-6.14,1.36.935,3.017-2.514,8.9-3.84,11.77,5.373,8.554-1.67,4.064-1.67,4.064a6.657,6.657,0,0,0-1.033-.513l4.849,4.91a12.566,12.566,0,0,0,1.754,3.8c1.5,2.419,6.687,4.907,6.687,4.907s-7.869-2.172-7.642-1.242c.811,3.2,5.384,6.656,4.365,6.5C14.037,39.632,9.807,39.044,4.327,30.968-.69,29.089-2.149,12.535,4.327,6.751Z" transform="matrix(0.998, -0.07, 0.07, 0.998, 0, 2.967)"/>
        <path id="Path_99327" data-name="Path 99327" d="M5.5,5.025S7.47.8,3.111.1C2.95.069,2.8.048,2.374.007-1.385-.151.446,2.511.446,2.511S2.419,7.046,4.334,7.145s2.941-2.12,2.941-2.12Z" transform="matrix(0.998, -0.07, 0.07, 0.998, 10.954, 23.911)" fill="#d57f54"/>
        <path id="Path_53982" data-name="Path 53982" d="M.8,9.746a7.317,7.317,0,0,0,6.268,3.522c2.7-.05,4.38-3.335,5.916-3.314,1.278.018,3.293,3,5.22,3.03a4.873,4.873,0,0,0,3.955-2.422c.59-1.211,2.105-5.784-.638-8.533C20.737,1.036,16.363.058,13.073.012,5.3-.1,3.315.565,1.984,1.753A6.883,6.883,0,0,0,.8,9.746Z" transform="translate(12.561 18.296) rotate(-22)" fill="#00e1ff"/>
        <ellipse id="Ellipse_155" data-name="Ellipse 155" cx="1.081" cy="1.803" rx="1.081" ry="1.803" transform="translate(13.04 29.281) rotate(-36)" fill="#fff"/>
      </g>
    </g>
  </g>
</svg>
