<svg id="EX_MARK" data-name="EX MARK" xmlns="http://www.w3.org/2000/svg" width="29.241" height="65.674" viewBox="0 0 29.241 65.674">
  <g id="EX_MARK-2" data-name="EX MARK" transform="matrix(0.998, 0.07, -0.07, 0.998, 4.471, 0)">
    <g id="cuff" transform="translate(0 0)">
      <path id="cuff-2" data-name="cuff" d="M10.388,47.682a9.932,9.932,0,0,1-2.3.2,6.813,6.813,0,0,1-5.3-2.273C1.226,45.538,0,44.819,0,43.942c0-.757.915-1.4,2.171-1.6a5.393,5.393,0,0,1,3.109-2.861C2.751,37.675,3,35.9,4.125,34.488a10.246,10.246,0,0,1-1.063-4.78c.47-3.929,2.257-4.671,2.257-4.671-2.487-2.782-1.772-5.722.168-7.974a3.89,3.89,0,0,1-.716-2.2,4.188,4.188,0,0,1,.432-1.8,10.305,10.305,0,0,1-.255-2.292c0-2.276,1.762-4.279,3.563-5.526a3.384,3.384,0,0,1-.455-1.532,1.463,1.463,0,0,1-.908-1.192c0-.748.891-1.38,2.121-1.595A3.83,3.83,0,0,1,11.782,0a3.639,3.639,0,0,1,3.731,3.54q0,.115-.008.228A3.591,3.591,0,0,1,16.8,6.547a3.654,3.654,0,0,1-.356,1.58,4.928,4.928,0,0,1,2.852,7.836c.164.553.338,1.172.527,1.865a16.566,16.566,0,0,1,.6,5.292A20.231,20.231,0,0,1,22.2,26.637a6.617,6.617,0,0,1-.178,5.069,1.513,1.513,0,0,1,.13.081,6.191,6.191,0,0,1,2.677,5.045,6,6,0,0,1-1.081,3.424,5.205,5.205,0,0,1,.435,2.094,4.934,4.934,0,0,1-4.825,5.037,4.638,4.638,0,0,1-2.05-.476,3.905,3.905,0,0,1-3.94,2.241A3.8,3.8,0,0,1,10.388,47.682Z" transform="translate(24.831 49.151) rotate(180)" fill="#fff"/>
    </g>
    <g id="cufflink" transform="translate(13.097 48.217) rotate(45)">
      <path id="Union_2" data-name="Union 2" d="M2.847,8.36l-.092,0A2.976,2.976,0,0,1,0,5.17,3.049,3.049,0,0,1,2.787,1.95a2.318,2.318,0,0,1,.715.1,1.013,1.013,0,0,0,.179.832C3.929,1.248,5.024.007,6.331,0,7.813-.007,9.008,1.579,9,3.545c0,.019,0,.038,0,.058a1.306,1.306,0,0,1,.921-.461,1.825,1.825,0,0,1,1.667,1.97,2.015,2.015,0,0,1-1.113,1.866A2.007,2.007,0,0,1,8.7,8.818a1.439,1.439,0,0,1-.655-.156C7.6,10.134,6.7,10.869,5.6,10.875,4.41,10.881,3.317,10.047,2.847,8.36Z" transform="translate(11.586 10.875) rotate(180)" fill="#fff"/>
    </g>
  </g>
</svg>
