<svg xmlns="http://www.w3.org/2000/svg" xmlns:xlink="http://www.w3.org/1999/xlink" width="1203" height="250" viewBox="0 0 1203 250">
  <defs>
    <clipPath id="clip-_300x250_WiFi_DEV_ASSET_1">
      <rect width="1203" height="250"/>
    </clipPath>
  </defs>
  <g id="_300x250_WiFi_DEV_ASSET_1" data-name="300x250_WiFi_DEV ASSET – 1" clip-path="url(#clip-_300x250_WiFi_DEV_ASSET_1)">
    <g id="_1" data-name="1" transform="translate(86.901 137.771)">
      <path id="Path_47978" data-name="Path 47978" d="M650.585,620.4h7.3s-.227-.984-1.93-.833a2.064,2.064,0,0,0-2.8-.016s-.871-.287-1.135.432c0,0-1.1-.114-1.438.416" transform="translate(-650.585 -602.949)" fill="#fff"/>
      <path id="Path_47979" data-name="Path 47979" d="M727.188,608.9h14a1.783,1.783,0,0,0-1.741-1.423s-1.287-2.7-3.936-.545c0,0-3.179-1.287-4.541.984,0,0-2.573-.643-3.785.984" transform="translate(-718.975 -591.456)" fill="#fff"/>
      <path id="Path_47980" data-name="Path 47980" d="M866.274,486.957h66s-2.384-7.683-10.786-7.455a8.494,8.494,0,0,0-8.4-6.585c-7.039,0-9.651,3.065-9.651,3.065s-1.362-6.471-6.926-6.471a7.757,7.757,0,0,0-7.266,5s-9.2-3.633-10.9,6.585c0,0-4.428-.006-5.109,3.063,0,0-4.958-4.5-6.963,2.8" transform="translate(-843.151 -469.51)" fill="#fff"/>
    </g>
    <g id="_5" data-name="5" transform="translate(629.636 148.819)">
      <path id="Path_47971" data-name="Path 47971" d="M1369.692,228.613h-50.728s4.726-5.356,9.557-3.361c0,0,2.521-13.864,12.183-7.982,0,0,7.037-2.714,9.032,4.945,0,0,4.2-2.739,6.407,2.3,0,0,3.991-1.47,5.776,2.311a15.263,15.263,0,0,1,7.772,1.785" transform="translate(-1318.964 -215.816)" fill="#fff"/>
    </g>
    <g id="_2" data-name="2" transform="translate(762.306 56)">
      <path id="Path_47977" data-name="Path 47977" d="M802.736,12.832H753.158a8.3,8.3,0,0,1,5.1-2.975,9.91,9.91,0,0,1,10.353-4.835A10.83,10.83,0,0,1,777.947,0c5.4,0,6.854,5.1,6.854,5.1a8.918,8.918,0,0,1,6.124,3.646,13.381,13.381,0,0,1,11.811,4.083" transform="translate(-753.158 0)" fill="#fff"/>
    </g>
    <g id="_5-2" data-name="5" transform="translate(949.636 125.825)">
      <path id="Path_47971-2" data-name="Path 47971" d="M1369.692,228.613h-50.728s4.726-5.356,9.557-3.361c0,0,2.521-13.864,12.183-7.982,0,0,7.037-2.714,9.032,4.945,0,0,4.2-2.739,6.407,2.3,0,0,3.991-1.47,5.776,2.311a15.263,15.263,0,0,1,7.772,1.785" transform="translate(-1318.964 -215.816)" fill="#fff"/>
    </g>
  </g>
</svg>
