<svg id="heart_2" data-name="heart 2" xmlns="http://www.w3.org/2000/svg" width="39.955" height="35.433" viewBox="0 0 39.955 35.433">
  <g id="Heart" transform="translate(0 0)">
    <path id="Union_4" data-name="Union 4" d="M16.329,32.626c-1.079.055-1.2-.466-1.9-1.36a3.969,3.969,0,0,1-1.414-.9C8.861,29.564,7.85,27.029,7.759,25,5.086,24.656,3.05,22.889,3.05,20.76a2.826,2.826,0,0,1,.019-.305C1.35,19.26,0,17.221,0,15.646a4.856,4.856,0,0,1,.671-2.725A5.8,5.8,0,0,1,0,10.179,5.381,5.381,0,0,1,1.956,5.9a4.226,4.226,0,0,1,4.08-2.6H6.12C6.864,1.281,7.735,1.1,9.6.488c2.44-.8,5.867,1.192,6.388,3.136a3.16,3.16,0,0,1,.078.385,3.915,3.915,0,0,1,1.185,1.149,5.91,5.91,0,0,1,2-.339,6.154,6.154,0,0,1,1.248.126,4.22,4.22,0,0,1,4.089-2.628,4.872,4.872,0,0,1,1.606.268A4.46,4.46,0,0,1,29.926.035c3.257-.269,4.557,1.076,5.1,2.61,1.5.031,4.536.574,3.4,4.6A3.039,3.039,0,0,1,39.47,8.994c2.15,4.134-3.553,8.091-3.306,8.439a3.166,3.166,0,0,1,0,3.55,5.151,5.151,0,0,1-2.653,1.7,4.938,4.938,0,0,1-.851,2.049,6.077,6.077,0,0,1-3.691,2.4,3.5,3.5,0,0,1-2.824,2.959,7.338,7.338,0,0,1-2.657,1.852,4.187,4.187,0,0,1-1.508.376c-.082,1.337-1.351,3.078-2.5,3.112h-.032C18.381,35.433,16.677,33.907,16.329,32.626Z" fill="#fff"/>
  </g>
</svg>
