<svg xmlns="http://www.w3.org/2000/svg" xmlns:xlink="http://www.w3.org/1999/xlink" width="300" height="600" viewBox="0 0 300 600">
  <defs>
    <clipPath id="clip-JetBlue_Retail_Refresh_Your_Getaway_300x600_Dynamic_Frame03_1">
      <rect width="300" height="600"/>
    </clipPath>
  </defs>
  <g id="JetBlue_Retail_Refresh_Your_Getaway_300x600_Dynamic_Frame03_1" data-name="JetBlue_Retail_Refresh_Your_Getaway_300x600_Dynamic_Frame03 – 1" clip-path="url(#clip-JetBlue_Retail_Refresh_Your_Getaway_300x600_Dynamic_Frame03_1)">
    <g id="Lady_sleeping_in_seat" data-name="Lady sleeping in seat" transform="translate(-10193.571 -3600.528)">
      <path id="shadow" d="M116,0c64.065,0,116,4.029,116,9s-51.935,9-116,9S0,13.971,0,9,51.935,0,116,0Z" transform="translate(10412.001 3989.528)" opacity="0.122"/>
      <g id="seat_left" data-name="seat left" transform="translate(10412.527 3816.713)">
        <rect id="Rectangle_3179" data-name="Rectangle 3179" width="63.095" height="2.744" transform="translate(49.378 177.792)" fill="#5e5e5e"/>
        <path id="Path_47807" data-name="Path 47807" d="M59.834,105.578c.279,2.956-2.012,18.406-12.35,24.53s-14.375,4.871-17.576,4.734c-1.67-.14-4.176,2.087-4.594,2.784s-.417,2.784,0,3.062,22.967,0,22.967,0-.139-2.506-1.391-2.924-.558-1.393,2.227-2.784,12.666-5.569,17.956-22.688c0,0,5.985-5.151,7.933-5.29s15.03-1.04,16.563-1.425a4.8,4.8,0,0,1,5.569,3.791A196.811,196.811,0,0,1,99.921,132.2c0,4.036-.558,8.6,0,8.614s7.655,0,7.655,0,.116-5.555-1.125-5.555-1.66.14-1.937-1.67-.695-33.684-.695-33.684L92.544,95.727Z" transform="translate(10.38 39.742)" fill="#5e5e5e"/>
        <path id="Path_47798" data-name="Path 47798" d="M31.895,88.219c3.943-1.541,7.516-3.48,19.625-2.087a191.847,191.847,0,0,0,39.949.774c14.754-1.332,13.779,7.994,12.944,13.423s-1.67,8.908-5.846,8.212-4.732-5.288-4.732-5.288l-15.451,4.635s-38.556,4.217-44.123,0S26.823,90.2,31.895,88.219" transform="translate(12.012 35.56)" fill="#999"/>
        <path id="Path_47799" data-name="Path 47799" d="M18.16,33.821H12.694a3.477,3.477,0,0,1-3.478-3.477V3.8A3.477,3.477,0,0,1,12.694.324h3.47A3.477,3.477,0,0,1,19.641,3.8l2,26.541a3.477,3.477,0,0,1-3.476,3.478Z" transform="translate(3.827 0.134)" fill="#5e5e5e"/>
        <path id="Path_47800" data-name="Path 47800" d="M6.22.734c1.252-.835,4.871-1.114,7.516,0,.28.556-1.391,6.542-.974,17.677S13.179,34,16.937,44.023s34.52,68.481,25.89,79.756c-4.732,3.341-7.516,1.254-7.516,1.254L25.2,103.272,17.634,82.3,9.7,58.777,2.6,31.356V6.3Z" transform="translate(1.08 0)" fill="#999"/>
        <path id="Path_47801" data-name="Path 47801" d="M8.16,58.073c.341-2.062,1.332-2.877,6.067-1.485s8.072.7,10.438,4.176a50.8,50.8,0,0,1,4.318,8.491l-5.291,1.67s-1.343-6.5-3.879-7.547c-3.4-1.408-12.312-1.315-11.65-5.305" transform="translate(3.375 23.206)" fill="#5e5e5e"/>
        <path id="Path_47802" data-name="Path 47802" d="M83.552,68.038c-1.03.579-1.578,1.022-14.941,2.319s-30.9,4.734-38.879,7.795c-5.948,3.62-11.043,1.953-12.62-1.485-1.393-3.842-1.02-10.208,6.943-10.724,4.323-.28,7.718-1.432,23.957-1.71s37.066-1.207,37.464,0-.768,3.154-1.923,3.8" transform="translate(6.844 26.417)" fill="#5e5e5e"/>
        <path id="Path_47803" data-name="Path 47803" d="M21.837,67.455c-1.485-2.315,5.382-3.248,25.054-4.306,12.51-.674,35.262-.242,36.19.224s.743,1.391-.743,1.485S47.17,65.171,40.4,65.8s-14.846,1.374-18.558,1.653" transform="translate(8.985 26.073)" fill="#999"/>
        <path id="Path_47804" data-name="Path 47804" d="M24.578,74.924c.706.526,5.011-1.3,6.218,2.134s5.614,23.025,23.476,25.762c15.254,2.338,38.092-3.769,42.871-.614,3.63,2.4,5.546,6.559,4.547,7.609-1.811,1.9-7.516,3.469-33.592,6.715s-31.132.756-40.643-9.685C16.407,94.72,15.992,74.74,16.527,74.182s3.319-2.785,8.051.742" transform="translate(6.802 30.296)" fill="#5e5e5e"/>
        <path id="Path_47805" data-name="Path 47805" d="M6.418,1.371c-1.763.371-3.9.742-4.639,4.918s-3.805,14.848.371,34.892c.185.371.556.742,1.949.371a8.61,8.61,0,0,1,.277.835s-2.5.556-2.411.928S12.357,76.256,12.357,76.256s.463,1.114,2.411.928c.093,0,.93-.631,1.857,1.772.106.028,3.248,1.383,3.248,1.383S7.44,43.407,5.862,35.242s-.836-28.3.556-33.871" transform="translate(0 0.569)" fill="#5e5e5e"/>
      </g>
    </g>
  </g>
</svg>
