<svg xmlns="http://www.w3.org/2000/svg" xmlns:xlink="http://www.w3.org/1999/xlink" width="300" height="600" viewBox="0 0 300 600">
  <defs>
    <clipPath id="clip-JetBlue_Retail_Refresh_Your_Getaway_300x600_Dynamic_Frame03_1">
      <rect width="300" height="600"/>
    </clipPath>
  </defs>
  <g id="JetBlue_Retail_Refresh_Your_Getaway_300x600_Dynamic_Frame03_1" data-name="JetBlue_Retail_Refresh_Your_Getaway_300x600_Dynamic_Frame03 – 1" clip-path="url(#clip-JetBlue_Retail_Refresh_Your_Getaway_300x600_Dynamic_Frame03_1)">
    <g id="Group_20968" data-name="Group 20968" transform="translate(-10)">
      <g id="sun" transform="translate(125 212.305)" fill="#00e1ff" opacity="0.999">
        <path d="M 26.49936294555664 68.18750762939453 C 23.19108581542969 68.18750762939453 19.98284149169922 67.54003143310547 16.96371841430664 66.26304626464844 C 14.04659652709961 65.02920532226562 11.42631816864014 63.26242828369141 9.17569637298584 61.01180648803711 C 6.925074100494385 58.76118469238281 5.15829610824585 56.14091491699219 3.924463033676147 53.22378158569336 C 2.647474050521851 50.20467376708984 1.999996304512024 46.99641799926758 1.999996304512024 43.68813705444336 L 1.999996304512024 26.49936103820801 C 1.999996304512024 23.19108390808105 2.647474050521851 19.98283958435059 3.924463033676147 16.96371650695801 C 5.15829610824585 14.04659461975098 6.925074100494385 11.4263277053833 9.17569637298584 9.175705909729004 C 11.42631816864014 6.925072193145752 14.04659652709961 5.158305644989014 16.96371841430664 3.924461126327515 C 19.98284149169922 2.647483348846436 23.19108581542969 2.000005483627319 26.49936294555664 2.000005483627319 C 29.80764007568359 2.000005483627319 33.01589584350586 2.647483348846436 36.03500747680664 3.924461126327515 C 38.95214080810547 5.158305644989014 41.57240676879883 6.925072193145752 43.82302856445312 9.175705909729004 C 46.07365036010742 11.4263277053833 47.84043121337891 14.04659461975098 49.07427215576172 16.96371650695801 C 50.35125350952148 19.98283958435059 50.99872970581055 23.19108390808105 50.99872970581055 26.49936103820801 L 50.99872970581055 43.68813705444336 C 50.99872970581055 46.99641799926758 50.35125350952148 50.20467376708984 49.07427215576172 53.22378158569336 C 47.84043121337891 56.14091491699219 46.07365036010742 58.76118469238281 43.82302856445312 61.01180648803711 C 41.57240676879883 63.26242828369141 38.95214080810547 65.02920532226562 36.03500747680664 66.26304626464844 C 33.01589584350586 67.54003143310547 29.80764007568359 68.18750762939453 26.49936294555664 68.18750762939453 Z" stroke="none"/>
        <path d="M 26.49936294555664 4 C 23.46021270751953 4 20.51408767700195 4.594322204589844 17.74282455444336 5.766471862792969 C 15.06410217285156 6.89947509765625 12.65751266479492 8.522312164306641 10.58991241455078 10.58991241455078 C 8.522312164306641 12.65751266479492 6.89947509765625 15.0640983581543 5.766475677490234 17.74282455444336 C 4.594326019287109 20.51408767700195 4 23.46021270751953 4 26.49936294555664 L 4 43.68813705444336 C 4 46.72730255126953 4.594326019287109 49.67342376708984 5.766475677490234 52.44467544555664 C 6.89947509765625 55.1234130859375 8.522312164306641 57.52999877929688 10.58991241455078 59.59758758544922 C 12.65751266479492 61.66518783569336 15.06410217285156 63.28802490234375 17.74282455444336 64.42103576660156 C 20.51408767700195 65.59317779541016 23.46021270751953 66.1875 26.49936294555664 66.1875 C 29.53852462768555 66.1875 32.48464965820312 65.59317779541016 35.25590133666992 64.42103576660156 C 37.93463897705078 63.28802490234375 40.34122467041016 61.66518783569336 42.4088134765625 59.59758758544922 C 44.47641372680664 57.52999877929688 46.09925079345703 55.1234130859375 47.23226165771484 52.44467544555664 C 48.40439987182617 49.67342376708984 48.99872589111328 46.72730255126953 48.99872589111328 43.68813705444336 L 48.99872589111328 26.49936294555664 C 48.99872589111328 23.46021270751953 48.40439987182617 20.51408767700195 47.23226165771484 17.74282455444336 C 46.09925079345703 15.0640983581543 44.47641372680664 12.65751266479492 42.4088134765625 10.58991241455078 C 40.34122467041016 8.522312164306641 37.93463897705078 6.89947509765625 35.25590133666992 5.766471862792969 C 32.48464965820312 4.594322204589844 29.53852462768555 4 26.49936294555664 4 M 26.49936294555664 0 C 41.13456344604492 0 52.99872589111328 11.86417388916016 52.99872589111328 26.49936294555664 L 52.99872589111328 43.68813705444336 C 52.99872589111328 58.32333755493164 41.13456344604492 70.1875 26.49936294555664 70.1875 C 11.86417388916016 70.1875 0 58.32333755493164 0 43.68813705444336 L 0 26.49936294555664 C 0 11.86417388916016 11.86417388916016 0 26.49936294555664 0 Z" stroke="none" fill="#c6c6c6"/>
      </g>
    </g>
  </g>
</svg>
