<svg xmlns="http://www.w3.org/2000/svg" width="320" height="106" viewBox="0 0 320 106">
  <path id="JetBlue_Logo" data-name="JetBlue Logo" d="M4.691,106H0V94.61H3.4A7.116,7.116,0,0,0,8.283,93.1a6.265,6.265,0,0,0,1.8-4.892V24.32H22.051V89.154a18.1,18.1,0,0,1-1.294,6.886,15.377,15.377,0,0,1-3.6,5.318,16.066,16.066,0,0,1-5.494,3.428A19.687,19.687,0,0,1,4.691,106ZM287.7,85.177a31.388,31.388,0,0,1-9.268-1.312,22.5,22.5,0,0,1-8.5-4.738c-5.72-5.151-8.62-13.413-8.62-24.557a44.645,44.645,0,0,1,2.214-14.7,25.689,25.689,0,0,1,5.732-9.548,21.64,21.64,0,0,1,7.887-5.166,24.97,24.97,0,0,1,25.862,5.315,23.716,23.716,0,0,1,5.348,8A27.646,27.646,0,0,1,310.344,49v9.964H273.28c0,4.685,1.389,8.526,4.017,11.107a14.138,14.138,0,0,0,10.176,3.722,18.517,18.517,0,0,0,13.019-5.812l8.679,7.472a27.192,27.192,0,0,1-9.94,7.445A28.872,28.872,0,0,1,287.7,85.177ZM285.828,35A11.786,11.786,0,0,0,277,38.57c-2.324,2.459-3.611,6.064-3.724,10.426h25.1c-.168-4.374-1.471-7.979-3.768-10.426A11.691,11.691,0,0,0,285.828,35Zm-58.5,50.181a20.148,20.148,0,0,1-13.488-5.323c-2.943-2.713-6.451-7.614-6.451-15.556V24.32h11.966V60.145a13.467,13.467,0,0,0,3.371,9.535,11.378,11.378,0,0,0,8.473,3.4,11.208,11.208,0,0,0,8.371-3.4,13.519,13.519,0,0,0,3.357-9.535V24.32h11.966V84.466H242.926V78.058h-.232A18.854,18.854,0,0,1,227.328,85.177Zm-171.172,0a31.387,31.387,0,0,1-9.268-1.312,22.5,22.5,0,0,1-8.5-4.738c-5.72-5.151-8.62-13.413-8.62-24.557a44.647,44.647,0,0,1,2.214-14.7,25.688,25.688,0,0,1,5.732-9.548A21.639,21.639,0,0,1,45.6,25.159a24.967,24.967,0,0,1,25.86,5.315,23.715,23.715,0,0,1,5.347,8A27.654,27.654,0,0,1,78.792,49v9.964H41.731c0,4.685,1.389,8.526,4.017,11.107a14.136,14.136,0,0,0,10.174,3.722,18.509,18.509,0,0,0,13.02-5.812l8.679,7.472a27.193,27.193,0,0,1-9.94,7.445A28.869,28.869,0,0,1,56.156,85.177ZM54.281,35a11.786,11.786,0,0,0-8.825,3.574C43.132,41.028,41.844,44.633,41.731,49h25.1c-.168-4.374-1.471-7.979-3.768-10.426A11.691,11.691,0,0,0,54.281,35Zm148.066,49.47H197.07c-4.661,0-8.321-1.093-10.878-3.248-2.9-2.444-4.369-6.26-4.369-11.343V0h11.962V68.925a4.048,4.048,0,0,0,1.129,3.1,4.741,4.741,0,0,0,3.329,1.052h4.1V84.464Zm-50.623,0H116.538V0h32.369a32.373,32.373,0,0,1,10.744,1.672,21.14,21.14,0,0,1,7.743,4.675c4.1,3.952,6.261,9.593,6.261,16.312a19.065,19.065,0,0,1-2.508,10.053c-2.024,3.385-5.231,6.033-9.806,8.1v.237a16.408,16.408,0,0,1,10.231,7.326A22.732,22.732,0,0,1,174.946,60.5a26.055,26.055,0,0,1-1.864,9.9,22.394,22.394,0,0,1-5.041,7.553A23.063,23.063,0,0,1,151.724,84.466ZM129.2,46.978V72.365h19.469c4.353,0,7.922-1.333,10.321-3.855a12.687,12.687,0,0,0,3.284-8.837A12.691,12.691,0,0,0,159,50.833c-2.4-2.522-5.968-3.855-10.321-3.855Zm0-35.588v24.2h18.3c4.293,0,7.812-1.23,10.175-3.558a11.659,11.659,0,0,0,3.312-8.543,11.8,11.8,0,0,0-3.312-8.5c-2.377-2.357-5.9-3.6-10.175-3.6Zm-20.29,73.076H102.7A14.359,14.359,0,0,1,92.364,80.61c-2.676-2.63-4.09-6.424-4.09-10.973V33.571H82.291V24.32h5.983V6.05h11.962V24.32h8.679v9.251h-8.679v35a4.826,4.826,0,0,0,1.012,3.5,4.237,4.237,0,0,0,3.212,1.009h4.454V84.464ZM314.709,33.983A5.352,5.352,0,1,1,320,28.631,5.328,5.328,0,0,1,314.709,33.983Zm0-9.64a4.082,4.082,0,0,0-4.151,4.288,4.153,4.153,0,1,0,8.3,0A4.082,4.082,0,0,0,314.709,24.343Zm-.949,7.262h-1.053V25.364h2.339c1.445,0,2.118.592,2.118,1.863a1.629,1.629,0,0,1-1.58,1.817l1.768,2.557-1.226,0-1.768-2.53h-.6V31.6Zm0-5.266V28.1h.73c.855,0,1.623-.067,1.623-.872,0-.589-.467-.888-1.389-.888ZM22.051,12.1H10.086V0H22.051V12.1Z" fill="#fff"/>
</svg>
