<svg xmlns="http://www.w3.org/2000/svg" width="76.309" height="25" viewBox="0 0 76.309 25">
  <g id="JB_logo" data-name="JB logo" transform="translate(-372.724 -361.319)">
    <path id="Path_1" data-name="Path 1" d="M375.129,367.055h2.847v15.287a3.875,3.875,0,0,1-4.134,3.977h-1.118v-2.69h.808c.978,0,1.6-.444,1.6-1.508Zm0-5.736h2.847v2.854h-2.847Z" transform="translate(0 0)" fill="#fff"/>
    <path id="Path_2" data-name="Path 2" d="M378.821,369.851c.059-2.154,1.309-3.3,2.99-3.3s2.913,1.151,3,3.3Zm8.837,2.351v-2.351a5.759,5.759,0,0,0-5.848-5.986c-2.74,0-5.844,1.788-5.844,7.3,0,5.815,3.381,7.218,6.3,7.218a6.548,6.548,0,0,0,5.119-2.3l-2.079-1.76a4.442,4.442,0,0,1-3.095,1.363,3.173,3.173,0,0,1-3.388-3.491Z" transform="translate(3.854 3.026)" fill="#fff"/>
    <path id="Path_3" data-name="Path 3" d="M383.119,361.975h2.849v4.3h2.075v2.18h-2.075v8.249c0,.788.311,1.064,1.011,1.064h1.064v2.69h-1.482a3.248,3.248,0,0,1-3.443-3.495v-8.507h-1.431v-2.18h1.431Z" transform="translate(10.654 0.78)" fill="#fff"/>
    <path id="Path_4" data-name="Path 4" d="M393.081,372.4a3,3,0,1,1,0,5.984h-4.646V372.4Zm-7.656,8.84H393.8a5.445,5.445,0,0,0,5.548-5.651A4.465,4.465,0,0,0,396.105,371v-.055a4.352,4.352,0,0,0,2.933-4.287c0-3.123-2.018-5.338-5.9-5.338h-7.708Zm7.376-17.231c2.184,0,3.217,1.315,3.217,2.856,0,1.567-1.033,2.849-3.217,2.849h-4.366v-5.706Z" transform="translate(15.096 0.002)" fill="#fff"/>
    <path id="Path_5" data-name="Path 5" d="M392.535,361.321h2.849v16.254c0,.641.366.97,1.064.97h.983v2.692h-1.258c-2.066,0-3.637-.893-3.637-3.44Z" transform="translate(23.547 0.002)" fill="#fff"/>
    <path id="Path_6" data-name="Path 6" d="M395.322,363.941h2.856v8.443a2.819,2.819,0,1,0,5.62,0v-8.443h2.852v14.182H403.8V376.61h-.055a4.532,4.532,0,0,1-3.67,1.683,4.765,4.765,0,0,1-4.751-4.922Z" transform="translate(26.859 3.116)" fill="#fff"/>
    <path id="Path_7" data-name="Path 7" d="M404.05,369.851c.057-2.154,1.315-3.3,3-3.3,1.67,0,2.9,1.151,2.992,3.3Zm8.842,2.351v-2.351a5.754,5.754,0,0,0-5.841-5.986c-2.742,0-5.857,1.788-5.857,7.3,0,5.815,3.392,7.218,6.3,7.218a6.532,6.532,0,0,0,5.117-2.3l-2.066-1.76a4.449,4.449,0,0,1-3.1,1.363,3.177,3.177,0,0,1-3.392-3.491Z" transform="translate(33.838 3.026)" fill="#fff"/>
    <path id="Path_8" data-name="Path 8" d="M407.7,363.828a1.261,1.261,0,1,1-1.269,1.265,1.269,1.269,0,0,1,1.269-1.265m0,2.274a1.009,1.009,0,1,0-.989-1.009.964.964,0,0,0,.989,1.009m-.482-1.786h.56c.337,0,.5.147.5.449a.387.387,0,0,1-.372.429l.425.6h-.3l-.418-.591h-.149v.591h-.252Zm.252.652h.171c.2,0,.388-.017.388-.2s-.164-.215-.328-.215h-.23Z" transform="translate(40.068 2.982)" fill="#fff"/>
  </g>
</svg>

