<svg xmlns="http://www.w3.org/2000/svg" xmlns:xlink="http://www.w3.org/1999/xlink" width="160" height="600" viewBox="0 0 160 600">
  <defs>
    <clipPath id="clip-path">
      <rect id="crop_area" data-name="crop area" width="160" height="451" fill="#00a"/>
    </clipPath>
    <clipPath id="clip-path-2">
      <rect id="Rectangle_3204" data-name="Rectangle 3204" width="43.093" height="46.291" fill="none"/>
    </clipPath>
    <clipPath id="clip-JetBlue_Retail_Refresh_Live_TV_160x600_Frame02_v02_1">
      <rect width="160" height="600"/>
    </clipPath>
  </defs>
  <g id="JetBlue_Retail_Refresh_Live_TV_160x600_Frame02_v02_1" data-name="JetBlue_Retail_Refresh_Live_TV_160x600_Frame02_v02 – 1" clip-path="url(#clip-JetBlue_Retail_Refresh_Live_TV_160x600_Frame02_v02_1)">
    <g id="illustration" clip-path="url(#clip-path)">
      <g id="plane_seatback" data-name="plane seatback" transform="translate(-37.125 219.597)">
        <g id="hoop_and_net_new" data-name="hoop and net new" transform="translate(93.496 99.108)">
          <g id="net" transform="translate(2.085 2.539)">
            <g id="Group_15031" data-name="Group 15031" clip-path="url(#clip-path-2)">
              <path id="Path_48302" data-name="Path 48302" d="M41.5,47.916a1.376,1.376,0,0,1-.579-.128c-.708-.326-1.262-1.282-1.648-2.842C38.632,40.11,33.9,30.1,31.29,27.2c-.408-.454-.9-.973-1.416-1.522-3.005-3.181-7.547-7.988-10.141-14.644-2.161-5.543-4.273-8.08-4.689-7.944-.005,0-.514.348.461,4.078.515,1.972,1.077,3.965,1.62,5.891,1.669,5.922,3.244,11.515,2.967,14.793a.293.293,0,1,1-.585-.05c.268-3.171-1.294-8.715-2.947-14.584-.544-1.93-1.105-3.925-1.622-5.9C13.9,3.346,14.4,2.686,14.863,2.535c.216-.07.87-.282,2.454,2.212a36.654,36.654,0,0,1,2.963,6.078c2.552,6.548,7.046,11.305,10.02,14.453.521.552,1.013,1.073,1.426,1.532,2.718,3.024,7.463,13.039,8.121,18.028.33,1.327.788,2.174,1.317,2.418a.942.942,0,0,0,.85-.066c.825-.4.712-5.752.629-9.658a62.321,62.321,0,0,1,.219-9.536c.865-5.108,5.616-14.867,7.034-17.171a19.713,19.713,0,0,0,1.936-5.458.294.294,0,0,1,.577.11A19.965,19.965,0,0,1,50.4,11.131c-1.358,2.208-6.117,12.012-6.955,16.962a62.028,62.028,0,0,0-.21,9.425c.125,5.972.147,9.659-.955,10.2a1.726,1.726,0,0,1-.777.2" transform="translate(-9.32 -1.626)" fill="#f6f6f6"/>
              <path id="Path_48303" data-name="Path 48303" d="M12.81,50.452h-.033c-1.431-.061-1.626-4.106-1.827-10.7-.072-2.394-.147-4.871-.331-6.818-.5-5.283-4.41-12.854-6.513-16.922-.315-.61-.584-1.131-.789-1.541-.11-.222-.3-.586-.541-1.036C.473,9.074-.214,7.419.055,6.877a.425.425,0,0,1,.268-.225.614.614,0,0,1,.438-.016c.912.287,2.193,2.7,4.206,6.621,1.635,3.181,3.487,6.786,4.841,8.032,4.378,4.028,8.078,10.188,10.29,13.868l.412.685c.336.557.7,1.263,1.074,2.062,4.073-4.856,14.857-16.012,14.971-16.13a.293.293,0,0,1,.422.408c-.115.119-11.213,11.6-15.119,16.311.416.908.851,1.91,1.3,2.939,1.519,3.5,3.587,8.286,4.72,8.126,1.373-.2,4.087-5.717,5.475-9.151a.294.294,0,0,1,.545.22c-.009.023-.932,2.3-2.094,4.58-2.41,4.729-3.488,4.882-3.843,4.933-1.449.207-2.99-3.062-5.34-8.473-.4-.928-.8-1.833-1.174-2.665-.493.63-1.293,1.919-2.216,3.405-2.924,4.707-5.1,8.047-6.419,8.047M.577,7.189C.545,7.955,2.534,11.717,3.3,13.16c.241.456.436.825.547,1.049.2.408.471.926.784,1.533,2.121,4.1,6.07,11.741,6.577,17.137.184,1.966.26,4.451.333,6.855.122,4.018.306,10.091,1.265,10.132h.015c1.088,0,4.106-4.861,5.913-7.77.961-1.547,1.791-2.883,2.3-3.519l.14-.173a25.12,25.12,0,0,0-1.163-2.26l-.413-.686c-2.2-3.653-5.869-9.767-10.184-13.738-1.431-1.316-3.228-4.814-4.966-8.2C3.149,11,1.2,7.2.577,7.189" transform="translate(0 -4.296)" fill="#f6f6f6"/>
              <path id="Path_48304" data-name="Path 48304" d="M52.965,36.153a.293.293,0,0,1-.285-.224c-1.352-5.554-6.458-11.944-10.187-16.609a55.011,55.011,0,0,1-3.561-4.738c-.74-1.224-1.4-3.9-2.093-6.733-.746-3.04-1.592-6.485-2.374-6.956a.15.15,0,0,0-.126-.029c-.052.013-.517.228-.7,3.691-.116,2.231-.09,5.1-.065,7.874a62.579,62.579,0,0,1-.208,8.249,16.665,16.665,0,0,1-3.1,6.75.293.293,0,0,1-.456-.37,16.371,16.371,0,0,0,2.98-6.486,62.71,62.71,0,0,0,.2-8.138C32.918,4.4,33.013.589,34.2.293a.744.744,0,0,1,.571.1c.924.557,1.614,3.137,2.641,7.319.654,2.666,1.331,5.422,2.025,6.57a54.931,54.931,0,0,0,3.518,4.675c3.762,4.708,8.916,11.156,10.3,16.837a.294.294,0,0,1-.216.355.314.314,0,0,1-.07.008" transform="translate(-19.354 -0.177)" fill="#f6f6f6"/>
              <path id="Path_48305" data-name="Path 48305" d="M31.813,37.679l-.037,0a.293.293,0,0,1-.254-.328c.818-6.482,6.339-13.949,9.3-17.96.318-.43.6-.816.846-1.151C43.09,16.277,43.733,11.9,44.3,8.031c.7-4.748,1.192-7.674,2.526-8a1.162,1.162,0,0,1,1,.2c1.257.939,1.451,4.688,1.623,8,.061,1.178.119,2.29.221,3.093a26.167,26.167,0,0,0,2.9,8.469c.842,1.385,1.773,9.192,1.813,9.524a.293.293,0,0,1-.583.069c-.263-2.224-1.087-8.228-1.731-9.288a26.88,26.88,0,0,1-2.982-8.7c-.1-.825-.163-1.947-.225-3.136C48.713,5.4,48.51,1.479,47.474.705a.571.571,0,0,0-.509-.1c-1.017.245-1.559,3.938-2.083,7.51C44.3,12.048,43.65,16.5,42.148,18.581c-.244.336-.53.724-.85,1.156-2.934,3.968-8.4,11.356-9.194,17.685a.294.294,0,0,1-.291.256" transform="translate(-20.507 0.001)" fill="#f6f6f6"/>
              <path id="Path_48306" data-name="Path 48306" d="M32.3,42.918a.3.3,0,0,1-.085-.013.293.293,0,0,1-.2-.366C34.175,35.417,43.891,23.3,47,19.931a24.784,24.784,0,0,0,5.365-8.458c.144-.382.316-.886.513-1.459,1.432-4.177,2.845-7.9,4.508-7.466,1.111.286.685,3.007-.3,8.639-.8,4.555-1.794,10.224-1.466,14.153a.293.293,0,1,1-.585.049c-.335-4,.667-9.715,1.472-14.3.578-3.294,1.369-7.805.734-7.969C55.981,2.789,54.255,7.8,53.43,10.2c-.2.579-.374,1.089-.519,1.476a25.344,25.344,0,0,1-5.482,8.649c-3.082,3.347-12.721,15.355-14.847,22.38a.294.294,0,0,1-.281.209" transform="translate(-20.825 -1.636)" fill="#f6f6f6"/>
              <path id="Path_48307" data-name="Path 48307" d="M41.774,86.613c-3.461,0-5.816-7.4-7.1-11.445l-.129-.405c-1.2-3.745-6.225-11.571-6.275-11.65a.294.294,0,0,1,.494-.318c.209.324,5.121,7.971,6.341,11.789l.13.406C36.421,78.734,38.9,86.524,42.082,86c2.762-.456,8.127-14.283,9.961-19.572a.293.293,0,1,1,.554.192c-.686,1.98-6.812,19.363-10.419,19.959a2.463,2.463,0,0,1-.4.034" transform="translate(-18.36 -40.769)" fill="#f6f6f6"/>
              <path id="Path_48308" data-name="Path 48308" d="M37.222,83.348h0c-2.153,0-3.835-5.884-4.171-9.176-.351-3.429-3.833-10.581-3.868-10.653a.293.293,0,1,1,.527-.258c.145.3,3.564,7.318,3.925,10.85.39,3.811,2.157,8.647,3.588,8.649h0c1.627,0,5.368-6.55,8.67-12.33,3.042-5.325,6.188-10.832,8.583-13.194a.294.294,0,1,1,.412.418c-2.338,2.305-5.463,7.776-8.486,13.067-4.487,7.855-7.344,12.626-9.179,12.626" transform="translate(-18.967 -37.185)" fill="#f6f6f6"/>
              <path id="Path_48309" data-name="Path 48309" d="M33.048,53.238a.293.293,0,0,1-.214-.494l1.944-2.066c.224-.3.957-1.288,1.98-2.67,3.61-4.873,11.12-15.013,13.036-17.229,1.465-1.694,2.8-3.318,4.09-4.888a112.174,112.174,0,0,1,9.54-10.609.293.293,0,0,1,.406.424,111.872,111.872,0,0,0-9.492,10.558c-1.293,1.573-2.629,3.2-4.1,4.9-1.9,2.2-9.4,12.328-13.008,17.195-1.025,1.384-1.759,2.376-2,2.7l-1.964,2.09a.293.293,0,0,1-.214.093" transform="translate(-21.311 -9.89)" fill="#f6f6f6"/>
            </g>
          </g>
          <path id="hoop" d="M186.035,233.145H142.967a2.1,2.1,0,0,1-2.093-2.093v-4.009a2.1,2.1,0,0,1,2.093-2.094h43.068a2.1,2.1,0,0,1,2.093,2.094v4.009a2.1,2.1,0,0,1-2.093,2.093" transform="translate(-140.874 -224.949)" fill="#fc3388"/>
        </g>
      </g>
    </g>
  </g>
</svg>
