<svg xmlns="http://www.w3.org/2000/svg" xmlns:xlink="http://www.w3.org/1999/xlink" width="637" height="600" viewBox="0 0 637 600">
  <defs>
    <clipPath id="clip-_160x600_WiFi_DEV_ASSET_1">
      <rect width="637" height="600"/>
    </clipPath>
  </defs>
  <g id="_160x600_WiFi_DEV_ASSET_1" data-name="160x600_WiFi_DEV ASSET – 1" clip-path="url(#clip-_160x600_WiFi_DEV_ASSET_1)">
    <g id="_7" data-name="7" transform="translate(85.704 167.578)">
      <path id="Path_47982" data-name="Path 47982" d="M324.713,104.708h29.6s-3.675-4.355-8.484-3.72c0,0-2.647-3.9-6.549-3.9a8.172,8.172,0,0,0-6.186,3.267s-8.015.091-8.378,4.355" transform="translate(-324.713 -97.086)" fill="#fff"/>
    </g>
    <g id="_6" data-name="6" transform="translate(9 394.245)">
      <path id="Path_47981" data-name="Path 47981" d="M522.872,224.411h39.2s-1.874-5.189-9.224-3.459c0,0-1.585-6.486-6.774-6.486a7.767,7.767,0,0,0-7.062,3.891s-6.774-1.153-9.8,3.747c0,0-4.756.288-6.341,2.306" transform="translate(-522.872 -214.466)" fill="#fff"/>
    </g>
    <g id="_7-2" data-name="7" transform="translate(64.134 404.19)">
      <path id="Path_47982-2" data-name="Path 47982" d="M324.713,102.641h21.571s-2.679-3.174-6.184-2.711c0,0-1.929-2.844-4.773-2.844a5.956,5.956,0,0,0-4.508,2.381s-5.841.066-6.106,3.174" transform="translate(-324.713 -97.086)" fill="#fff"/>
    </g>
    <g id="_5" data-name="5" transform="translate(471.483 359.9)">
      <path id="Path_47971" data-name="Path 47971" d="M1318.964,226.57h42.627s-3.971-4.5-8.031-2.824c0,0-2.118-11.65-10.238-6.707,0,0-5.913-2.281-7.59,4.155,0,0-3.53-2.3-5.384,1.935,0,0-3.354-1.236-4.854,1.942a12.826,12.826,0,0,0-6.531,1.5" transform="translate(-1318.964 -215.816)" fill="#fff"/>
    </g>
    <g id="_7-3" data-name="7" transform="translate(192 355.871)">
      <path id="Path_47982-3" data-name="Path 47982" d="M324.713,105.144H356s-3.885-4.6-8.97-3.933c0,0-2.8-4.125-6.923-4.125a8.639,8.639,0,0,0-6.539,3.454s-8.473.1-8.857,4.6" transform="translate(-324.713 -97.086)" fill="#fff"/>
    </g>
    <g id="_7-4" data-name="7" transform="translate(288.676 308.509)">
      <path id="Path_47982-4" data-name="Path 47982" d="M324.713,102.553h21.228s-2.636-3.124-6.086-2.668c0,0-1.9-2.8-4.7-2.8a5.861,5.861,0,0,0-4.437,2.343s-5.749.065-6.009,3.124" transform="translate(-324.713 -97.086)" fill="#fff"/>
    </g>
    <path id="Path_47972" data-name="Path 47972" d="M0,67.47H21.111a3.705,3.705,0,0,0-4.967-2.407S15.29,60.55,12.5,60.55a4.273,4.273,0,0,0-3.8,2.708,4.806,4.806,0,0,0-5.278,2.608s-2.561.2-3.415,1.6" transform="translate(359.69 361.195)" fill="#fff"/>
    <g id="_5-2" data-name="5" transform="translate(514.109 193)">
      <path id="Path_47971-2" data-name="Path 47971" d="M1362.654,226.838h-43.69s4.07-4.613,8.232-2.895c0,0,2.171-11.94,10.493-6.875,0,0,6.061-2.338,7.779,4.259,0,0,3.618-2.359,5.518,1.983,0,0,3.437-1.266,4.975,1.99a13.146,13.146,0,0,1,6.694,1.538" transform="translate(-1318.964 -215.816)" fill="#fff"/>
    </g>
  </g>
</svg>
