<svg xmlns="http://www.w3.org/2000/svg" xmlns:xlink="http://www.w3.org/1999/xlink" width="46.168" height="44.531" viewBox="0 0 46.168 44.531">
  <defs>
    <clipPath id="clip-path"/>
  </defs>
  <g id="plane_and_globe" data-name="plane and globe" transform="translate(-32.855 -215.286)">
    <path id="plane" d="M55.823,342.33l-1.774.251-.7.4.53.311,6.842,5.566,1.052,1.027-.289.149a1.594,1.594,0,0,0-.481.413.1.1,0,0,0,.079.153,1.586,1.586,0,0,0,.616-.151l.428-.22,1.707,1.665-.341.176a1.587,1.587,0,0,0-.481.413.092.092,0,0,0-.008.1.093.093,0,0,0,.086.052,1.59,1.59,0,0,0,.616-.151l.48-.247,1.707,1.665-.392.2a1.594,1.594,0,0,0-.481.413.1.1,0,0,0,.079.153,1.586,1.586,0,0,0,.616-.151l.531-.273,1.568,1.529.222.432-.481.247a1.59,1.59,0,0,0-.481.414.1.1,0,0,0,.079.153,1.59,1.59,0,0,0,.616-.151l.481-.247,1.384,2.689a6.772,6.772,0,0,0-1.347,1.2l-4,2.056a97.651,97.651,0,0,0-8.693,5.439l-5.824-3.742a.366.366,0,0,0-.339-.037l-1.468.56,4.933,5.267a8.194,8.194,0,0,0-1.3,1.3c-.325.192-.676.421-1.119.743a.066.066,0,0,0-.012.084.067.067,0,0,0,.075.04,12.961,12.961,0,0,0,1.3-.5,8.607,8.607,0,0,0,1.756-.3l1.421,7.1,1.309-.868a.365.365,0,0,0,.166-.3l.344-6.936a97.753,97.753,0,0,0,9.469-3.906l3.932-2.023-.03.026a6.871,6.871,0,0,0,1.785-.4l1.384,2.69-.481.247a1.6,1.6,0,0,0-.481.414.1.1,0,0,0,.079.153,1.586,1.586,0,0,0,.616-.151l.481-.247.222.432.333,2.166-.532.274a1.6,1.6,0,0,0-.481.413.1.1,0,0,0,.079.153,1.6,1.6,0,0,0,.616-.152l.393-.2.363,2.358-.48.247a1.594,1.594,0,0,0-.481.413.093.093,0,0,0-.008.1.092.092,0,0,0,.086.052,1.586,1.586,0,0,0,.616-.152l.341-.175.363,2.359-.428.22a1.593,1.593,0,0,0-.481.413.1.1,0,0,0,.079.153,1.6,1.6,0,0,0,.616-.151l.289-.149.224,1.454.549,8.786h0l-.056.626.733-.341,1.236-1.3,1.153-18.613.692-.168.01.021.013.024.013.024.012.025.013.024.013.024.013.024.013.025.012.024a12.043,12.043,0,0,0,3.309-1.578.273.273,0,0,0,.034-.329l-.007-.013-.007-.012-.006-.013-.007-.012-.006-.013-.007-.012-.006-.013-.007-.012-.007-.013-.006-.012-.007-.013-.006-.012L83,364.588l-.007-.012-.006-.013-.007-.012-.006-.013-.007-.012-.007-.013-.006-.012-.007-.013-.007-.013-.007-.013-.007-.013-.007-.013-.007-.013-.007-.013L82.9,364.4l-.007-.013-.007-.013-.007-.013-.007-.013-.007-.013-.007-.013-.007-.013-.007-.013-.007-.013-.007-.013-.007-.013-.007-.013-.007-.013-.007-.013-.02-.04-.02-.039-.02-.04-.02-.039-.02-.04-.02-.039-.02-.04-.02-.039-.02-.04-.02-.039-.02-.04-.02-.039-.02-.04-.02-.039-.02-.039-.02-.04-.02-.039-.02-.04-.02-.039-.02-.04-.02-.039-.187-.363,0,0,0,0,0,0,0,0,0,0,0,0,0,0,0,0,0,0,0,0,0,0,0,0,0,0,0,0,0,0,0,0,0,0,0,0,0,0,0,0,0,0h-.007l0,0,0,0,0,0,0,0,0,0,0,0,0,0,0,0,0,0,0,0,0,0,0,0,0,0,0,0,0,0,0,0,0,0,0,0,0,0,0,0,0,0a.271.271,0,0,0-.288-.164,9.964,9.964,0,0,0-2.728,1.448l.268-4.328h0l-.011.005-.118.051,8.918-4.588a13.813,13.813,0,0,0,3.915-2.684,11.345,11.345,0,0,0,2.062-2.651.343.343,0,0,0-.187-.364,11.352,11.352,0,0,0-3.356.135,13.8,13.8,0,0,0-4.459,1.625L77.4,355.823l-3.678-2.3a9.7,9.7,0,0,0,2.688-1.349.272.272,0,0,0,.035-.329l-.013-.025-.013-.025-.013-.025-.013-.025-.013-.025-.013-.025-.013-.025-.013-.025-.013-.025-.013-.025-.013-.025-.013-.025-.013-.025-.013-.025-.013-.025-.013-.025-.013-.025-.013-.026-.013-.025-.013-.025-.013-.026-.008-.015-.008-.016-.008-.015-.008-.016-.008-.015-.008-.016-.008-.016-.008-.015-.008-.016-.008-.015-.008-.016-.008-.015-.008-.016-.008-.016-.008-.015-.008-.016-.008-.015-.008-.016-.008-.015L76.009,351,76,350.985l-.477-.926,0,0,0,0v0l0-.005,0,0v0l0-.005h0l0,0,0,0h0l0,0,0,0v0l0,0v0l0,0,0-.005h0l0,0,0,0h0l0,0,0,0v0l0,0v0l0,0,0-.005h0l0,0,0,0h0l0-.008,0-.009,0-.009,0-.009,0-.009,0-.009,0-.009,0-.009,0-.009c-.044-.085-.185-.2-.288-.165a16.367,16.367,0,0,0-3.2,1.789l0,.009,0,.009,0,.009,0,.009,0,.009,0,.009,0,.009,0,0,0,.005h0l0,.006,0,0v0l0,.006h0l0,.005,0,0v0l0,.006h0l0,.005,0,0v0l0,.006h0l0,0,0,0v0l0,.006v0l0,0,0,0h0l0,.006v0l0,0,0,.005h0l0,.005,0,0,0,0,0,.006.046.091-.487.421-15.771-9.858" transform="translate(-15.104 -127.044)" fill="#00a" fill-rule="evenodd"/>
  </g>
</svg>
