<svg xmlns="http://www.w3.org/2000/svg" xmlns:xlink="http://www.w3.org/1999/xlink" width="160" height="600" viewBox="0 0 160 600">
  <defs>
    <clipPath id="clip-path">
      <rect id="crop_area" data-name="crop area" width="160" height="451" fill="#00a"/>
    </clipPath>
    <clipPath id="clip-JetBlue_Retail_Refresh_Live_TV_160x600_Frame04_v02_1">
      <rect width="160" height="600"/>
    </clipPath>
  </defs>
  <g id="JetBlue_Retail_Refresh_Live_TV_160x600_Frame04_v02_1" data-name="JetBlue_Retail_Refresh_Live_TV_160x600_Frame04_v02 – 1" clip-path="url(#clip-JetBlue_Retail_Refresh_Live_TV_160x600_Frame04_v02_1)">
    <g id="illustration" clip-path="url(#clip-path)">
      <g id="plane_seatback" data-name="plane seatback" transform="translate(-14.811 233.666)">
        <path id="Path_48261" data-name="Path 48261" d="M103.044,299.438l-72.492.166-6.647-90.372h79.138Z" transform="translate(-4.315 -37.768)" fill="#000064"/>
        <path id="Path_48262" data-name="Path 48262" d="M8.835,265.807c-2.41-.093-7.234,0-7.791-1.67s-2.041-10.2,0-17.437c.37-1.113,7.977-17.437,9.091-17.994s7.358,0,7.358,0l2.1,18.427.932,16.819s-2.041,2.225-11.688,1.855" transform="translate(0 -41.238)" fill="#44447e"/>
        <path id="Path_48263" data-name="Path 48263" d="M18.93,201.823h9.4a13.165,13.165,0,0,1,.309,7.625c0,.144-2.669,7.03-2.669,7.03L31.544,298.1H26.907L18.93,216.293Z" transform="translate(-3.417 -36.43)" fill="#44447e"/>
        <path id="Path_48264" data-name="Path 48264" d="M2.406,274.085H20.025s1.109,36.65,0,37.225-15.765.537-16.692,0c-.927-.722-.927-37.225-.927-37.225" transform="translate(-0.434 -49.474)" fill="#44447e"/>
        <path id="Path_48265" data-name="Path 48265" d="M111.148,299.438l72.492.166,6.647-90.372H111.148Z" transform="translate(-20.063 -37.768)" fill="#000064"/>
        <path id="Path_48266" data-name="Path 48266" d="M218.268,265.807c2.41-.093,7.234,0,7.791-1.67s2.041-10.2,0-17.437c-.37-1.113-7.977-17.437-9.091-17.994s-7.358,0-7.358,0l-2.1,18.427-.932,16.819s2.042,2.225,11.688,1.855" transform="translate(-37.289 -41.238)" fill="#44447e"/>
        <path id="Path_48267" data-name="Path 48267" d="M209.915,201.823h-9.4a13.165,13.165,0,0,0-.309,7.625c0,.144,2.669,7.03,2.669,7.03L197.3,298.1h4.638l7.977-81.808Z" transform="translate(-35.614 -36.43)" fill="#44447e"/>
        <path id="Path_48268" data-name="Path 48268" d="M225.229,274.085H207.61s-1.11,36.65,0,37.225,15.764.537,16.691,0c.928-.722.928-37.225.928-37.225" transform="translate(-37.386 -49.474)" fill="#44447e"/>
        <path id="Path_48269" data-name="Path 48269" d="M18.066,144.143c0,.186-1.786,0-1.608,2.424s8.932,44.172,8.932,44.172a3.714,3.714,0,0,0,2.5,1.305c1.429,0,.3-.746.831,2.238s.893,128.619.893,128.619H166.467s.357-125.635.893-128.619-.6-2.238.832-2.238a3.711,3.711,0,0,0,2.5-1.305s8.753-41.747,8.932-44.172-1.608-2.238-1.608-2.424" transform="translate(-2.969 -26.019)" fill="#000064"/>
        <path id="Path_48271" data-name="Path 48271" d="M185.761,85.1c-.381-10.831-2.711-34.382-6.272-46.192-3.507-11.629-2.112-27.867-23.147-30.307C135.571,6.2,107.7,6.343,96.048,6.346S56.523,6.2,35.753,8.6c-21.036,2.44-19.641,18.679-23.147,30.307C9.044,50.723,6.715,74.273,6.334,85.1c-.314,8.928,4.173,24.336,5.875,29.827a2.866,2.866,0,0,0,2.784,1.991h1.473l-.112,2.141H15.4a1.36,1.36,0,0,0-1.344,1.618l7.61,33.411H170.434l7.61-33.411a1.361,1.361,0,0,0-1.344-1.618h-.958l-.111-2.141H177.1a2.866,2.866,0,0,0,2.784-1.991c1.7-5.491,6.19-20.9,5.875-29.827" transform="translate(-1.14 -1.145)" fill="#000064"/>
      </g>
    </g>
  </g>
</svg>
