<svg id="THUMB_2" data-name="THUMB 2" xmlns="http://www.w3.org/2000/svg" width="46.874" height="41.403" viewBox="0 0 46.874 41.403">
  <path id="Union_6" data-name="Union 6" d="M29.245,39.624c-1.648.308-3.718,1.415-5.407.963-2.061-.549-3.105-3.889-3.395-3.95-3.08,1.684-5.978-.1-4.756-4.069-1.5-1.7-.389-3.788-.167-4.825-3.037-5.6-.376-12.693.838-13.5a1.812,1.812,0,0,1,1.3-.279c.779.03,2,.061,4.921-1.161C27.391,10.788,27.33,7.835,28,5.258c.489-1.881-.3-3.564.972-4.539.939-1.647,4.852-.242,6.378,1.972s3.145,8.427-.753,11.936c-.036.168.543-.016,1.4-.2,1.9-.407,5.179-.814,6.134,2.627,3.379.493,5.779,3.776,3.085,7.636-.339.839,4.259,3.076-.541,7.634.957,3.008-.991,5.393-3.854,4.8.722,2.957-2.352,4.277-5.641,4.277A9.475,9.475,0,0,1,29.245,39.624ZM2.073,32.714a6.592,6.592,0,0,1,.171-1.665A3.659,3.659,0,0,1,0,27.6a7.726,7.726,0,0,1,2.053-5.2c-.4-3.169,1.684-7.576,4.18-8.058,2.6-.5,4.918.933,5.541,4.118a9.649,9.649,0,0,1-.165,3.8,6.872,6.872,0,0,1,1.716,4.25,4.417,4.417,0,0,1-1.27,3.462A7.714,7.714,0,0,1,12.407,32a3.523,3.523,0,0,1-1.08,2.755,4.865,4.865,0,0,1-4.261,3.666l-.138,0C4.345,38.421,2.186,35.9,2.073,32.714Z" transform="translate(0 0)" fill="#fff"/>
</svg>
