<svg xmlns="http://www.w3.org/2000/svg" xmlns:xlink="http://www.w3.org/1999/xlink" width="300" height="250" viewBox="0 0 300 250"><defs><clipPath id="b"><rect width="300" height="250"/></clipPath></defs><g id="a" clip-path="url(#b)"><path d="M156.874,64.954c-.314-8.932-2.235-28.354-5.173-38.095-2.892-9.59-1.742-22.982-19.09-24.994C115.483-.122,92.5,0,82.888,0s-32.6-.124-49.724,1.863c-17.348,2.013-16.2,15.4-19.09,24.994C11.137,36.6,9.215,56.022,8.9,64.954c-.26,7.364,3.441,20.07,4.845,24.6a2.364,2.364,0,0,0,2.3,1.642h1.214l-.092,1.766h-.79a1.122,1.122,0,0,0-1.109,1.334l6.276,27.554H144.234l6.276-27.554A1.122,1.122,0,0,0,149.4,92.96h-.79l-.092-1.766h1.214a2.363,2.363,0,0,0,2.3-1.642c1.4-4.528,5.1-17.235,4.845-24.6" transform="translate(67.113 72.342)" fill="#44447e"/></g></svg>