<svg xmlns="http://www.w3.org/2000/svg" width="19.217" height="18.536" viewBox="0 0 19.217 18.536">
  <path id="plane" d="M51.232,342.33l-.738.1-.293.166.22.129,2.848,2.317.438.427-.12.062a.663.663,0,0,0-.2.172.04.04,0,0,0,.033.064.659.659,0,0,0,.257-.063l.178-.092.711.693-.142.073a.66.66,0,0,0-.2.172.04.04,0,0,0,.033.064.662.662,0,0,0,.256-.063l.2-.1.71.693-.163.084a.664.664,0,0,0-.2.172.04.04,0,0,0,.033.064.661.661,0,0,0,.257-.063l.221-.114.653.637.093.18-.2.1a.661.661,0,0,0-.2.172.04.04,0,0,0,.033.064.662.662,0,0,0,.256-.063l.2-.1.576,1.119a2.818,2.818,0,0,0-.561.5l-1.664.856a40.65,40.65,0,0,0-3.618,2.264l-2.424-1.557a.152.152,0,0,0-.141-.016l-.611.233,2.053,2.192a3.412,3.412,0,0,0-.54.54c-.135.08-.281.175-.466.309a.027.027,0,0,0,0,.035.028.028,0,0,0,.031.017,5.4,5.4,0,0,0,.543-.208,3.585,3.585,0,0,0,.731-.125l.591,2.953.545-.362a.152.152,0,0,0,.069-.124l.143-2.887a40.686,40.686,0,0,0,3.942-1.626l1.637-.842-.012.011a2.86,2.86,0,0,0,.743-.166l.576,1.12-.2.1a.665.665,0,0,0-.2.172.04.04,0,0,0,.033.064.66.66,0,0,0,.257-.063l.2-.1.093.18.139.9-.221.114a.667.667,0,0,0-.2.172.04.04,0,0,0,.033.064.664.664,0,0,0,.257-.063l.163-.084.151.982-.2.1a.664.664,0,0,0-.2.172.039.039,0,0,0,0,.042.038.038,0,0,0,.036.022.66.66,0,0,0,.257-.063l.142-.073.151.982-.178.092a.663.663,0,0,0-.2.172.04.04,0,0,0,.033.064.664.664,0,0,0,.257-.063l.12-.062.093.605.228,3.657h0l-.023.26.305-.142.514-.54.48-7.748.288-.07,0,.009.005.01.005.01.005.01.005.01.005.01.005.01.005.01.005.01a5.013,5.013,0,0,0,1.377-.657.114.114,0,0,0,.014-.137l0-.005,0-.005,0-.005,0-.005,0-.005,0-.005,0-.005,0-.005,0-.005,0-.005,0-.005,0-.005,0-.005,0-.005,0-.005,0-.005,0-.005,0-.005,0-.005,0-.005,0-.005,0-.005,0-.005,0-.005,0-.005,0-.005,0-.005,0-.005,0-.005,0-.005,0-.005,0-.005,0-.006,0-.005,0-.005,0-.005,0-.005,0-.005,0-.005,0-.005,0-.005,0-.005-.008-.016-.008-.016-.008-.016-.008-.016-.008-.016-.008-.016-.008-.016-.008-.016-.008-.016-.008-.016-.008-.016-.008-.016-.008-.016-.008-.016-.008-.016-.008-.016-.008-.016-.008-.016-.008-.016-.008-.016-.008-.016-.078-.151h-.018v-.04a.113.113,0,0,0-.12-.068,4.147,4.147,0,0,0-1.136.6l.112-1.8h0l0,0-.049.021,3.712-1.91a5.749,5.749,0,0,0,1.63-1.117,4.723,4.723,0,0,0,.858-1.1.143.143,0,0,0-.078-.152,4.726,4.726,0,0,0-1.4.056,5.745,5.745,0,0,0-1.856.676l-3.63,1.867-1.531-.957a4.036,4.036,0,0,0,1.119-.562.113.113,0,0,0,.014-.137l-.005-.011-.005-.01-.005-.01-.005-.011-.005-.01-.005-.01-.005-.011-.005-.011-.005-.01-.005-.011-.005-.011-.005-.01-.005-.011-.005-.011-.005-.01-.005-.011-.005-.011-.005-.011-.005-.01-.005-.01-.005-.011,0-.006,0-.007,0-.006,0-.007,0-.006,0-.007,0-.007,0-.006,0-.007,0-.006,0-.007,0-.006,0-.007,0-.007,0-.006,0-.007,0-.006,0-.007,0-.006,0-.007,0-.007-.2-.385v0h0v0h0v0h0v0h0v0h0v0h0v0h0v0h0v0h0v0h0v0h0v0h0l0,0,0,0,0,0,0,0,0,0,0,0,0,0,0,0,0,0c-.018-.035-.077-.082-.12-.069a6.812,6.812,0,0,0-1.332.745l0,0,0,0,0,0,0,0,0,0,0,0,0,0h0v0h0v0h0v0h0v0h0v0h0v0h0v0h0v0h0v0h0v0h0v0h0v0h0v0h0v0l.019.038-.2.175-6.565-4.1" transform="translate(-47.959 -342.33)" fill="#00a" fill-rule="evenodd"/>
</svg>
