<svg xmlns="http://www.w3.org/2000/svg" width="19.898" height="19.898" viewBox="0 0 19.898 19.898">
  <g id="plane_seatback" data-name="plane seatback" transform="translate(-89.131 -109.677)">
    <g id="basketball" transform="translate(89.131 109.677)">
      <path id="Path_48054" data-name="Path 48054" d="M66.427,136.837a9.949,9.949,0,1,1-9.949-9.949,9.949,9.949,0,0,1,9.949,9.949" transform="translate(-46.529 -126.888)" fill="#ee7c54"/>
      <path id="Path_48055" data-name="Path 48055" d="M66.427,136.837a9.949,9.949,0,1,1-9.949-9.949,9.949,9.949,0,0,1,9.949,9.949" transform="translate(-46.529 -126.888)" fill="#ff6433"/>
      <path id="Path_48056" data-name="Path 48056" d="M65.881,142.071a9.951,9.951,0,0,1-19.077,5.2,9.95,9.95,0,1,0,19.077-5.2" transform="translate(-46.691 -135.81)" fill="#cc4b29"/>
      <path id="Path_48057" data-name="Path 48057" d="M62.155,127.992q-.455.143-.89.327a10.733,10.733,0,0,1,10.457,10.718,13.907,13.907,0,0,1-1.942,7.25q.336-.178.657-.38a14.311,14.311,0,0,0,1.669-6.87,11.12,11.12,0,0,0-9.95-11.045" transform="translate(-55.189 -127.537)" fill="#402f28"/>
      <path id="Path_48058" data-name="Path 48058" d="M52.4,148.988a18.536,18.536,0,0,1,15.47-12.457q-.129-.182-.267-.357a18.572,18.572,0,0,0-10.7,5.121,18.172,18.172,0,0,0-4.791,7.363c.093.112.189.223.287.33" transform="translate(-49.81 -132.345)" fill="#402f28"/>
      <path id="Path_48059" data-name="Path 48059" d="M77.751,143.775a2.622,2.622,0,0,0-2.964-.824,3.528,3.528,0,0,0-2.641,3.237,15.566,15.566,0,0,1-2.26,7.7,7.792,7.792,0,0,1-1.978,2.193q.281.032.567.048a8.967,8.967,0,0,0,1.733-2.034,15.95,15.95,0,0,0,2.32-7.889,3.109,3.109,0,0,1,2.361-2.887,2.28,2.28,0,0,1,2.543.667,13.616,13.616,0,0,1,1.484,3.425,10,10,0,0,0,.072-1.025,12.119,12.119,0,0,0-1.236-2.612" transform="translate(-59.093 -136.249)" fill="#402f28"/>
      <path id="Path_48060" data-name="Path 48060" d="M60.811,129.652a1.391,1.391,0,0,1-.575,1.08,3.743,3.743,0,0,1-3.022.522,10.008,10.008,0,0,0-7.689,1.439,13.817,13.817,0,0,0-1.535,1.122q-.156.373-.282.761a13.626,13.626,0,0,1,2.021-1.557,9.631,9.631,0,0,1,7.4-1.39,4.143,4.143,0,0,0,3.348-.6,1.742,1.742,0,0,0,.72-1.381,3.833,3.833,0,0,0-.219-1.193q-.236-.1-.477-.183a3.873,3.873,0,0,1,.312,1.377" transform="translate(-47.221 -127.703)" fill="#402f28"/>
      <path id="Path_48061" data-name="Path 48061" d="M62.1,143.393a18.142,18.142,0,0,1,1.573-1.491c.275-.235.559-.459.847-.678s.583-.428.886-.625a19.164,19.164,0,0,1,1.875-1.088,16.331,16.331,0,0,1,1.99-.858c-.339.125-.67.27-1,.42s-.653.309-.973.475-.636.341-.948.521c-.155.093-.311.183-.463.28l-.23.142-.227.148c-.3.2-.6.407-.886.621-.143.11-.288.217-.429.33l-.212.168-.209.172q-.417.345-.817.71c-.267.243-.528.493-.778.753" transform="translate(-55.679 -133.802)" fill="#f2ad7f"/>
      <path id="Path_48062" data-name="Path 48062" d="M54.718,135.9a8.988,8.988,0,0,1,2.057-.84,8.194,8.194,0,0,1,1.092-.223,8.883,8.883,0,0,1,1.112-.071,12.757,12.757,0,0,1,2.215.224c.183.032.365.066.548.1l.137.022.137.018.138.012c.046,0,.092.006.139.007a4.074,4.074,0,0,0,.554-.02,3.989,3.989,0,0,0,.548-.094,3.958,3.958,0,0,1-.546.106,4.1,4.1,0,0,1-.556.032c-.046,0-.093,0-.139,0l-.139-.011-.139-.016-.138-.02c-.183-.028-.366-.059-.549-.089-.366-.059-.732-.116-1.1-.153a10.724,10.724,0,0,0-1.108-.059,8.189,8.189,0,0,0-2.194.281,9.673,9.673,0,0,0-1.056.342c-.173.066-.344.138-.513.214s-.336.157-.5.247" transform="translate(-51.341 -131.52)" fill="#f2ad7f"/>
      <path id="Path_48063" data-name="Path 48063" d="M70.207,129.61c.19.063.376.139.56.218.091.041.183.082.273.125s.181.086.27.132a10.7,10.7,0,0,1,1.04.6l.125.083c.042.028.082.058.123.087l.245.175.238.184c.039.031.08.06.118.093l.115.1c.075.066.153.129.227.2l.219.206c.036.035.073.068.108.1l.1.109.206.219-.216-.209-.108-.1c-.036-.035-.075-.067-.112-.1l-.223-.2c-.075-.066-.154-.127-.231-.191-.153-.129-.315-.246-.473-.368l-.245-.173c-.041-.028-.082-.058-.123-.085l-.126-.082c-.165-.112-.336-.215-.507-.32l-.26-.149-.263-.143c-.088-.048-.178-.092-.266-.138s-.18-.087-.27-.131c-.181-.085-.364-.167-.55-.24" transform="translate(-60.444 -128.488)" fill="#f2ad7f"/>
    </g>
  </g>
</svg>
