<svg xmlns="http://www.w3.org/2000/svg" xmlns:xlink="http://www.w3.org/1999/xlink" width="728" height="90" viewBox="0 0 728 90">
  <defs>
    <clipPath id="clip-path">
      <rect id="crop_area" data-name="crop area" width="504" height="90" fill="#00a"/>
    </clipPath>
    <clipPath id="clip-path-2">
      <rect id="Rectangle_3204" data-name="Rectangle 3204" width="24.269" height="26.069" fill="none"/>
    </clipPath>
    <clipPath id="clip-JetBlue_Retail_Refresh_Live_TV_728x90_Frame04_v02_1">
      <rect width="728" height="90"/>
    </clipPath>
  </defs>
  <g id="JetBlue_Retail_Refresh_Live_TV_728x90_Frame04_v02_1" data-name="JetBlue_Retail_Refresh_Live_TV_728x90_Frame04_v02 – 1" clip-path="url(#clip-JetBlue_Retail_Refresh_Live_TV_728x90_Frame04_v02_1)">
    <g id="illustration" clip-path="url(#clip-path)">
      <g id="plane_seatback" data-name="plane seatback" transform="translate(298.039 4.067)">
        <g id="hoop_and_net_new" data-name="hoop and net new" transform="translate(52.654 55.814)">
          <g id="net" transform="translate(1.174 1.43)">
            <g id="Group_15031" data-name="Group 15031" clip-path="url(#clip-path-2)">
              <path id="Path_48302" data-name="Path 48302" d="M29.628,28.076A.775.775,0,0,1,29.3,28c-.4-.183-.711-.722-.928-1.6a27.677,27.677,0,0,0-4.5-9.993c-.23-.256-.506-.548-.8-.857a25.651,25.651,0,0,1-5.711-8.247c-1.217-3.122-2.406-4.55-2.641-4.474,0,0-.289.2.26,2.3.29,1.11.606,2.233.912,3.318.94,3.335,1.827,6.485,1.671,8.331a.165.165,0,1,1-.329-.028c.151-1.786-.729-4.908-1.66-8.213-.306-1.087-.623-2.211-.914-3.324-.585-2.237-.3-2.609-.042-2.694.122-.039.49-.159,1.382,1.245a20.642,20.642,0,0,1,1.669,3.423,25.37,25.37,0,0,0,5.643,8.14c.293.311.571.6.8.863A27.574,27.574,0,0,1,28.7,26.342c.186.747.444,1.224.742,1.362a.53.53,0,0,0,.479-.037c.464-.226.4-3.239.354-5.439a35.1,35.1,0,0,1,.123-5.37c.487-2.877,3.163-8.373,3.961-9.67a11.1,11.1,0,0,0,1.09-3.074.165.165,0,0,1,.325.062A11.243,11.243,0,0,1,34.639,7.36c-.765,1.243-3.445,6.765-3.917,9.552a34.931,34.931,0,0,0-.118,5.308c.071,3.363.083,5.44-.538,5.742a.972.972,0,0,1-.438.114" transform="translate(-11.507 -2.007)" fill="#f6f6f6"/>
              <path id="Path_48303" data-name="Path 48303" d="M7.214,31.3H7.2c-.806-.034-.916-2.312-1.029-6.026-.041-1.348-.083-2.743-.186-3.84C5.7,18.456,3.5,14.192,2.313,11.9c-.177-.343-.329-.637-.444-.868-.062-.125-.17-.33-.3-.584C.266,7.994-.121,7.062.031,6.757A.24.24,0,0,1,.182,6.63a.346.346,0,0,1,.247-.009C.943,6.783,1.664,8.143,2.8,10.35a21.394,21.394,0,0,0,2.726,4.523,36.516,36.516,0,0,1,5.795,7.81l.232.386c.189.314.392.711.6,1.161,2.294-2.734,8.367-9.018,8.431-9.084a.165.165,0,0,1,.237.23c-.065.067-6.315,6.533-8.514,9.186.234.511.479,1.076.731,1.655.855,1.969,2.02,4.666,2.658,4.576.773-.11,2.3-3.22,3.083-5.154a.165.165,0,1,1,.307.124c-.005.013-.525,1.294-1.179,2.579-1.357,2.663-1.965,2.75-2.164,2.778-.816.117-1.684-1.725-3.008-4.772-.227-.523-.448-1.033-.661-1.5-.277.355-.728,1.081-1.248,1.918C9.183,29.417,7.957,31.3,7.214,31.3M.325,6.933A18.124,18.124,0,0,0,1.856,10.3c.136.257.245.464.308.591.114.23.265.522.442.863C3.8,14.061,6.024,18.362,6.31,21.4c.1,1.107.146,2.507.188,3.86.069,2.263.172,5.683.712,5.706h.008c.612,0,2.312-2.737,3.33-4.376.541-.871,1.008-1.624,1.3-1.982l.079-.1a14.146,14.146,0,0,0-.655-1.273l-.232-.386A36.262,36.262,0,0,0,5.3,15.117,20.939,20.939,0,0,1,2.5,10.5C1.774,9.08.674,6.941.325,6.933" transform="translate(0 -5.304)" fill="#f6f6f6"/>
              <path id="Path_48304" data-name="Path 48304" d="M42.823,20.479a.165.165,0,0,1-.16-.126C41.9,17.225,39.025,13.626,36.925,11A30.981,30.981,0,0,1,34.92,8.331a17.523,17.523,0,0,1-1.179-3.792c-.42-1.712-.9-3.652-1.337-3.918A.084.084,0,0,0,32.333.6c-.029.007-.291.128-.393,2.079-.065,1.256-.051,2.872-.037,4.435a35.241,35.241,0,0,1-.117,4.646,9.385,9.385,0,0,1-1.747,3.8.165.165,0,0,1-.257-.208A9.22,9.22,0,0,0,31.461,11.7a35.315,35.315,0,0,0,.112-4.583c-.041-4.522.013-6.671.68-6.837a.419.419,0,0,1,.321.055c.52.314.909,1.766,1.487,4.122a17.908,17.908,0,0,0,1.14,3.7,30.935,30.935,0,0,0,1.981,2.633c2.119,2.651,5.021,6.283,5.8,9.482a.165.165,0,0,1-.122.2.177.177,0,0,1-.039,0" transform="translate(-23.894 -0.218)" fill="#f6f6f6"/>
              <path id="Path_48305" data-name="Path 48305" d="M31.685,21.219h-.021a.165.165,0,0,1-.143-.185c.461-3.65,3.57-7.855,5.24-10.115.179-.242.34-.46.476-.648.8-1.1,1.161-3.571,1.48-5.748C39.11,1.849,39.388.2,40.14.02A.654.654,0,0,1,40.7.132c.708.529.817,2.64.914,4.5.035.663.067,1.29.124,1.742a14.737,14.737,0,0,0,1.634,4.769c.474.78,1,5.177,1.021,5.364a.165.165,0,0,1-.328.039,28.333,28.333,0,0,0-.975-5.231,15.138,15.138,0,0,1-1.679-4.9c-.059-.464-.092-1.1-.127-1.766C41.2,3.04,41.088.833,40.5.4a.321.321,0,0,0-.287-.056c-.573.138-.878,2.218-1.173,4.229-.325,2.214-.694,4.724-1.539,5.893-.137.189-.3.408-.479.651-1.652,2.235-4.728,6.4-5.178,9.96a.166.166,0,0,1-.164.144" transform="translate(-25.318 0.001)" fill="#f6f6f6"/>
              <path id="Path_48306" data-name="Path 48306" d="M32.172,25.268a.169.169,0,0,1-.048-.007.165.165,0,0,1-.11-.206c1.214-4.011,6.686-10.833,8.435-12.732A13.957,13.957,0,0,0,43.47,7.56c.081-.215.178-.5.289-.822.807-2.353,1.6-4.447,2.539-4.2.626.161.386,1.693-.171,4.865a36.03,36.03,0,0,0-.825,7.971.165.165,0,1,1-.329.028A36.2,36.2,0,0,1,45.8,7.341c.325-1.855.771-4.4.413-4.488-.707-.184-1.679,2.637-2.143,3.992-.112.326-.211.613-.292.831a14.273,14.273,0,0,1-3.087,4.871c-1.736,1.885-7.164,8.647-8.361,12.6a.165.165,0,0,1-.158.117" transform="translate(-25.709 -2.019)" fill="#f6f6f6"/>
              <path id="Path_48307" data-name="Path 48307" d="M35.853,76.15c-1.949,0-3.275-4.167-4-6.445l-.073-.228a43.06,43.06,0,0,0-3.534-6.561.165.165,0,0,1,.278-.179,42.325,42.325,0,0,1,3.571,6.639l.073.229c.671,2.109,2.069,6.5,3.859,6.2,1.555-.257,4.577-8.044,5.609-11.022a.165.165,0,1,1,.312.108c-.386,1.115-3.836,10.9-5.868,11.24a1.385,1.385,0,0,1-.228.019" transform="translate(-22.667 -50.332)" fill="#f6f6f6"/>
              <path id="Path_48308" data-name="Path 48308" d="M33.7,71.9h0c-1.212,0-2.16-3.314-2.349-5.168-.2-1.931-2.159-5.959-2.178-6a.165.165,0,1,1,.3-.145c.082.167,2.007,4.121,2.21,6.111.22,2.146,1.215,4.87,2.021,4.871h0c.916,0,3.023-3.689,4.882-6.944,1.713-3,3.485-6.1,4.834-7.43a.165.165,0,1,1,.232.236c-1.317,1.3-3.077,4.379-4.779,7.359-2.527,4.424-4.136,7.11-5.17,7.11" transform="translate(-23.416 -45.908)" fill="#f6f6f6"/>
              <path id="Path_48309" data-name="Path 48309" d="M32.92,36.622a.165.165,0,0,1-.12-.278l1.095-1.164c.126-.168.539-.726,1.115-1.5,2.033-2.744,6.263-8.455,7.341-9.7.825-.954,1.577-1.869,2.3-2.753a63.173,63.173,0,0,1,5.373-5.975.165.165,0,0,1,.229.239A63,63,0,0,0,44.91,21.43c-.728.886-1.481,1.8-2.308,2.759-1.071,1.238-5.3,6.942-7.326,9.683-.577.779-.991,1.338-1.129,1.52L33.04,36.57a.165.165,0,0,1-.12.052" transform="translate(-26.31 -12.209)" fill="#f6f6f6"/>
            </g>
          </g>
          <path id="hoop" d="M166.307,229.564H142.053a1.182,1.182,0,0,1-1.179-1.179v-2.258a1.182,1.182,0,0,1,1.179-1.179h24.255a1.182,1.182,0,0,1,1.179,1.179v2.258a1.182,1.182,0,0,1-1.179,1.179" transform="translate(-140.874 -224.949)" fill="#fc3388"/>
        </g>
      </g>
    </g>
  </g>
</svg>
