<svg xmlns="http://www.w3.org/2000/svg" xmlns:xlink="http://www.w3.org/1999/xlink" width="728" height="90" viewBox="0 0 728 90">
  <defs>
    <clipPath id="clip-path">
      <rect id="crop_area" data-name="crop area" width="504" height="90" fill="#00a"/>
    </clipPath>
    <clipPath id="clip-JetBlue_Retail_Refresh_Live_TV_728x90_Frame04_v02_1">
      <rect width="728" height="90"/>
    </clipPath>
  </defs>
  <g id="JetBlue_Retail_Refresh_Live_TV_728x90_Frame04_v02_1" data-name="JetBlue_Retail_Refresh_Live_TV_728x90_Frame04_v02 – 1" clip-path="url(#clip-JetBlue_Retail_Refresh_Live_TV_728x90_Frame04_v02_1)">
    <g id="illustration" clip-path="url(#clip-path)">
      <g id="plane_seatback" data-name="plane seatback" transform="translate(298.039 4.067)">
        <path id="Path_48261" data-name="Path 48261" d="M78.908,271.925l-50.382.116-4.62-62.809h55Z" transform="translate(-10.29 -90.064)" fill="#000064"/>
        <path id="Path_48262" data-name="Path 48262" d="M6.141,254.416c-1.675-.064-5.028,0-5.415-1.161a25.949,25.949,0,0,1,0-12.119c.257-.773,5.544-12.119,6.318-12.506s5.114,0,5.114,0l1.459,12.807.648,11.689s-1.419,1.546-8.124,1.289" transform="translate(0 -98.34)" fill="#8e8e8e"/>
        <path id="Path_48263" data-name="Path 48263" d="M18.93,201.823h6.535a9.15,9.15,0,0,1,.215,5.3c0,.1-1.855,4.886-1.855,4.886L27.7,268.736H24.474L18.93,211.88Z" transform="translate(-8.148 -86.874)" fill="#44447e"/>
        <path id="Path_48264" data-name="Path 48264" d="M2.406,274.085H14.651s.771,25.472,0,25.871-10.956.373-11.6,0c-.644-.5-.644-25.871-.644-25.871" transform="translate(-1.035 -117.98)" fill="#8e8e8e"/>
        <path id="Path_48265" data-name="Path 48265" d="M111.148,271.925l50.382.116,4.62-62.809h-55Z" transform="translate(-47.843 -90.064)" fill="#000064"/>
        <path id="Path_48266" data-name="Path 48266" d="M214.7,254.416c1.675-.064,5.028,0,5.415-1.161a25.949,25.949,0,0,0,0-12.119c-.257-.773-5.544-12.119-6.318-12.506s-5.114,0-5.114,0l-1.459,12.807-.648,11.689s1.419,1.546,8.124,1.289" transform="translate(-88.922 -98.34)" fill="#8e8e8e"/>
        <path id="Path_48267" data-name="Path 48267" d="M206.068,201.823h-6.535a9.15,9.15,0,0,0-.215,5.3c0,.1,1.855,4.886,1.855,4.886L197.3,268.736h3.223l5.544-56.857Z" transform="translate(-84.928 -86.874)" fill="#44447e"/>
        <path id="Path_48268" data-name="Path 48268" d="M219.705,274.085H207.46s-.771,25.472,0,25.871,10.956.373,11.6,0c.645-.5.645-25.871.645-25.871" transform="translate(-89.153 -117.98)" fill="#8e8e8e"/>
        <path id="Path_48269" data-name="Path 48269" d="M17.572,144.143c0,.129-1.242,0-1.117,1.685s6.208,30.7,6.208,30.7a2.581,2.581,0,0,0,1.739.907c.993,0,.205-.518.578,1.555s.621,89.39.621,89.39h95.112s.248-87.317.621-89.39-.415-1.555.578-1.555a2.58,2.58,0,0,0,1.738-.907s6.083-29.015,6.208-30.7-1.117-1.555-1.117-1.685" transform="translate(-7.079 -62.046)" fill="#000064"/>
        <path id="Path_48270" data-name="Path 48270" d="M130.675,53.455c-.259-7.351-1.84-23.334-4.257-31.35-2.38-7.892-1.434-18.913-15.71-20.569C96.611-.1,77.694,0,69.787,0S42.962-.1,28.866,1.535C14.589,3.191,15.536,14.212,13.156,22.1c-2.417,8.016-4,24-4.257,31.35-.214,6.06,2.832,16.517,3.987,20.244a1.945,1.945,0,0,0,1.89,1.351h1L15.7,76.5h-.65a.923.923,0,0,0-.912,1.1L19.3,100.275H120.272L125.437,77.6a.923.923,0,0,0-.912-1.1h-.65l-.076-1.453h1a1.945,1.945,0,0,0,1.889-1.351c1.155-3.727,4.2-14.184,3.987-20.244" transform="translate(-3.826 0)" fill="#44447e"/>
      </g>
    </g>
  </g>
</svg>
