<svg xmlns="http://www.w3.org/2000/svg" xmlns:xlink="http://www.w3.org/1999/xlink" width="728" height="90" viewBox="0 0 728 90">
  <defs>
    <clipPath id="clip-path">
      <rect id="crop_area" data-name="crop area" width="504" height="90" fill="#00a"/>
    </clipPath>
    <clipPath id="clip-JetBlue_Retail_Refresh_Your_Getaway_728x90_Frame04_1">
      <rect width="728" height="90"/>
    </clipPath>
  </defs>
  <g id="JetBlue_Retail_Refresh_Your_Getaway_728x90_Frame04_1" data-name="JetBlue_Retail_Refresh_Your_Getaway_728x90_Frame04 – 1" clip-path="url(#clip-JetBlue_Retail_Refresh_Your_Getaway_728x90_Frame04_1)">
    <g id="illustration" clip-path="url(#clip-path)">
      <g id="Lady_sleeping_in_seat" data-name="Lady sleeping in seat" transform="translate(260.863 6.901)">
        <ellipse id="shadow" cx="51.023" cy="3.959" rx="51.023" ry="3.959" transform="translate(172.896 76.014)" opacity="0.122"/>
        <g id="seat_left" data-name="seat left" transform="translate(173.127)">
          <rect id="Rectangle_3179" data-name="Rectangle 3179" width="27.753" height="1.207" transform="translate(21.719 78.203)" fill="#5e5e5e"/>
          <path id="Path_47807" data-name="Path 47807" d="M40.322,100.06c.123,1.3-.885,8.1-5.432,10.79s-6.323,2.143-7.731,2.082c-.735-.062-1.837.918-2.021,1.224s-.184,1.224,0,1.347,10.1,0,10.1,0-.061-1.1-.612-1.286-.245-.613.98-1.224,5.571-2.449,7.9-9.979c0,0,2.632-2.266,3.49-2.327s6.611-.458,7.285-.627a2.109,2.109,0,0,1,2.449,1.668,86.569,86.569,0,0,1,1.224,10.041c0,1.775-.245,3.782,0,3.789s3.367,0,3.367,0,.051-2.443-.495-2.443-.73.062-.852-.735-.306-14.816-.306-14.816L54.71,95.727Z" transform="translate(-9.438 -36.14)" fill="#5e5e5e"/>
          <path id="Path_47798" data-name="Path 47798" d="M30.236,86.781c1.734-.678,3.306-1.531,8.632-.918A84.385,84.385,0,0,0,56.44,86.2c6.49-.586,6.061,3.516,5.694,5.9s-.735,3.918-2.571,3.612a2.722,2.722,0,0,1-2.082-2.326l-6.8,2.039s-16.959,1.855-19.408,0S28,87.654,30.236,86.781" transform="translate(-10.923 -32.337)" fill="#999"/>
          <path id="Path_47799" data-name="Path 47799" d="M13.15,15.058h-2.4a1.53,1.53,0,0,1-1.53-1.529V1.853A1.53,1.53,0,0,1,10.746.324h1.526A1.529,1.529,0,0,1,13.8,1.853l.878,11.674a1.529,1.529,0,0,1-1.529,1.53Z" transform="translate(-3.479 -0.122)" fill="#5e5e5e"/>
          <path id="Path_47800" data-name="Path 47800" d="M4.193.323A4.335,4.335,0,0,1,7.5.323,51.234,51.234,0,0,0,7.07,8.1c.184,4.9.184,6.857,1.836,11.265S24.09,49.486,20.295,54.445c-2.082,1.47-3.306.552-3.306.552l-4.449-9.572L9.213,36.2,5.723,25.854,2.6,13.792V2.772Z" transform="translate(-0.982 0)" fill="#999"/>
          <path id="Path_47801" data-name="Path 47801" d="M8.142,56.853c.15-.907.586-1.265,2.669-.653s3.551.306,4.591,1.837a22.343,22.343,0,0,1,1.9,3.735l-2.327.735s-.591-2.859-1.706-3.32c-1.5-.619-5.415-.578-5.124-2.334" transform="translate(-3.068 -21.102)" fill="#5e5e5e"/>
          <path id="Path_47802" data-name="Path 47802" d="M45.985,65.569c-.453.255-.694.449-6.572,1.02s-13.592,2.082-17.1,3.429c-2.616,1.592-4.857.859-5.551-.653-.613-1.69-.449-4.49,3.054-4.717A85.8,85.8,0,0,1,30.352,63.9c7.143-.123,16.3-.531,16.479,0a1.761,1.761,0,0,1-.846,1.673" transform="translate(-6.224 -24.022)" fill="#5e5e5e"/>
          <path id="Path_47803" data-name="Path 47803" d="M21.728,64.848c-.653-1.018,2.367-1.429,11.02-1.894a149.593,149.593,0,0,1,15.918.1c.408.2.327.612-.327.653s-15.469.138-18.449.416-6.53.6-8.163.727" transform="translate(-8.171 -23.709)" fill="#999"/>
          <path id="Path_47804" data-name="Path 47804" d="M19.988,73.832c.311.232,2.2-.571,2.735.939S25.192,84.9,33.049,86.1c6.71,1.028,16.755-1.658,18.857-.27,1.6,1.054,2.439,2.885,2,3.347-.8.836-3.306,1.526-14.776,2.954s-13.694.332-17.877-4.26c-4.86-5.333-5.042-14.121-4.807-14.367s1.46-1.225,3.541.326" transform="translate(-6.185 -27.55)" fill="#5e5e5e"/>
          <path id="Path_47805" data-name="Path 47805" d="M2.823,1.371c-.776.163-1.714.326-2.04,2.163S-.892,10.065.945,18.882c.082.163.245.326.857.163a3.787,3.787,0,0,1,.122.367s-1.1.245-1.061.408S5.435,34.31,5.435,34.31s.2.49,1.061.408c.041,0,.409-.278.817.779.047.012,1.429.608,1.429.608S3.272,19.861,2.578,16.269a55.918,55.918,0,0,1,.245-14.9" transform="translate(0 -0.518)" fill="#5e5e5e"/>
        </g>
      </g>
    </g>
  </g>
</svg>
