<svg xmlns="http://www.w3.org/2000/svg" width="340" height="112" viewBox="0 0 340 112">
  <path id="JetBlue_Logo" data-name="JetBlue Logo" d="M4.985,112H0V99.965H3.612a7.589,7.589,0,0,0,5.188-1.6A6.6,6.6,0,0,0,10.717,93.2V25.7H23.429V94.2a19.028,19.028,0,0,1-1.375,7.276,16.243,16.243,0,0,1-3.829,5.619,17.085,17.085,0,0,1-5.838,3.622A21.022,21.022,0,0,1,4.985,112Zm300.7-22a33.522,33.522,0,0,1-9.847-1.387,23.944,23.944,0,0,1-9.03-5.006c-6.077-5.442-9.159-14.172-9.159-25.947A46.932,46.932,0,0,1,280,42.129a27.115,27.115,0,0,1,6.09-10.088,23,23,0,0,1,8.38-5.458A26.647,26.647,0,0,1,321.95,32.2a25.05,25.05,0,0,1,5.683,8.451,29.069,29.069,0,0,1,2.107,11.119V62.3H290.36c0,4.95,1.475,9.009,4.268,11.736,2.635,2.573,6.373,3.933,10.812,3.933a19.724,19.724,0,0,0,13.832-6.141l9.221,7.9a28.878,28.878,0,0,1-10.562,7.867A30.825,30.825,0,0,1,305.685,90Zm-1.993-53.021a12.558,12.558,0,0,0-9.376,3.776c-2.469,2.6-3.837,6.407-3.957,11.016h26.668c-.179-4.621-1.563-8.431-4-11.016A12.457,12.457,0,0,0,303.693,36.977ZM241.536,90A21.473,21.473,0,0,1,227.2,84.374c-3.127-2.867-6.855-8.045-6.855-16.437V25.7h12.714V63.549c0,4.152,1.238,7.636,3.581,10.075a12.124,12.124,0,0,0,9,3.588,11.943,11.943,0,0,0,8.894-3.588,14.237,14.237,0,0,0,3.567-10.075V25.7h12.714V89.247H258.108V82.476h-.246C253.947,87.4,248.3,90,241.536,90ZM59.666,90a33.522,33.522,0,0,1-9.847-1.387,23.944,23.944,0,0,1-9.03-5.006c-6.077-5.442-9.159-14.172-9.159-25.947a46.934,46.934,0,0,1,2.352-15.529,27.114,27.114,0,0,1,6.09-10.088,23,23,0,0,1,8.38-5.458A26.645,26.645,0,0,1,75.929,32.2,25.048,25.048,0,0,1,81.61,40.65a29.077,29.077,0,0,1,2.106,11.119V62.3H44.339c0,4.95,1.475,9.009,4.269,11.736,2.634,2.573,6.372,3.933,10.81,3.933a19.716,19.716,0,0,0,13.834-6.141l9.222,7.9a28.88,28.88,0,0,1-10.561,7.867A30.821,30.821,0,0,1,59.666,90ZM57.673,36.977A12.559,12.559,0,0,0,48.3,40.753c-2.469,2.6-3.837,6.407-3.958,11.016H71.008c-.179-4.621-1.563-8.431-4-11.016A12.457,12.457,0,0,0,57.673,36.977Zm157.32,52.27h-5.606c-4.953,0-8.841-1.155-11.558-3.432-3.08-2.582-4.642-6.615-4.642-11.986V0H205.9V72.827a4.264,4.264,0,0,0,1.2,3.274,5.056,5.056,0,0,0,3.537,1.112h4.36V89.247Zm-53.787,0H123.822V0h34.392A34.572,34.572,0,0,1,169.63,1.767a22.485,22.485,0,0,1,8.227,4.939c4.352,4.176,6.653,10.136,6.653,17.235a20.056,20.056,0,0,1-2.665,10.623c-2.15,3.576-5.558,6.375-10.419,8.556v.25A17.429,17.429,0,0,1,182.3,51.11a23.919,23.919,0,0,1,3.584,12.817,27.4,27.4,0,0,1-1.98,10.46,23.653,23.653,0,0,1-5.356,7.981A24.577,24.577,0,0,1,161.206,89.247ZM137.28,49.637V76.461h20.686c4.625,0,8.417-1.409,10.966-4.073a13.362,13.362,0,0,0,3.489-9.337,13.367,13.367,0,0,0-3.489-9.34c-2.549-2.665-6.341-4.073-10.966-4.073Zm0-37.6V37.6h19.439c4.562,0,8.3-1.3,10.811-3.76a12.282,12.282,0,0,0,3.519-9.026,12.43,12.43,0,0,0-3.519-8.976c-2.526-2.491-6.264-3.807-10.811-3.807ZM115.722,89.247h-6.6a15.3,15.3,0,0,1-10.982-4.074c-2.843-2.778-4.346-6.788-4.346-11.594V35.471H87.434V25.7h6.357V6.392H106.5V25.7h9.221v9.775H106.5V72.45a5.08,5.08,0,0,0,1.076,3.7,4.517,4.517,0,0,0,3.413,1.066h4.733V89.247Zm218.657-53.34A5.655,5.655,0,1,1,340,30.252,5.645,5.645,0,0,1,334.378,35.907Zm0-10.185a4.325,4.325,0,0,0-4.41,4.53,4.412,4.412,0,1,0,8.82,0A4.325,4.325,0,0,0,334.378,25.721Zm-1.008,7.673h0l-1.117,0V26.8h2.485c1.535,0,2.25.625,2.25,1.968a1.724,1.724,0,0,1-1.678,1.92l1.879,2.7-1.3,0-1.879-2.673h-.636v2.674Zm0-5.564V29.69h.775c.909,0,1.724-.07,1.724-.921,0-.622-.5-.938-1.476-.938ZM23.429,12.786H10.717V0H23.429V12.786Z" fill="#fff"/>
</svg>
