<svg xmlns="http://www.w3.org/2000/svg" xmlns:xlink="http://www.w3.org/1999/xlink" width="728" height="90" viewBox="0 0 728 90">
  <defs>
    <clipPath id="clip-path">
      <rect id="crop_area" data-name="crop area" width="504" height="90" fill="#00a"/>
    </clipPath>
    <clipPath id="clip-path-2">
      <path id="far_leg" data-name="far leg" d="M9926.809,3987.184c2.705.909,24.977,21.124,24.977,21.124s-2.453,8.069-4.793,6.365-22.24-18.526-22.24-18.526l-17.111-3.231-2.679-4.156S9924.1,3986.275,9926.809,3987.184Z" transform="translate(-9904.962 -3986.984)" fill="#b062cc"/>
    </clipPath>
    <clipPath id="clip-path-3">
      <path id="near_leg" data-name="near leg" d="M9903.35,3989.253l23.848.475s2.092.633,1.924,2.375,3.3,21.627,3.3,21.627-5.772,4.2-6.829,2.265-5.011-18.821-5.011-18.821.8-.11-5.391,0-18.119,1.948-18.838.523,2.367-8.444,2.367-8.444Z" transform="translate(-9896.243 -3989.253)" fill="#dc7bff"/>
    </clipPath>
    <clipPath id="clip-JetBlue_Retail_Refresh_Your_Getaway_728x90_Frame01_1">
      <rect width="728" height="90"/>
    </clipPath>
  </defs>
  <g id="JetBlue_Retail_Refresh_Your_Getaway_728x90_Frame01_1" data-name="JetBlue_Retail_Refresh_Your_Getaway_728x90_Frame01 – 1" clip-path="url(#clip-JetBlue_Retail_Refresh_Your_Getaway_728x90_Frame01_1)">
    <g id="illustration" clip-path="url(#clip-path)">
      <g id="Lady_sleeping_in_seat" data-name="Lady sleeping in seat" transform="translate(-9868.201 -3809.713)">
        <ellipse id="shadow" cx="50.795" cy="3.941" rx="50.795" ry="3.941" transform="translate(10216.001 3892.387)" opacity="0.122"/>
        <g id="Near_Shoe" data-name="Near Shoe" transform="translate(10280.061 3886.244)">
          <path id="near_foot" data-name="near foot" d="M10359.666,3973.952l1.424,5.741,4.435,1.6-.937-9.552Z" transform="translate(-10359.392 -3971.745)" fill="#d68053"/>
          <path id="Path_99337" data-name="Path 99337" d="M10364.437,3980.836s3.182,2.917,6.194,3.583,3.373,1.269,3.373,1.269.851.574.851,1.208c1.433,2.03-5.59,2.25-8.7,1.722-4.451.683-5.95.007-6.827-.93-1.325-2.909,1.069-5.343,1.069-5.343s.12.686,2.4.216S10364.437,3980.836,10364.437,3980.836Z" transform="translate(-10358.927 -3976.534)" fill="#00a"/>
        </g>
        <g id="Far_Shoe" data-name="Far Shoe" transform="translate(10296.319 3887.313) rotate(-40)">
          <path id="near_foot-2" data-name="near foot" d="M0,2.217,1.512,7.984,6.224,9.6l-1-9.6Z" transform="translate(0.303 0)" fill="#d68053"/>
          <path id="Path_99337-2" data-name="Path 99337" d="M5.677,0s3.269,3.3,6.366,4.05,3.256.972,3.256.972.874.649.874,1.365c1.472,2.294-5.535,3.005-8.732,2.408C2.865,9.567,1.325,8.8.423,7.743a5.548,5.548,0,0,1,1-5.751s.224.488,2.571-.044S5.677,0,5.677,0Z" transform="translate(0 4.322)" fill="#00a"/>
        </g>
        <g id="Far_leg-2" data-name="Far leg" transform="translate(10255.27 3861.781)">
          <path id="far_leg-3" data-name="far leg" d="M9926.809,3987.184c2.705.909,24.977,21.124,24.977,21.124s-2.453,8.069-4.793,6.365-22.24-18.526-22.24-18.526l-17.111-3.231-2.679-4.156S9924.1,3986.275,9926.809,3987.184Z" transform="translate(-9904.962 -3986.984)" fill="#c463e6"/>
          <g id="Mask_Group_5" data-name="Mask Group 5" transform="translate(0)" clip-path="url(#clip-path-2)">
            <path id="Path_99336" data-name="Path 99336" d="M9946.217,4017.857c-.365.115-9.726-3.214-9.726-3.214l-13.3-14.825-25.877-.876,1.238,6.154,26.216,8.476,11.727,12.795H9947.6Z" transform="translate(-9900.806 -3993.481)" opacity="0.07"/>
          </g>
        </g>
        <g id="Near_Leg-2" data-name="Near Leg" transform="translate(10251.289 3863.301)">
          <path id="near_leg-3" data-name="near leg" d="M9903.35,3989.253l23.848.475s2.092.633,1.924,2.375,3.3,21.627,3.3,21.627-5.772,4.2-6.829,2.265-5.011-18.821-5.011-18.821.8-.11-5.391,0-18.119.981-18.838-.444,2.367-7.477,2.367-7.477Z" transform="translate(-9896.243 -3989.253)" fill="#dc7bff"/>
          <g id="Mask_Group_2" data-name="Mask Group 2" clip-path="url(#clip-path-3)">
            <path id="Path_99330" data-name="Path 99330" d="M9897.686,3985.211s.571-4.615-1.861,1.815,1.164,5.151,1.164,5.151l18.774-.865s3.4,17.926,5.6,18.607a26.029,26.029,0,0,0,5.94.694l1.4,2.338-12.325,2.119-3.552-14.625-27.083-2.91,5.455-12.324Z" transform="translate(-9890.537 -3986.185)" opacity="0.108"/>
          </g>
        </g>
        <g id="Pink_Top" data-name="Pink Top" transform="translate(10229.696 3837.314)">
          <path id="top" d="M9848.963,3933.409s8.373,28.853,7.457,26.491-2.354-14.548-2.354-14.548l2.789,12.729s-2.144,5.893.732,6.859.041-.511,7.458,1,8.034-.448,8.034-.448l6.2-9.465s-4.118,1.526-6.2,0-6.922-7.55-7.654-9.563a23.325,23.325,0,0,1-.831-5.643s-2.255-3.15-3.383-4.708-2.778-3.653-4.356-3.759A65.906,65.906,0,0,0,9848.963,3933.409Z" transform="translate(-9848.963 -3932.347)" fill="#fc3388"/>
          <path id="Top_shdow" data-name="Top shdow" d="M9859.23,3977.189l1.4,1.385s6.284,2.425,6.1,0-5.736-5.15-6.842-9.7a29.534,29.534,0,0,1-.662-8.89l2.59-1.309s-4.553-1.766-5.836-1.741-1.491,2.677-1.491,2.677l3.749,14.816Z" transform="translate(-9851.969 -3945.707)" fill="#d13376"/>
        </g>
        <g id="seat_left" data-name="seat left" transform="translate(10216.231 3816.713)">
          <rect id="Rectangle_3179" data-name="Rectangle 3179" width="27.628" height="1.202" transform="translate(21.622 77.853)" fill="#5e5e5e"/>
          <path id="Path_47807" data-name="Path 47807" d="M40.254,100.041c.122,1.295-.881,8.06-5.408,10.742s-6.295,2.133-7.7,2.073c-.731-.061-1.829.914-2.011,1.219s-.183,1.219,0,1.341,10.057,0,10.057,0-.061-1.1-.609-1.28-.244-.61.975-1.219,5.546-2.438,7.863-9.935c0,0,2.621-2.256,3.474-2.316s6.582-.455,7.253-.624a2.1,2.1,0,0,1,2.438,1.66,86.181,86.181,0,0,1,1.219,10c0,1.767-.244,3.765,0,3.772s3.352,0,3.352,0,.051-2.432-.493-2.432-.727.061-.848-.731-.3-14.75-.3-14.75l-4.937-1.829Z" transform="translate(-9.508 -36.407)" fill="#5e5e5e"/>
          <path id="Path_47798" data-name="Path 47798" d="M30.23,86.776c1.726-.675,3.291-1.524,8.594-.914a84.008,84.008,0,0,0,17.493.339c6.461-.583,6.034,3.5,5.668,5.878s-.731,3.9-2.56,3.6a2.709,2.709,0,0,1-2.072-2.316l-6.766,2.029s-16.883,1.847-19.321,0-3.257-7.744-1.036-8.612" transform="translate(-11.004 -32.575)" fill="#999"/>
          <path id="Path_47799" data-name="Path 47799" d="M13.132,14.992H10.739a1.523,1.523,0,0,1-1.523-1.523V1.847A1.523,1.523,0,0,1,10.739.324h1.519a1.523,1.523,0,0,1,1.523,1.523l.874,11.622a1.523,1.523,0,0,1-1.522,1.523Z" transform="translate(-3.505 -0.123)" fill="#5e5e5e"/>
          <path id="Path_47800" data-name="Path 47800" d="M4.186.322a4.316,4.316,0,0,1,3.291,0,51,51,0,0,0-.426,7.74c.183,4.876.183,6.826,1.828,11.215S23.994,49.264,20.215,54.2c-2.072,1.463-3.291.549-3.291.549l-4.429-9.529L9.184,36.038l-3.475-10.3L2.6,13.73V2.759Z" transform="translate(-0.989 0)" fill="#999"/>
          <path id="Path_47801" data-name="Path 47801" d="M8.142,56.849c.149-.9.583-1.26,2.657-.65s3.535.3,4.571,1.829a22.243,22.243,0,0,1,1.891,3.718l-2.317.731s-.588-2.846-1.7-3.3c-1.491-.617-5.391-.576-5.1-2.323" transform="translate(-3.091 -21.258)" fill="#5e5e5e"/>
          <path id="Path_47802" data-name="Path 47802" d="M45.853,65.56c-.451.253-.691.447-6.543,1.016s-13.531,2.073-17.024,3.413c-2.6,1.585-4.835.855-5.526-.65-.61-1.682-.447-4.47,3.04-4.7a85.415,85.415,0,0,1,10.491-.749c7.111-.122,16.231-.529,16.4,0a1.753,1.753,0,0,1-.842,1.666" transform="translate(-6.269 -24.2)" fill="#5e5e5e"/>
          <path id="Path_47803" data-name="Path 47803" d="M21.728,64.839c-.65-1.014,2.357-1.422,10.971-1.886a148.924,148.924,0,0,1,15.847.1c.406.2.325.609-.325.65s-15.4.138-18.366.414-6.5.6-8.126.724" transform="translate(-8.231 -23.884)" fill="#999"/>
          <path id="Path_47804" data-name="Path 47804" d="M19.972,73.828c.309.231,2.194-.568,2.723.934s2.458,10.082,10.28,11.281c6.68,1.024,16.68-1.65,18.773-.269,1.589,1.049,2.429,2.872,1.991,3.332-.793.832-3.291,1.519-14.709,2.94s-13.632.331-17.8-4.241c-4.838-5.309-5.019-14.058-4.785-14.3s1.453-1.22,3.525.325" transform="translate(-6.231 -27.754)" fill="#5e5e5e"/>
          <path id="Path_47805" data-name="Path 47805" d="M2.81,1.371C2.038,1.533,1.1,1.7.779,3.524S-.888,10.026.941,18.8c.081.162.244.325.853.162a3.77,3.77,0,0,1,.121.366s-1.1.244-1.056.407S5.411,34.162,5.411,34.162s.2.488,1.056.407c.041,0,.407-.276.813.776.046.012,1.422.605,1.422.605S3.258,19.778,2.567,16.2A55.668,55.668,0,0,1,2.81,1.371" transform="translate(0 -0.521)" fill="#5e5e5e"/>
        </g>
        <g id="Hand" transform="translate(10234.226 3874.678)">
          <path id="hand-2" data-name="hand" d="M4.965,2.557s-.271,5.255-.178,5.518.87,1.51,1.08,2.191a15.24,15.24,0,0,1,.038,3.082s-1.133,1.886-1.69,2.7c-.7.9-.881,2.146-1.384,1.611a1.773,1.773,0,0,1-.127-1.362c.22-1.284,1.945-3.485,1.169-4.327s-.31.09-1.094,1.523c0,0-.387,1.048-.729.973s-.236-.374-.218-1.382a12.075,12.075,0,0,1,.028-2.105c.115-.56-.06-1.32.053-1.572.414-1.282-.627-3.486-.615-4.889A17.63,17.63,0,0,0,0,0L3.876,1.189Z" transform="matrix(0.995, -0.105, 0.105, 0.995, 0, 0.624)" fill="#d57f54"/>
          <path id="Path_99336-2" data-name="Path 99336" d="M3.431.8H3.407L.218.483A.242.242,0,1,1,.266,0L3.455.317A.242.242,0,0,1,3.431.8Z" transform="translate(2.458 8.14) rotate(-8)" fill="#fff"/>
        </g>
        <path id="sleeve" d="M9844.738,3933.409a4.827,4.827,0,0,0-3.314,3.083c-.531,1.875,0,14.932,0,14.932s1.859,7.449,2.031,8.476c.748,4.408,5.23,13.59,5.188,15.474s8.344.909,8.344.909-3.876-14.021-4.792-16.383-2.354-14.548-2.354-14.548,4.37-12.892,2.79-13A65.906,65.906,0,0,0,9844.738,3933.409Z" transform="translate(384.958 -95.033)" fill="#fc3388"/>
        <g id="head" transform="translate(10221.052 3819.518)">
          <path id="Path_99329" data-name="Path 99329" d="M9836.573,3922.292a2.794,2.794,0,0,0,0,3.751c1.653,2.006,11.372,5.761,14.542,4s1.406-4,.141-5.14-5.751.368-8.191-1.133a43.662,43.662,0,0,0-4.474-2.41Z" transform="translate(-9831.602 -3909.784)" fill="#c4ac28"/>
          <path id="Path_99339" data-name="Path 99339" d="M22.267,32.185,25.7,37.507,16.9,35.837V30.463Z" transform="translate(-9.499 -17.309)" fill="#7b4226"/>
          <path id="Path_99328" data-name="Path 99328" d="M9836.6,3922.292a2.728,2.728,0,0,0,0,3.751c1.709,2.006,11.76,5.761,15.037,4s1.891-4.186.146-5.14-5.947.368-8.474-1.133a45.711,45.711,0,0,0-4.623-2.41Z" transform="translate(-9833.135 -3907.925)" fill="gold"/>
          <path id="Path_99325" data-name="Path 99325" d="M6.106.435S8.342-.744,9.672.78s3.039,2.711,3.244,4.42a12,12,0,0,1-.944,5.444c-.628,1.482-.748,1.825-1.608,2.063s-1.89.038-3.58-.564-1.641-1.219-2.093-1.55c-.125-.1-2.039.756-2.6.677-1.316-.185.523-1.1.523-1.1S-.091,8.988,1.356,8.1,0,5.2,0,5.2s3.681,1.835,3.4,0S3.11,1.3,3.958.78A3.813,3.813,0,0,1,6.106.435Z" transform="matrix(0.998, -0.07, 0.07, 0.998, 2.244, 3.543)" fill="#d68054" opacity="0.998"/>
          <path id="Path_99326" data-name="Path 99326" d="M1.895,2.956C4.73.423,4.393.7,7.258.54S9.9-1.186,12.66,1.886c.609.64,2.054,3.736,3.028,7.5.943,2.159-.724,6.835-.724,6.835s.262-2.64-.9-2.009l.439-2.953s-.039.277-.694.849a5.852,5.852,0,0,0,.761-1.809,9.189,9.189,0,0,0-.548-3.441c-.708-2.1-2.784-3.763-3.742-3.9a13.819,13.819,0,0,0-2.689.6c.409,1.321-1.1,3.9-1.681,5.154,2.353,3.746-.731,1.78-.731,1.78a2.915,2.915,0,0,0-.452-.224l2.123,2.15a5.5,5.5,0,0,0,.768,1.665,9.012,9.012,0,0,0,2.928,2.149S7.1,15.274,7.2,15.681c.355,1.4,2.358,2.914,1.911,2.846-2.968-1.173-4.82-1.431-7.22-4.967C-.3,12.738-.941,5.489,1.895,2.956Z" transform="matrix(0.998, -0.07, 0.07, 0.998, 0, 1.114)"/>
          <path id="Path_99327" data-name="Path 99327" d="M2.408,2.2S3.271.351,1.362.042C1.292.03,1.225.021,1.039,0-.607-.066.2,1.1.2,1.1s.864,1.986,1.7,2.029S3.186,2.2,3.186,2.2Z" transform="matrix(0.998, -0.07, 0.07, 0.998, 4.797, 10.285)" fill="#d57f54"/>
          <path id="Path_53982" data-name="Path 53982" d="M.35,4.268A3.2,3.2,0,0,0,3.094,5.81c1.181-.022,1.918-1.461,2.591-1.451.56.008,1.442,1.315,2.286,1.327A2.134,2.134,0,0,0,9.7,4.625c.258-.53.922-2.533-.279-3.737C9.08.454,7.165.026,5.725.005,2.321-.043,1.452.247.869.768A3.014,3.014,0,0,0,.35,4.268Z" transform="translate(5.5 7.827) rotate(-22)" fill="#00e1ff"/>
          <ellipse id="Ellipse_155" data-name="Ellipse 155" cx="0.474" cy="0.789" rx="0.474" ry="0.789" transform="translate(5.71 12.637) rotate(-36)" fill="#fff"/>
        </g>
      </g>
    </g>
  </g>
</svg>
