<svg xmlns="http://www.w3.org/2000/svg" xmlns:xlink="http://www.w3.org/1999/xlink" width="728" height="90" viewBox="0 0 728 90">
  <defs>
    <clipPath id="clip-path">
      <rect id="crop_area" data-name="crop area" width="504" height="90" fill="#00a"/>
    </clipPath>
    <clipPath id="clip-JetBlue_Retail_Refresh_Your_Getaway_728x90_Frame04_1">
      <rect width="728" height="90"/>
    </clipPath>
  </defs>
  <g id="JetBlue_Retail_Refresh_Your_Getaway_728x90_Frame04_1" data-name="JetBlue_Retail_Refresh_Your_Getaway_728x90_Frame04 – 1" clip-path="url(#clip-JetBlue_Retail_Refresh_Your_Getaway_728x90_Frame04_1)">
    <g id="illustration" clip-path="url(#clip-path)">
      <g id="Group_20968" data-name="Group 20968" transform="translate(388.265 5.195)">
        <g id="sun" fill="#00e1ff" opacity="0.999">
          <path d="M 11.65592384338379 29.6224422454834 C 5.918083667755127 29.6224422454834 1.250003814697266 24.9543628692627 1.250003814697266 19.21652221679688 L 1.250003814697266 11.65592288970947 C 1.250003814697266 5.918083190917969 5.918083667755127 1.250002980232239 11.65592384338379 1.250002980232239 C 17.39376449584961 1.250002980232239 22.06184387207031 5.918083190917969 22.06184387207031 11.65592288970947 L 22.06184387207031 19.21652221679688 C 22.06184387207031 24.9543628692627 17.39376449584961 29.6224422454834 11.65592384338379 29.6224422454834 Z" stroke="none"/>
          <path d="M 11.65592384338379 2.500003814697266 C 6.607334136962891 2.500003814697266 2.500003814697266 6.607332229614258 2.500003814697266 11.65592384338379 L 2.500003814697266 19.21652221679688 C 2.500003814697266 24.26511383056641 6.607334136962891 28.3724422454834 11.65592384338379 28.3724422454834 C 16.70451354980469 28.3724422454834 20.81184387207031 24.26511383056641 20.81184387207031 19.21652221679688 L 20.81184387207031 11.65592384338379 C 20.81184387207031 6.607332229614258 16.70451354980469 2.500003814697266 11.65592384338379 2.500003814697266 M 11.65592384338379 3.814697265625e-06 C 18.09331321716309 3.814697265625e-06 23.31184387207031 5.218532562255859 23.31184387207031 11.65592384338379 L 23.31184387207031 19.21652221679688 C 23.31184387207031 25.6539134979248 18.09331321716309 30.8724422454834 11.65592384338379 30.8724422454834 C 5.218534469604492 30.8724422454834 3.814697265625e-06 25.6539134979248 3.814697265625e-06 19.21652221679688 L 3.814697265625e-06 11.65592384338379 C 3.814697265625e-06 5.218532562255859 5.218534469604492 3.814697265625e-06 11.65592384338379 3.814697265625e-06 Z" stroke="none" fill="#c6c6c6"/>
        </g>
      </g>
    </g>
  </g>
</svg>
