<svg xmlns="http://www.w3.org/2000/svg" width="24.899" height="24.017" viewBox="0 0 24.899 24.017">
  <path id="plane" d="M52.2,342.33l-.957.135-.38.214.286.168,3.69,3,.567.554-.156.081a.858.858,0,0,0-.26.223.052.052,0,0,0,.042.082.854.854,0,0,0,.332-.081l.231-.119.921.9-.184.095a.855.855,0,0,0-.26.223.049.049,0,0,0,0,.054.05.05,0,0,0,.047.028.858.858,0,0,0,.332-.081l.259-.133.92.9-.212.109a.861.861,0,0,0-.26.223.052.052,0,0,0,.042.082.855.855,0,0,0,.332-.081l.286-.147.846.825.12.233-.259.133a.857.857,0,0,0-.26.223.052.052,0,0,0,.042.082.857.857,0,0,0,.332-.081l.259-.133.746,1.45a3.653,3.653,0,0,0-.726.649l-2.156,1.109a52.674,52.674,0,0,0-4.688,2.934l-3.141-2.018a.2.2,0,0,0-.183-.02l-.792.3,2.66,2.841a4.422,4.422,0,0,0-.7.7c-.175.1-.365.227-.6.4a.035.035,0,0,0-.006.045.036.036,0,0,0,.041.022,6.993,6.993,0,0,0,.7-.269A4.645,4.645,0,0,0,51,358.02l.766,3.827.706-.468a.2.2,0,0,0,.09-.16l.185-3.741a52.713,52.713,0,0,0,5.107-2.107l2.121-1.091-.016.014a3.706,3.706,0,0,0,.963-.215l.747,1.451-.26.133a.861.861,0,0,0-.26.223.052.052,0,0,0,.042.082.856.856,0,0,0,.332-.082l.259-.133.12.233.18,1.168-.287.147a.864.864,0,0,0-.26.223.052.052,0,0,0,.042.083.86.86,0,0,0,.332-.082l.212-.109.2,1.272-.259.133a.861.861,0,0,0-.26.223.05.05,0,0,0,0,.055.05.05,0,0,0,.047.028.855.855,0,0,0,.332-.082l.184-.095.2,1.272-.231.119a.859.859,0,0,0-.26.223.052.052,0,0,0,.042.083.861.861,0,0,0,.332-.081l.156-.081.121.784.3,4.739h0l-.03.337.4-.184.667-.7.622-10.039.373-.09.006.011.007.013.007.013.007.013.007.013.007.013.007.013.007.013.007.013a6.5,6.5,0,0,0,1.785-.851.147.147,0,0,0,.018-.177l0-.007,0-.007,0-.007,0-.007,0-.007,0-.007,0-.007,0-.007,0-.007,0-.007,0-.007,0-.007,0-.007,0-.007,0-.007,0-.007,0-.007,0-.007,0-.007,0-.006,0-.007,0-.007,0-.007,0-.007,0-.007,0-.007,0-.007,0-.007,0-.007,0-.007,0-.007,0-.007,0-.007,0-.007,0-.007,0-.007,0-.007,0-.007,0-.007,0-.007,0-.007,0-.007-.011-.021-.011-.021-.011-.021-.011-.021-.011-.021-.011-.021-.011-.021-.011-.021-.011-.021-.011-.021-.011-.021-.011-.021-.011-.021-.011-.021-.011-.021-.011-.021-.011-.021-.011-.021-.011-.021-.011-.021-.011-.021-.1-.2v-.014h0v-.021h0V353.4a.146.146,0,0,0-.155-.088,5.373,5.373,0,0,0-1.471.781l.145-2.334h0l-.006,0-.064.028,4.81-2.474a7.449,7.449,0,0,0,2.111-1.447,6.119,6.119,0,0,0,1.112-1.43.185.185,0,0,0-.1-.2,6.124,6.124,0,0,0-1.81.073,7.444,7.444,0,0,0-2.4.876l-4.7,2.419-1.983-1.24a5.23,5.23,0,0,0,1.45-.728.147.147,0,0,0,.019-.177l-.007-.014-.007-.014-.007-.014-.007-.014-.007-.014-.007-.014-.007-.014-.007-.014-.007-.014-.007-.014-.007-.014-.007-.014-.007-.014-.007-.014-.007-.014-.007-.014-.007-.014-.007-.014-.007-.013-.007-.014-.007-.014,0-.008,0-.009,0-.008,0-.009,0-.008,0-.009,0-.009,0-.008,0-.009,0-.008,0-.009,0-.008,0-.009,0-.009,0-.008,0-.009,0-.008,0-.009,0-.008,0-.009,0-.009-.257-.5v0h0v0h0v0h0v0h0v0h0v0h0v0h0v0h0v0h0v0h0v0h0v-.005h0l0,0,0-.005,0,0,0-.005,0-.005,0,0,0,0,0,0,0-.005c-.024-.046-.1-.106-.156-.089a8.828,8.828,0,0,0-1.726.965l0,.005,0,0,0,.005,0,.005,0,0,0,.005,0,.005v0h0l0,0h0v0l0,0h0l0,0v0h0l0,0h0v0h0v0h0v.005h0v0h0v0h0l0,0h0v.005h0v0h0v0l0,0,.025.049-.262.227L52.2,342.334" transform="translate(-47.959 -342.33)" fill="#00a" fill-rule="evenodd"/>
</svg>
