<svg id="THUMB_2" data-name="THUMB 2" xmlns="http://www.w3.org/2000/svg" width="41.795" height="36.794" viewBox="0 0 41.795 36.794">
  <path id="Union_6" data-name="Union 6" d="M26.076,35.213c-1.469.273-3.315,1.257-4.821.856-1.838-.488-2.769-3.456-3.027-3.51-2.746,1.5-5.33-.091-4.24-3.616-1.339-1.515-.346-3.367-.149-4.288-2.708-4.981-.335-11.28.747-12a1.62,1.62,0,0,1,1.159-.248,9.344,9.344,0,0,0,4.388-1.032c4.29-1.788,4.236-4.412,4.833-6.7C25.4,3,24.7,1.505,25.832.639c.838-1.464,4.326-.215,5.687,1.752s2.8,7.489-.672,10.608c-.032.149.484-.014,1.248-.177,1.7-.362,4.617-.723,5.469,2.335,3.013.438,5.153,3.355,2.751,6.787-.3.746,3.8,2.734-.483,6.784.853,2.673-.884,4.793-3.436,4.265.644,2.628-2.1,3.8-5.029,3.8A8.468,8.468,0,0,1,26.076,35.213ZM1.849,29.072A5.84,5.84,0,0,1,2,27.593a3.252,3.252,0,0,1-2-3.065,6.853,6.853,0,0,1,1.831-4.622c-.354-2.816,1.5-6.732,3.727-7.161,2.315-.445,4.385.829,4.94,3.659a8.548,8.548,0,0,1-.147,3.378,6.1,6.1,0,0,1,1.53,3.777,3.918,3.918,0,0,1-1.132,3.076,6.835,6.835,0,0,1,.311,1.8,3.125,3.125,0,0,1-.963,2.449,4.334,4.334,0,0,1-3.8,3.258l-.123,0C3.874,34.144,1.949,31.9,1.849,29.072Z" transform="translate(0 0)" fill="#fff"/>
</svg>
