<svg id="basketball" xmlns="http://www.w3.org/2000/svg" width="23.787" height="23.788" viewBox="0 0 23.787 23.788">
  <path id="Path_48054" data-name="Path 48054" d="M70.316,138.782a11.894,11.894,0,1,1-11.894-11.894,11.894,11.894,0,0,1,11.894,11.894" transform="translate(-46.529 -126.888)" fill="#ee7c54"/>
  <path id="Path_48055" data-name="Path 48055" d="M70.316,138.782a11.894,11.894,0,1,1-11.894-11.894,11.894,11.894,0,0,1,11.894,11.894" transform="translate(-46.529 -126.888)" fill="#ff6433"/>
  <path id="Path_48056" data-name="Path 48056" d="M69.611,142.071A11.9,11.9,0,0,1,46.8,148.284a11.895,11.895,0,1,0,22.807-6.213" transform="translate(-46.669 -134.587)" fill="#cc4b29"/>
  <path id="Path_48057" data-name="Path 48057" d="M62.329,127.992q-.543.171-1.064.391a12.832,12.832,0,0,1,12.5,12.813,16.626,16.626,0,0,1-2.322,8.667q.4-.212.785-.454a17.109,17.109,0,0,0,1.995-8.213,13.294,13.294,0,0,0-11.9-13.2" transform="translate(-54.001 -127.448)" fill="#402f28"/>
  <path id="Path_48058" data-name="Path 48058" d="M52.455,151.493A22.16,22.16,0,0,1,70.949,136.6q-.155-.217-.319-.427A22.2,22.2,0,0,0,57.839,142.3a21.724,21.724,0,0,0-5.727,8.8c.111.134.226.266.343.395" transform="translate(-49.36 -131.597)" fill="#402f28"/>
  <path id="Path_48059" data-name="Path 48059" d="M79.676,143.962a3.134,3.134,0,0,0-3.544-.985,4.217,4.217,0,0,0-3.158,3.87,18.609,18.609,0,0,1-2.7,9.206,9.314,9.314,0,0,1-2.364,2.622q.336.038.678.058a10.72,10.72,0,0,0,2.072-2.432,19.068,19.068,0,0,0,2.773-9.431,3.717,3.717,0,0,1,2.822-3.451,2.726,2.726,0,0,1,3.04.8,16.276,16.276,0,0,1,1.774,4.094,11.959,11.959,0,0,0,.086-1.225,14.489,14.489,0,0,0-1.478-3.123" transform="translate(-57.37 -134.965)" fill="#402f28"/>
  <path id="Path_48060" data-name="Path 48060" d="M63.373,129.921a1.662,1.662,0,0,1-.688,1.292,4.475,4.475,0,0,1-3.613.624,11.964,11.964,0,0,0-9.192,1.72,16.518,16.518,0,0,0-1.835,1.341q-.186.446-.337.909a16.291,16.291,0,0,1,2.416-1.862,11.513,11.513,0,0,1,8.845-1.662,4.953,4.953,0,0,0,4-.711,2.082,2.082,0,0,0,.861-1.65,4.582,4.582,0,0,0-.261-1.427q-.282-.117-.57-.219a4.63,4.63,0,0,1,.373,1.646" transform="translate(-47.126 -127.591)" fill="#402f28"/>
  <path id="Path_48061" data-name="Path 48061" d="M62.1,144.319a21.685,21.685,0,0,1,1.88-1.782c.329-.28.668-.549,1.012-.81s.7-.511,1.059-.748a22.915,22.915,0,0,1,2.242-1.3,19.528,19.528,0,0,1,2.379-1.025c-.4.15-.8.323-1.193.5s-.78.369-1.163.568-.76.408-1.134.623c-.185.111-.372.218-.554.334l-.275.17-.271.177c-.361.235-.712.486-1.059.742-.171.132-.345.259-.513.395l-.253.2-.25.205q-.5.413-.977.849c-.319.291-.631.589-.931.9" transform="translate(-54.424 -132.854)" fill="#f2ad7f"/>
  <path id="Path_48062" data-name="Path 48062" d="M54.718,136.126a10.747,10.747,0,0,1,2.459-1,9.8,9.8,0,0,1,1.306-.267,10.619,10.619,0,0,1,1.33-.085,15.25,15.25,0,0,1,2.648.268c.218.038.436.079.655.115l.164.026.164.022.165.015c.055,0,.11.007.166.008a4.874,4.874,0,0,0,.663-.024,4.77,4.77,0,0,0,.655-.112,4.738,4.738,0,0,1-.653.127,4.906,4.906,0,0,1-.665.038c-.055,0-.111,0-.167-.006l-.167-.013-.166-.02-.165-.024c-.219-.034-.438-.071-.657-.106-.437-.07-.875-.139-1.316-.183a12.817,12.817,0,0,0-1.325-.07,9.792,9.792,0,0,0-2.623.336,11.568,11.568,0,0,0-1.262.409c-.207.078-.411.165-.613.255s-.4.188-.6.3" transform="translate(-50.681 -130.885)" fill="#f2ad7f"/>
  <path id="Path_48063" data-name="Path 48063" d="M70.207,129.61c.227.075.449.167.67.26.109.049.218.1.327.149s.216.1.323.158a12.8,12.8,0,0,1,1.243.723l.15.1c.05.034.1.07.147.1l.293.209.284.22c.047.037.1.072.141.111l.137.117c.09.078.183.154.272.235l.262.246c.043.042.088.082.129.125l.124.13.246.261-.258-.25-.129-.125c-.043-.042-.089-.08-.134-.12l-.267-.239c-.09-.078-.184-.152-.276-.228-.183-.154-.377-.294-.565-.44l-.293-.207c-.049-.034-.1-.069-.147-.1l-.15-.1c-.2-.134-.4-.257-.606-.382l-.311-.178-.314-.172c-.1-.058-.212-.11-.318-.165s-.215-.1-.322-.157c-.216-.1-.435-.2-.658-.287" transform="translate(-58.535 -128.268)" fill="#f2ad7f"/>
</svg>
