<svg xmlns="http://www.w3.org/2000/svg" xmlns:xlink="http://www.w3.org/1999/xlink" width="804" height="600" viewBox="0 0 804 600">
  <defs>
    <clipPath id="clip-_300x600_WiFi_DEV_ASSET_1">
      <rect width="804" height="600"/>
    </clipPath>
  </defs>
  <g id="_300x600_WiFi_DEV_ASSET_1" data-name="300x600_WiFi_DEV ASSET – 1" clip-path="url(#clip-_300x600_WiFi_DEV_ASSET_1)">
    <path id="cloud" d="M805.36,13.511h-52.2a8.736,8.736,0,0,1,5.374-3.133,10.434,10.434,0,0,1,10.9-5.091A11.4,11.4,0,0,1,779.259,0c5.681,0,7.216,5.373,7.216,5.373a9.39,9.39,0,0,1,6.448,3.839,14.089,14.089,0,0,1,12.436,4.3" transform="translate(-720.926 119)" fill="#fff"/>
    <path id="cloud-2" data-name="cloud" d="M1348.643,223.869h-29.679s2.765-3.371,5.592-2.115c0,0,1.475-8.724,7.128-5.023,0,0,4.117-1.708,5.285,3.112,0,0,2.458-1.724,3.748,1.449a2.6,2.6,0,0,1,3.38,1.454,8.4,8.4,0,0,1,4.547,1.124" transform="translate(-1275.47 114.027)" fill="#fff"/>
    <path id="cloud-3" data-name="cloud" d="M324.713,102.66h21.643s-2.687-3.185-6.2-2.721c0,0-1.935-2.853-4.789-2.853a5.976,5.976,0,0,0-4.523,2.389s-5.861.066-6.126,3.185" transform="translate(-217.038 47.737)" fill="#fff"/>
    <path id="cloud-4" data-name="cloud" d="M801.158,12.424h-48A8.032,8.032,0,0,1,758.1,9.543a9.594,9.594,0,0,1,10.023-4.681A10.486,10.486,0,0,1,777.158,0a7.021,7.021,0,0,1,6.635,4.941,8.634,8.634,0,0,1,5.929,3.53,12.955,12.955,0,0,1,11.435,3.953" transform="translate(-361.479 333.87)" fill="#fff"/>
    <path id="cloud-5" data-name="cloud" d="M324.713,103.267h24s-2.98-3.532-6.88-3.017c0,0-2.146-3.164-5.31-3.164a6.627,6.627,0,0,0-5.016,2.649s-6.5.074-6.793,3.532" transform="translate(331.787 101.939)" fill="#fff"/>
    <path id="cloud-6" data-name="cloud" d="M791.623,9.949H753.158a6.438,6.438,0,0,1,3.96-2.307,7.691,7.691,0,0,1,8.032-3.749A8.4,8.4,0,0,1,772.391,0a5.625,5.625,0,0,1,5.317,3.957,6.92,6.92,0,0,1,4.752,2.826,10.386,10.386,0,0,1,9.164,3.165" transform="translate(-84.658 424.421)" fill="#fff"/>
    <path id="cloud-7" data-name="cloud" d="M753.158,20.025h63.525a10.194,10.194,0,0,0-6.539-4.643c-4.9-9.868-13.265-7.546-13.265-7.546S793.328,0,784.92,0c-6.913,0-8.781,7.964-8.781,7.964a11,11,0,0,0-7.847,5.689s-8.034-2.276-15.134,6.372" transform="translate(-416.479 179)" fill="#fff"/>
  </g>
</svg>
