<svg xmlns="http://www.w3.org/2000/svg" xmlns:xlink="http://www.w3.org/1999/xlink" width="1240" height="600" viewBox="0 0 1240 600">
  <defs>
    <clipPath id="clip-_300x600_WiFi_DEV_ASSET_1">
      <rect width="1240" height="600"/>
    </clipPath>
  </defs>
  <g id="_300x600_WiFi_DEV_ASSET_1" data-name="300x600_WiFi_DEV ASSET – 1" clip-path="url(#clip-_300x600_WiFi_DEV_ASSET_1)">
    <path id="cloud" d="M805.36,13.511h-52.2a8.736,8.736,0,0,1,5.374-3.133,10.434,10.434,0,0,1,10.9-5.091A11.4,11.4,0,0,1,779.259,0c5.681,0,7.216,5.373,7.216,5.373a9.39,9.39,0,0,1,6.448,3.839,14.089,14.089,0,0,1,12.436,4.3" transform="translate(-664.926 113)" fill="#fff"/>
    <path id="cloud-2" data-name="cloud" d="M1348.643,223.869h-29.679s2.765-3.371,5.592-2.115c0,0,1.475-8.724,7.128-5.023,0,0,4.117-1.708,5.285,3.112,0,0,2.458-1.724,3.748,1.449a2.6,2.6,0,0,1,3.38,1.454,8.4,8.4,0,0,1,4.547,1.124" transform="translate(-1200.468 108.842)" fill="#fff"/>
    <path id="cloud-3" data-name="cloud" d="M324.713,102.66h21.643s-2.687-3.185-6.2-2.721c0,0-1.935-2.853-4.789-2.853a5.976,5.976,0,0,0-4.523,2.389s-5.861.066-6.126,3.185" transform="translate(-167.181 48.737)" fill="#fff"/>
    <path id="cloud-4" data-name="cloud" d="M1318.964,235.1h64s-5.963-8.07-12.058-5.064c0,0-3.18-20.887-15.371-12.026,0,0-8.878-4.089-11.4,7.449,0,0-5.3-4.126-8.083,3.469,0,0-5.035-2.215-7.287,3.481a16.618,16.618,0,0,0-9.805,2.69" transform="translate(-656.455 193.062)" fill="#fff"/>
    <path id="cloud-5" data-name="cloud" d="M1318.964,225.456H1356.1s-3.46-4.035-7-2.532c0,0-1.845-10.443-8.919-6.013,0,0-5.151-2.045-6.612,3.725,0,0-3.075-2.063-4.69,1.734a3.315,3.315,0,0,0-4.229,1.74,10.906,10.906,0,0,0-5.69,1.345" transform="translate(-162.231 129.24)" fill="#fff"/>
    <path id="cloud-6" data-name="cloud" d="M753.158,12.424h48a8.032,8.032,0,0,0-4.941-2.881,9.594,9.594,0,0,0-10.023-4.681A10.486,10.486,0,0,0,777.158,0a7.021,7.021,0,0,0-6.635,4.941,8.634,8.634,0,0,0-5.929,3.53,12.955,12.955,0,0,0-11.435,3.953" transform="translate(5.521 351.755)" fill="#fff"/>
    <path id="cloud-7" data-name="cloud" d="M801.158,12.424h-48A8.032,8.032,0,0,1,758.1,9.543a9.594,9.594,0,0,1,10.023-4.681A10.486,10.486,0,0,1,777.158,0a7.021,7.021,0,0,1,6.635,4.941,8.634,8.634,0,0,1,5.929,3.53,12.955,12.955,0,0,1,11.435,3.953" transform="translate(-120.479 327.658)" fill="#fff"/>
    <path id="cloud-8" data-name="cloud" d="M324.713,103.267h24s-2.98-3.532-6.88-3.017c0,0-2.146-3.164-5.31-3.164a6.627,6.627,0,0,0-5.016,2.649s-6.5.074-6.793,3.532" transform="translate(533.402 122.86)" fill="#fff"/>
    <path id="cloud-9" data-name="cloud" d="M363.89,108.479H324.713s4.865-6.51,11.231-5.561c0,0,3.5-5.832,8.668-5.832s8.188,4.883,8.188,4.883,10.609.136,11.089,6.51" transform="translate(718.471 259.881)" fill="#fff"/>
    <path id="cloud-10" data-name="cloud" d="M1318.964,223.649h32.246s-3-3.279-6.075-2.057c0,0-1.6-8.486-7.745-4.886,0,0-4.473-1.661-5.741,3.027a2.709,2.709,0,0,0-4.073,1.409,2.978,2.978,0,0,0-3.672,1.414,10.024,10.024,0,0,0-4.94,1.093" transform="translate(-252.726 65.24)" fill="#fff"/>
    <path id="cloud-11" data-name="cloud" d="M791.623,9.949H753.158a6.438,6.438,0,0,1,3.96-2.307,7.691,7.691,0,0,1,8.032-3.749A8.4,8.4,0,0,1,772.391,0a5.625,5.625,0,0,1,5.317,3.957,6.92,6.92,0,0,1,4.752,2.826,10.386,10.386,0,0,1,9.164,3.165" transform="translate(220.342 408.878)" fill="#fff"/>
    <path id="cloud-12" data-name="cloud" d="M808.158,14.235h-55a9.2,9.2,0,0,1,5.662-3.3A10.993,10.993,0,0,1,770.3,5.57,12.015,12.015,0,0,1,780.658,0c5.985,0,7.6,5.662,7.6,5.662a9.893,9.893,0,0,1,6.794,4.044,14.844,14.844,0,0,1,13.1,4.529" transform="translate(408.074 217.01)" fill="#fff"/>
    <path id="cloud-13" data-name="cloud" d="M808.158,14.235h-55a9.2,9.2,0,0,1,5.662-3.3A10.993,10.993,0,0,1,770.3,5.57,12.015,12.015,0,0,1,780.658,0c5.985,0,7.6,5.662,7.6,5.662a9.893,9.893,0,0,1,6.794,4.044,14.844,14.844,0,0,1,13.1,4.529" transform="translate(212.074 184.01)" fill="#fff"/>
    <path id="cloud-14" data-name="cloud" d="M324.713,106.459h36.394s-4.519-5.356-10.433-4.575c0,0-3.254-4.8-8.053-4.8s-7.606,4.017-7.606,4.017-9.855.112-10.3,5.356" transform="translate(-86.23 225.252)" fill="#fff"/>
    <path id="cloud-15" data-name="cloud" d="M753.158,20.025h63.525a10.194,10.194,0,0,0-6.539-4.643c-4.9-9.868-13.265-7.546-13.265-7.546S793.328,0,784.92,0c-6.913,0-8.781,7.964-8.781,7.964a11,11,0,0,0-7.847,5.689s-8.034-2.276-15.134,6.372" transform="translate(-361.479 184.926)" fill="#fff"/>
  </g>
</svg>
