<svg xmlns="http://www.w3.org/2000/svg" width="47.765" height="107.972" viewBox="0 0 47.765 107.972">
  <g id="EX_MARK" data-name="EX MARK" transform="translate(0 0)">
    <g id="EX_MARK-2" data-name="EX MARK" transform="matrix(0.998, 0.07, -0.07, 0.998, 7.357, 0.003)">
      <g id="cuff" transform="translate(0 0)">
        <path id="cuff-2" data-name="cuff" d="M16.936,78.442a16.073,16.073,0,0,1-3.752.331C9.258,78.7,6.172,77.147,4.525,75.03c-2.541-.121-4.535-1.3-4.535-2.742,0-1.245,1.489-2.3,3.532-2.637.633-1.756,2.25-3.441,5.074-4.707-4.118-2.959-3.725-5.869-1.9-8.2-1.3-3.015-1.977-5.884-1.74-7.878.766-6.464,3.685-7.684,3.685-7.684-4.06-4.577-2.892-9.416.274-13.122a6.444,6.444,0,0,1-1.168-3.621,6.928,6.928,0,0,1,.7-2.949,17.088,17.088,0,0,1-.419-3.78c0-3.743,2.873-7.038,5.81-9.09A5.6,5.6,0,0,1,13.1,6.1a2.4,2.4,0,0,1-1.481-1.961c0-1.23,1.455-2.272,3.462-2.625A6.222,6.222,0,0,1,19.178,0a5.961,5.961,0,0,1,6.089,5.824q0,.189-.012.374a5.929,5.929,0,0,1,2.108,4.574,6.051,6.051,0,0,1-.579,2.6,8.128,8.128,0,0,1,4.668,12.919c.266.905.549,1.918.854,3.05a27.477,27.477,0,0,1,.974,8.7,33.417,33.417,0,0,1,2.931,5.8,10.967,10.967,0,0,1-.284,8.331q.109.062.207.131A10.2,10.2,0,0,1,40.5,60.6a9.922,9.922,0,0,1-1.76,5.628,8.626,8.626,0,0,1,.714,3.454,8.088,8.088,0,0,1-7.873,8.286,7.519,7.519,0,0,1-3.344-.782c-.979,2.252-3.061,3.681-6.428,3.681A6.184,6.184,0,0,1,16.936,78.442Z" transform="translate(40.497 80.863) rotate(180)" fill="#fff"/>
      </g>
      <g id="cufflink" transform="translate(21.395 79.392) rotate(45)">
        <path id="Union_2" data-name="Union 2" d="M4.681,13.658l-.151,0c-2.509,0-4.54-2.346-4.537-5.246S2.031,3.163,4.539,3.16a3.817,3.817,0,0,1,1.173.177,1.666,1.666,0,0,0,.3,1.365c.4-2.683,2.184-4.709,4.326-4.711,2.431,0,4.4,2.6,4.4,5.823,0,.031,0,.063,0,.094a2.123,2.123,0,0,1,1.507-.748A3.018,3.018,0,0,1,18.987,8.4a3.267,3.267,0,0,1-1.813,3.048,3.254,3.254,0,0,1-2.892,3,2.374,2.374,0,0,1-1.075-.259c-.722,2.407-2.186,3.605-4,3.607C7.26,17.8,5.463,16.424,4.681,13.658Z" transform="translate(18.978 17.785) rotate(180)" fill="#fff"/>
      </g>
    </g>
  </g>
</svg>


