<svg xmlns="http://www.w3.org/2000/svg" xmlns:xlink="http://www.w3.org/1999/xlink" width="1217" height="600" viewBox="0 0 1217 600">
  <defs>
    <clipPath id="clip-_300x600_WiFi_DEV_ASSET_2">
      <rect width="1217" height="600"/>
    </clipPath>
  </defs>
  <g id="_300x600_WiFi_DEV_ASSET_2" data-name="300x600_WiFi_DEV ASSET – 2" clip-path="url(#clip-_300x600_WiFi_DEV_ASSET_2)">
    <path id="cloud" d="M-7438.792,3538.767c3.05-11.108,10.59-4.263,10.59-4.263,1.035-4.665,7.769-4.657,7.769-4.657,2.59-15.538,16.576-10.014,16.576-10.014a11.8,11.8,0,0,1,11.05-7.6c8.461,0,10.534,9.842,10.534,9.842s3.971-4.661,14.675-4.661,12.778,10.015,12.778,10.015c12.777-.347,16.4,11.337,16.4,11.337Zm-22.676,0c1.842-2.474,5.755-1.5,5.755-1.5,2.073-3.453,6.906-1.5,6.906-1.5,4.029-3.279,5.985.829,5.985.829a2.712,2.712,0,0,1,2.648,2.165Zm-12.49,0c.518-.8,2.187-.632,2.187-.632.4-1.094,1.726-.658,1.726-.658,1.958-1.981,4.26.024,4.26.024,2.59-.229,2.936,1.266,2.936,1.266Z" transform="translate(7946.917 -3106.889)" fill="#fff" stroke="rgba(0,0,0,0)" stroke-miterlimit="10" stroke-width="1"/>
    <path id="cloud-2" data-name="cloud" d="M753.158,18.559h71.706a12,12,0,0,0-7.381-4.3,14.332,14.332,0,0,0-14.973-6.993A15.664,15.664,0,0,0,789.011,0c-7.8,0-9.912,7.381-9.912,7.381a12.9,12.9,0,0,0-8.858,5.273s-9.069-2.109-17.083,5.905" transform="translate(-686.158 396.067)" fill="#fff"/>
    <path id="cloud-3" data-name="cloud" d="M805.36,13.511h-52.2a8.736,8.736,0,0,1,5.374-3.133,10.434,10.434,0,0,1,10.9-5.091A11.4,11.4,0,0,1,779.259,0c5.681,0,7.216,5.373,7.216,5.373a9.39,9.39,0,0,1,6.448,3.839,14.089,14.089,0,0,1,12.436,4.3" transform="translate(-614.453 126)" fill="#fff"/>
    <path id="cloud-4" data-name="cloud" d="M1318.964,235.812h90.491s-8.431-8.37-17.049-5.252c0,0-4.5-21.663-21.733-12.473,0,0-12.553-4.241-16.113,7.726,0,0-7.494-4.28-11.429,3.6,0,0-7.119-2.3-10.3,3.61a30.567,30.567,0,0,0-13.864,2.79" transform="translate(-146.455 -36.816)" fill="#fff"/>
    <path id="cloud-5" data-name="cloud" d="M808.158,14.235h-55a9.2,9.2,0,0,1,5.662-3.3A10.993,10.993,0,0,1,770.3,5.57,12.015,12.015,0,0,1,780.658,0c5.985,0,7.6,5.662,7.6,5.662a9.893,9.893,0,0,1,6.794,4.044,14.844,14.844,0,0,1,13.1,4.529" transform="translate(313.842 214.206)" fill="#fff"/>
    <path id="cloud-6" data-name="cloud" d="M753.158,20.025h63.525a10.194,10.194,0,0,0-6.539-4.643c-4.9-9.868-13.265-7.546-13.265-7.546S793.328,0,784.92,0c-6.913,0-8.781,7.964-8.781,7.964a11,11,0,0,0-7.847,5.689s-8.034-2.276-15.134,6.372" transform="translate(214.291 418.612)" fill="#fff"/>
    <g id="Cloud_5" data-name="Cloud 5" transform="translate(464.537 214)">
      <path id="Path_47971" data-name="Path 47971" d="M1395.157,235.841h-76.193s7.1-8.382,14.355-5.259c0,0,3.786-21.694,18.3-12.491,0,0,10.569-4.247,13.567,7.737,0,0,6.31-4.286,9.623,3.6,0,0,5.995-2.3,8.676,3.616a22.139,22.139,0,0,1,11.673,2.794" transform="translate(-1318.964 -215.816)" fill="#fff"/>
    </g>
  </g>
</svg>
