<svg xmlns="http://www.w3.org/2000/svg" xmlns:xlink="http://www.w3.org/1999/xlink" width="2244" height="600" viewBox="0 0 2244 600">
  <defs>
    <clipPath id="clip-_300x600_WiFi_DEV_ASSET_2">
      <rect width="2244" height="600"/>
    </clipPath>
  </defs>
  <g id="_300x600_WiFi_DEV_ASSET_2" data-name="300x600_WiFi_DEV ASSET – 2" clip-path="url(#clip-_300x600_WiFi_DEV_ASSET_2)">
    <path id="cloud" d="M33.319,0c2.89,10.525,10.034,4.04,10.034,4.04.981,4.42,7.361,4.413,7.361,4.413,2.454,14.722,15.705,9.488,15.705,9.488a11.177,11.177,0,0,0,10.47,7.2c8.017,0,9.981-9.325,9.981-9.325s3.762,4.417,13.9,4.417,12.107-9.489,12.107-9.489C124.988,11.07,128.423,0,128.423,0ZM11.834,0c1.746,2.344,5.453,1.418,5.453,1.418C19.251,4.69,23.83,2.836,23.83,2.836c3.818,3.106,5.671-.786,5.671-.786A2.569,2.569,0,0,0,32.011,0ZM0,0C.49.762,2.072.6,2.072.6c.382,1.036,1.635.624,1.635.624C5.563,3.1,7.743,1.2,7.743,1.2,10.2,1.416,10.525,0,10.525,0Z" transform="translate(1122 409.586) rotate(180)" fill="#fff" stroke="rgba(0,0,0,0)" stroke-miterlimit="10" stroke-width="1"/>
    <path id="cloud-2" data-name="cloud" d="M-7438.792,3538.767c3.05-11.108,10.59-4.263,10.59-4.263,1.035-4.665,7.769-4.657,7.769-4.657,2.59-15.538,16.576-10.014,16.576-10.014a11.8,11.8,0,0,1,11.05-7.6c8.461,0,10.534,9.842,10.534,9.842s3.971-4.661,14.675-4.661,12.778,10.015,12.778,10.015c12.777-.347,16.4,11.337,16.4,11.337Zm-22.676,0c1.842-2.474,5.755-1.5,5.755-1.5,2.073-3.453,6.906-1.5,6.906-1.5,4.029-3.279,5.985.829,5.985.829a2.712,2.712,0,0,1,2.648,2.165Zm-12.49,0c.518-.8,2.187-.632,2.187-.632.4-1.094,1.726-.658,1.726-.658,1.958-1.981,4.26.024,4.26.024,2.59-.229,2.936,1.266,2.936,1.266Z" transform="translate(7995.932 -3097.609)" fill="#fff" stroke="rgba(0,0,0,0)" stroke-miterlimit="10" stroke-width="1"/>
    <path id="cloud-3" data-name="cloud" d="M753.158,18.559h71.706a12,12,0,0,0-7.381-4.3,14.332,14.332,0,0,0-14.973-6.993A15.664,15.664,0,0,0,789.011,0c-7.8,0-9.912,7.381-9.912,7.381a12.9,12.9,0,0,0-8.858,5.273s-9.069-2.109-17.083,5.905" transform="translate(-686.158 396.067)" fill="#fff"/>
    <path id="cloud-4" data-name="cloud" d="M805.36,13.511h-52.2a8.736,8.736,0,0,1,5.374-3.133,10.434,10.434,0,0,1,10.9-5.091A11.4,11.4,0,0,1,779.259,0c5.681,0,7.216,5.373,7.216,5.373a9.39,9.39,0,0,1,6.448,3.839,14.089,14.089,0,0,1,12.436,4.3" transform="translate(-619.759 127)" fill="#fff"/>
    <path id="cloud-5" data-name="cloud" d="M1318.964,235.1h64s-5.963-8.07-12.058-5.064c0,0-3.18-20.887-15.371-12.026,0,0-8.878-4.089-11.4,7.449,0,0-5.3-4.126-8.083,3.469,0,0-5.035-2.215-7.287,3.481a16.618,16.618,0,0,0-9.805,2.69" transform="translate(-494.986 193.77)" fill="#fff"/>
    <path id="cloud-6" data-name="cloud" d="M1318.964,235.1h72.564s-6.76-8.07-13.671-5.064c0,0-3.606-20.887-17.427-12.026,0,0-10.066-4.089-12.92,7.449,0,0-6.009-4.126-9.165,3.469,0,0-5.709-2.215-8.263,3.481a20.893,20.893,0,0,0-11.117,2.69" transform="translate(-122.455 15.505)" fill="#fff"/>
    <path id="cloud-7" data-name="cloud" d="M753.158,24.38h94.194a15.763,15.763,0,0,0-9.7-5.653A18.827,18.827,0,0,0,817.987,9.54,20.577,20.577,0,0,0,800.255,0C790,0,787.234,9.7,787.234,9.7A16.943,16.943,0,0,0,775.6,16.623s-11.913-2.77-22.44,7.757" transform="translate(893.745 394.846)" fill="#fff"/>
    <path id="cloud-8" data-name="cloud" d="M1318.964,235.812h90.491s-8.431-8.37-17.049-5.252c0,0-4.5-21.663-21.733-12.473,0,0-12.553-4.241-16.113,7.726,0,0-7.494-4.28-11.429,3.6,0,0-7.119-2.3-10.3,3.61a30.567,30.567,0,0,0-13.864,2.79" transform="translate(532.545 -11.608)" fill="#fff"/>
    <path id="cloud-9" data-name="cloud" d="M808.158,14.235h-55a9.2,9.2,0,0,1,5.662-3.3A10.993,10.993,0,0,1,770.3,5.57,12.015,12.015,0,0,1,780.658,0c5.985,0,7.6,5.662,7.6,5.662a9.893,9.893,0,0,1,6.794,4.044,14.844,14.844,0,0,1,13.1,4.529" transform="translate(649.074 224.204)" fill="#fff"/>
    <path id="cloud-10" data-name="cloud" d="M753.158,20.025h63.525a10.194,10.194,0,0,0-6.539-4.643c-4.9-9.868-13.265-7.546-13.265-7.546S793.328,0,784.92,0c-6.913,0-8.781,7.964-8.781,7.964a11,11,0,0,0-7.847,5.689s-8.034-2.276-15.134,6.372" transform="translate(-294.709 179)" fill="#fff"/>
  </g>
</svg>
