<svg xmlns="http://www.w3.org/2000/svg" xmlns:xlink="http://www.w3.org/1999/xlink" width="1217" height="600" viewBox="0 0 1217 600">
  <defs>
    <clipPath id="clip-_300x600_WiFi_DEV_ASSET_2">
      <rect width="1217" height="600"/>
    </clipPath>
  </defs>
  <g id="_300x600_WiFi_DEV_ASSET_2" data-name="300x600_WiFi_DEV ASSET – 2" clip-path="url(#clip-_300x600_WiFi_DEV_ASSET_2)">
    <path id="cloud" d="M753.158,18.559h71.706a12,12,0,0,0-7.381-4.3,14.332,14.332,0,0,0-14.973-6.993A15.664,15.664,0,0,0,789.011,0c-7.8,0-9.912,7.381-9.912,7.381a12.9,12.9,0,0,0-8.858,5.273s-9.069-2.109-17.083,5.905" transform="translate(-686.158 396.067)" fill="#fff"/>
    <path id="cloud-2" data-name="cloud" d="M805.36,13.511h-52.2a8.736,8.736,0,0,1,5.374-3.133,10.434,10.434,0,0,1,10.9-5.091A11.4,11.4,0,0,1,779.259,0c5.681,0,7.216,5.373,7.216,5.373a9.39,9.39,0,0,1,6.448,3.839,14.089,14.089,0,0,1,12.436,4.3" transform="translate(-614.453 126)" fill="#fff"/>
    <path id="cloud-3" data-name="cloud" d="M1318.964,235.1h64s-5.963-8.07-12.058-5.064c0,0-3.18-20.887-15.371-12.026,0,0-8.878-4.089-11.4,7.449,0,0-5.3-4.126-8.083,3.469,0,0-5.035-2.215-7.287,3.481a16.618,16.618,0,0,0-9.805,2.69" transform="translate(-610.971 146.729)" fill="#fff"/>
    <path id="cloud-4" data-name="cloud" d="M1318.964,235.812h90.491s-8.431-8.37-17.049-5.252c0,0-4.5-21.663-21.733-12.473,0,0-12.553-4.241-16.113,7.726,0,0-7.494-4.28-11.429,3.6,0,0-7.119-2.3-10.3,3.61a30.567,30.567,0,0,0-13.864,2.79" transform="translate(-146.455 -36.816)" fill="#fff"/>
    <path id="cloud-5" data-name="cloud" d="M753.158,20.025h63.525a10.194,10.194,0,0,0-6.539-4.643c-4.9-9.868-13.265-7.546-13.265-7.546S793.328,0,784.92,0c-6.913,0-8.781,7.964-8.781,7.964a11,11,0,0,0-7.847,5.689s-8.034-2.276-15.134,6.372" transform="translate(-294.709 225)" fill="#fff"/>
  </g>
</svg>
