<svg id="heart_2" data-name="heart 2" xmlns="http://www.w3.org/2000/svg" width="72.478" height="64.274" viewBox="0 0 72.478 64.274">
  <g id="Heart" transform="translate(0 0)">
    <path id="Union_4" data-name="Union 4" d="M29.62,59.183c-1.957.1-2.179-.845-3.448-2.468a7.2,7.2,0,0,1-2.565-1.641c-7.535-1.447-9.367-6.044-9.534-9.729-4.848-.621-8.541-3.826-8.541-7.688a5.126,5.126,0,0,1,.034-.554C2.45,34.938,0,31.238,0,28.381a8.809,8.809,0,0,1,1.217-4.943A10.524,10.524,0,0,1,0,18.464,9.761,9.761,0,0,1,3.548,10.7a7.665,7.665,0,0,1,7.4-4.719H11.1C12.451,2.324,14.032,2,17.408.886,21.834-.573,28.05,3.048,28.995,6.575a5.732,5.732,0,0,1,.141.7,7.1,7.1,0,0,1,2.149,2.085,10.72,10.72,0,0,1,3.636-.615,11.163,11.163,0,0,1,2.263.228A7.655,7.655,0,0,1,44.6,4.2a8.838,8.838,0,0,1,2.913.487C48.831,2.182,51.369.063,54.284.063,60.192-.426,62.55,2.015,63.532,4.8c2.718.055,8.228,1.041,6.162,8.339a5.512,5.512,0,0,1,1.9,3.178c3.9,7.5-6.445,14.677-6,15.308a5.742,5.742,0,0,1,0,6.44c-.827,1.435-2.995,2.426-4.812,3.081a8.957,8.957,0,0,1-1.545,3.718,11.023,11.023,0,0,1-6.7,4.357,6.34,6.34,0,0,1-5.123,5.368,13.31,13.31,0,0,1-4.819,3.36,7.6,7.6,0,0,1-2.735.682c-.149,2.426-2.45,5.584-4.535,5.645h-.058C33.343,64.274,30.252,61.506,29.62,59.183Z" transform="translate(0 0)" fill="#fff"/>
  </g>
</svg>
