<svg id="JB_logo" data-name="JB logo" xmlns="http://www.w3.org/2000/svg" width="105.315" height="34.503" viewBox="0 0 105.315 34.503">
  <path id="Path_1" data-name="Path 1" d="M376.043,369.236h3.93v21.1a5.348,5.348,0,0,1-5.706,5.488h-1.543V392.11h1.114c1.35,0,2.205-.613,2.205-2.081Zm0-7.917h3.93v3.939h-3.93Z" transform="translate(-372.724 -361.319)" fill="#fff"/>
  <path id="Path_2" data-name="Path 2" d="M379.906,372.126c.082-2.972,1.806-4.561,4.126-4.561s4.02,1.589,4.135,4.561Zm12.2,3.244v-3.244a7.948,7.948,0,0,0-8.071-8.261c-3.782,0-8.065,2.468-8.065,10.076,0,8.026,4.667,9.961,8.69,9.961a9.037,9.037,0,0,0,7.065-3.168l-2.869-2.428a6.13,6.13,0,0,1-4.271,1.882c-2.709,0-4.676-1.619-4.676-4.818Z" transform="translate(-366.172 -356.175)" fill="#fff"/>
  <path id="Path_3" data-name="Path 3" d="M383.663,361.975H387.6v5.938h2.863v3.008H387.6v11.384c0,1.087.429,1.468,1.4,1.468h1.468v3.712h-2.045a4.482,4.482,0,0,1-4.751-4.824V370.922h-1.975v-3.008h1.975Z" transform="translate(-354.613 -359.994)" fill="#fff"/>
  <path id="Path_4" data-name="Path 4" d="M395.991,376.607c3.09,0,4.476,1.966,4.476,4.129s-1.386,4.129-4.476,4.129h-6.413v-8.258Zm-10.566,12.2h11.562a7.515,7.515,0,0,0,7.657-7.8c0-2.782-1.474-5.633-4.479-6.328V374.6c3.2-1.423,4.047-3.63,4.047-5.917,0-4.31-2.785-7.367-8.149-7.367H385.425Zm10.179-23.78c3.014,0,4.44,1.815,4.44,3.942,0,2.163-1.426,3.933-4.44,3.933h-6.026v-7.874Z" transform="translate(-347.062 -361.315)" fill="#fff"/>
  <path id="Path_5" data-name="Path 5" d="M392.535,361.321h3.933v22.433c0,.885.5,1.338,1.468,1.338h1.356v3.715h-1.737c-2.851,0-5.02-1.232-5.02-4.748Z" transform="translate(-332.696 -361.315)" fill="#fff"/>
  <path id="Path_6" data-name="Path 6" d="M395.322,363.941h3.942v11.653c0,2.664,1.655,4.208,3.887,4.208,2.205,0,3.869-1.544,3.869-4.208V363.941h3.936v19.573H407.02v-2.087h-.076a6.255,6.255,0,0,1-5.065,2.323,6.577,6.577,0,0,1-6.558-6.793Z" transform="translate(-327.065 -356.021)" fill="#fff"/>
  <path id="Path_7" data-name="Path 7" d="M405.136,372.126c.078-2.972,1.815-4.561,4.141-4.561,2.3,0,4.008,1.589,4.129,4.561Zm12.2,3.244v-3.244a7.941,7.941,0,0,0-8.062-8.261c-3.785,0-8.083,2.468-8.083,10.076,0,8.026,4.682,9.961,8.693,9.961a9.014,9.014,0,0,0,7.062-3.168l-2.851-2.428a6.14,6.14,0,0,1-4.28,1.882c-2.706,0-4.682-1.619-4.682-4.818Z" transform="translate(-315.201 -356.175)" fill="#fff"/>
  <path id="Path_8" data-name="Path 8" d="M408.187,363.828a1.74,1.74,0,1,1-1.752,1.746,1.751,1.751,0,0,1,1.752-1.746m0,3.138a1.393,1.393,0,1,0-1.365-1.392,1.33,1.33,0,0,0,1.365,1.392m-.664-2.465h.773c.465,0,.692.2.692.619a.534.534,0,0,1-.514.592l.586.822h-.408l-.577-.816h-.205v.816h-.347Zm.347.9h.236c.278,0,.535-.024.535-.281,0-.242-.227-.3-.453-.3h-.317Z" transform="translate(-304.612 -356.25)" fill="#fff"/>
</svg>
