<svg xmlns="http://www.w3.org/2000/svg" xmlns:xlink="http://www.w3.org/1999/xlink" width="160" height="600" viewBox="0 0 160 600">
  <defs>
    <clipPath id="clip-path">
      <rect id="crop_area" data-name="crop area" width="160" height="451" fill="#00a"/>
    </clipPath>
    <clipPath id="clip-JetBlue_Retail_Refresh_Your_Getaway_160x600_Frame03_1">
      <rect width="160" height="600"/>
    </clipPath>
  </defs>
  <g id="JetBlue_Retail_Refresh_Your_Getaway_160x600_Frame03_1" data-name="JetBlue_Retail_Refresh_Your_Getaway_160x600_Frame03 – 1" clip-path="url(#clip-JetBlue_Retail_Refresh_Your_Getaway_160x600_Frame03_1)">
    <g id="illustration" clip-path="url(#clip-path)">
      <g id="Lady_sleeping_in_seat" data-name="Lady sleeping in seat" transform="translate(-115.328 277.897)">
        <g id="Group_21231" data-name="Group 21231">
          <ellipse id="shadow" cx="71.647" cy="5.559" rx="71.647" ry="5.559" transform="translate(242.781 106.739)" opacity="0.122"/>
          <g id="seat_left" data-name="seat left" transform="translate(243.106)">
            <rect id="Rectangle_3179" data-name="Rectangle 3179" width="38.971" height="1.695" transform="translate(30.498 109.813)" fill="#5e5e5e"/>
            <path id="Path_47807" data-name="Path 47807" d="M46.515,101.811c.172,1.826-1.243,11.368-7.628,15.151s-8.879,3.009-10.856,2.924c-1.031-.087-2.579,1.289-2.837,1.719s-.258,1.719,0,1.892,14.185,0,14.185,0-.086-1.548-.859-1.806-.344-.86,1.376-1.719,7.823-3.439,11.09-14.013c0,0,3.7-3.182,4.9-3.267s9.284-.642,10.23-.88a2.962,2.962,0,0,1,3.439,2.342,121.561,121.561,0,0,1,1.719,14.1c0,2.493-.344,5.311,0,5.321s4.728,0,4.728,0,.072-3.431-.695-3.431-1.025.087-1.2-1.031-.429-20.8-.429-20.8l-6.964-2.579Z" transform="translate(-3.148 -12.054)" fill="#5e5e5e"/>
            <path id="Path_47798" data-name="Path 47798" d="M30.762,87.238c2.435-.952,4.642-2.149,12.122-1.289a118.494,118.494,0,0,0,24.674.478c9.113-.823,8.511,4.938,8,8.291s-1.031,5.5-3.611,5.072-2.923-3.266-2.923-3.266l-9.543,2.863s-23.814,2.6-27.253,0S27.63,88.463,30.762,87.238" transform="translate(-3.643 -10.786)" fill="#999"/>
            <path id="Path_47799" data-name="Path 47799" d="M14.74,21.013H11.364a2.148,2.148,0,0,1-2.148-2.148V2.472A2.148,2.148,0,0,1,11.364.324h2.143a2.148,2.148,0,0,1,2.148,2.148l1.232,16.393a2.148,2.148,0,0,1-2.147,2.148Z" transform="translate(-1.16 -0.041)" fill="#5e5e5e"/>
            <path id="Path_47800" data-name="Path 47800" d="M4.836.454a6.087,6.087,0,0,1,4.642,0c.173.344-.859,4.041-.6,10.918S9.135,21,11.455,27.191s21.321,42.3,15.991,49.261c-2.923,2.064-4.642.774-4.642.774L16.556,63.786l-4.67-12.953L6.985,36.3,2.6,19.367V3.892Z" transform="translate(-0.327 0)" fill="#999"/>
            <path id="Path_47801" data-name="Path 47801" d="M8.148,57.24c.211-1.274.823-1.777,3.747-.917s4.986.43,6.447,2.579a31.375,31.375,0,0,1,2.667,5.244l-3.268,1.031s-.829-4.015-2.4-4.661c-2.1-.87-7.6-.812-7.2-3.277" transform="translate(-1.023 -7.039)" fill="#5e5e5e"/>
            <path id="Path_47802" data-name="Path 47802" d="M57.909,66.353c-.636.357-.975.631-9.228,1.433S29.6,70.709,24.667,72.6c-3.674,2.236-6.82,1.206-7.795-.917-.86-2.373-.63-6.3,4.288-6.624A120.481,120.481,0,0,1,35.958,64c10.031-.172,22.894-.746,23.139,0a2.472,2.472,0,0,1-1.188,2.35" transform="translate(-2.076 -8.013)" fill="#5e5e5e"/>
            <path id="Path_47803" data-name="Path 47803" d="M21.763,65.676c-.917-1.43,3.324-2.006,15.475-2.66,7.727-.416,21.779-.149,22.353.138s.459.859-.459.917-21.722.194-25.906.584-9.17.849-11.463,1.021" transform="translate(-2.725 -7.908)" fill="#999"/>
            <path id="Path_47804" data-name="Path 47804" d="M21.445,74.179c.436.325,3.1-.8,3.841,1.318s3.467,14.221,14.5,15.912c9.422,1.444,23.527-2.328,26.479-.379,2.242,1.48,3.425,4.051,2.808,4.7-1.119,1.174-4.642,2.142-20.748,4.147s-19.229.467-25.1-5.982c-6.824-7.488-7.08-19.829-6.75-20.174s2.05-1.72,4.973.458" transform="translate(-2.063 -9.189)" fill="#5e5e5e"/>
            <path id="Path_47805" data-name="Path 47805" d="M3.964,1.371C2.875,1.6,1.557,1.829,1.1,4.408s-2.35,9.171.229,21.551c.115.229.344.458,1.2.229A5.318,5.318,0,0,1,2.7,26.7s-1.547.344-1.489.573S7.632,47.624,7.632,47.624s.286.688,1.489.573c.058,0,.574-.39,1.147,1.094.066.017,2.006.854,2.006.854S4.595,27.335,3.62,22.291,3.1,4.81,3.964,1.371" transform="translate(0 -0.173)" fill="#5e5e5e"/>
          </g>
          <ellipse id="shadow-2" data-name="shadow" cx="71.647" cy="5.559" rx="71.647" ry="5.559" transform="translate(364.53 106.739)" opacity="0.122"/>
          <g id="seat_left-2" data-name="seat left" transform="translate(364.855)">
            <rect id="Rectangle_3179-2" data-name="Rectangle 3179" width="38.971" height="1.695" transform="translate(30.498 109.813)" fill="#5e5e5e"/>
            <path id="Path_47807-2" data-name="Path 47807" d="M46.515,101.811c.172,1.826-1.243,11.368-7.628,15.151s-8.879,3.009-10.856,2.924c-1.031-.087-2.579,1.289-2.837,1.719s-.258,1.719,0,1.892,14.185,0,14.185,0-.086-1.548-.859-1.806-.344-.86,1.376-1.719,7.823-3.439,11.09-14.013c0,0,3.7-3.182,4.9-3.267s9.284-.642,10.23-.88a2.962,2.962,0,0,1,3.439,2.342,121.561,121.561,0,0,1,1.719,14.1c0,2.493-.344,5.311,0,5.321s4.728,0,4.728,0,.072-3.431-.695-3.431-1.025.087-1.2-1.031-.429-20.8-.429-20.8l-6.964-2.579Z" transform="translate(-3.148 -12.054)" fill="#5e5e5e"/>
            <path id="Path_47798-2" data-name="Path 47798" d="M30.762,87.238c2.435-.952,4.642-2.149,12.122-1.289a118.494,118.494,0,0,0,24.674.478c9.113-.823,8.511,4.938,8,8.291s-1.031,5.5-3.611,5.072-2.923-3.266-2.923-3.266l-9.543,2.863s-23.814,2.6-27.253,0S27.63,88.463,30.762,87.238" transform="translate(-3.643 -10.786)" fill="#999"/>
            <path id="Path_47799-2" data-name="Path 47799" d="M14.74,21.013H11.364a2.148,2.148,0,0,1-2.148-2.148V2.472A2.148,2.148,0,0,1,11.364.324h2.143a2.148,2.148,0,0,1,2.148,2.148l1.232,16.393a2.148,2.148,0,0,1-2.147,2.148Z" transform="translate(-1.16 -0.041)" fill="#5e5e5e"/>
            <path id="Path_47800-2" data-name="Path 47800" d="M4.836.454a6.087,6.087,0,0,1,4.642,0c.173.344-.859,4.041-.6,10.918S9.135,21,11.455,27.191s21.321,42.3,15.991,49.261c-2.923,2.064-4.642.774-4.642.774L16.556,63.786l-4.67-12.953L6.985,36.3,2.6,19.367V3.892Z" transform="translate(-0.327 0)" fill="#999"/>
            <path id="Path_47801-2" data-name="Path 47801" d="M8.148,57.24c.211-1.274.823-1.777,3.747-.917s4.986.43,6.447,2.579a31.375,31.375,0,0,1,2.667,5.244l-3.268,1.031s-.829-4.015-2.4-4.661c-2.1-.87-7.6-.812-7.2-3.277" transform="translate(-1.023 -7.039)" fill="#5e5e5e"/>
            <path id="Path_47802-2" data-name="Path 47802" d="M57.909,66.353c-.636.357-.975.631-9.228,1.433S29.6,70.709,24.667,72.6c-3.674,2.236-6.82,1.206-7.795-.917-.86-2.373-.63-6.3,4.288-6.624A120.481,120.481,0,0,1,35.958,64c10.031-.172,22.894-.746,23.139,0a2.472,2.472,0,0,1-1.188,2.35" transform="translate(-2.076 -8.013)" fill="#5e5e5e"/>
            <path id="Path_47803-2" data-name="Path 47803" d="M21.763,65.676c-.917-1.43,3.324-2.006,15.475-2.66,7.727-.416,21.779-.149,22.353.138s.459.859-.459.917-21.722.194-25.906.584-9.17.849-11.463,1.021" transform="translate(-2.725 -7.908)" fill="#999"/>
            <path id="Path_47804-2" data-name="Path 47804" d="M21.445,74.179c.436.325,3.1-.8,3.841,1.318s3.467,14.221,14.5,15.912c9.422,1.444,23.527-2.328,26.479-.379,2.242,1.48,3.425,4.051,2.808,4.7-1.119,1.174-4.642,2.142-20.748,4.147s-19.229.467-25.1-5.982c-6.824-7.488-7.08-19.829-6.75-20.174s2.05-1.72,4.973.458" transform="translate(-2.063 -9.189)" fill="#5e5e5e"/>
            <path id="Path_47805-2" data-name="Path 47805" d="M3.964,1.371C2.875,1.6,1.557,1.829,1.1,4.408s-2.35,9.171.229,21.551c.115.229.344.458,1.2.229A5.318,5.318,0,0,1,2.7,26.7s-1.547.344-1.489.573S7.632,47.624,7.632,47.624s.286.688,1.489.573c.058,0,.574-.39,1.147,1.094.066.017,2.006.854,2.006.854S4.595,27.335,3.62,22.291,3.1,4.81,3.964,1.371" transform="translate(0 -0.173)" fill="#5e5e5e"/>
          </g>
        </g>
      </g>
    </g>
  </g>
</svg>
