<svg id="THUMB_2" data-name="THUMB 2" xmlns="http://www.w3.org/2000/svg" width="66.327" height="65.124" viewBox="0 0 66.327 65.124">
  <path id="Union_6" data-name="Union 6" d="M41.381,62.326c-2.332.484-5.261,2.225-7.65,1.516-2.917-.864-4.394-6.117-4.8-6.213-4.358,2.649-8.459-.161-6.729-6.4-2.124-2.682-.55-5.959-.236-7.589-4.3-8.816-.532-19.965,1.185-21.241a2.359,2.359,0,0,1,1.839-.439c1.1.048,2.828.1,6.964-1.827,6.808-3.164,6.722-7.809,7.669-11.863.692-2.959-.424-5.606,1.375-7.139,1.329-2.591,6.865-.38,9.025,3.1s4.45,13.256-1.066,18.775c-.051.264.768-.024,1.98-.312,2.693-.64,7.328-1.28,8.68,4.133,4.782.776,8.177,5.939,4.366,12.012-.48,1.32,6.026,4.839-.766,12.007,1.353,4.732-1.4,8.483-5.453,7.549,1.022,4.651-3.328,6.728-7.982,6.728C46.57,65.124,43.219,64.137,41.381,62.326ZM2.934,51.456a11.484,11.484,0,0,1,.243-2.618A5.8,5.8,0,0,1,.005,43.413,12.928,12.928,0,0,1,2.91,35.232c-.562-4.985,2.383-11.916,5.915-12.674,3.674-.788,6.959,1.467,7.84,6.477a16.832,16.832,0,0,1-.234,5.979A11.485,11.485,0,0,1,18.86,41.7a7.4,7.4,0,0,1-1.8,5.445,13.366,13.366,0,0,1,.493,3.184,5.876,5.876,0,0,1-1.528,4.334c-.944,3.295-3.256,5.66-6.03,5.766-.065,0-.131,0-.2,0C6.148,60.433,3.093,56.468,2.934,51.456Z" transform="translate(0 0)" fill="#fff"/>
</svg>
