<svg xmlns="http://www.w3.org/2000/svg" width="249.702" height="157.099" viewBox="0 0 249.702 157.099">
  <path id="countries" d="M124.486,104.049a6.2,6.2,0,0,1,2.839,5.538c-.14,1.907-.864,4.768,1.4,7.729s2.176,4.757,3.578,6.675.827,4.2,3.453,2.193,3.4-.3,5.994-4.683.569-2.282.859-3.48,3.12.135,1.655-3.249,4.058-6.091,2.726-9.692-.675-.668-1.151-2.612-1.337-.278.973-4.256,5.319-6.618,5.373-10.132-3.44.5-4.736.922-3.2-3.37-4.715-3.36.051-.79-1.064-1.643-.853-1.968-1.975-2.914-3.717-3.523-4.293-4.881,1.062,1.688,1.742.388.4.986,2.506,2.545.675,2.172,2.56,2.848,3.723,5.9,4.989,5.05,6.345-4.357,6.59-4.435a3.487,3.487,0,0,0,1.034-1.386c.112-.373.495-.148.849-.549s-.85-.912.108-1.312.123-2.079-.39-2.5-1.964-.117-2.219-1.46c-.191-1.01-2.462,3.565-4.524.877-1.414-1.851-2.8-2.614-1.835-3.135a.564.564,0,0,1,.857-.293c.215.119,3.078,3.312,4.491,2.1s.829.445,3.426.386,4.76-.913,5.61-.533.944.922,1.263.719,1.08.439,1.746.211-1.486,1.642.537,1.828,1.169-2.58,1.365-.878,4.429,10.505,6.178,9.612.607-5.989,1.151-6.288,3.346-3.686,3.219-4.77,2.805-.221,2.257-1.894,1.352,1.264,2.214,1.577.294.345.53.614,1.395.253,1.327,1.953,1.741.079,1.813-.8,2.537,3.932,2.66,5.669,1.381,1.254,1.975,2.674,3.089,3.805,3.617,2.911-.085-1.592-.587-1.119-.559-1.549-1.883-2.234-2.621-.282-2.757-2.822.468-2.164.811-1.981.989,0,1.424.135-.124,1.28,1.05,1.145.8,1.839,2.06.294c.291-.351,2.591-4.214-1.038-5.981-2.551-1.237.211-4.65.6-4.279s.434,1.015,1.992-.015.238-.844,1.416-.832,2.732-1.991,2.836-2.761a2.8,2.8,0,0,0,.019-1.758c-.266-1.069,1.114-1.811.709-2.358s-1.021-.972-.467-1.613-1.2-1.921-2.125-2.917-1.51-.875-.681-2.03,2.029-1.547.361-1.335-.867-.172-1.245.7-.807-.384-.878-.5-1.681-.454-1.193-1.09.731-.1.766-.819,1.251-2.042,1.8-1.392-.27.027-.247.806.164,1.048.888.257,1.119-.443,1.676-.32.543,1.48.883,1.571,1.527.176,1.389.459.29.39.505.938-.128,1.45,1.736.817-2.487-3.682-2.77-4.135-.884-.552.112-.808.353-1.163.209-.543-.48-.082-.25-.4,1.023.051.552-.818a1.825,1.825,0,0,1,.625-2.436c.775-.307,1.39,1.776,2.385-3.14s-.87-6.316-1.381-8.619-3.012-3.254-3.416-1.98-3.37,2.164-1.949-3.96S203.182,24,203.16,24.2s-.391.924.381.367.185-.5.373-.577.934,0,.816-.524-1.3.35-1.039-1.293-.033-2.787.9-3.285.065.744.487.154-.4-.036.671.724.686-.633,1-1.445.686.275-.094-.838.72-1.564.774-1.162-.417.655.438,1.9.086,1.806.138,3.653.219,2.583.158,4.193,3.467,5.015,4.556,7,1.816.252.921-1.217.995-.635-.172-1.863,1.01-1.889-.012-2.569-1.125-2.463-.772-1.929.611-.3-.013-.86-.57.276-.779-.341.888-.3-.116-.87-.595.7-2.162-2.539.21-.3.642-.9,1.106-2.558,2.641-1.75-.084-3.107,1.238-5.2,2.059-.692.736-2.025-1.357-.079-1.359-.08a7.243,7.243,0,0,1-2.7-.967c-.748-.651-.853-.156,0-.763s1.748-1.053.859-2.725-.749.731-1.157-.572,1.256.187,1.48-.028-.182-1.422.731-1.23.519,1.069,1.28.136,1.954.029.464-.963-.98-1.512-.808-2.085.039-.506-.084-.761-.513-.669-2.023-.9c-1.436-.223-.213.135-.825.663-.551.481,2.29,1.77.871,1.684S210.1.9,207.023,1.205s-5.261.17-6.639.87-2.423.883-1.157,1.578,1.824.266,1.569,1.074-2.714-.345-2.744-.536.467.3.467-.2-.729-1.1-1.051-.358.4,1.442-1.644,1.687a13.42,13.42,0,0,0-1.536,1.231c-1.154.948-2.612-2.977-5.494-.254s-.913.741-1.666.464-.841.424-1.231.468-.263-.685-.493-.164-.207-.5-.349-.489-1.1.622-.274-.319-1.809-.621-2.194.032.413,1.778-.057,1.794-3.749-2.207-4.25-.73.8.044.879.353-1.034,1.483-.252,1.1-.352-.329.778.578-1.659.071-.413,1.081-1.794,0-1.709.9-1.539-.3-1.908-.2,1.084,1.959,1.05,2.318-2.536-.384-2.249-1.107.078.559-.879.138.618-.244.049-.877-.661-.017-.84-.131.449-.188-.6-.949a1.537,1.537,0,0,0-1.961.174c-.147.039-.675-.84-1.454-.032s1.488.672-.2,1.8-2.6-.3-3.1-.035-1.818.679-1.9,1.058,1.162.9.123.5-.543-.483-1.1-.332-1.654-.436-1.586.379.634.723.336,1.7-.066,1.49-.833,1.093.3-6.008.082-6.354-.869.281-.9-.307.93.329-.347-.953-.627.351-2.2-.6-1.578.637-1.565.9.537-.725.374.667-.744-.931-1.024-1.07-1.416.946-1.687.731.727-1.407-.916-1.285c-2.434.18,1.767,3.263,1.024,3.567-1.641.675-.766.373-.475.6s.278.69.015.673-.263-1.042-.8-.506-.725,1.314-.955,1.279.459-.332-.094-.608-1.9,1.232-1.083.98-2.757,2.686-2.071,2.741-1.074.971.15,1.335.085-.491.127.161,1.442.047,1.523.563-.335.351-.368.711.433.1.373.343-.385.145-.5-.142.39-.839.132-.886-4.338,2.518-.743,3.415,2.362,4.205,4.035,3.251,1.039,2.3-1.067.172a4.424,4.424,0,0,1-.766-.938c-.5-.728-.121,2.005-.609-.026s-1.125-1.113-2.862-1.784-1.6.824-1.276.724.955.148.679.425-1.762-.711-1.235.159,2.448.505,2.551.932-2.237.295-2.445-.09-1.18-2.324-1.478-1.98.706.537.507,1.25-.6.265-.067,1.381,1.109-.91,1.388,1.22,3.365.689,3.992,2c.954,1.985.774.122,1.043.884.143.422-.27,1.319-1.1-.026s-3-1.045-2.166-.121,1.115,3.476-.953,3.467c-1.088,0-.941-.519-.457-.562.709-.066,1.959-.09-.419-4.012-.977-1.6-1.942-2.5-2.324-3.857s-1.157-1.133-1.948-.907-.562-1.068-.563,0,.687,2.212.3,2.971,1.029,2.4,1.295,2.7,1.222.174,1.769.5a.734.734,0,0,1,.132,1.155c-.23.181-.8-.6-1.345-.673s-4.08-.856-4.25-.27-1.726-1.166-1.617-.278c.082.645,3.313,2.068,1.693,2.8-.062.028.027-.225-.188-.754-.505-1.232-2.8,2.156-3.124,1.609s.621-1.665-.278-.884a1.43,1.43,0,0,0-.444.969c-.5-.264-1.26,1.005-1.662,1.167s.372.143.268.283-.45-.175-.625.2.78,1.711-.853,1.322,1.356-1.728-.887-2.16-.709,1.039-.524,2.023,1.734,1.032.817,1.511-.6-.962-1.9.45.035,2.125-2.039,1.623-.308.671.225.943,1.1-.371.962.534-2.539-.371-2.682-1.36-2.319-1.619-2.071-1.876-.22.283,2.476.559.936-3.525-1.4-3.87-1.127.042-1.25.161-6.574-1.266-6.362.531-.814.084-1.162.545-.072.116-.52-.069,0,.4-.386.306-.225-.572-.5-.02-1.34,1.169-.56,1.181-.407.835-.3,1.017.073,1.735-.491,1.951-.315,1.271-.329,1.351-.78-.78-.438.158-1.6,3.689-.972,3.727,1.1-1.108.622.062-1.743-1.013-1.355.593-2.107,2.98-1.383,4.5.169-.2.733,0-.62,1.441,1.077,1.482.9-1.032,1.527-1.429.3-.858,1.364,1.158.916.869,1.181,1.19-.838.955.241,1.128.413-.706,1.6-1.022-.148-2.506-.012-2.844,1.268-.4.84-.948,1.986.841-.162-1.1.686-3.943.455-5.5-.992-1.92,1.128-1.909.507,1.632-.092,2.643-.417.726-.911.761.571,2.518.98,3.076,1.057.277,1.5.708,2.867-1.52,3.413-1.474.416-.618.718.332-4.041,1.562-3.335,2.517.673.3.629.561.452,1.077-.173,1.227-1.22-1.525-1.5.2,2.237,2.36.244,2.632-.589.472-1.408.394.088-1.238-1.54.351-1.5.143-1.891.108-1.072,1.161-1.645.968a3.036,3.036,0,0,1-1.273-1.375c-.1-.258.8-.757.962-1.03s-.56-.021-.63-.379.574-.6.036-.939-1.154,1.083-.812,1.377-.468.038-.291.614.807,2.074.412,2.641-.416-.422-.7-.025c-.219.308.486.295.53.468.012.061-.171.171-.4.124-.882-.194-3.386,4.138-4.611,5.156s-2.409-.02-1.944.793-.026.206.282.353,1.048-.153,1.421.409-.142-.049.826.628.382.472.168.787.377,1.313-.016,1.889-.6.1-1.091.139.048-.147-.613.065a2.909,2.909,0,0,1-1.256.055c-.36.013-.188.077-.592.141s-.276-.075-.66.006-.207.28-.371.455-.507-.1-.584.188.067.2.285.486.035-.243.113.443a9.3,9.3,0,0,1,.2,2.184c-.108.569-.015.089-.029.138l-.057.2c-.037.134-.19.2-.1.468s-.148-.04.335-.039-.262.065-.1.367.292-.039.36.387-.3.779.03.832.19-.078.556-.105.025-.169.666-.2.766.781,1.261.786.665-.7,1.019-.832,1.3.078,1.475-.234.413-.141.732-.763.443-.872.407-1.2-.547-.491-.4-.9a6.238,6.238,0,0,1,.546-.946c.151-.294-.34-.051.324-.406s.871-.488.831-1.344,0-.947.27-1.13-.376.059.486.012,1.191.237,1.562-.3,0-.252.345-.392.337-.192.55-.483.022-.3.683-.2.972.9,1.658,1.337,0-.023.284.163.421.461.891.654.4-.224.868.146a3.835,3.835,0,0,0,1.119.6c.229.094.339.027.543.211a1.926,1.926,0,0,1,.427.922c.012.206-.219,1.051.149.877s.043.035.161-.187a3.754,3.754,0,0,0,.18-.675c.061-.169-.049.142.03-.061s-.031-.427-.361-.792-.417-.591.148-.739.671.486.994.407.51-.3.031-.545A7.534,7.534,0,0,0,121,67.975c-.457-.058.93-.4-.033-.534a3.664,3.664,0,0,1-1.991-1,3.747,3.747,0,0,0-.97-.526c-.261-.161-.228-.228-.273-.473s-.348-.413-.145-.651a1.052,1.052,0,0,1,.834-.428c.355.011-.065.671.391.834s.154-.583.335-.6,3.261,1.91,3.33,1.947-.192-.145.1.062.32.055.823.592-.166,1,.189,1.354.363.154.744.582.521.4.791.359.209.044.309-.092.258-.431.378-.181-.337-.258-.2.455.679-.656.716-.7.263.068.147-.1-.892-.772-.568-1.1.192.607.586.334.319.25.37.025.012-.266-.074-.378-.566.227-.191-.194-.018-.176.887-.406.748-.156,1.092.064-.015.26-.022.37a3.042,3.042,0,0,0-.013.651c.015.075.148.009.307.046s.245-.111.225.069.147.207.137.567-.025.134-.113.247-.264-.156-.166.2.513.109.67.345,0,.619.358.921.824-.389,1.168-.156.5.309,1.18.051c.945-.362-.849-.27.1-.47.718-.153,1.53.58,2.286.11s.222-.477.489-.631.261.054.562,0,.113-.563.5-.247-.068.184,0,.794.235.526.242.923-.005.067-.013.547-.26.79-.284,1.437.06.675-.2.989-.622.361-1.35.439-.284-.09-.577-.116-.177.015-.3.041.5-.2-.482.115-4.047.773-5.333.268-.872-.4-1.522-.147-.534.227-.663.4a.871.871,0,0,0-.122.777c.1.3.477-.092.225.712s-1.678.009-2.353-.007-.248.228-.792.031-.186-.743-1.13-.87-1.271.254-1.984.032a3.389,3.389,0,0,0-.9-.207c-.344-.056-.657-.446-.191-.979s-.355-2.043-.945-2.08-.364.23-.863.477-1.2-.135-1.878.339-.917,0-1.975.531-2.629,1.76-3.184,1.888a13.679,13.679,0,0,1-2.486-.2c-.733-.041-.315,1.411-1.064,2a4.711,4.711,0,0,0-.845.749c-.489.476-.055.372-.332,1.019s-.4.134-.068,1.235-1.261,1.92-1.594,2.212.318-.091,0,0a23.553,23.553,0,0,0-2.779,5.4,1.944,1.944,0,0,0,.209.78,6.821,6.821,0,0,1,.837,1.833,2.279,2.279,0,0,1-.012,1.511c-.18.447-.613,2.4.095,3.019s2.525,1.581,3.233,2.6a4.833,4.833,0,0,0,2.883,1.947c.844.084,3.3.871,3.925.156s1.849-.492,2.451-.486.813-.345,1.286-.751a1.791,1.791,0,0,1,1.217-.471c.559-.086,1.346.636,1.925.8a18.224,18.224,0,0,0,2.169.086c.669.084,1.272,1.01,1.886,1.541s-.129,2.212,1.886,3.445Zm50.042-16.433c-1.684-.364-1.083-2.5-.9-2.912s2.579,3.279.9,2.912m-21.376,18.992c.863-.646.754-.859,1.431.625s-.324.111-.4.49.338,1.479.318,2,.678,5.237-1.849,5.971-1.3-3.282-2.041-4.622-.127.9-.322-.473,1.522-1.685,1.622-2.135a1.415,1.415,0,0,1,.792-1.006c.418-.166-.41-.209.45-.851Zm-75.36-.544c-2.59-.757-8.761-2.713-8.559-3.585s-4.961,1.205-5.681.329-1.264,3.16-1.726.28-1.21-.673-1.645.748-.893,2.806-2.4,1.833-4.836.8-4.6-3.788-3.815,1.131-3.964-1.562,1.2-5.778-2.236-.6-5.9-6.479-3.2-8.3,5.7-.114,7.59-1.564,1.6-.883,1.933-1.915,5.375-4.021,3.778-4.39,6.738-12.22,7.1-9.927,5.728.028,2.669-1.132-2.424-.454-1.8-2.479-5.752,3.342-2.037-.74,7.2-3.328,7.625-5.322-.048-.659-.806-1-3.509-1.193-2.733-2.307-1.384-5.85-2.042-3.933-3.321,2.161-3-.143-6.2-2.105-5.122.659-.32,3.5.377,4.978-2.772,1.385-2.068,4.658-1.94.47-2.2-1.682,3.276.248-2.9-1.945-.471-9.7,2.156-13.427,1.876-.73,3.583-2.268-.3-4.155-1.553-4.368-2.111,4.959-2.4,3.152.824-2.428-.222-2.274-.14,2.179-.925,1.647-.427-8.4-2.427-4.146,2.611.637.208,3.988-.582.995-1.674.55S43.5,46.751,42,45.918s-.2-2.58-2.224-1.185,1.274-.025.642.949-.758.957-.68,2.148-1.212-1.606-1.23-1.645-4.611-.34-2.482-.917c.247-.068-5.539-5.088-6.851-5.353-4.856-.974-1.1,5.19-11.414-.381s-6.539-1.882-8.973-1.868-6.671,4.156-4.309,6.569,1.9,1.3.761,1.654S2.291,44.68,2.281,45.8s-1.82.136-2.052.944,2.468.651.545,1.082.247,1.3,1.009,1.466c1.448.323,3.943-4.354,2.115.494C.3,59.308,7.674,59.1,8.85,58.192s2.017-2.347,3.529-.531,2.366-.041,2.9,1.39,2.161,2.9,2.133,4.419,8.859,13.158,6.466,11.936-.951-.091-1.185,1.24S21.522,87.43,26.462,89.783s.288-1.512,3.562,1.88,9.694,11.72,14.328,10.7,7.347,2.364,7.4,3.248,4.755,3.27,4.254,1.13,4.578,2.215,2.441,3.9-1.018,4.746-.915,4.292-.721,2.1-.387,2.8,6.648,6.285,10,7.821,1.1,17.322,4.27,19.786,1.964,7.637,1.866,8.687,2.511,2.08,2.4,2.268.961,1.951,1.313-.451c.257-1.767,2.4-5.148.138-6.486-2.02-1.2,1.5-5.266.3-4.615s-.7-.651-.817-.85,1.874-1.26,1.547-2.164,4.962-3.11,2.164-4.457,1.514.088,2.563-1.668,2.157-10.178,5.282-10.324,1.051-5.952,2.024-8.688.182-6.094-2.737-6.8-2.941,1.18-3.521.787-5.544-.787-5.563-.779c-.038.007,2.015-3-.577-3.746ZM206.17,89.354c.208.006.121-.28-.27-.324s-.1,3.144-.831,2.315-.049-.036-.055-.942-.494.832-.551-1.807-.153-2.52,1.852-2.615,1.441-1.067,2.146-.829.658,1.332-1.294,1.176-2.02,1.85-1.384,1.672-.776-.211.142-.507,1.333.04.36.8,1.092,1.407,1.237,1.445-.794.831-1.114.483-.084-.09-.181-.19S205.962,89.357,206.17,89.354ZM200.662,90.9c-.611.063-.24-.252-1.487-.567s-3.141-3.5-2.012-3.31.789-.315,1.111-.876,2.691-2.82,3.017-3.914.286.408,1.231.546.217.427.384.93-.451.179-.517.294a2.063,2.063,0,0,0,.488,1.837c.68.8-.159,1.652-.422,3.695s-.643.376-.8.573.6,1.658-.292.765S201.28,90.829,200.662,90.9Zm7.886,3.7c-.492-.853,2.6-2.021,2.591-1.89s-2.095,2.745-2.591,1.89m19.221-7.608c.3-.289.373.167.743-.248s.212-1.751.972-.722-3.068,2.276-2.911,1.47S227.478,87.281,227.769,86.986Zm-3.291,34.094c-.014.3.75,4.253,1.327,3.4s1.927-2.858,1.3-3.489-.983.449-1.3.493S224.49,120.788,224.478,121.08ZM194.925,94.166c-.12-1.067,2.968-.494,3.756-.67s-1.057-.377.1-.423.251.565,2.509.651.515.362.393.574-6.646.93-6.762-.132m51.577,19.87c1.491,3.06-.216,2.62-.571,3.511s.735.6.884.969-1.123,2.505,0,1.991,1.356-2.975,1.8-3.206a2.489,2.489,0,0,0,1.084-1.846c.113-.923-1.262.418-1.639.093a3.414,3.414,0,0,1-1.029-2.172C247.113,112.676,245,110.977,246.5,114.036Zm-.494,6.952c-.384,1.553-1.044,1.172-1.443,1.9s1.176.271.166.625-2,5.1-3.919,3.859,1.64-3.27,2.988-6.111,1.043-.978,1.5-1.024,1.09-.8.708.749Zm-25.2-34.719c1.43.167,3.521.883,3.895,1.511s2.276.2,1.364.779,1.25,1.519,1.574,1.544-.229.334.02.425,1.447-.628,1.141.3-3.719-.9-4.856-1.379-.311.354-.722.681.359-.154.028.715-1.106-.668-2.709-.256-.371.045-1.067-.972-3.3-1.724-3.782-1.734.063,1.077-1.05,0,1.672-.252.814-1.041-.961.341-1.364.257.664.153-.316-.443,1.793-.957,1.838-.167.54,1.543,1.607.291S219.377,86.1,220.808,86.269Zm-26.747,7.24c-1.838-.829-4.892-5.642-7.135-6.43s.077-1.5,1.261-.479,2.831.979,2.973,1.48,1.7.68,1.727,1,.306.5.677.832-.547.534.423.867,1.453,2.236,1.128,2.446.78,1.1-1.051.28Zm23.921,3.171c.147.427,2,1.376,3.349,1.783s.756-7.1,1.875-5.259.193,1.743,1.353,1.753.916,3.727,2.26,4.09,1.444,2.3,2.144,2.278-2.382-2.432.8.959-.657,8.842-.827,13.295-1.227,1.5-1.929,2.259-1.643,1.559-1.565.54-.25.135-.359-.023-.821.207-.3-.214-5.822-5.623-7.425-5.452-4.05.036-4.819.366-1.843-.225-2.574,1.115-1.946.184-3.26,1.563-3.865.5-3.215-.141-.987-5.9-.8-6.46-1.065-.667-.595-2.136a6.709,6.709,0,0,1,4.234-4.116c2.294-.715,1.841-4.008,2.347-3.286s.3.29.39-.291.6.207.815.087-.459-.676.017-.908,1.472-1.907,2.237-1.141.635.169.839.109.33.613.258-.516,2.132-1.7,2.314-2.211-2.443-.936-.172-.57,2.184.4,2.9-.03-.445,2.138-.292,2.556ZM91.593,26.412c-1.666.826-5.5,21.146-10.073,21.631s-1.394,4.223-1.951,5.228.01,1.269-.273,1.921-.8-2.718-1.868-1.137-1.567-3.512-2.725-3.532S73.66,39.979,72.949,40.243,72.8,38.326,72.8,38.3c-.091-3.972-4.3-6.747-4.3-6.743-.814.485-2.992-3.736-3.367-4.4s4.68-1.978,4.9-3.443-.7-.732.52-2.563.866.237.865.067a18.885,18.885,0,0,1,1.764-2.766c.14-.036.942,1.8.474.059s2.326-1.943,2.795-1.374-.812,3.913-.076,2.348.839-.447,1.242-.529,1.074-1.264,2.076-2.435.566.687,1.044.2-.078-1.194.18-1.674a1.016,1.016,0,0,1,1.783.107c.665.921.971-1.429,1.368-1.6s3.9-1,4.256.179-3.247.885-2.916,1.772.963-.456,1.209-.561,4.263-.628,2.771.276-.081-.468,1.492.385-3.8,1.4-4.581,2.629,2.7-1.357,2.963-.334.175,1.161.377.955.882-2.245,1.33-1.151-2.84,4.09-2.174,3.943,2.737-2.662,2.9-3,.648-.369.909-.459,2.972-.086,2.758.772-3.8,3.225-3.689,3.575,2.207-1.447,1,.661.584,2.393-1.08,3.218Zm-38.685-.244c.988-1.249-.56-2.367.979-.852s-1.968,2.1-.979.852m-3.6,3.386c2.366-1.657,2.459,3.584.048,3.364s.408-.9-.265-1.326-2.149-.38.217-2.039Zm.316-6.325c-.095-1.607,2.127-1.786,2.264.541s.617,3.185-1.118,2.072-.231-.85-.526-2.281S49.714,24.834,49.623,23.228ZM52.452,52.4c.654-4.024-.766-2.795,1.325-2.016s2.369,2.894,1.01,2.114S51.8,56.421,52.452,52.4ZM37.232,29.109c.969-1.283,6.14-5.256,4.221-1.8s-.53.208-2.059,1.9-3.133,1.182-2.162-.1m31.306,41.2c-.578-.849-.849,1.144.313-.646s2.229-1.523,3.845-1.577.444,1.817.311,2.382-.978-.8-.978-.8S69.117,71.158,68.538,70.308ZM47.768,35.388c1.834-1.282,1.314,1.85,1.168,2.389s.647,2.11-1.284,1.959-2.855-3.193-1.307-2.969S45.936,36.668,47.768,35.388ZM40.326,29.87c-1.042-1.307,3.234-1.6,2.478.448s1.076.551,1.26-.985.5.815,1.339,1.162-.715,2.387-.761,2.325-4.618.826-3.055-.352-.563.234-1.3-.509,1.081-.782.041-2.089Zm13.194.659c-1.867-4.691,1.665.373,1.372.584C53.32,32.233,60.7,32.4,59.6,33.532s-.365.981-3.373.9S54.2,32.223,53.52,30.528Zm-19.075,3.8c-.1-2.407,4.523-1.25,3.592.216s-5.193,6.093-5.62,3.934S34.546,36.733,34.445,34.326ZM56.26,20.373c.475-1.353.164-1.66.969-1.964S58,19.769,58.481,20.9s.366-.07.9.117-1.235,2.153-.348,2.051-1.672,4.828-3.453,3.308-.418-4.487-.075-4.793S55.786,21.726,56.26,20.373ZM36.1,37.608c1.072-1.126-.318.012,2.116-1.637s1.64,1.359,2.581,1.4.471,1.6,1,1.808,2.925-5.412,2-.888c-.594,2.9-1.654,4.614-.556,5.028s-.607,1.291-2,.627-3.474,2-5.863-.73,1.7-2.011,2.081-2.5S35.033,38.742,36.1,37.608Zm16.1,2.919c-.461-.811,1.593-4.542,3.314-4.724s-.851,1.929-.367,4.677.1-1.095.467-1.481.1-1.333.588-1.515,3.219-1.552,2.106.661,2.515,2.037,4.316,1.786-.516,2.26.572,1.517-.038-.276.678-.1,4.389,4.191,3.769,7.2-2.212-1.984-3.106-.467-1.117-1.1.746,2.774-2.986-.164-1.044,2.595S60.1,51.4,59.926,51.364s-.191-.814-1.059-.233-1.64-.712-.947-1.244.726,1.239,1.447.244S60.6,44.84,60.5,44.38s-.645,1.059-1.018.556.247-1.95-.453-2.569-.028-.678-.682-.831-.013,1.613-.944,1.362-5.507.352-4.926-1.307.187-.249-.278-1.063ZM65.308,15.336c.224-.394.166.156-.012-.247s1.028-.436,1.188-.356-.152.7.148.72.493-1.646,1.567-1.065-.333,1.025.285.55.311.213.9-.151-.54-.025.951.132-.217.537.459.97.854-.5,1.389-.2.413-.851.683-.224,2.219,1.6-.147,2.726S61.8,26.861,62.034,28.718s-1.2,3.637-2.065,2.141-1.355.592-3.4.008,1.3-.5,1.238-1.9,3.1-.566.012-1.9,2.455-1.141,2.96-1.359-1-.565-.694-1.021.29-.123.026-1.959,2.351.69,2.029.034.049-1.732.378-2.6-1.693.548-2.55.542-.687-1.434-.517-1.968-.429.068-.009-.47.05.17-.374-.037.675-1.083,1.082-1.209,1.636-.348,1.652-.644.43.063.565-.076-.637-.185-.037-.566.66.621,1.264.158-.06-.656.507-.4,0-.361.371-.629.609.868.835.479ZM210.671,52.31c.6,1.41.716,2.366.109,2.545s.169-1.234-.322-.516-.346.4-.55.579.1.684-.724.6-.215-.433-.523.881-.2-.219-.948-.6.366,1.426-.258,1.481.151.762-.7.715.544-1.441.28-1.766-.661.789-1.261.895.047-.245.212,1.54-.205.921-.366.866-.113.962-.578-.238-1.232-.845-.055-2.562,2.563-1.287,2.632-2.5.388-1.234.931-1.123.271.113.409-1.171-.4-1.225-.559-2.131-.047-1.074.323-1.121-1.214-2.558.489-.2S210.069,50.9,210.671,52.31ZM140.826,23.483c.22-.931-.421-.439.5-.321s-.721,1.254-.5.321M201.312,69.63c-.59,1.055-.826.752-.991-1.462s1.578.411.991,1.462m.847,4.585c-.108-.3-1.335-.993-.093-1.818s1.054,2.3,1.533,3.058-.569,1.244-.691.574-.145.005-.675-.853S202.271,74.513,202.159,74.215Zm-60.388-67.4c.847,2.459,2.883-.893,1.964-1.715s.2-.635-.211-.7-2.6-.042-1.754,2.417m6.567.011c-.845-1.186.425-.07.746-.423.353-.387,3.525-.195,1.706,1.674s-1.612-.067-2.452-1.25m59.514,39.244c.095-.229.183-.239-.406-1.6s1.231.309,2.28.119.493.1.943.467.218-.808.329-.148-.89.977-.974.879.2,1.448-.845.96-2.005,0-1.117.411.477,1.8-.323.515S207.753,46.3,207.851,46.069ZM144.461,7.178c-.443-.62-.8.222-.146-.628s.722-.031,1.611.19-.435-.542-.183-1.069,1.925,1.04,1.772,1.368,2.726,1.313-.294,1.31S144.9,7.792,144.461,7.178ZM132.372,27.321c-.433-.529,1.45-.574,1.588-.1.321,1.085,2.829,3.225,1.973,3.114s-1.93,1.111-1.851-.241c.064-1-.958-.007-1.526-.178-.2-.062-.238-.241-.287-.577-.2-1.425.223-.431-.26-1.487S132.805,27.849,132.372,27.321ZM172.566,1.594c.341-.757.666.928,3,1.283,1.418.214-.3-.114-.987.627s.43.188-.491,1.239-5.186-3.146-2.9-2.782S172.176,2.464,172.566,1.594Zm28.728,31.7c-.2-.126-.57-.875.214-.307s-.03.241,2.688,3.335,2.084,1.94,1.413,2.584.988,1.7,1.756,2.134.831.91.065.955-.087.817-.484.933-.4.081-.664-1-4.615-6.876-4.61-7.518a1.29,1.29,0,0,0-.378-1.117ZM133.45,20.8c.244-.567.456-.42.934-.843s.787-3.213,1.863-2.2-.826,2.617-1.737,4.773-.114,1.919-.226,2.46-1.032-.2-.614.162.582.952-.144,1.058-1.091.32-.674-.417-1.117.727-.785-.233.57-.234.785-.493-.9-.312-.524-.584c.158-.119-.007-.268-.12-.407-.575-.724-.265-.509-.108-.781a8.249,8.249,0,0,0,.269-1.061C132.529,21.737,133.206,21.365,133.45,20.8Zm5.258,43.157c.146.421-.077.739-.458,1s-.544,0-1.277.3-2.421-.5-2.9-.417a3.9,3.9,0,0,0-1.487.469c-.791.4-.521.609-.97.9s-.415-.03-.732.029-.784-.2-.738.2.242.118.513.309-.4.113-.493.22.322.163.106.257a6.877,6.877,0,0,1-1.111.172c-.359.05-.464.038-.173-.257s.178-.371.6-.458.434.178.512-.134-.161-.16-.474-.289-.272-.128-.438-.431-.433.156-.391-.415a1.281,1.281,0,0,1,.441-1.011c.353-.421.063.127-.055-.6s.473-.639.4-1.2-.437.132-.065-.277.464-1.14,1.065-1.313.3-.023.512-.041-.252.2-.312.24-.279-.019-.054.05a1.6,1.6,0,0,0,1.388.044c.956-.265.39-.143.957-.531s.651-.218,1.1-.72.77-.721,1.383-.61-.207.343-.356.539-.024.039-.035.05.023-.006-.036.049-.424.027-.307.292.477-.134.446.289-.275.5-.261.772-.228.029-.282.037a.151.151,0,0,0-.057.015c-.028.011-.129-.134-.1.042s-.372.341.671.56,1.234.556,2.595.991S138.556,63.534,138.708,63.956Zm-35.249-5.019c.425,1.255.339,1.359-.68,2.178s-2.036.095-1.765-.057.155-.432.2-.729a.953.953,0,0,0-.094-.577c-.039-.1.262-.314.245-.422s-.917-.075-.247-.487-1.149-1.112,1.658-1.19S103.033,57.683,103.459,58.936Zm15.767,12.515c.2-.444.611-.1,1.018-.22s.688-.633.988-.389-.08.313-.076.671.424.394.13.746-.815-.182-1.1-.257-.259-.108-.573-.193-.591.084-.385-.359ZM115.6,69.5c-.344-.6.047-.04.059-.051a.417.417,0,0,0,.057-.053c.05-.051.149-.161.245-.244s.139-.311.453-.167.22.419.295.74a7.747,7.747,0,0,1,.178.935c.011.2.251-.183-.064.043s.044.555-.521.41S115.942,70.1,115.6,69.5Zm16.02-7.356c0-.276.236-.324.406-.535s.021-.057.078-.112-.078-.1.226-.132.563.479.93.5.846-.648,1-.276,0,.212-.489.393-.918,1.067-1.414.822.039-.458-.209-.591S131.62,62.418,131.62,62.143ZM104.339,57.7c-.177-.249-2.02-3.224-.584-3.854s.433.792.788.925.955-.473,1.217-.244-1.329,2.091-.5,1.842,2.782,2.851,3.218,2.732,1.363-.588.651.709,2.059-.089-1.259,1.626-2.9,1.23-2.584.633.084-.181,1.053-.8-2.164.016-1.246-.741.988-2.2.673-2.31-.1-.814-.364-.817S104.516,57.95,104.339,57.7Z" transform="translate(0 0)" fill="#00a87e" fill-rule="evenodd"/>
</svg>
