<svg id="heart_2" data-name="heart 2" xmlns="http://www.w3.org/2000/svg" width="59.723" height="52.551" viewBox="0 0 59.723 52.551">
  <g id="Heart" transform="translate(0 0)">
    <path id="Union_4" data-name="Union 4" d="M24.407,48.388c-1.613.082-1.8-.691-2.841-2.017a5.937,5.937,0,0,1-2.113-1.342c-6.209-1.183-7.719-4.941-7.856-7.954-3.995-.507-7.038-3.128-7.038-6.285a4.159,4.159,0,0,1,.028-.453C2.018,28.565,0,25.54,0,23.2a7.159,7.159,0,0,1,1-4.041A8.551,8.551,0,0,1,0,15.1,7.956,7.956,0,0,1,2.924,8.748a6.318,6.318,0,0,1,6.1-3.859h.125c1.113-2.99,2.415-3.256,5.2-4.166,3.647-1.193,8.77,1.768,9.548,4.652a4.655,4.655,0,0,1,.116.57,5.831,5.831,0,0,1,1.771,1.7,8.9,8.9,0,0,1,3-.5,9.268,9.268,0,0,1,1.865.187,6.31,6.31,0,0,1,6.112-3.9,7.335,7.335,0,0,1,2.4.4A6.667,6.667,0,0,1,44.731.051c4.868-.4,6.811,1.6,7.621,3.871,2.24.045,6.78.851,5.077,6.818A4.5,4.5,0,0,1,59,13.339c3.214,6.131-5.311,12-4.941,12.516a4.665,4.665,0,0,1,0,5.266c-.682,1.173-2.468,1.983-3.965,2.519a7.292,7.292,0,0,1-1.273,3.04A9.089,9.089,0,0,1,43.3,40.241a5.2,5.2,0,0,1-4.222,4.389,10.968,10.968,0,0,1-3.971,2.747,6.3,6.3,0,0,1-2.254.558c-.123,1.983-2.019,4.565-3.737,4.615h-.048C27.476,52.551,24.928,50.288,24.407,48.388Z" fill="#fff"/>
  </g>
</svg>

