<svg xmlns="http://www.w3.org/2000/svg" xmlns:xlink="http://www.w3.org/1999/xlink" width="804" height="600" viewBox="0 0 804 600">
  <defs>
    <clipPath id="clip-_300x600_WiFi_DEV_ASSET_1">
      <rect width="804" height="600"/>
    </clipPath>
  </defs>
  <g id="_300x600_WiFi_DEV_ASSET_1" data-name="300x600_WiFi_DEV ASSET – 1" clip-path="url(#clip-_300x600_WiFi_DEV_ASSET_1)">
    <path id="cloud" d="M1348.643,223.869h-29.679s2.765-3.371,5.592-2.115c0,0,1.475-8.724,7.128-5.023,0,0,4.117-1.708,5.285,3.112,0,0,2.458-1.724,3.748,1.449a2.6,2.6,0,0,1,3.38,1.454,8.4,8.4,0,0,1,4.547,1.124" transform="translate(-1275.47 114.027)" fill="#fff"/>
    <path id="cloud-2" data-name="cloud" d="M324.713,102.66h21.643s-2.687-3.185-6.2-2.721c0,0-1.935-2.853-4.789-2.853a5.976,5.976,0,0,0-4.523,2.389s-5.861.066-6.126,3.185" transform="translate(-217.038 47.737)" fill="#fff"/>
    <path id="cloud-3" data-name="cloud" d="M785.684,8.419H753.158a5.443,5.443,0,0,1,3.348-1.952A6.5,6.5,0,0,1,763.3,3.294,7.106,7.106,0,0,1,769.421,0a4.757,4.757,0,0,1,4.5,3.348,5.85,5.85,0,0,1,4.018,2.392,8.779,8.779,0,0,1,7.749,2.679" transform="translate(-135.658 130.87)" fill="#fff"/>
    <path id="cloud-4" data-name="cloud" d="M785.684,8.419H753.158a5.443,5.443,0,0,1,3.348-1.952A6.5,6.5,0,0,1,763.3,3.294,7.106,7.106,0,0,1,769.421,0a4.757,4.757,0,0,1,4.5,3.348,5.85,5.85,0,0,1,4.018,2.392,8.779,8.779,0,0,1,7.749,2.679" transform="translate(-600.726 420.977)" fill="#fff"/>
    <path id="cloud-5" data-name="cloud" d="M324.713,103.267h24s-2.98-3.532-6.88-3.017c0,0-2.146-3.164-5.31-3.164a6.627,6.627,0,0,0-5.016,2.649s-6.5.074-6.793,3.532" transform="translate(331.787 101.939)" fill="#fff"/>
    <path id="cloud-6" data-name="cloud" d="M791.623,9.949H753.158a6.438,6.438,0,0,1,3.96-2.307,7.691,7.691,0,0,1,8.032-3.749A8.4,8.4,0,0,1,772.391,0a5.625,5.625,0,0,1,5.317,3.957,6.92,6.92,0,0,1,4.752,2.826,10.386,10.386,0,0,1,9.164,3.165" transform="translate(-84.658 424.421)" fill="#fff"/>
    <path id="cloud-7" data-name="cloud" d="M324.713,106.459h36.394s-4.519-5.356-10.433-4.575c0,0-3.254-4.8-8.053-4.8s-7.606,4.017-7.606,4.017-9.855.112-10.3,5.356" transform="translate(-192.411 238.309)" fill="#fff"/>
    <path id="cloud-8" data-name="cloud" d="M753.158,11.711h35.589A5.691,5.691,0,0,0,785.083,9c-2.748-5.771-7.431-4.413-7.431-4.413S775.663,0,770.952,0c-3.873,0-4.92,4.658-4.92,4.658a6.143,6.143,0,0,0-4.4,3.327s-4.5-1.331-8.479,3.726" transform="translate(-435.479 183)" fill="#fff"/>
  </g>
</svg>
