<svg id="_1" data-name="1" xmlns="http://www.w3.org/2000/svg" width="89.125" height="17.447" viewBox="0 0 89.125 17.447">
  <path id="Path_47978" data-name="Path 47978" d="M650.585,620.4h7.3s-.227-.984-1.93-.833a2.064,2.064,0,0,0-2.8-.016s-.871-.287-1.135.432c0,0-1.1-.114-1.438.416" transform="translate(-650.585 -602.949)" fill="#fff"/>
  <path id="Path_47979" data-name="Path 47979" d="M727.188,608.9h14a1.783,1.783,0,0,0-1.741-1.423s-1.287-2.7-3.936-.545c0,0-3.179-1.287-4.541.984,0,0-2.573-.643-3.785.984" transform="translate(-718.975 -591.456)" fill="#fff"/>
  <path id="Path_47980" data-name="Path 47980" d="M866.274,486.957h66s-2.384-7.683-10.786-7.455a8.494,8.494,0,0,0-8.4-6.585c-7.039,0-9.651,3.065-9.651,3.065s-1.362-6.471-6.926-6.471a7.757,7.757,0,0,0-7.266,5s-9.2-3.633-10.9,6.585c0,0-4.428-.006-5.109,3.063,0,0-4.958-4.5-6.963,2.8" transform="translate(-843.151 -469.51)" fill="#fff"/>
</svg>
