<svg xmlns="http://www.w3.org/2000/svg" width="60" height="180" viewBox="0 0 60 180">
  <path id="JetBlue_Logo" data-name="JetBlue Logo" d="M2.639,60H0V53.553H1.912A3.986,3.986,0,0,0,4.659,52.7a3.558,3.558,0,0,0,1.014-2.769V13.766H12.4v36.7a10.3,10.3,0,0,1-.728,3.9,8.707,8.707,0,0,1-2.027,3.01,9.029,9.029,0,0,1-3.091,1.94A11.012,11.012,0,0,1,2.639,60ZM161.833,48.213a17.553,17.553,0,0,1-5.213-.743,12.635,12.635,0,0,1-4.781-2.682c-3.217-2.916-4.849-7.592-4.849-13.9a25.417,25.417,0,0,1,1.245-8.319,14.558,14.558,0,0,1,3.224-5.4,12.166,12.166,0,0,1,4.436-2.924,13.976,13.976,0,0,1,14.547,3.008,13.431,13.431,0,0,1,3.008,4.528,15.735,15.735,0,0,1,1.116,5.956v5.64H153.72a8.592,8.592,0,0,0,2.26,6.287,7.924,7.924,0,0,0,5.724,2.107,10.386,10.386,0,0,0,7.323-3.29l4.882,4.23a15.3,15.3,0,0,1-5.591,4.214A16.153,16.153,0,0,1,161.833,48.213Zm-1.055-28.4a6.608,6.608,0,0,0-4.964,2.023,8.776,8.776,0,0,0-2.095,5.9h14.118a9,9,0,0,0-2.119-5.9A6.556,6.556,0,0,0,160.778,19.809Zm-32.906,28.4a11.294,11.294,0,0,1-7.587-3.013,11.586,11.586,0,0,1-3.629-8.805V13.766h6.731V34.044a7.651,7.651,0,0,0,1.9,5.4,6.38,6.38,0,0,0,4.766,1.922,6.285,6.285,0,0,0,4.709-1.922,7.681,7.681,0,0,0,1.888-5.4V13.766h6.731V47.811h-6.731V44.184h-.13A10.58,10.58,0,0,1,127.872,48.213Zm-96.284,0a17.553,17.553,0,0,1-5.213-.743,12.635,12.635,0,0,1-4.781-2.682c-3.217-2.915-4.849-7.592-4.849-13.9a25.418,25.418,0,0,1,1.245-8.319,14.558,14.558,0,0,1,3.224-5.4,12.166,12.166,0,0,1,4.436-2.924A13.975,13.975,0,0,1,40.2,17.249a13.429,13.429,0,0,1,3.008,4.528,15.74,15.74,0,0,1,1.115,5.956v5.64H23.474a8.592,8.592,0,0,0,2.26,6.287,7.923,7.923,0,0,0,5.723,2.107,10.382,10.382,0,0,0,7.324-3.29l4.882,4.23a15.3,15.3,0,0,1-5.591,4.214A16.151,16.151,0,0,1,31.588,48.213Zm-1.055-28.4a6.609,6.609,0,0,0-4.964,2.023,8.778,8.778,0,0,0-2.1,5.9H37.593a9,9,0,0,0-2.12-5.9A6.556,6.556,0,0,0,30.533,19.809Zm83.287,28h-2.968a9.229,9.229,0,0,1-6.119-1.838c-1.631-1.383-2.457-3.544-2.457-6.421V0H109V39.014a2.3,2.3,0,0,0,.635,1.754,2.656,2.656,0,0,0,1.872.6h2.308V47.81Zm-28.475,0H65.553V0H83.76A18.106,18.106,0,0,1,89.8.946a11.878,11.878,0,0,1,4.356,2.646,12.49,12.49,0,0,1,3.522,9.233,10.845,10.845,0,0,1-1.411,5.691A11.726,11.726,0,0,1,90.755,23.1v.134a9.232,9.232,0,0,1,5.755,4.147,12.928,12.928,0,0,1,1.9,6.866,14.83,14.83,0,0,1-1.048,5.6,12.681,12.681,0,0,1-2.836,4.275A12.93,12.93,0,0,1,85.344,47.811ZM72.678,26.591v14.37H83.629a7.737,7.737,0,0,0,5.806-2.182,7.207,7.207,0,0,0,1.847-5,7.21,7.21,0,0,0-1.847-5,7.737,7.737,0,0,0-5.806-2.182Zm0-20.144v13.7H82.969a7.918,7.918,0,0,0,5.724-2.014A6.622,6.622,0,0,0,90.556,13.3a6.7,6.7,0,0,0-1.863-4.809,7.885,7.885,0,0,0-5.724-2.039ZM61.264,47.811h-3.5a8.048,8.048,0,0,1-5.814-2.183,8.487,8.487,0,0,1-2.3-6.211V19H46.289V13.766h3.365V3.424h6.728V13.766h4.882V19H56.382v19.81a2.744,2.744,0,0,0,.569,1.98,2.374,2.374,0,0,0,1.807.571h2.505V47.81ZM177.024,19.236A3.03,3.03,0,1,1,180,16.206,3.006,3.006,0,0,1,177.024,19.236Zm0-5.456a2.3,2.3,0,0,0-2.335,2.427,2.336,2.336,0,1,0,4.669,0A2.3,2.3,0,0,0,177.024,13.779Zm-.534,4.11H175.9V14.357h1.316c.813,0,1.191.335,1.191,1.054a.92.92,0,0,1-.889,1.029l.995,1.448h-.69l-.995-1.432h-.336v1.432Zm0-2.981v1h.41c.481,0,.913-.038.913-.494,0-.333-.263-.5-.781-.5ZM12.4,6.85H5.674V0H12.4V6.849Z" transform="translate(0 180) rotate(-90)" fill="#fff"/>
</svg>
