<svg xmlns="http://www.w3.org/2000/svg" xmlns:xlink="http://www.w3.org/1999/xlink" width="300" height="250" viewBox="0 0 300 250"><defs><clipPath id="a"><rect width="27.787" height="29.848" fill="none"/></clipPath><clipPath id="c"><rect width="300" height="250"/></clipPath></defs><g id="b" clip-path="url(#c)"><g transform="translate(134.765 135.149)"><g transform="translate(1.344 1.637)"><g clip-path="url(#a)"><path d="M31.846,31.784a.887.887,0,0,1-.373-.082c-.456-.21-.814-.827-1.062-1.833C30,26.751,26.947,20.3,25.264,18.428c-.263-.293-.579-.627-.913-.981A29.37,29.37,0,0,1,17.812,8c-1.393-3.574-2.755-5.21-3.024-5.122,0,0-.331.225.3,2.629.332,1.271.694,2.556,1.044,3.8,1.076,3.818,2.092,7.425,1.913,9.539a.189.189,0,1,1-.377-.032c.173-2.045-.834-5.619-1.9-9.4-.351-1.244-.713-2.531-1.046-3.806-.67-2.562-.348-2.988-.048-3.085.139-.045.561-.182,1.582,1.426a23.635,23.635,0,0,1,1.911,3.919,29.048,29.048,0,0,0,6.461,9.319c.336.356.653.692.92.988,1.753,1.95,4.812,8.408,5.236,11.624.213.856.508,1.4.849,1.559a.607.607,0,0,0,.548-.043c.532-.259.459-3.709.406-6.228a40.184,40.184,0,0,1,.141-6.149c.558-3.294,3.621-9.586,4.535-11.072a12.711,12.711,0,0,0,1.248-3.519.189.189,0,0,1,.372.071,12.873,12.873,0,0,1-1.3,3.647C36.708,9.489,33.64,15.811,33.1,19a40,40,0,0,0-.136,6.077c.081,3.851.095,6.228-.616,6.575a1.113,1.113,0,0,1-.5.13" transform="translate(-11.098 -1.936)" fill="#f6f6f6"/><path d="M8.26,34.877H8.239c-.923-.039-1.049-2.647-1.178-6.9-.047-1.544-.1-3.141-.213-4.4C6.528,20.175,4,15.292,2.648,12.67c-.2-.393-.377-.729-.508-.994-.071-.143-.2-.378-.349-.668C.3,8.2-.138,7.129.036,6.779a.274.274,0,0,1,.173-.145.4.4,0,0,1,.282-.01C1.079,6.809,1.9,8.367,3.2,10.893c1.054,2.051,2.248,4.376,3.121,5.179,2.823,2.6,5.209,6.569,6.635,8.942l.266.442c.217.359.449.814.692,1.33,2.626-3.131,9.58-10.325,9.653-10.4a.189.189,0,0,1,.272.263c-.074.077-7.23,7.48-9.749,10.517.268.585.549,1.232.837,1.9.979,2.255,2.313,5.343,3.043,5.239.885-.126,2.635-3.686,3.53-5.9a.189.189,0,0,1,.351.142c-.006.015-.6,1.482-1.35,2.953-1.554,3.049-2.249,3.148-2.478,3.181-.934.134-1.928-1.975-3.444-5.463-.26-.6-.513-1.182-.757-1.719-.318.406-.834,1.238-1.429,2.2-1.885,3.035-3.288,5.189-4.139,5.189M.372,6.981a20.751,20.751,0,0,0,1.754,3.85c.155.294.281.532.353.677.131.263.3.6.506.988,1.368,2.646,3.914,7.57,4.241,11.05.119,1.267.168,2.87.215,4.42.079,2.591.2,6.507.815,6.533h.01c.7,0,2.648-3.134,3.813-5.01.62-1,1.155-1.859,1.484-2.269l.09-.111a16.2,16.2,0,0,0-.75-1.457l-.266-.442c-1.415-2.355-3.784-6.3-6.567-8.858-.923-.849-2.081-3.1-3.2-5.285C2.031,9.439.772,6.99.372,6.981" transform="translate(0 -5.115)" fill="#f6f6f6"/><path d="M44.718,23.408a.189.189,0,0,1-.184-.145c-.872-3.581-4.164-7.7-6.569-10.71A35.472,35.472,0,0,1,35.67,9.5a20.063,20.063,0,0,1-1.35-4.342C33.839,3.2,33.294.976,32.789.672a.1.1,0,0,0-.081-.019c-.034.008-.334.147-.45,2.38-.075,1.438-.058,3.288-.042,5.077a40.351,40.351,0,0,1-.134,5.319,10.746,10.746,0,0,1-2,4.352.189.189,0,0,1-.294-.238,10.556,10.556,0,0,0,1.921-4.182,40.436,40.436,0,0,0,.128-5.248c-.046-5.178.015-7.638.779-7.829a.48.48,0,0,1,.368.062c.6.359,1.041,2.023,1.7,4.719A20.5,20.5,0,0,0,35.993,9.3a35.421,35.421,0,0,0,2.268,3.015c2.426,3.036,5.749,7.194,6.64,10.857a.189.189,0,0,1-.139.229.2.2,0,0,1-.045.005" transform="translate(-23.045 -0.211)" fill="#f6f6f6"/><path d="M31.709,24.3l-.024,0a.189.189,0,0,1-.164-.211c.528-4.179,4.087-8.994,6-11.581.205-.278.389-.526.545-.742.914-1.264,1.329-4.089,1.695-6.581C40.21,2.117,40.529.23,41.39.023a.749.749,0,0,1,.644.128c.81.605.936,3.023,1.046,5.156.04.759.077,1.477.142,1.994a16.873,16.873,0,0,0,1.871,5.461c.543.893,1.143,5.927,1.169,6.141a.189.189,0,0,1-.376.044c-.17-1.434-.7-5.305-1.116-5.989a17.332,17.332,0,0,1-1.923-5.61c-.068-.532-.105-1.256-.145-2.022-.1-1.846-.227-4.373-.895-4.872a.368.368,0,0,0-.328-.064c-.656.158-1.005,2.539-1.343,4.843-.372,2.535-.794,5.409-1.763,6.748-.157.217-.342.467-.548.746-1.892,2.559-5.413,7.322-5.929,11.4a.19.19,0,0,1-.188.165" transform="translate(-24.419 0.001)" fill="#f6f6f6"/><path d="M32.2,28.566a.193.193,0,0,1-.055-.008.189.189,0,0,1-.126-.236c1.39-4.593,7.655-12.4,9.657-14.578a15.981,15.981,0,0,0,3.459-5.453c.093-.246.2-.571.331-.941.924-2.694,1.834-5.092,2.907-4.814.716.185.442,1.939-.2,5.57-.515,2.937-1.157,6.593-.945,9.126a.189.189,0,1,1-.377.032c-.216-2.582.43-6.264.949-9.223.373-2.124.883-5.033.473-5.139-.809-.211-1.922,3.019-2.454,4.571-.128.374-.241.7-.335.952A16.342,16.342,0,0,1,41.951,14c-1.988,2.158-8.2,9.9-9.574,14.431a.189.189,0,0,1-.181.134" transform="translate(-24.797 -1.947)" fill="#f6f6f6"/><path d="M36.959,78.1c-2.232,0-3.75-4.771-4.58-7.38l-.083-.261c-.771-2.414-4.014-7.461-4.046-7.512a.189.189,0,0,1,.318-.205c.134.209,3.3,5.14,4.089,7.6l.084.262c.768,2.414,2.369,7.437,4.419,7.1,1.781-.294,5.24-9.21,6.423-12.62a.189.189,0,1,1,.358.124C43.5,66.49,39.546,77.7,37.22,78.083a1.588,1.588,0,0,1-.261.022" transform="translate(-21.862 -48.544)" fill="#f6f6f6"/><path d="M34.355,74.043h0c-1.388,0-2.473-3.794-2.69-5.917-.226-2.211-2.472-6.823-2.494-6.869a.189.189,0,1,1,.34-.166c.094.191,2.3,4.719,2.531,7,.251,2.458,1.391,5.576,2.314,5.577h0c1.049,0,3.462-4.224,5.59-7.95,1.961-3.434,3.99-6.985,5.534-8.508a.189.189,0,1,1,.266.27c-1.508,1.486-3.523,5.014-5.471,8.426-2.893,5.065-4.736,8.141-5.919,8.141" transform="translate(-22.584 -44.278)" fill="#f6f6f6"/><path d="M32.944,39.727a.189.189,0,0,1-.138-.319l1.254-1.332c.145-.193.617-.831,1.277-1.721,2.328-3.142,7.171-9.681,8.405-11.109.944-1.093,1.805-2.139,2.637-3.152a72.331,72.331,0,0,1,6.151-6.841.189.189,0,0,1,.262.273,72.135,72.135,0,0,0-6.121,6.808c-.834,1.014-1.7,2.063-2.643,3.159-1.226,1.418-6.063,7.949-8.388,11.087-.661.892-1.134,1.532-1.293,1.74l-1.266,1.347a.189.189,0,0,1-.138.06" transform="translate(-25.376 -11.776)" fill="#f6f6f6"/></g></g><path d="M169.994,230.234H142.224a1.354,1.354,0,0,1-1.35-1.35V226.3a1.354,1.354,0,0,1,1.35-1.35h27.771a1.354,1.354,0,0,1,1.35,1.35v2.585a1.354,1.354,0,0,1-1.35,1.35" transform="translate(-140.874 -224.949)" fill="#fc3388"/></g></g></svg>