<svg xmlns="http://www.w3.org/2000/svg" xmlns:xlink="http://www.w3.org/1999/xlink" width="300" height="250" viewBox="0 0 300 250"><defs><clipPath id="b"><rect width="300" height="250"/></clipPath></defs><g id="a" clip-path="url(#b)"><path d="M157.861,72.859c-.322-9.147-2.289-29.036-5.3-39.01-2.961-9.821-1.783-23.534-19.548-25.6C115.475,6.219,91.936,6.343,82.1,6.346s-33.379-.127-50.92,1.907c-17.765,2.061-16.587,15.775-19.548,25.6-3.008,9.974-4.975,29.863-5.3,39.01-.265,7.54,3.524,20.553,4.962,25.19a2.421,2.421,0,0,0,2.351,1.681h1.244l-.095,1.808h-.808a1.149,1.149,0,0,0-1.135,1.366l6.427,28.216H144.917l6.427-28.216a1.149,1.149,0,0,0-1.135-1.366H149.4l-.094-1.808h1.243a2.421,2.421,0,0,0,2.351-1.681c1.437-4.637,5.227-17.649,4.962-25.19" transform="translate(67.905 70.389)" fill="#000064"/></g></svg>