<svg xmlns="http://www.w3.org/2000/svg" xmlns:xlink="http://www.w3.org/1999/xlink" width="160" height="600" viewBox="0 0 160 600">
  <defs>
    <clipPath id="clip-path">
      <rect id="crop_area" data-name="crop area" width="160" height="451" fill="#00a"/>
    </clipPath>
    <clipPath id="clip-JetBlue_Retail_Refresh_Live_TV_160x600_Frame04_v02_1">
      <rect width="160" height="600"/>
    </clipPath>
  </defs>
  <g id="JetBlue_Retail_Refresh_Live_TV_160x600_Frame04_v02_1" data-name="JetBlue_Retail_Refresh_Live_TV_160x600_Frame04_v02 – 1" clip-path="url(#clip-JetBlue_Retail_Refresh_Live_TV_160x600_Frame04_v02_1)">
    <g id="illustration" clip-path="url(#clip-path)">
      <g id="plane_seatback" data-name="plane seatback" transform="translate(-14.811 233.666)">
        <path id="Path_48280" data-name="Path 48280" d="M128.333,102.512H94.857a2.406,2.406,0,1,1,0-4.812h33.475a2.406,2.406,0,1,1,0,4.812" transform="translate(-16.688 -17.635)" fill="none"/>
        <path id="Path_48281" data-name="Path 48281" d="M114.545,112.227h0a5.77,5.77,0,0,1-5.753-5.753v-1.516a5.753,5.753,0,1,1,11.506,0v1.516a5.77,5.77,0,0,1-5.753,5.753" transform="translate(-19.638 -17.907)" fill="none"/>
        <path id="Path_48282" data-name="Path 48282" d="M207.009,141.279l.111,2.141H180.159l.388-2.141Z" transform="translate(-32.52 -25.502)" fill="#000064"/>
        <path id="Path_48283" data-name="Path 48283" d="M114.82,145.848h.329a3.061,3.061,0,0,0,3.085-3.033l-.04-9.657a3.049,3.049,0,0,0-3.078-2.985h-.325a3.034,3.034,0,0,0-3.067,2.985v9.657a3.075,3.075,0,0,0,3.1,3.033" transform="translate(-20.167 -23.497)" fill="#78746e"/>
        <path id="Path_48284" data-name="Path 48284" d="M43.528,102.682l13.3,68.8H148.7l13.3-68.8Z" transform="translate(-7.857 -18.535)" fill="#44447e"/>
        <path id="Path_48285" data-name="Path 48285" d="M129.8,127.264l-.6-.951a8.378,8.378,0,0,0-7.071-3.845h-21.2a8.378,8.378,0,0,0-7.071,3.845l-.6.951a7.318,7.318,0,0,0-.129,7.7l5.449,9.133a10.124,10.124,0,0,0,8.714,4.887h8.479a10.124,10.124,0,0,0,8.714-4.887l5.449-9.133a7.318,7.318,0,0,0-.129-7.7" transform="translate(-16.624 -22.106)" fill="#cccce0" opacity="0.25"/>
        <path id="Path_48286" data-name="Path 48286" d="M18.675,141.279l-.111,2.141H45.526l-.388-2.141Z" transform="translate(-3.351 -25.502)" fill="#000064"/>
        <path id="Path_48287" data-name="Path 48287" d="M153.617,138.484a2.576,2.576,0,0,0-1.121-.257H55.726a2.576,2.576,0,0,0-1.121.257l-3.613,2.244.388,2.141,3.089-2.059a3.024,3.024,0,0,1,1.237-.266h96.809a3.024,3.024,0,0,1,1.237.266l3.089,2.059.388-2.141Z" transform="translate(-9.204 -24.951)" fill="#000064"/>
        <path id="Path_48288" data-name="Path 48288" d="M115.369,145.848h-.329a3.061,3.061,0,0,1-3.085-3.033l.04-9.657a3.049,3.049,0,0,1,3.078-2.985h.325a3.034,3.034,0,0,1,3.067,2.985v9.657a3.075,3.075,0,0,1-3.1,3.033" transform="translate(-20.209 -23.497)" fill="#000064"/>
        <rect id="Rectangle_3206" data-name="Rectangle 3206" width="91.651" height="109.769" transform="translate(48.979 152.589)" fill="#44447e"/>
      </g>
    </g>
  </g>
</svg>
