<svg id="_1" data-name="1" xmlns="http://www.w3.org/2000/svg" width="89.414" height="17.503" viewBox="0 0 89.414 17.503">
  <path id="Path_47978" data-name="Path 47978" d="M650.585,620.4h7.328s-.228-.987-1.936-.835a2.07,2.07,0,0,0-2.809-.016s-.873-.288-1.139.434c0,0-1.1-.114-1.443.418" transform="translate(-650.585 -602.897)" fill="#fff"/>
  <path id="Path_47979" data-name="Path 47979" d="M727.188,608.911h14.048a1.789,1.789,0,0,0-1.747-1.428s-1.291-2.711-3.949-.546c0,0-3.189-1.291-4.556.987,0,0-2.582-.645-3.8.987" transform="translate(-718.949 -591.408)" fill="#fff"/>
  <path id="Path_47980" data-name="Path 47980" d="M866.274,487.013H932.49s-2.392-7.707-10.821-7.48a8.522,8.522,0,0,0-8.429-6.606c-7.062,0-9.682,3.075-9.682,3.075s-1.367-6.492-6.948-6.492a7.782,7.782,0,0,0-7.29,5.012s-9.226-3.645-10.935,6.606c0,0-4.442-.006-5.126,3.073,0,0-4.974-4.515-6.986,2.812" transform="translate(-843.076 -469.51)" fill="#fff"/>
</svg>
