<svg xmlns="http://www.w3.org/2000/svg" xmlns:xlink="http://www.w3.org/1999/xlink" width="907" height="600" viewBox="0 0 907 600">
  <defs>
    <clipPath id="clip-_160x600_WiFi_DEV_ASSET_2">
      <rect width="907" height="600"/>
    </clipPath>
  </defs>
  <g id="_160x600_WiFi_DEV_ASSET_2" data-name="160x600_WiFi_DEV ASSET – 2" clip-path="url(#clip-_160x600_WiFi_DEV_ASSET_2)">
    <g id="_1" data-name="1" transform="translate(99.502 414.42)">
      <path id="Path_47978" data-name="Path 47978" d="M650.585,620.4h7.328s-.228-.987-1.936-.835a2.07,2.07,0,0,0-2.809-.016s-.873-.288-1.139.434c0,0-1.1-.114-1.443.418" transform="translate(-650.585 -602.897)" fill="#fff"/>
      <path id="Path_47979" data-name="Path 47979" d="M727.188,608.911h14.048a1.789,1.789,0,0,0-1.747-1.428s-1.291-2.711-3.949-.546c0,0-3.189-1.291-4.556.987,0,0-2.582-.645-3.8.987" transform="translate(-718.949 -591.408)" fill="#fff"/>
      <path id="Path_47980" data-name="Path 47980" d="M866.274,487.013H932.49s-2.392-7.707-10.821-7.48a8.522,8.522,0,0,0-8.429-6.606c-7.062,0-9.682,3.075-9.682,3.075s-1.367-6.492-6.948-6.492a7.782,7.782,0,0,0-7.29,5.012s-9.226-3.645-10.935,6.606c0,0-4.442-.006-5.126,3.073,0,0-4.974-4.515-6.986,2.812" transform="translate(-843.076 -469.51)" fill="#fff"/>
    </g>
    <g id="_5" data-name="5" transform="translate(129.363 137.818)">
      <path id="Path_47971" data-name="Path 47971" d="M1318.964,230.239h57.172s-5.326-6.037-10.772-3.788c0,0-2.841-15.625-13.731-9,0,0-7.931-3.059-10.18,5.573,0,0-4.735-3.087-7.22,2.595,0,0-4.5-1.657-6.51,2.6a17.2,17.2,0,0,0-8.759,2.012" transform="translate(-1318.964 -215.816)" fill="#fff"/>
    </g>
    <g id="_5-2" data-name="5" transform="translate(590.054 209.117)">
      <path id="Path_47971-2" data-name="Path 47971" d="M1318.964,233.447h69.891s-6.511-7.38-13.168-4.631c0,0-3.473-19.1-16.786-11,0,0-9.7-3.739-12.444,6.812,0,0-5.788-3.774-8.827,3.172,0,0-5.5-2.026-7.958,3.183a21.03,21.03,0,0,0-10.708,2.46" transform="translate(-1318.964 -215.816)" fill="#fff"/>
    </g>
    <g id="_5-3" data-name="5" transform="translate(382.187 405.541)">
      <path id="Path_47971-3" data-name="Path 47971" d="M1318.964,233.447h69.891s-6.511-7.38-13.168-4.631c0,0-3.473-19.1-16.786-11,0,0-9.7-3.739-12.444,6.812,0,0-5.788-3.774-8.827,3.172,0,0-5.5-2.026-7.958,3.183a21.03,21.03,0,0,0-10.708,2.46" transform="translate(-1318.964 -215.816)" fill="#fff"/>
    </g>
    <path id="Path_47973" data-name="Path 47973" d="M207.2,49.714H155.678a8.3,8.3,0,0,1,5.3-3.651c3.978-7.759,10.759-5.933,10.759-5.933s2.88-6.161,9.7-6.161c5.607,0,7.123,6.262,7.123,6.262a8.947,8.947,0,0,1,6.365,4.473s6.516-1.79,12.275,5.01" transform="translate(261.454 320.048)" fill="#fff"/>
    <path id="Path_47973-2" data-name="Path 47973" d="M220.292,53.714H155.678a10.408,10.408,0,0,1,6.651-4.579c4.989-9.73,13.492-7.441,13.492-7.441s3.611-7.726,12.163-7.726c7.031,0,8.932,7.853,8.932,7.853a11.22,11.22,0,0,1,7.981,5.61s8.172-2.244,15.393,6.283" transform="translate(653.081 351.827)" fill="#fff"/>
  </g>
</svg>
