<svg id="THUMB_2" data-name="THUMB 2" xmlns="http://www.w3.org/2000/svg" width="71.974" height="65.766" viewBox="0 0 71.974 65.766">
  <path id="Union_6" data-name="Union 6" d="M44.9,62.94c-2.53.489-5.709,2.247-8.3,1.53-3.165-.872-4.768-6.177-5.212-6.274-4.73,2.675-9.179-.162-7.3-6.463-2.305-2.708-.6-6.018-.256-7.664-4.663-8.9-.578-20.162,1.286-21.45a2.708,2.708,0,0,1,2-.443c1.2.048,3.068.1,7.557-1.845,7.388-3.2,7.295-7.886,8.322-11.98.751-2.988-.46-5.661,1.492-7.209,1.443-2.617,7.45-.384,9.793,3.132s4.829,13.386-1.157,18.96c-.055.266.833-.025,2.149-.316,2.923-.646,7.951-1.293,9.419,4.173,5.189.784,8.873,6,4.737,12.13-.521,1.333,6.539,4.887-.831,12.126,1.469,4.778-1.522,8.566-5.917,7.623,1.109,4.7-3.612,6.794-8.661,6.794C50.535,65.766,46.9,64.769,44.9,62.94ZM3.183,51.964a10.819,10.819,0,0,1,.263-2.644A5.818,5.818,0,0,1,.005,43.841,12.508,12.508,0,0,1,3.158,35.58c-.61-5.034,2.586-12.033,6.418-12.8,3.986-.8,7.552,1.482,8.508,6.541a15.843,15.843,0,0,1-.253,6.038,11.121,11.121,0,0,1,2.635,6.751,7.152,7.152,0,0,1-1.95,5.5,12.636,12.636,0,0,1,.535,3.216A5.7,5.7,0,0,1,17.393,55.2c-1.025,3.327-3.533,5.715-6.543,5.823-.071,0-.142,0-.212,0C6.671,61.029,3.356,57.024,3.183,51.964Z" transform="translate(0 0)" fill="#fff"/>
</svg>

