<svg xmlns="http://www.w3.org/2000/svg" xmlns:xlink="http://www.w3.org/1999/xlink" width="300" height="250" viewBox="0 0 300 250"><defs><clipPath id="a"><rect width="94.796" height="65.222" fill="none"/></clipPath><clipPath id="c"><rect width="91.992" height="61.328" fill="none"/></clipPath><clipPath id="e"><rect width="300" height="250"/></clipPath></defs><g id="d" clip-path="url(#e)"><g transform="translate(102.599 83.875)"><g clip-path="url(#a)"><g transform="translate(0 0)"><g clip-path="url(#a)"><g transform="translate(1.402 3.894)" opacity="0.47" style="mix-blend-mode:multiply;isolation:isolate"><g clip-path="url(#c)"><path d="M89.362,5.971H6.93a4.794,4.794,0,0,0-4.78,4.78V62.519A4.794,4.794,0,0,0,6.93,67.3H89.362a4.794,4.794,0,0,0,4.78-4.78V10.751a4.794,4.794,0,0,0-4.78-4.78" transform="translate(-2.15 -5.971)" fill="#000064"/></g></g><path d="M2.477,0H85.7a2.476,2.476,0,0,1,2.476,2.476V54.1A2.476,2.476,0,0,1,85.7,56.576H2.477A2.477,2.477,0,0,1,0,54.1V2.477A2.477,2.477,0,0,1,2.477,0Z" transform="translate(3.311 3.311)" fill="#fff"/><path d="M88.175,56.576H6.621V6.621H88.175ZM89.87,0H4.925A4.94,4.94,0,0,0,0,4.926V58.272A4.94,4.94,0,0,0,4.925,63.2H89.87A4.94,4.94,0,0,0,94.8,58.272V4.926A4.941,4.941,0,0,0,89.87,0" transform="translate(0 0)" fill="#00a"/></g></g></g><path d="M113.49,109.18h0a4.352,4.352,0,1,1,4.352-4.352,4.365,4.365,0,0,1-4.352,4.352" transform="translate(-66.089 -47.585)" fill="#c4025b"/></g></g></svg>