<svg id="EX_MARK" data-name="EX MARK" xmlns="http://www.w3.org/2000/svg" width="39.81" height="89.188" viewBox="0 0 39.81 89.188">
  <g id="EX_MARK-2" data-name="EX MARK" transform="matrix(0.998, 0.07, -0.07, 0.998, 6.076, 0.004)">
    <g id="cuff" transform="translate(0 0)">
      <path id="cuff-2" data-name="cuff" d="M14.139,64.736a13.564,13.564,0,0,1-3.127.272,9.292,9.292,0,0,1-7.225-3.086c-2.127-.1-3.8-1.073-3.8-2.264,0-1.029,1.248-1.9,2.96-2.178.529-1.449,1.878-2.839,4.234-3.884-3.447-2.448-3.107-4.857-1.569-6.779a13.869,13.869,0,0,1-1.446-6.485c.64-5.333,3.075-6.341,3.075-6.341-3.388-3.776-2.415-7.768.228-10.826A5.271,5.271,0,0,1,6.5,20.174a5.673,5.673,0,0,1,.591-2.447,13.95,13.95,0,0,1-.346-3.106c0-3.091,2.4-5.811,4.853-7.5a4.584,4.584,0,0,1-.62-2.079A1.988,1.988,0,0,1,9.736,3.418c0-1.015,1.214-1.874,2.889-2.166A5.226,5.226,0,0,1,16.048,0,4.95,4.95,0,0,1,21.129,4.8q0,.157-.011.312a4.871,4.871,0,0,1,1.756,3.772,4.944,4.944,0,0,1-.485,2.146,6.683,6.683,0,0,1,3.881,10.629c.224.753.462,1.6.719,2.539a22.42,22.42,0,0,1,.812,7.187,27.431,27.431,0,0,1,2.43,4.768,8.959,8.959,0,0,1-.246,6.884,2.064,2.064,0,0,1,.179.111A8.4,8.4,0,0,1,33.81,50a8.124,8.124,0,0,1-1.472,4.649,7.05,7.05,0,0,1,.592,2.841,6.709,6.709,0,0,1-6.571,6.838,6.331,6.331,0,0,1-2.793-.647c-.816,1.862-2.554,3.044-5.368,3.044A5.178,5.178,0,0,1,14.139,64.736Z" transform="translate(33.805 66.724) rotate(180)" fill="#fff"/>
    </g>
    <g id="cufflink" transform="translate(17.823 65.454) rotate(45)">
      <path id="Union_2" data-name="Union 2" d="M3.855,11.368l-.125,0c-2.08.014-3.754-1.927-3.738-4.336s1.715-4.372,3.8-4.386a3.145,3.145,0,0,1,.972.141A1.375,1.375,0,0,0,5,3.922C5.341,1.692,6.832,0,8.609-.011c2.016-.013,3.636,2.142,3.618,4.816,0,.026,0,.052,0,.078a1.782,1.782,0,0,1,1.253-.628,2.472,2.472,0,0,1,2.263,2.676,2.75,2.75,0,0,1-1.518,2.54,2.74,2.74,0,0,1-2.412,2.507,1.951,1.951,0,0,1-.891-.21c-.61,2-1.83,3-3.335,3.014C5.974,14.792,4.491,13.66,3.855,11.368Z" transform="translate(15.732 14.771) rotate(180)" fill="#fff"/>
    </g>
  </g>
</svg>

