<svg xmlns="http://www.w3.org/2000/svg" xmlns:xlink="http://www.w3.org/1999/xlink" width="300" height="250" viewBox="0 0 300 250">
  <defs>
    <clipPath id="clip-path">
      <rect id="crop_area" data-name="crop area" width="300" height="176" fill="#00a"/>
    </clipPath>
    <clipPath id="clip-path-2">
      <path id="far_leg" data-name="far leg" d="M9932.3,3987.234c3.386,1.137,31.251,26.431,31.251,26.431s-3.068,10.1-6,7.964-27.828-23.18-27.828-23.18l-21.41-4.043-3.351-5.2S9928.911,3986.1,9932.3,3987.234Z" transform="translate(-9904.962 -3986.984)" fill="#b062cc"/>
    </clipPath>
    <clipPath id="clip-path-3">
      <path id="near_leg" data-name="near leg" d="M9905.135,3989.253l29.838.594s2.618.792,2.407,2.971,4.127,27.06,4.127,27.06-7.222,5.256-8.544,2.834-6.27-23.549-6.27-23.549,1.006-.137-6.745,0-22.671,2.438-23.569.655,2.962-10.565,2.962-10.565Z" transform="translate(-9896.243 -3989.253)" fill="#dc7bff"/>
    </clipPath>
    <clipPath id="clip-JetBlue_Retail_Refresh_Your_Getaway_300x250_Frame02_1">
      <rect width="300" height="250"/>
    </clipPath>
  </defs>
  <g id="JetBlue_Retail_Refresh_Your_Getaway_300x250_Frame02_1" data-name="JetBlue_Retail_Refresh_Your_Getaway_300x250_Frame02 – 1" clip-path="url(#clip-JetBlue_Retail_Refresh_Your_Getaway_300x250_Frame02_1)">
    <g id="illustration" clip-path="url(#clip-path)">
      <g id="Lady_sleeping_in_seat" data-name="Lady sleeping in seat" transform="translate(-10111.234 -3745.626)">
        <ellipse id="shadow" cx="63.555" cy="4.931" rx="63.555" ry="4.931" transform="translate(10216.001 3911.396)" opacity="0.122"/>
        <g id="Near_Shoe" data-name="Near Shoe" transform="translate(10296.152 3903.71)">
          <path id="near_foot" data-name="near foot" d="M10359.666,3974.506l1.781,7.183,5.549,2.008-1.172-11.952Z" transform="translate(-10359.323 -3971.745)" fill="#d68053"/>
          <path id="Path_99337" data-name="Path 99337" d="M10365.82,3980.836s3.98,3.65,7.751,4.483,4.22,1.588,4.22,1.588,1.064.719,1.064,1.511c1.793,2.54-6.994,2.815-10.887,2.154-5.57.855-7.445.008-8.543-1.164-1.658-3.639,1.338-6.686,1.338-6.686s.15.859,3.007.271S10365.82,3980.836,10365.82,3980.836Z" transform="translate(-10358.926 -3975.453)" fill="#00a"/>
        </g>
        <g id="Far_Shoe" data-name="Far Shoe" transform="translate(10316.496 3905.048) rotate(-40)">
          <path id="near_foot-2" data-name="near foot" d="M0,2.774,1.892,9.99l5.9,2.017L6.543,0Z" transform="translate(0.379 0)" fill="#d68053"/>
          <path id="Path_99337-2" data-name="Path 99337" d="M7.1,0s4.09,4.126,7.965,5.067,4.074,1.216,4.074,1.216,1.094.812,1.094,1.708C22.078,10.862,13.31,11.751,9.31,11c-5.726.967-7.652.009-8.78-1.316a6.942,6.942,0,0,1,1.248-7.2s.281.61,3.217-.055S7.1,0,7.1,0Z" transform="translate(0 5.408)" fill="#00a"/>
        </g>
        <g id="Far_leg-2" data-name="Far leg" transform="translate(10265.134 3873.103)">
          <path id="far_leg-3" data-name="far leg" d="M9932.3,3987.234c3.386,1.137,31.251,26.431,31.251,26.431s-3.068,10.1-6,7.964-27.828-23.18-27.828-23.18l-21.41-4.043-3.351-5.2S9928.911,3986.1,9932.3,3987.234Z" transform="translate(-9904.962 -3986.984)" fill="#c463e6"/>
          <g id="Mask_Group_5" data-name="Mask Group 5" transform="translate(0.001)" clip-path="url(#clip-path-2)">
            <path id="Path_99336" data-name="Path 99336" d="M9958.5,4022.609c-.457.143-12.168-4.022-12.168-4.022l-16.646-18.549-32.377-1.1,1.549,7.7,32.8,10.6,14.673,16.009h13.9Z" transform="translate(-9901.684 -3992.109)" opacity="0.07"/>
          </g>
        </g>
        <g id="Near_Leg-2" data-name="Near Leg" transform="translate(10260.153 3875.004)">
          <path id="near_leg-3" data-name="near leg" d="M9905.135,3989.253l29.838.594s2.618.792,2.407,2.971,4.127,27.06,4.127,27.06-7.222,5.256-8.544,2.834-6.27-23.549-6.27-23.549,1.006-.137-6.745,0-22.671,1.227-23.569-.556,2.962-9.355,2.962-9.355Z" transform="translate(-9896.243 -3989.253)" fill="#dc7bff"/>
          <g id="Mask_Group_2" data-name="Mask Group 2" clip-path="url(#clip-path-3)">
            <path id="Path_99330" data-name="Path 99330" d="M9900.687,3985.614s.714-5.775-2.329,2.271,1.456,6.445,1.456,6.445l23.491-1.082s4.259,22.429,7.008,23.282a32.578,32.578,0,0,0,7.434.869l1.746,2.926-15.422,2.651-4.444-18.3-33.886-3.642,6.825-15.42Z" transform="translate(-9891.742 -3986.833)" opacity="0.108"/>
          </g>
        </g>
        <g id="Pink_Top" data-name="Pink Top" transform="translate(10233.137 3842.49)">
          <path id="top" d="M9848.963,3933.676s10.476,36.1,9.33,33.145-2.945-18.2-2.945-18.2l3.491,15.927s-2.683,7.373.916,8.583.052-.64,9.331,1.251,10.052-.561,10.052-.561l7.763-11.842s-5.153,1.91-7.763,0-8.66-9.447-9.577-11.966a29.186,29.186,0,0,1-1.039-7.06s-2.821-3.941-4.232-5.892-3.476-4.571-5.45-4.7S9848.963,3933.676,9848.963,3933.676Z" transform="translate(-9848.963 -3932.347)" fill="#fc3388"/>
          <path id="Top_shdow" data-name="Top shdow" d="M9860.42,3982.277l1.758,1.733s7.862,3.034,7.631,0-7.177-6.444-8.561-12.135a36.979,36.979,0,0,1-.828-11.123l3.24-1.637s-5.7-2.209-7.3-2.179-1.866,3.349-1.866,3.349l4.69,18.538Z" transform="translate(-9851.334 -3942.886)" fill="#d13376"/>
        </g>
        <g id="seat_left" data-name="seat left" transform="translate(10216.289 3816.713)">
          <rect id="Rectangle_3179" data-name="Rectangle 3179" width="34.569" height="1.503" transform="translate(27.054 97.41)" fill="#5e5e5e"/>
          <path id="Path_47807" data-name="Path 47807" d="M44.085,101.124c.153,1.62-1.1,10.084-6.766,13.44s-7.876,2.669-9.63,2.594c-.915-.077-2.288,1.144-2.517,1.525s-.229,1.525,0,1.678,12.583,0,12.583,0-.076-1.373-.762-1.6-.305-.763,1.22-1.525,6.939-3.051,9.838-12.43c0,0,3.279-2.822,4.347-2.9s8.235-.57,9.075-.781a2.627,2.627,0,0,1,3.051,2.077,107.83,107.83,0,0,1,1.525,12.507c0,2.211-.305,4.711,0,4.72s4.194,0,4.194,0,.064-3.043-.616-3.043-.909.077-1.061-.915-.381-18.455-.381-18.455l-6.177-2.288Z" transform="translate(-5.616 -21.505)" fill="#5e5e5e"/>
          <path id="Path_47798" data-name="Path 47798" d="M30.556,87.059c2.16-.844,4.118-1.907,10.753-1.144a105.111,105.111,0,0,0,21.887.424c8.084-.73,7.55,4.38,7.092,7.354s-.915,4.881-3.2,4.5a3.39,3.39,0,0,1-2.593-2.9l-8.465,2.539s-21.124,2.311-24.175,0-4.075-9.689-1.3-10.776" transform="translate(-6.5 -19.242)" fill="#999"/>
          <path id="Path_47799" data-name="Path 47799" d="M14.116,18.677H11.122a1.905,1.905,0,0,1-1.906-1.905V2.229A1.905,1.905,0,0,1,11.122.324h1.9a1.9,1.9,0,0,1,1.905,1.905l1.093,14.542a1.9,1.9,0,0,1-1.9,1.906Z" transform="translate(-2.07 -0.073)" fill="#5e5e5e"/>
          <path id="Path_47800" data-name="Path 47800" d="M4.584.4A5.4,5.4,0,0,1,8.7.4a63.818,63.818,0,0,0-.533,9.685c.229,6.1.229,8.541,2.287,14.032s18.913,37.52,14.185,43.7c-2.593,1.831-4.118.687-4.118.687L14.98,56.581l-4.143-11.49L6.49,32.2,2.6,17.179V3.453Z" transform="translate(-0.584 0)" fill="#999"/>
          <path id="Path_47801" data-name="Path 47801" d="M8.146,57.088c.187-1.13.73-1.576,3.324-.813s4.423.381,5.719,2.288a27.831,27.831,0,0,1,2.366,4.652l-2.9.915S15.92,60.569,14.53,60c-1.865-.771-6.746-.72-6.383-2.907" transform="translate(-1.826 -12.557)" fill="#5e5e5e"/>
          <path id="Path_47802" data-name="Path 47802" d="M53.23,66.045c-.564.317-.865.56-8.186,1.271s-16.93,2.594-21.3,4.271c-3.259,1.983-6.05,1.07-6.915-.813-.763-2.105-.559-5.593,3.8-5.876a106.872,106.872,0,0,1,13.126-.937c8.9-.153,20.308-.661,20.526,0a2.193,2.193,0,0,1-1.054,2.084" transform="translate(-3.703 -14.294)" fill="#5e5e5e"/>
          <path id="Path_47803" data-name="Path 47803" d="M21.749,65.351c-.813-1.268,2.949-1.779,13.727-2.359,6.854-.369,19.319-.133,19.828.123s.407.762-.407.813-19.268.172-22.98.518-8.134.753-10.168.906" transform="translate(-4.862 -14.108)" fill="#999"/>
          <path id="Path_47804" data-name="Path 47804" d="M20.873,74.043c.387.288,2.746-.711,3.407,1.169s3.076,12.615,12.862,14.114c8.357,1.281,20.87-2.065,23.488-.337,1.989,1.313,3.039,3.594,2.491,4.169-.992,1.041-4.118,1.9-18.4,3.679s-17.057.414-22.268-5.307c-6.053-6.642-6.28-17.59-5.987-17.9s1.818-1.526,4.411.406" transform="translate(-3.68 -16.394)" fill="#5e5e5e"/>
          <path id="Path_47805" data-name="Path 47805" d="M3.516,1.371c-.966.2-2.135.406-2.542,2.694s-2.085,8.135.2,19.117c.1.2.3.406,1.068.2a4.717,4.717,0,0,1,.152.457s-1.372.3-1.321.509S6.77,42.4,6.77,42.4s.254.61,1.321.509c.051,0,.509-.346,1.017.971.058.016,1.779.758,1.779.758S4.076,24.4,3.211,19.928s-.458-15.507.3-18.557" transform="translate(0 -0.308)" fill="#5e5e5e"/>
        </g>
        <g id="Hand" transform="translate(10238.804 3889.24)">
          <path id="hand-2" data-name="hand" d="M6.213,3.2s-.338,6.575-.223,6.9,1.088,1.889,1.352,2.741A19.069,19.069,0,0,1,7.389,16.7s-1.418,2.36-2.114,3.375c-.88,1.121-1.1,2.685-1.731,2.015a2.219,2.219,0,0,1-.159-1.7c.275-1.607,2.434-4.361,1.463-5.414s-.388.113-1.369,1.905c0,0-.485,1.311-.913,1.218s-.3-.468-.273-1.73a15.108,15.108,0,0,1,.035-2.634c.144-.7-.075-1.652.067-1.966.519-1.6-.784-4.362-.769-6.117S0,0,0,0L4.849,1.488Z" transform="matrix(0.995, -0.105, 0.105, 0.995, 0, 0.781)" fill="#d57f54"/>
          <path id="Path_99336-2" data-name="Path 99336" d="M4.293,1l-.03,0L.273.6A.3.3,0,1,1,.333,0L4.323.4a.3.3,0,0,1-.03.6Z" transform="translate(3.075 10.185) rotate(-8)" fill="#fff"/>
        </g>
        <path id="sleeve" d="M9845.631,3933.676a6.04,6.04,0,0,0-4.148,3.857c-.664,2.345,0,18.683,0,18.683s2.326,9.32,2.543,10.6c.935,5.516,6.544,17,6.49,19.361s10.439,1.137,10.439,1.137-4.85-17.543-6-20.5-2.944-18.2-2.944-18.2,5.467-16.131,3.491-16.262S9845.631,3933.676,9845.631,3933.676Z" transform="translate(387.507 -89.858)" fill="#fc3388"/>
        <g id="head" transform="translate(10222.32 3820.223)">
          <path id="Path_99329" data-name="Path 99329" d="M9836.758,3922.526a3.5,3.5,0,0,0,0,4.694c2.068,2.51,14.229,7.208,18.2,5.005s1.759-5.005.176-6.431-7.2.46-10.25-1.418a54.607,54.607,0,0,0-5.6-3.016Z" transform="translate(-9830.537 -3906.875)" fill="#c4ac28"/>
          <path id="Path_99339" data-name="Path 99339" d="M23.616,32.618l4.3,6.659L16.9,37.188V30.463Z" transform="translate(-7.64 -14.004)" fill="#7b4226"/>
          <path id="Path_99328" data-name="Path 99328" d="M9836.791,3922.526a3.413,3.413,0,0,0,0,4.694c2.138,2.51,14.713,7.208,18.813,5.005s2.366-5.237.183-6.431-7.441.46-10.6-1.418a57.2,57.2,0,0,0-5.785-3.016Z" transform="translate(-9832.456 -3904.55)" fill="gold"/>
          <path id="Path_99325" data-name="Path 99325" d="M7.639.544s2.8-1.475,4.462.432,3.8,3.392,4.059,5.53a15.018,15.018,0,0,1-1.181,6.812c-.786,1.854-.936,2.284-2.012,2.581s-2.364.048-4.48-.706-2.054-1.526-2.619-1.939c-.157-.122-2.552.946-3.254.848-1.646-.232.654-1.381.654-1.381S-.113,11.246,1.7,10.129,0,6.506,0,6.506s4.605,2.3,4.257,0-.365-4.877.7-5.53A4.771,4.771,0,0,1,7.639.544Z" transform="matrix(0.998, -0.07, 0.07, 0.998, 2.808, 4.433)" fill="#d68054" opacity="0.998"/>
          <path id="Path_99326" data-name="Path 99326" d="M2.37,3.7C5.918.53,5.5.876,9.081.676S12.391-1.483,15.84,2.36c.762.8,2.57,4.675,3.789,9.388,1.18,2.7-.906,8.551-.906,8.551s.328-3.3-1.123-2.514l.55-3.7s-.049.347-.869,1.062a7.323,7.323,0,0,0,.952-2.263,11.5,11.5,0,0,0-.685-4.305c-.886-2.63-3.483-4.708-4.682-4.884-.761-.112-2.239.544-3.364.745.512,1.653-1.377,4.874-2.1,6.449,2.944,4.687-.915,2.227-.915,2.227a3.648,3.648,0,0,0-.566-.281l2.657,2.69a6.885,6.885,0,0,0,.961,2.084C10.357,18.937,13.2,20.3,13.2,20.3s-4.311-1.19-4.187-.681c.444,1.753,2.95,3.647,2.392,3.562-3.713-1.468-6.031-1.79-9.033-6.214C-.378,15.938-1.177,6.868,2.37,3.7Z" transform="matrix(0.998, -0.07, 0.07, 0.998, 0, 1.394)"/>
          <path id="Path_99327" data-name="Path 99327" d="M3.013,2.753S4.093.439,1.7.052C1.616.038,1.532.026,1.3,0-.759-.083.244,1.376.244,1.376s1.081,2.485,2.13,2.539S3.986,2.753,3.986,2.753Z" transform="matrix(0.998, -0.07, 0.07, 0.998, 6.002, 12.869)" fill="#d57f54"/>
          <path id="Path_53982" data-name="Path 53982" d="M.438,5.34A4.009,4.009,0,0,0,3.872,7.269c1.477-.027,2.4-1.827,3.241-1.815.7.01,1.8,1.645,2.86,1.66A2.67,2.67,0,0,0,12.14,5.787c.323-.663,1.153-3.169-.349-4.675C11.361.568,8.965.032,7.163.006,2.9-.054,1.816.31,1.087.961A3.771,3.771,0,0,0,.438,5.34Z" transform="translate(6.882 9.793) rotate(-22)" fill="#00e1ff"/>
          <ellipse id="Ellipse_155" data-name="Ellipse 155" cx="0.592" cy="0.988" rx="0.592" ry="0.988" transform="translate(7.144 15.811) rotate(-36)" fill="#fff"/>
        </g>
      </g>
    </g>
  </g>
</svg>
