<svg id="Group_20968" data-name="Group 20968" xmlns="http://www.w3.org/2000/svg" xmlns:xlink="http://www.w3.org/1999/xlink" width="29.038" height="38.456" viewBox="0 0 29.038 38.456">
  <defs>
    <clipPath id="clip-path">
      <path id="Subtraction_1" data-name="Subtraction 1" d="M12.327,34.073A12.316,12.316,0,0,1,0,21.746V12.327a12.33,12.33,0,0,1,23.686-4.8,12.254,12.254,0,0,1,.968,4.8v9.418A12.315,12.315,0,0,1,12.327,34.073Z" fill="#00e1ff" stroke="#646060" stroke-width="4"/>
    </clipPath>
  </defs>
  <g id="sun" fill="none" opacity="0.999">
    <path d="M14.519,0A14.519,14.519,0,0,1,29.038,14.519v9.418A14.519,14.519,0,0,1,0,23.937V14.519A14.519,14.519,0,0,1,14.519,0Z" stroke="none"/>
    <path d="M 14.51892471313477 2.500003814697266 C 11.30855560302734 2.500003814697266 8.290334701538086 3.750194549560547 6.020254135131836 6.020263671875 C 3.750185012817383 8.290334701538086 2.499994277954102 11.30855369567871 2.499994277954102 14.51892471313477 L 2.499994277954102 23.93660354614258 C 2.499994277954102 27.14697456359863 3.750185012817383 30.16519546508789 6.020254135131836 32.43526458740234 C 8.290334701538086 34.70534515380859 11.30855560302734 35.95552444458008 14.51892471313477 35.95552444458008 C 17.72929382324219 35.95552444458008 20.74751472473145 34.70534515380859 23.01758575439453 32.43526458740234 C 25.28765487670898 30.16519546508789 26.53784561157227 27.14697456359863 26.53784561157227 23.93660354614258 L 26.53784561157227 14.51892471313477 C 26.53784561157227 11.30855369567871 25.28765487670898 8.290334701538086 23.01758575439453 6.020263671875 C 20.74751472473145 3.750194549560547 17.72929382324219 2.500003814697266 14.51892471313477 2.500003814697266 M 14.51892471313477 3.814697265625e-06 C 22.53750419616699 3.814697265625e-06 29.03784561157227 6.500343322753906 29.03784561157227 14.51892471313477 L 29.03784561157227 23.93660354614258 C 29.03784561157227 31.9551944732666 22.53750419616699 38.45552444458008 14.51892471313477 38.45552444458008 C 6.500345230102539 38.45552444458008 -5.7220458984375e-06 31.9551944732666 -5.7220458984375e-06 23.93660354614258 L -5.7220458984375e-06 14.51892471313477 C -5.7220458984375e-06 6.500343322753906 6.500345230102539 3.814697265625e-06 14.51892471313477 3.814697265625e-06 Z" stroke="none" fill="#c6c6c6"/>
  </g>
  <g id="sun-2" data-name="sun" fill="none" opacity="0.996">
    <path d="M14.519,0A14.519,14.519,0,0,1,29.038,14.519v9.418A14.519,14.519,0,0,1,0,23.937V14.519A14.519,14.519,0,0,1,14.519,0Z" stroke="none"/>
    <path d="M 14.51892471313477 1.500003814697266 C 11.04144477844238 1.500003814697266 7.772104263305664 2.854202270507812 5.313154220581055 5.313152313232422 C 2.854204177856445 7.772104263305664 1.499994277954102 11.04144477844238 1.499994277954102 14.51892471313477 L 1.499994277954102 23.93660354614258 C 1.499994277954102 27.41408538818359 2.854204177856445 30.68342399597168 5.313154220581055 33.14237213134766 C 7.772104263305664 35.60132598876953 11.04144477844238 36.95552444458008 14.51892471313477 36.95552444458008 C 17.99640464782715 36.95552444458008 21.26574516296387 35.60132598876953 23.72469520568848 33.14237213134766 C 26.18364524841309 30.68342399597168 27.53784561157227 27.41408538818359 27.53784561157227 23.93660354614258 L 27.53784561157227 14.51892471313477 C 27.53784561157227 11.04144477844238 26.18364524841309 7.772104263305664 23.72469520568848 5.313152313232422 C 21.26574516296387 2.854202270507812 17.99640464782715 1.500003814697266 14.51892471313477 1.500003814697266 M 14.51892471313477 3.814697265625e-06 C 22.53750419616699 3.814697265625e-06 29.03784561157227 6.500343322753906 29.03784561157227 14.51892471313477 L 29.03784561157227 23.93660354614258 C 29.03784561157227 31.9551944732666 22.53750419616699 38.45552444458008 14.51892471313477 38.45552444458008 C 6.500345230102539 38.45552444458008 -5.7220458984375e-06 31.9551944732666 -5.7220458984375e-06 23.93660354614258 L -5.7220458984375e-06 14.51892471313477 C -5.7220458984375e-06 6.500343322753906 6.500345230102539 3.814697265625e-06 14.51892471313477 3.814697265625e-06 Z" stroke="none" fill="#fff"/>
  </g>
  <g id="Group_20967" data-name="Group 20967" transform="translate(2.192 2.191)">
    <g id="Mask_Group_6" data-name="Mask Group 6" clip-path="url(#clip-path)">
      <path id="Path_99338" data-name="Path 99338" d="M9946.074,3881.726h45.151l-12.38-19.831-27.022-.936Z" transform="translate(-9953.157 -3876.49)" fill="#fff"/>
      <path id="Path_99339" data-name="Path 99339" d="M-.014.379A4.934,4.934,0,0,1-2.5-.226.274.274,0,0,1-2.226-.5H2.157a.274.274,0,0,1,.274.274A4.723,4.723,0,0,1-.014.379Z" transform="translate(12.362 3.073)" fill="#b1aeae"/>
    </g>
  </g>
</svg>

