<svg xmlns="http://www.w3.org/2000/svg" width="462.994" height="291.291" viewBox="0 0 462.994 291.291">
  <path id="countries" d="M230.82,192.926a11.5,11.5,0,0,1,5.263,10.269c-.26,3.536-1.6,8.842,2.6,14.331s4.035,8.82,6.635,12.376c2.592,3.571,1.533,7.782,6.4,4.067s6.31-.558,11.114-8.683,1.056-4.231,1.592-6.453,5.784.251,3.068-6.024,7.524-11.293,5.055-17.972-1.252-1.238-2.135-4.843-2.478-.515,1.8-7.891,9.862-12.272,9.963-18.786-6.379.923-8.781,1.709-5.938-6.248-8.743-6.23.094-1.465-1.973-3.046-1.582-3.65-3.662-5.4-6.892-6.532-7.959-9.05,1.97,3.129,3.23.719.743,1.828,4.647,4.719,1.251,4.026,4.747,5.28,6.9,10.949,9.251,9.363,11.766-8.079,12.219-8.224a6.466,6.466,0,0,0,1.917-2.571c.207-.691.917-.275,1.574-1.018s-1.576-1.691.2-2.433.228-3.856-.724-4.63-3.641-.218-4.114-2.706c-.354-1.873-4.565,6.61-8.389,1.626-2.622-3.432-5.184-4.847-3.4-5.812a1.046,1.046,0,0,1,1.589-.544c.4.221,5.707,6.142,8.327,3.892s1.536.825,6.353.716,8.825-1.693,10.4-.988,1.75,1.709,2.342,1.334,2,.815,3.237.392c1.218-.416-2.755,3.044,1,3.39s2.167-4.783,2.532-1.628S316.207,161.653,319.45,160s1.125-11.1,2.133-11.658,6.2-6.834,5.969-8.844,5.2-.41,4.186-3.512,2.506,2.343,4.1,2.924.545.64.982,1.139,2.586.469,2.46,3.622,3.228.146,3.362-1.487,4.7,7.292,4.932,10.512,2.561,2.326,3.662,4.957c1.109,2.616,5.728,7.056,6.706,5.4s-.158-2.952-1.089-2.075-1.037-2.872-3.491-4.142-4.86-.523-5.112-5.233.868-4.013,1.5-3.673,1.835-.008,2.641.25-.229,2.373,1.946,2.123,1.482,3.411,3.819.546c.539-.65,4.8-7.814-1.925-11.09-4.73-2.293.391-8.621,1.115-7.934s.8,1.882,3.694-.028c2.893-1.894.441-1.564,2.626-1.542s5.065-3.692,5.259-5.12.522-1.274.035-3.26,2.065-3.358,1.314-4.373-1.893-1.8-.866-2.991-2.218-3.562-3.94-5.409-2.8-1.623-1.263-3.764,3.762-2.869.67-2.475-1.608-.319-2.309,1.3-1.5-.712-1.627-.933-3.117-.841-2.213-2.021,1.356-.194,1.421-1.518,2.319-3.786,3.336-2.582-.5.051-.459,1.5.3,1.943,1.646.477,2.075-.821,3.109-.593,1.007,2.744,1.637,2.914,2.832.326,2.575.851.538.724.937,1.74-.238,2.689,3.219,1.514c3.441-1.172-4.611-6.828-5.137-7.667s-1.639-1.023.208-1.5c1.83-.483.654-2.157.388-1.007s-.89-.152-.464-.747,1.9.094,1.024-1.516-.265-3.951,1.159-4.517,2.577,3.293,4.423-5.822-1.613-11.71-2.561-15.982-5.585-6.033-6.333-3.672-6.248,4.013-3.613-7.343S376.736,44.509,376.7,44.865s-.725,1.714.706.681.343-.931.692-1.071,1.731-.007,1.513-.972-2.413.648-1.926-2.4-.062-5.168,1.662-6.092.12,1.38.9.286-.734-.066,1.244,1.343,1.273-1.173,1.85-2.68,1.271.509-.175-1.555,1.335-2.9,1.435-2.154-.772,1.215.812,3.518.159,3.349.256,6.774.406,4.789.292,7.775,6.428,9.3,8.448,12.985,3.367.468,1.708-2.257,1.844-1.178-.318-3.455,1.873-3.5-.021-4.764-2.086-4.567-1.432-3.577,1.134-.563-.025-1.6-1.057.512-1.444-.633,1.646-.55-.216-1.613-1.1,1.3-4.009-4.708.389-.555,1.19-1.662,2.051-4.743,4.9-3.244-.156-5.761,2.3-9.635c2.435-3.868,3.818-1.283,1.365-3.755s-2.515-.146-2.519-.148-3.611-.586-5-1.793-1.582-.289,0-1.414S394.118,15.1,392.469,12s-1.388,1.355-2.146-1.06,2.329.347,2.744-.052c.419-.382-.338-2.636,1.355-2.28s.962,1.981,2.374.253,3.623.053.86-1.785-1.817-2.8-1.5-3.867S396.23,2.273,396,1.8,395.051.56,392.251.125c-2.662-.414-.394.251-1.53,1.229-1.021.892,4.247,3.282,1.616,3.123s-2.768-2.8-8.479-2.242-9.754.316-12.309,1.612-4.492,1.638-2.145,2.927c2.365,1.292,3.382.493,2.91,1.991s-5.032-.64-5.087-.994.866.56.865-.378-1.352-2.036-1.949-.664.742,2.675-3.049,3.127a24.884,24.884,0,0,0-2.848,2.283c-2.139,1.757-4.844-5.52-10.186-.471s-1.693,1.374-3.089.86-1.56.786-2.282.868-.488-1.271-.913-.3-.385-.918-.647-.907-2.036,1.154-.508-.592-3.355-1.152-4.069.06.766,3.3-.105,3.327-6.952-4.093-7.88-1.353,1.484.081,1.629.654-1.917,2.749-.467,2.031-.652-.611,1.443,1.071-3.077.131-.766,2-3.326,0-3.168,1.669-2.853-.562-3.539-.373,2.01,3.633,1.946,4.3-4.7-.712-4.171-2.052.145,1.036-1.629.257,1.146-.453.09-1.626-1.225-.031-1.557-.243.832-.349-1.105-1.761-3.352.259-3.635.322-1.251-1.557-2.7-.059,2.758,1.247-.375,3.33-4.827-.553-5.752-.065-3.371,1.259-3.528,1.962,2.154,1.668.228.926-1.007-.895-2.033-.615-3.067-.809-2.942.7,1.175,1.341.623,3.161-.123,2.762-1.544,2.026.553-11.14.153-11.782-1.611.521-1.663-.57,1.724.61-.644-1.767-1.162.65-4.075-1.107-2.926,1.18-2.9,1.669c.014.508,1-1.344.694,1.238s-1.38-1.726-1.9-1.984-2.626,1.754-3.128,1.356,1.349-2.608-1.7-2.382c-4.513.333,3.276,6.05,1.9,6.614-3.043,1.252-1.419.692-.88,1.107s.516,1.279.028,1.249-.488-1.931-1.48-.938-1.345,2.436-1.77,2.371.85-.616-.175-1.127-3.519,2.285-2.009,1.817-5.112,4.981-3.841,5.082-1.991,1.8.279,2.475.158-.911.235.3,2.673.087,2.825,1.043-.622.651-.682,1.319.8.177.691.636-.713.269-.931-.264.722-1.556.245-1.642-8.044,4.669-1.377,6.332,4.379,7.8,7.482,6.028,1.927,4.267-1.979.318a8.2,8.2,0,0,1-1.42-1.74c-.926-1.351-.224,3.718-1.128-.048s-2.086-2.064-5.306-3.308-2.96,1.529-2.366,1.342,1.771.274,1.259.788-3.267-1.318-2.291.294,4.538.937,4.73,1.728-4.147.547-4.533-.166-2.188-4.31-2.74-3.672,1.31,1,.94,2.318-1.116.491-.124,2.56,2.056-1.688,2.574,2.262,6.24,1.277,7.4,3.709c1.769,3.681,1.434.227,1.933,1.639.265.782-.5,2.445-2.032-.049s-5.555-1.939-4.016-.224,2.068,6.444-1.768,6.429c-2.018,0-1.745-.963-.848-1.043,1.314-.122,3.632-.168-.777-7.439-1.812-2.972-3.6-4.629-4.31-7.152s-2.145-2.1-3.612-1.682-1.042-1.981-1.044.006,1.274,4.1.554,5.51,1.907,4.445,2.4,5.009,2.266.323,3.28.925a1.36,1.36,0,0,1,.244,2.142c-.427.336-1.491-1.117-2.494-1.249s-7.565-1.587-7.88-.5-3.2-2.162-3-.516c.153,1.2,6.143,3.835,3.139,5.2-.114.051.05-.416-.349-1.4-.937-2.284-5.186,4-5.793,2.984s1.151-3.087-.515-1.639a2.652,2.652,0,0,0-.824,1.8c-.935-.489-2.336,1.864-3.081,2.164s.69.265.5.525-.835-.325-1.159.362,1.447,3.173-1.582,2.45,2.514-3.2-1.645-4-1.314,1.927-.972,3.751,3.215,1.913,1.515,2.8-1.116-1.783-3.525.834.065,3.941-3.781,3.009-.572,1.245.418,1.748,2.033-.687,1.784.99-4.707-.687-4.972-2.521-4.3-3-3.84-3.478-.408.524,4.591,1.037,1.735-6.536-2.6-7.175-2.089.077-2.317.3-12.19-2.348-11.8.984-1.51.157-2.154,1.01-.133.215-.965-.128,0,.748-.715.568-.416-1.061-.934-.037-2.484,2.168-1.039,2.19-.755,1.548-.555,1.886.136,3.216-.91,3.617-.584,2.357-.61,2.5-1.447-1.447-.811.294-2.976,6.841-1.8,6.911,2.038-2.055,1.154.115-3.233-1.879-2.512,1.1-3.906,5.525-2.565,8.337.313-.364,1.36,0-1.149,2.672,2,2.747,1.67-1.914,2.831-2.65.555-1.591,2.53,2.147,1.7,1.612,2.191,2.207-1.555,1.77.448,2.092.766-1.31,2.961-1.9-.275-4.647-.023-5.274,2.35-.733,1.557-1.757,3.683,1.559-.3-2.033,1.273-7.311.843-10.195-1.84-3.56,2.092-3.54.941,3.026-.17,4.9-.773,1.345-1.69,1.411,1.06,4.67,1.818,5.7,1.96.514,2.776,1.312,5.316-2.818,6.327-2.732.771-1.146,1.331.615-7.494,2.9-6.185,4.666,1.247.564,1.167,1.041.838,2-.321,2.276-2.263-2.827-2.788.369,4.148,4.375.453,4.879-1.093.874-2.611.731.164-2.3-2.855.65-2.786.265-3.506.2-1.987,2.152-3.05,1.8a5.629,5.629,0,0,1-2.361-2.55c-.183-.478,1.489-1.4,1.783-1.91s-1.038-.04-1.168-.7,1.063-1.119.066-1.741-2.14,2.008-1.506,2.554-.868.071-.539,1.139,1.5,3.846.764,4.9-.771-.782-1.3-.046c-.406.571.9.547.982.868.023.113-.318.316-.737.23-1.635-.359-6.278,7.673-8.549,9.56s-4.466-.038-3.6,1.471-.049.382.523.654,1.943-.284,2.634.759-.263-.091,1.531,1.165.709.875.312,1.459.7,2.435-.03,3.5-1.11.193-2.024.258.089-.272-1.136.121a5.4,5.4,0,0,1-2.328.1c-.667.025-.348.143-1.1.262s-.511-.14-1.224.01-.385.52-.687.844-.94-.187-1.082.348.124.372.528.9.064-.45.21.822a17.248,17.248,0,0,1,.365,4.049c-.2,1.056-.029.166-.054.256s-.034.122-.1.378-.353.367-.186.868-.274-.075.621-.071-.486.12-.188.68.542-.071.667.718-.56,1.445.056,1.542.352-.144,1.031-.2.047-.313,1.235-.375,1.419,1.449,2.339,1.457,1.233-1.3,1.89-1.542,2.4.145,2.735-.434.766-.261,1.357-1.414.821-1.618.755-2.226-1.013-.911-.747-1.67a11.564,11.564,0,0,1,1.013-1.754c.28-.546-.63-.094.6-.753s1.615-.9,1.541-2.491.009-1.755.5-2.1-.7.109.9.023,2.208.439,2.9-.548.007-.467.639-.726.626-.357,1.02-.9.04-.552,1.267-.371,1.8,1.675,3.074,2.478-.008-.043.526.3.781.855,1.652,1.212.745-.416,1.609.271a7.111,7.111,0,0,0,2.074,1.121c.425.175.629.05,1.007.391a3.572,3.572,0,0,1,.792,1.71c.023.383-.406,1.948.276,1.626s.08.065.3-.347a6.961,6.961,0,0,0,.334-1.251c.113-.314-.091.263.055-.113s-.057-.792-.67-1.468-.772-1.1.275-1.371,1.245.9,1.842.754.945-.561.058-1.01a13.97,13.97,0,0,0-3.555-.911c-.848-.107,1.725-.746-.062-.989a6.793,6.793,0,0,1-3.692-1.849,6.948,6.948,0,0,0-1.8-.974c-.484-.3-.424-.422-.507-.876s-.646-.766-.268-1.206a1.95,1.95,0,0,1,1.546-.793c.658.021-.12,1.244.725,1.547s.286-1.081.621-1.12,6.046,3.541,6.175,3.611-.355-.269.188.114.593.1,1.525,1.1-.307,1.852.35,2.51.673.286,1.379,1.079.967.744,1.467.666.388.082.573-.17.479-.8.7-.336-.626-.479-.375.844,1.258-1.216,1.328-1.289.488.126.272-.185-1.653-1.431-1.053-2.047.356,1.126,1.086.62.592.464.686.047.023-.494-.137-.7-1.049.421-.354-.359-.034-.326,1.645-.752,1.388-.289,2.025.119-.028.481-.04.686a5.639,5.639,0,0,0-.024,1.206c.028.139.274.017.57.085s.454-.207.417.129.273.383.254,1.051-.046.248-.21.458-.489-.29-.308.373.95.2,1.243.64,0,1.148.665,1.708,1.527-.721,2.165-.289.929.572,2.188.094c1.752-.672-1.574-.5.185-.872,1.331-.283,2.837,1.075,4.239.2s.413-.884.907-1.17.483.1,1.043.008.21-1.044.926-.458-.125.341,0,1.472c.138,1.116.436.975.449,1.712s-.009.125-.024,1.015-.481,1.465-.527,2.665.111,1.251-.375,1.834-1.153.669-2.5.815-.526-.168-1.069-.216-.328.027-.562.075.932-.37-.894.213-7.5,1.433-9.889.5-1.618-.743-2.823-.273-.99.421-1.23.734a1.614,1.614,0,0,0-.226,1.441c.191.559.885-.17.418,1.321s-3.111.017-4.363-.012-.459.424-1.469.057-.346-1.378-2.1-1.613-2.356.47-3.678.059a6.284,6.284,0,0,0-1.668-.384c-.638-.1-1.218-.827-.354-1.814s-.658-3.789-1.752-3.856-.675.427-1.6.885-2.233-.25-3.483.628-1.7.009-3.662.985-4.874,3.263-5.9,3.5-3.25-.307-4.609-.38-.583,2.617-1.972,3.715a8.735,8.735,0,0,0-1.567,1.389c-.906.882-.1.689-.616,1.89s-.748.248-.127,2.29-2.338,3.56-2.956,4.1.59-.169,0,0-5.3,9.159-5.153,10.012a3.6,3.6,0,0,0,.388,1.446c.383.909,1.278,1.85,1.551,3.4s.311,1.98-.023,2.8-1.137,4.448.175,5.6,4.682,2.932,5.994,4.817,3.789,3.466,5.346,3.609,6.124,1.616,7.278.289,3.428-.913,4.544-.9,1.507-.639,2.385-1.393a3.32,3.32,0,0,1,2.257-.874c1.037-.159,2.5,1.18,3.569,1.48s2.779.007,4.022.16,2.358,1.873,3.5,2.856c1.156.982-.24,4.1,3.5,6.388Zm92.787-30.469c-3.123-.676-2.008-4.63-1.668-5.4s4.782,6.079,1.668,5.4m-39.635,35.214c1.6-1.2,1.4-1.592,2.653,1.159s-.6.2-.744.909.627,2.742.589,3.712,1.257,9.711-3.429,11.072-2.409-6.086-3.785-8.57-.235,1.675-.6-.878,2.823-3.125,3.008-3.959a2.624,2.624,0,0,1,1.469-1.865c.775-.308-.76-.387.834-1.579Zm-139.732-1.009c-4.8-1.4-16.245-5.031-15.869-6.648s-9.2,2.235-10.534.611-2.344,5.859-3.2.52-2.244-1.249-3.05,1.387-1.655,5.2-4.453,3.4-8.966,1.478-8.534-7.023-7.073,2.1-7.35-2.9,2.231-10.713-4.147-1.118-10.948-12.013-5.929-15.388,10.563-.211,14.073-2.9,2.972-1.637,3.584-3.55,9.967-7.456,7-8.14,12.493-22.657,13.171-18.407,10.62.052,4.949-2.1-4.495-.841-3.335-4.6-10.666,6.2-3.777-1.372,13.359-6.171,14.139-9.867-.088-1.221-1.5-1.857-6.507-2.213-5.067-4.278-2.566-10.847-3.786-7.293-6.157,4.007-5.561-.266-11.5-3.9-9.5,1.222-.593,6.482.7,9.231-5.14,2.568-3.834,8.636-3.6.871-4.085-3.12,6.075.46-5.383-3.606-.873-17.988,4-24.9,3.478-1.353,6.643-4.205-.557-7.7-2.88-8.1-3.914,9.194-4.45,5.844,1.528-4.5-.411-4.216-.26,4.04-1.715,3.053-.792-15.582-4.5-7.687,4.842,1.18.386,7.395-1.079,1.845-3.1,1.02-6.273,1.233-9.07-.312-.371-4.784-4.124-2.2,2.362-.046,1.19,1.76-1.406,1.775-1.26,3.982-2.248-2.977-2.281-3.05-8.55-.63-4.6-1.7c.458-.125-10.27-9.433-12.7-9.926-9-1.806-2.036,9.624-21.164-.707S20.8,69.813,16.288,69.838,3.919,77.543,8.3,82.019s3.528,2.409,1.411,3.066-5.461-2.24-5.479-.168S.856,85.17.425,86.667,5,87.874,1.436,88.674s.458,2.4,1.87,2.719c2.684.6,7.31-8.074,3.922.915-6.668,17.66,7,17.268,9.181,15.592s3.74-4.352,6.543-.985,4.388-.075,5.373,2.577,4.006,5.373,3.956,8.195,16.426,24.4,11.989,22.132-1.763-.169-2.2,2.3-2.166,20,6.994,24.359.533-2.8,6.605,3.486S73.645,191.692,82.238,189.8s13.623,4.383,13.715,6.021,8.816,6.063,7.887,2.1,8.488,4.107,4.526,7.234-1.887,8.8-1.7,7.958-1.338,3.893-.717,5.2,12.326,11.654,18.535,14.5,2.043,32.119,7.918,36.687,3.641,14.161,3.46,16.107,4.656,3.857,4.454,4.2c-.222.337,1.781,3.618,2.435-.837.477-3.276,4.451-9.546.257-12.026-3.745-2.224,2.772-9.763.553-8.557s-1.3-1.206-1.514-1.576,3.475-2.336,2.868-4.013,9.2-5.767,4.013-8.263,2.806.163,4.753-3.092,4-18.872,9.794-19.143,1.948-11.036,3.753-16.108.337-11.3-5.075-12.6-5.454,2.188-6.528,1.459-10.279-1.458-10.314-1.445c-.07.012,3.736-5.56-1.071-6.945Zm238.037-30.985c.386.01.224-.519-.5-.6s-.192,5.829-1.541,4.293-.091-.066-.1-1.746-.917,1.542-1.022-3.351-.283-4.673,3.433-4.849,2.672-1.979,3.979-1.538c1.313.456,1.22,2.47-2.4,2.18s-3.745,3.431-2.567,3.1-1.439-.391.263-.94,2.472.075.667,1.492,2.025,2.609,2.294,2.678-1.472,1.54-2.065.895-.157-.168-.336-.352S381.891,165.685,382.278,165.679Zm-10.213,2.862c-1.133.118-.445-.466-2.758-1.052s-5.823-6.491-3.73-6.137,1.462-.583,2.06-1.624,4.989-5.229,5.594-7.257.531.756,2.282,1.012.4.792.711,1.724-.835.332-.959.546a3.824,3.824,0,0,0,.905,3.406c1.261,1.48-.3,3.063-.782,6.851s-1.192.7-1.48,1.062,1.121,3.073-.541,1.418S373.211,168.414,372.065,168.541Zm14.621,6.854c-.913-1.582,4.819-3.747,4.8-3.5s-3.884,5.089-4.8,3.5m35.64-14.107c.553-.536.692.309,1.378-.459s.393-3.248,1.8-1.338-5.689,4.219-5.4,2.726S421.786,161.836,422.326,161.288Zm-6.1,63.216c-.026.549,1.39,7.886,2.461,6.3s3.573-5.3,2.408-6.47-1.823.832-2.408.914S416.246,223.963,416.224,224.5Zm-54.8-49.9c-.222-1.979,5.5-.916,6.964-1.242s-1.959-.7.194-.784.466,1.048,4.652,1.207.954.671.729,1.063-12.324,1.724-12.538-.245m95.633,36.842c2.765,5.674-.4,4.859-1.058,6.509-.665,1.669,1.363,1.109,1.639,1.8.265.669-2.082,4.645,0,3.692,2.095-.962,2.514-5.516,3.336-5.945a4.616,4.616,0,0,0,2.009-3.423c.209-1.712-2.339.776-3.038.173s-2.066-2.708-1.909-4.027C458.194,208.922,454.282,205.772,457.06,211.444Zm-.916,12.889c-.711,2.879-1.935,2.174-2.676,3.527s2.181.5.307,1.158c-1.87.638-3.713,9.457-7.267,7.155s3.041-6.064,5.541-11.331,1.934-1.814,2.782-1.9c.845-.1,2.021-1.476,1.313,1.389Zm-46.725-64.375c2.651.31,6.529,1.637,7.221,2.8.692,1.149,4.221.376,2.529,1.445s2.319,2.817,2.919,2.862-.425.619.036.788,2.682-1.165,2.115.555-6.9-1.675-9-2.556-.576.656-1.339,1.263.665-.285.052,1.327c-.63,1.614-2.051-1.238-5.023-.474s-.687.083-1.979-1.8-6.126-3.2-7.013-3.216.116,2-1.947-.006,3.1-.468,1.509-1.931-1.783.633-2.53.477,1.232.283-.587-.821,3.324-1.775,3.408-.31,1,2.861,2.979.539S406.766,159.638,409.418,159.958Zm-49.595,13.423c-3.408-1.536-9.071-10.46-13.23-11.923s.142-2.789,2.337-.888,5.249,1.814,5.512,2.744,3.147,1.26,3.2,1.86c.038.6.568.928,1.255,1.543s-1.014.99.784,1.608,2.693,4.146,2.091,4.536,1.447,2.046-1.949.519Zm44.353,5.88c.273.791,3.711,2.552,6.21,3.306,2.493.736,1.4-13.16,3.476-9.751s.358,3.232,2.508,3.25,1.7,6.91,4.191,7.584,2.677,4.265,3.975,4.224-4.416-4.51,1.491,1.778-1.219,16.4-1.534,24.651-2.274,2.778-3.577,4.189-3.046,2.89-2.9,1-.463.25-.665-.043-1.522.385-.56-.4-10.795-10.426-13.767-10.108c-2.99.311-7.51.067-8.936.678s-3.417-.418-4.773,2.068-3.608.342-6.045,2.9-7.167.921-5.961-.261-1.83-10.942-1.492-11.978-1.975-1.237-1.1-3.96a12.44,12.44,0,0,1,7.85-7.632c4.253-1.325,3.413-7.432,4.351-6.093s.558.538.723-.539,1.109.383,1.512.161-.851-1.254.032-1.684,2.73-3.536,4.148-2.115,1.178.313,1.556.2.611,1.136.478-.957,3.954-3.156,4.291-4.1-4.529-1.736-.32-1.057,4.05.748,5.382-.055-.826,3.964-.542,4.74ZM169.83,48.973c-3.09,1.531-10.195,39.21-18.677,40.109s-2.586,7.83-3.617,9.694.018,2.353-.505,3.562-1.491-5.039-3.464-2.109-2.905-6.513-5.053-6.548-1.934-19.553-3.252-19.063-.277-3.554-.276-3.609c-.169-7.365-7.967-12.511-7.979-12.5-1.509.9-5.547-6.927-6.243-8.154s8.677-3.667,9.088-6.383-1.3-1.357.963-4.753,1.605.439,1.6.125a35.016,35.016,0,0,1,3.271-5.129c.259-.066,1.747,3.34.879.109s4.314-3.6,5.182-2.547-1.505,7.256-.14,4.354,1.556-.829,2.3-.982,1.991-2.344,3.848-4.515,1.05,1.274,1.936.371-.144-2.215.333-3.1,2.076-1.513,3.306.2,1.8-2.65,2.537-2.961,7.236-1.851,7.891.331-6.02,1.641-5.407,3.287,1.786-.846,2.242-1.039,7.905-1.165,5.139.512-.149-.868,2.766.714-7.054,2.593-8.494,4.875,5-2.516,5.494-.62.325,2.152.7,1.771,1.636-4.163,2.466-2.134-5.266,7.584-4.03,7.311,5.076-4.937,5.385-5.57,1.2-.684,1.685-.852,5.51-.16,5.113,1.431-7.053,5.98-6.839,6.628,4.092-2.684,1.85,1.226c-2.261,3.923,1.083,4.436-2,5.967ZM98.1,48.52c1.832-2.316-1.038-4.39,1.814-1.58s-3.65,3.893-1.814,1.58M91.423,54.8c4.387-3.072,4.559,6.646.09,6.238s.757-1.671-.492-2.458-3.984-.7.4-3.78Zm.586-11.728c-.176-2.98,3.944-3.312,4.2,1s1.144,5.905-2.073,3.842-.428-1.575-.976-4.229S92.178,46.047,92.009,43.069Zm5.246,54.088c1.212-7.461-1.421-5.182,2.458-3.739s4.392,5.367,1.873,3.92S96.039,104.616,97.255,97.158ZM69.035,53.973c1.8-2.378,11.385-9.745,7.827-3.336s-.983.386-3.818,3.52-5.809,2.192-4.009-.184m58.047,76.392c-1.072-1.575-1.575,2.12.58-1.2s4.132-2.825,7.129-2.924.823,3.369.577,4.416-1.813-1.482-1.813-1.482S128.155,131.94,127.082,130.365ZM88.57,65.616c3.4-2.377,2.437,3.43,2.165,4.43s1.2,3.912-2.381,3.633-5.294-5.92-2.423-5.5S85.173,67.989,88.57,65.616Zm-13.8-10.232c-1.931-2.424,6-2.972,4.6.83s2,1.022,2.336-1.826.931,1.511,2.483,2.155-1.326,4.426-1.411,4.311-8.563,1.531-5.664-.652-1.043.434-2.416-.944,2-1.45.077-3.874ZM99.236,56.6c-3.462-8.7,3.088.692,2.544,1.083-2.915,2.079,10.775,2.388,8.737,4.487s-.676,1.818-6.254,1.671S100.488,59.748,99.236,56.6ZM63.866,63.646c-.194-4.463,8.387-2.318,6.661.4s-9.629,11.3-10.421,7.294S64.054,68.11,63.866,63.646Zm40.45-25.871c.88-2.508.3-3.078,1.8-3.642s1.431,2.522,2.321,4.615.679-.13,1.668.216-2.29,3.993-.645,3.8-3.1,8.951-6.4,6.133-.775-8.32-.139-8.888S103.437,40.283,104.317,37.775ZM66.94,69.732c1.988-2.087-.589.021,3.924-3.035s3.04,2.519,4.786,2.588.873,2.97,1.848,3.352,5.423-10.035,3.71-1.647c-1.1,5.373-3.067,8.555-1.031,9.323s-1.126,2.394-3.717,1.162-6.442,3.715-10.87-1.354,3.159-3.729,3.858-4.636S64.957,71.836,66.94,69.732Zm29.848,5.413c-.854-1.5,2.954-8.423,6.145-8.759s-1.578,3.577-.68,8.672.187-2.03.866-2.745.194-2.472,1.09-2.809,5.969-2.878,3.905,1.226,4.663,3.778,8,3.312-.956,4.19,1.061,2.814-.07-.512,1.258-.191,8.138,7.772,6.988,13.352-4.1-3.678-5.759-.865-2.071-2.032,1.383,5.144-5.537-.3-1.936,4.811-7.671-3.8-8-3.868-.355-1.509-1.963-.431-3.041-1.321-1.756-2.307,1.347,2.3,2.683.452,2.281-9.811,2.1-10.663-1.2,1.964-1.887,1.032.458-3.616-.84-4.764-.051-1.258-1.265-1.541-.024,2.991-1.751,2.525-10.211.653-9.134-2.424c1.071-3.1.347-.462-.515-1.971Zm24.305-46.709c.416-.731.308.288-.023-.458s1.906-.809,2.2-.659-.282,1.3.274,1.336.914-3.052,2.905-1.975-.617,1.9.529,1.02.577.395,1.663-.28-1-.046,1.763.244-.4,1,.851,1.8,1.583-.927,2.575-.372.766-1.577,1.266-.415,4.114,2.973-.273,5.055-20.243,16.074-19.8,19.517-2.233,6.744-3.828,3.97-2.513,1.1-6.3.015,2.414-.936,2.3-3.528,5.751-1.049.023-3.525,4.553-2.115,5.488-2.519-1.846-1.048-1.286-1.893.538-.229.048-3.632,4.36,1.279,3.762.063.091-3.212.7-4.826-3.14,1.016-4.727,1-1.274-2.659-.959-3.65-.8.127-.016-.871.093.316-.694-.069,1.252-2.009,2.006-2.241,3.034-.644,3.063-1.194.8.116,1.048-.14-1.18-.343-.069-1.05,1.224,1.151,2.343.292-.112-1.217.941-.741.005-.669.688-1.166,1.13,1.609,1.547.888ZM390.623,96.993c1.116,2.615,1.328,4.386.2,4.719s.313-2.288-.6-.956-.641.736-1.02,1.073.186,1.269-1.343,1.11-.4-.8-.969,1.634-.38-.406-1.757-1.109.679,2.644-.478,2.746.28,1.413-1.3,1.326,1.009-2.672.519-3.274-1.225,1.463-2.338,1.659c-1.129.2.088-.454.394,2.855s-.381,1.708-.679,1.606-.21,1.784-1.071-.441-2.283-1.567-.1-4.75c2.2-3.183,4.752-2.386,4.88-4.628s.72-2.288,1.726-2.082.5.21.757-2.171-.733-2.271-1.036-3.951-.087-1.992.6-2.079-2.251-4.744.907-.376S389.507,94.374,390.623,96.993Zm-129.5-53.451c.408-1.726-.781-.815.929-.6s-1.337,2.325-.929.6m112.151,85.565c-1.094,1.957-1.532,1.394-1.838-2.711s2.926.762,1.838,2.711m1.571,8.5c-.2-.55-2.476-1.841-.173-3.371s1.954,4.262,2.843,5.671-1.056,2.307-1.282,1.065-.269.01-1.251-1.581S375.047,138.161,374.84,137.608ZM262.869,12.634c1.571,4.559,5.346-1.655,3.642-3.18-1.687-1.528.367-1.178-.391-1.3s-4.826-.077-3.251,4.481m12.176.021c-1.566-2.2.789-.129,1.383-.785.654-.718,6.536-.361,3.164,3.1s-2.988-.124-4.547-2.319M385.395,85.42c.175-.425.34-.443-.754-2.973s2.283.573,4.228.22.914.192,1.749.866.4-1.5.609-.275-1.65,1.812-1.806,1.63.374,2.684-1.566,1.78-3.718-.009-2.071.762.884,3.345-.6.955S385.213,85.846,385.395,85.42ZM267.856,13.309c-.822-1.15-1.479.411-.27-1.165s1.339-.058,2.987.353-.807-1-.339-1.981,3.57,1.929,3.286,2.537,5.054,2.435-.544,2.428S268.678,14.448,267.856,13.309Zm-22.414,37.35c-.8-.982,2.689-1.063,2.945-.18.594,2.012,5.246,5.98,3.658,5.773s-3.579,2.059-3.432-.446c.118-1.857-1.776-.012-2.829-.33-.363-.114-.442-.446-.532-1.071-.363-2.642.414-.8-.483-2.758S246.246,51.637,245.442,50.659Zm74.527-47.7c.633-1.4,1.235,1.721,5.564,2.379,2.628.4-.548-.211-1.83,1.162s.8.349-.91,2.3-9.615-5.833-5.383-5.158C321.653,4.292,319.247,4.569,319.969,2.955Zm53.268,58.787c-.37-.233-1.056-1.622.4-.57s-.055.448,4.984,6.184,3.864,3.6,2.619,4.792,1.832,3.143,3.256,3.957,1.541,1.687.12,1.77-.161,1.515-.9,1.73-.734.15-1.23-1.852-8.557-12.75-8.548-13.94a2.392,2.392,0,0,0-.7-2.072ZM247.44,38.566c.452-1.052.845-.779,1.731-1.562s1.46-5.957,3.455-4.082-1.531,4.853-3.221,8.849-.212,3.558-.419,4.561-1.914-.365-1.139.3,1.079,1.765-.267,1.962-2.023.593-1.25-.773-2.07,1.349-1.456-.431,1.057-.433,1.456-.915-1.668-.579-.972-1.082c.293-.22-.013-.5-.222-.755-1.066-1.343-.492-.944-.2-1.448a15.3,15.3,0,0,0,.5-1.968C245.733,40.305,246.988,39.615,247.44,38.566Zm9.75,80.02c.271.781-.142,1.371-.85,1.845s-1.008-.007-2.368.555-4.489-.928-5.37-.772a7.229,7.229,0,0,0-2.758.87c-1.467.735-.966,1.129-1.8,1.673s-.77-.056-1.357.054-1.455-.363-1.369.375.449.219.95.572-.748.21-.915.408c-.151.194.6.3.2.476a12.751,12.751,0,0,1-2.06.319c-.665.093-.861.07-.32-.477s.331-.689,1.1-.849.805.331.949-.249-.3-.3-.879-.537-.5-.237-.812-.8-.8.288-.725-.77a2.376,2.376,0,0,1,.817-1.874c.654-.78.117.236-.1-1.106s.877-1.185.737-2.232-.81.246-.121-.513.86-2.114,1.975-2.434.551-.043.949-.075-.466.366-.579.445-.517-.036-.1.093a2.973,2.973,0,0,0,2.573.081c1.773-.491.724-.265,1.775-.984s1.206-.4,2.039-1.336,1.428-1.338,2.565-1.13-.385.637-.66,1-.045.073-.065.093.042-.01-.066.091-.786.049-.569.542.884-.248.828.536-.51.919-.484,1.431c.009.519-.422.054-.522.068a.281.281,0,0,0-.1.029c-.051.02-.239-.249-.192.079s-.69.632,1.245,1.038,2.288,1.032,4.811,1.837C258.1,117.768,256.908,117.8,257.19,118.586Zm-65.358-9.307c.787,2.327.629,2.52-1.261,4.038s-3.774.176-3.272-.1.287-.8.364-1.352a1.768,1.768,0,0,0-.175-1.069c-.072-.193.486-.582.455-.782s-1.7-.138-.458-.9-2.131-2.063,3.074-2.206S191.042,106.955,191.832,109.279Zm29.235,23.2c.378-.824,1.133-.18,1.887-.408s1.276-1.174,1.832-.721-.148.581-.141,1.244.787.731.241,1.383-1.512-.337-2.043-.476-.481-.2-1.063-.357-1.1.155-.714-.666Zm-6.725-3.62c-.638-1.113.086-.074.11-.094a.772.772,0,0,0,.106-.1c.093-.1.276-.3.455-.453s.258-.577.839-.309.408.778.547,1.373a14.366,14.366,0,0,1,.33,1.734c.021.37.465-.339-.119.079s.082,1.03-.966.76S214.978,129.979,214.343,128.864Zm29.7-13.639c.009-.512.438-.6.753-.993s.04-.106.145-.207-.145-.18.419-.245,1.044.888,1.724.922,1.569-1.2,1.848-.511,0,.393-.906.728-1.7,1.979-2.622,1.524.073-.849-.388-1.1S244.048,115.735,244.048,115.225Zm-50.584-8.233c-.328-.463-3.746-5.977-1.082-7.146s.8,1.468,1.461,1.715,1.77-.877,2.256-.453-2.464,3.877-.936,3.416,5.159,5.286,5.966,5.065,2.527-1.09,1.208,1.314,3.817-.166-2.335,3.015-5.376,2.28-4.79,1.173.157-.336,1.953-1.492-4.013.029-2.311-1.373,1.832-4.081,1.249-4.282-.187-1.508-.675-1.515S193.792,107.451,193.464,106.992Z" transform="translate(0 0)" fill="#00a87e" fill-rule="evenodd"/>
</svg>
