<svg xmlns="http://www.w3.org/2000/svg" width="73.256" height="24" viewBox="0 0 73.256 24">
  <g id="JB_logo" data-name="JB logo" transform="translate(-372.724 -361.319)">
    <path id="Path_1" data-name="Path 1" d="M375.033,366.826h2.733V381.5a3.72,3.72,0,0,1-3.969,3.818h-1.074v-2.582h.775c.939,0,1.534-.426,1.534-1.448Zm0-5.507h2.733v2.74h-2.733Z" transform="translate(0 0)" fill="#0000AA"/>
    <path id="Path_2" data-name="Path 2" d="M378.707,369.611c.057-2.067,1.256-3.172,2.87-3.172s2.8,1.105,2.876,3.172Zm8.484,2.257v-2.257a5.529,5.529,0,0,0-5.614-5.746c-2.63,0-5.61,1.716-5.61,7.009,0,5.583,3.246,6.929,6.044,6.929a6.286,6.286,0,0,0,4.914-2.2l-2-1.689a4.264,4.264,0,0,1-2.971,1.309,3.046,3.046,0,0,1-3.252-3.351Z" transform="translate(3.571 2.803)" fill="#0000AA"/>
    <path id="Path_3" data-name="Path 3" d="M383.062,361.975H385.8v4.131h1.992V368.2H385.8v7.919c0,.756.3,1.021.971,1.021h1.021v2.582h-1.422a3.118,3.118,0,0,1-3.3-3.355V368.2h-1.374v-2.093h1.374Z" transform="translate(9.87 0.722)" fill="#0000AA"/>
    <path id="Path_4" data-name="Path 4" d="M392.774,371.954a2.881,2.881,0,1,1,0,5.744h-4.461v-5.744Zm-7.349,8.486h8.043a5.227,5.227,0,0,0,5.326-5.425,4.286,4.286,0,0,0-3.116-4.4v-.053a4.177,4.177,0,0,0,2.815-4.116c0-3-1.937-5.124-5.669-5.124h-7.4Zm7.081-16.541c2.1,0,3.089,1.263,3.089,2.742,0,1.5-.992,2.735-3.089,2.735h-4.192V363.9Z" transform="translate(13.984 0.002)" fill="#0000AA"/>
    <path id="Path_5" data-name="Path 5" d="M392.535,361.321h2.736v15.6c0,.616.351.931,1.021.931h.943v2.584h-1.208c-1.983,0-3.492-.857-3.492-3.3Z" transform="translate(21.812 0.002)" fill="#0000AA"/>
    <path id="Path_6" data-name="Path 6" d="M395.322,363.941h2.742v8.106a2.707,2.707,0,1,0,5.4,0v-8.106H406.2v13.615h-2.738V376.1h-.053a4.351,4.351,0,0,1-3.523,1.616,4.575,4.575,0,0,1-4.561-4.725Z" transform="translate(24.881 2.887)" fill="#0000AA"/>
    <path id="Path_7" data-name="Path 7" d="M403.936,369.611c.055-2.067,1.263-3.172,2.88-3.172s2.788,1.105,2.872,3.172Zm8.488,2.257v-2.257a5.523,5.523,0,0,0-5.608-5.746c-2.633,0-5.622,1.716-5.622,7.009,0,5.583,3.257,6.929,6.047,6.929a6.27,6.27,0,0,0,4.912-2.2l-1.983-1.689a4.271,4.271,0,0,1-2.977,1.309,3.05,3.05,0,0,1-3.257-3.351Z" transform="translate(31.346 2.803)" fill="#0000AA"/>
    <path id="Path_8" data-name="Path 8" d="M407.654,363.828a1.21,1.21,0,1,1-1.219,1.214,1.218,1.218,0,0,1,1.219-1.214m0,2.183a.969.969,0,1,0-.95-.969.925.925,0,0,0,.95.969m-.462-1.714h.538c.324,0,.481.141.481.431a.371.371,0,0,1-.357.412l.408.571h-.284l-.4-.567h-.143v.567h-.242Zm.242.626h.164c.193,0,.372-.017.372-.2s-.158-.206-.315-.206h-.221Z" transform="translate(37.116 2.762)" fill="#0000AA"/>
  </g>
</svg>

