<svg xmlns="http://www.w3.org/2000/svg" width="19.812" height="19.109" viewBox="0 0 19.812 19.109">
  <path id="plane" d="M51.334,342.33l-.761.108-.3.171.227.133,2.936,2.388.451.441-.124.064a.683.683,0,0,0-.206.177.041.041,0,0,0,.034.065.68.68,0,0,0,.264-.065l.184-.095.733.715-.146.075a.681.681,0,0,0-.206.177.041.041,0,0,0,.034.065.682.682,0,0,0,.264-.065l.206-.106.732.715-.168.087a.685.685,0,0,0-.206.177.041.041,0,0,0,.034.066.681.681,0,0,0,.264-.065l.228-.117.673.656.1.186-.206.106a.682.682,0,0,0-.206.178.039.039,0,0,0,0,.043.04.04,0,0,0,.037.022.683.683,0,0,0,.264-.065l.206-.106.594,1.154a2.906,2.906,0,0,0-.578.516l-1.716.882a41.9,41.9,0,0,0-3.73,2.334l-2.5-1.606a.157.157,0,0,0-.145-.016l-.63.24,2.117,2.26a3.518,3.518,0,0,0-.556.557c-.14.083-.29.181-.48.319a.028.028,0,0,0,0,.036.029.029,0,0,0,.032.017,5.574,5.574,0,0,0,.56-.214,3.7,3.7,0,0,0,.753-.129l.61,3.045.562-.373a.157.157,0,0,0,.071-.127l.148-2.976a41.948,41.948,0,0,0,4.064-1.676l1.688-.868-.013.011a2.949,2.949,0,0,0,.766-.171l.594,1.155-.206.106a.685.685,0,0,0-.206.177.041.041,0,0,0,.034.066.68.68,0,0,0,.264-.065l.206-.106.1.186.143.929-.228.117a.688.688,0,0,0-.206.177.041.041,0,0,0,.034.066.684.684,0,0,0,.264-.065l.169-.086.156,1.012-.206.106a.685.685,0,0,0-.206.177.04.04,0,0,0,0,.043.04.04,0,0,0,.037.022.681.681,0,0,0,.264-.065l.146-.075.156,1.012-.184.095a.684.684,0,0,0-.206.177.041.041,0,0,0,.034.066.684.684,0,0,0,.264-.065l.124-.064.1.624.235,3.77h0l-.024.268.314-.146.53-.557.495-7.987.3-.072,0,.009.005.01.005.01.005.011.005.01.005.01.005.01.005.011.005.01a5.169,5.169,0,0,0,1.42-.677.117.117,0,0,0,.015-.141l0-.005,0-.005,0-.005,0-.005,0-.005,0-.005,0-.005,0-.005,0-.005,0-.005,0-.005,0-.005,0-.005,0-.005,0-.005,0-.005,0-.005,0-.005,0-.005,0-.005,0-.005,0-.005,0-.006,0-.005,0-.006,0-.005,0-.006,0-.005,0-.006,0-.005,0-.006,0-.005,0-.006,0-.005,0-.006,0-.005,0-.006,0-.005,0-.006,0-.005,0-.006,0-.005-.009-.017-.009-.017-.009-.017-.009-.017-.008-.017-.009-.017-.009-.017-.009-.017-.008-.017-.009-.017-.009-.017-.009-.017L62.8,351.5l-.009-.017-.009-.017-.009-.017-.009-.017-.008-.017-.009-.017-.009-.017-.009-.017-.08-.156h-.018v-.041a.117.117,0,0,0-.124-.07,4.275,4.275,0,0,0-1.171.621l.115-1.857h0l0,0-.051.022,3.827-1.969a5.927,5.927,0,0,0,1.68-1.152,4.869,4.869,0,0,0,.885-1.138.147.147,0,0,0-.08-.156,4.872,4.872,0,0,0-1.44.058,5.922,5.922,0,0,0-1.914.7l-3.742,1.925-1.578-.986a4.161,4.161,0,0,0,1.153-.579.117.117,0,0,0,.015-.141l-.006-.011-.006-.011-.005-.011-.006-.011-.006-.011-.006-.011-.005-.011-.006-.011-.005-.011-.006-.011-.006-.011-.006-.011-.005-.011-.006-.011-.006-.011-.005-.011-.006-.011-.006-.011-.005-.011-.006-.011-.006-.011,0-.007,0-.007,0-.007,0-.007,0-.007,0-.007,0-.007,0-.007,0-.007,0-.007,0-.007,0-.007,0-.007,0-.007,0-.007,0-.007,0-.007,0-.007,0-.007,0-.007,0-.007-.2-.4v0h0v0h0v0h0v0h0v0h0v0h0v0h0v0h0v0h0v0h0v0h0v0h0l0,0,0,0,0,0,0,0,0,0,0,0,0,0,0,0,0,0c-.019-.037-.079-.085-.124-.071a7.024,7.024,0,0,0-1.373.768l0,0,0,0,0,0,0,0,0,0,0,0,0,0h0v0h0v0h0v0h0v0h0v0h0v0h0v0h0v0h0v0h0v0h0v0h0v0h0v0h0v0l.02.039-.209.181-6.768-4.23" transform="translate(-47.959 -342.33)" fill="#00a" fill-rule="evenodd"/>
</svg>
