<svg xmlns="http://www.w3.org/2000/svg" xmlns:xlink="http://www.w3.org/1999/xlink" width="300" height="250" viewBox="0 0 300 250">
  <defs>
    <clipPath id="clip-path">
      <rect id="crop_area" data-name="crop area" width="300" height="176" fill="#00a"/>
    </clipPath>
    <clipPath id="clip-JetBlue_Retail_Refresh_Your_Getaway_300x250_Frame04_1">
      <rect width="300" height="250"/>
    </clipPath>
  </defs>
  <g id="JetBlue_Retail_Refresh_Your_Getaway_300x250_Frame04_1" data-name="JetBlue_Retail_Refresh_Your_Getaway_300x250_Frame04 – 1" clip-path="url(#clip-JetBlue_Retail_Refresh_Your_Getaway_300x250_Frame04_1)">
    <g id="illustration" clip-path="url(#clip-path)">
      <g id="Lady_sleeping_in_seat" data-name="Lady sleeping in seat" transform="translate(104.765 71.087)">
        <g id="Group_21227" data-name="Group 21227">
          <ellipse id="shadow" cx="63.556" cy="4.931" rx="63.556" ry="4.931" transform="translate(107.388 94.685)" opacity="0.122"/>
          <g id="seat_left" data-name="seat left" transform="translate(107.676)">
            <rect id="Rectangle_3179" data-name="Rectangle 3179" width="34.57" height="1.503" transform="translate(27.054 97.412)" fill="#5e5e5e"/>
            <path id="Path_47807" data-name="Path 47807" d="M44.086,101.124c.153,1.62-1.1,10.084-6.767,13.44s-7.876,2.669-9.63,2.594c-.915-.077-2.288,1.144-2.517,1.525s-.229,1.525,0,1.678,12.583,0,12.583,0-.076-1.373-.762-1.6-.305-.763,1.22-1.525,6.939-3.051,9.838-12.431c0,0,3.279-2.822,4.347-2.9s8.235-.57,9.075-.781a2.627,2.627,0,0,1,3.051,2.077,107.834,107.834,0,0,1,1.525,12.507c0,2.211-.305,4.711,0,4.72s4.194,0,4.194,0,.064-3.043-.616-3.043-.91.077-1.061-.915-.381-18.455-.381-18.455l-6.177-2.288Z" transform="translate(-5.616 -21.504)" fill="#5e5e5e"/>
            <path id="Path_47798" data-name="Path 47798" d="M30.556,87.059c2.16-.844,4.118-1.907,10.753-1.144a105.112,105.112,0,0,0,21.888.424c8.084-.73,7.55,4.38,7.092,7.354s-.915,4.881-3.2,4.5a3.39,3.39,0,0,1-2.593-2.9l-8.465,2.539s-21.125,2.311-24.175,0-4.075-9.689-1.3-10.776" transform="translate(-6.499 -19.241)" fill="#999"/>
            <path id="Path_47799" data-name="Path 47799" d="M14.116,18.677H11.122a1.905,1.905,0,0,1-1.906-1.905V2.229A1.905,1.905,0,0,1,11.122.324h1.9a1.905,1.905,0,0,1,1.905,1.905l1.093,14.542a1.905,1.905,0,0,1-1.9,1.906Z" transform="translate(-2.07 -0.073)" fill="#5e5e5e"/>
            <path id="Path_47800" data-name="Path 47800" d="M4.584.4A5.4,5.4,0,0,1,8.7.4a63.819,63.819,0,0,0-.533,9.685c.229,6.1.229,8.541,2.287,14.033s18.913,37.521,14.185,43.7c-2.593,1.831-4.118.687-4.118.687L14.98,56.582l-4.143-11.49L6.49,32.2,2.6,17.18V3.453Z" transform="translate(-0.584 0)" fill="#999"/>
            <path id="Path_47801" data-name="Path 47801" d="M8.146,57.088c.187-1.13.73-1.576,3.324-.813s4.423.381,5.719,2.288a27.831,27.831,0,0,1,2.366,4.652l-2.9.915S15.92,60.569,14.53,60c-1.866-.771-6.746-.72-6.383-2.907" transform="translate(-1.825 -12.556)" fill="#5e5e5e"/>
            <path id="Path_47802" data-name="Path 47802" d="M53.231,66.045c-.564.317-.865.56-8.186,1.271s-16.93,2.594-21.3,4.271c-3.259,1.983-6.05,1.07-6.915-.813-.763-2.105-.559-5.593,3.8-5.876a106.876,106.876,0,0,1,13.126-.937c8.9-.153,20.308-.661,20.526,0a2.193,2.193,0,0,1-1.054,2.084" transform="translate(-3.703 -14.294)" fill="#5e5e5e"/>
            <path id="Path_47803" data-name="Path 47803" d="M21.749,65.351c-.813-1.268,2.949-1.779,13.727-2.359,6.854-.369,19.32-.133,19.828.123s.407.762-.407.813-19.269.172-22.98.518-8.134.753-10.168.906" transform="translate(-4.862 -14.107)" fill="#999"/>
            <path id="Path_47804" data-name="Path 47804" d="M20.873,74.043c.387.288,2.746-.711,3.407,1.169s3.076,12.615,12.862,14.115c8.358,1.281,20.87-2.065,23.489-.337,1.989,1.313,3.039,3.594,2.491,4.169-.992,1.041-4.118,1.9-18.4,3.679s-17.057.414-22.268-5.307c-6.053-6.643-6.28-17.59-5.987-17.9s1.818-1.526,4.411.406" transform="translate(-3.68 -16.393)" fill="#5e5e5e"/>
            <path id="Path_47805" data-name="Path 47805" d="M3.516,1.371c-.966.2-2.135.406-2.542,2.694s-2.085,8.135.2,19.117c.1.2.3.406,1.068.2a4.717,4.717,0,0,1,.152.457s-1.372.3-1.321.509S6.77,42.4,6.77,42.4s.254.61,1.321.509c.051,0,.509-.346,1.017.971.058.016,1.779.758,1.779.758S4.076,24.4,3.211,19.929s-.458-15.507.3-18.558" transform="translate(0 -0.308)" fill="#5e5e5e"/>
          </g>
          <ellipse id="shadow-2" data-name="shadow" cx="63.556" cy="4.931" rx="63.556" ry="4.931" transform="translate(215.388 94.685)" opacity="0.122"/>
          <g id="seat_left-2" data-name="seat left" transform="translate(215.676)">
            <rect id="Rectangle_3179-2" data-name="Rectangle 3179" width="34.57" height="1.503" transform="translate(27.054 97.412)" fill="#5e5e5e"/>
            <path id="Path_47807-2" data-name="Path 47807" d="M44.086,101.124c.153,1.62-1.1,10.084-6.767,13.44s-7.876,2.669-9.63,2.594c-.915-.077-2.288,1.144-2.517,1.525s-.229,1.525,0,1.678,12.583,0,12.583,0-.076-1.373-.762-1.6-.305-.763,1.22-1.525,6.939-3.051,9.838-12.431c0,0,3.279-2.822,4.347-2.9s8.235-.57,9.075-.781a2.627,2.627,0,0,1,3.051,2.077,107.834,107.834,0,0,1,1.525,12.507c0,2.211-.305,4.711,0,4.72s4.194,0,4.194,0,.064-3.043-.616-3.043-.91.077-1.061-.915-.381-18.455-.381-18.455l-6.177-2.288Z" transform="translate(-5.616 -21.504)" fill="#5e5e5e"/>
            <path id="Path_47798-2" data-name="Path 47798" d="M30.556,87.059c2.16-.844,4.118-1.907,10.753-1.144a105.112,105.112,0,0,0,21.888.424c8.084-.73,7.55,4.38,7.092,7.354s-.915,4.881-3.2,4.5a3.39,3.39,0,0,1-2.593-2.9l-8.465,2.539s-21.125,2.311-24.175,0-4.075-9.689-1.3-10.776" transform="translate(-6.499 -19.241)" fill="#999"/>
            <path id="Path_47799-2" data-name="Path 47799" d="M14.116,18.677H11.122a1.905,1.905,0,0,1-1.906-1.905V2.229A1.905,1.905,0,0,1,11.122.324h1.9a1.905,1.905,0,0,1,1.905,1.905l1.093,14.542a1.905,1.905,0,0,1-1.9,1.906Z" transform="translate(-2.07 -0.073)" fill="#5e5e5e"/>
            <path id="Path_47800-2" data-name="Path 47800" d="M4.584.4A5.4,5.4,0,0,1,8.7.4a63.819,63.819,0,0,0-.533,9.685c.229,6.1.229,8.541,2.287,14.033s18.913,37.521,14.185,43.7c-2.593,1.831-4.118.687-4.118.687L14.98,56.582l-4.143-11.49L6.49,32.2,2.6,17.18V3.453Z" transform="translate(-0.584 0)" fill="#999"/>
            <path id="Path_47801-2" data-name="Path 47801" d="M8.146,57.088c.187-1.13.73-1.576,3.324-.813s4.423.381,5.719,2.288a27.831,27.831,0,0,1,2.366,4.652l-2.9.915S15.92,60.569,14.53,60c-1.866-.771-6.746-.72-6.383-2.907" transform="translate(-1.825 -12.556)" fill="#5e5e5e"/>
            <path id="Path_47802-2" data-name="Path 47802" d="M53.231,66.045c-.564.317-.865.56-8.186,1.271s-16.93,2.594-21.3,4.271c-3.259,1.983-6.05,1.07-6.915-.813-.763-2.105-.559-5.593,3.8-5.876a106.876,106.876,0,0,1,13.126-.937c8.9-.153,20.308-.661,20.526,0a2.193,2.193,0,0,1-1.054,2.084" transform="translate(-3.703 -14.294)" fill="#5e5e5e"/>
            <path id="Path_47803-2" data-name="Path 47803" d="M21.749,65.351c-.813-1.268,2.949-1.779,13.727-2.359,6.854-.369,19.32-.133,19.828.123s.407.762-.407.813-19.269.172-22.98.518-8.134.753-10.168.906" transform="translate(-4.862 -14.107)" fill="#999"/>
            <path id="Path_47804-2" data-name="Path 47804" d="M20.873,74.043c.387.288,2.746-.711,3.407,1.169s3.076,12.615,12.862,14.115c8.358,1.281,20.87-2.065,23.489-.337,1.989,1.313,3.039,3.594,2.491,4.169-.992,1.041-4.118,1.9-18.4,3.679s-17.057.414-22.268-5.307c-6.053-6.643-6.28-17.59-5.987-17.9s1.818-1.526,4.411.406" transform="translate(-3.68 -16.393)" fill="#5e5e5e"/>
            <path id="Path_47805-2" data-name="Path 47805" d="M3.516,1.371c-.966.2-2.135.406-2.542,2.694s-2.085,8.135.2,19.117c.1.2.3.406,1.068.2a4.717,4.717,0,0,1,.152.457s-1.372.3-1.321.509S6.77,42.4,6.77,42.4s.254.61,1.321.509c.051,0,.509-.346,1.017.971.058.016,1.779.758,1.779.758S4.076,24.4,3.211,19.929s-.458-15.507.3-18.558" transform="translate(0 -0.308)" fill="#5e5e5e"/>
          </g>
        </g>
      </g>
    </g>
  </g>
</svg>

