<svg xmlns="http://www.w3.org/2000/svg" xmlns:xlink="http://www.w3.org/1999/xlink" width="300" height="600" viewBox="0 0 300 600">
  <defs>
    <clipPath id="clip-path">
      <rect id="crop_area" data-name="crop area" width="300" height="458" fill="#00a"/>
    </clipPath>
    <clipPath id="clip-path-2">
      <rect id="Rectangle_3204" data-name="Rectangle 3204" width="74.907" height="80.465" fill="none"/>
    </clipPath>
    <clipPath id="clip-JetBlue_Retail_Refresh_Live_TV_300x600_Frame02_v02_1">
      <rect width="300" height="600"/>
    </clipPath>
  </defs>
  <g id="JetBlue_Retail_Refresh_Live_TV_300x600_Frame02_v02_1" data-name="JetBlue_Retail_Refresh_Live_TV_300x600_Frame02_v02 – 1" clip-path="url(#clip-JetBlue_Retail_Refresh_Live_TV_300x600_Frame02_v02_1)">
    <g id="illustration" clip-path="url(#clip-path)">
      <g id="plane_seatback" data-name="plane seatback" transform="translate(-53.593 169.703)">
        <g id="hoop_and_net_new" data-name="hoop and net new" transform="translate(162.522 172.276)">
          <g id="net" transform="translate(3.624 4.413)">
            <g id="Group_15031" data-name="Group 15031" clip-path="url(#clip-path-2)">
              <path id="Path_48302" data-name="Path 48302" d="M61.559,81.447a2.391,2.391,0,0,1-1.006-.222c-1.23-.566-2.194-2.228-2.864-4.94-1.112-8.406-9.338-25.8-13.874-30.844-.709-.789-1.561-1.691-2.461-2.645C36.129,37.266,28.235,28.91,23.726,17.341,19.97,7.706,16.3,3.3,15.574,3.532c-.009,0-.893.605.8,7.088.9,3.428,1.872,6.892,2.815,10.241,2.9,10.294,5.639,20.017,5.157,25.714a.51.51,0,1,1-1.017-.087c.466-5.512-2.249-15.148-5.123-25.35-.945-3.354-1.921-6.823-2.82-10.26-1.8-6.906-.938-8.054-.128-8.316.376-.121,1.512-.489,4.265,3.844a63.714,63.714,0,0,1,5.151,10.565c4.437,11.383,12.249,19.652,17.418,25.123.905.959,1.761,1.864,2.479,2.664C49.3,50.014,57.546,67.423,58.69,76.094c.574,2.307,1.369,3.779,2.29,4.2a1.637,1.637,0,0,0,1.478-.115c1.433-.7,1.238-10,1.094-16.789-.132-6.264-.269-12.741.38-16.576,1.5-8.879,9.762-25.843,12.226-29.848,2.229-3.623,3.354-9.43,3.364-9.488a.51.51,0,0,1,1,.191c-.047.245-1.171,6.047-3.5,9.832-2.361,3.838-10.633,20.88-12.09,29.484-.633,3.739-.5,10.167-.366,16.383.218,10.381.256,16.791-1.66,17.724a3,3,0,0,1-1.351.35" transform="translate(-5.626 -0.981)" fill="#f6f6f6"/>
              <path id="Path_48303" data-name="Path 48303" d="M22.267,82.825H22.21c-2.487-.106-2.827-7.137-3.175-18.6-.126-4.162-.256-8.466-.575-11.851C17.6,43.19,10.794,30.028,7.138,22.958c-.548-1.06-1.016-1.966-1.371-2.679-.192-.386-.526-1.018-.94-1.8C.822,10.9-.372,8.022.1,7.079a.739.739,0,0,1,.466-.392,1.067,1.067,0,0,1,.762-.028c1.586.5,3.811,4.7,7.311,11.51C11.477,23.7,14.7,29.965,17.05,32.13c7.609,7,14.043,17.709,17.886,24.106l.717,1.191c.585.969,1.21,2.2,1.867,3.585,7.08-8.44,25.825-27.834,26.023-28.038a.51.51,0,0,1,.733.709c-.2.208-19.491,20.165-26.28,28.352.723,1.578,1.48,3.32,2.257,5.109,2.641,6.078,6.236,14.4,8.2,14.125,2.387-.339,7.1-9.938,9.517-15.908a.51.51,0,0,1,.947.382c-.016.04-1.62,4-3.64,7.961-4.189,8.22-6.064,8.487-6.68,8.575-2.519.36-5.2-5.323-9.283-14.728-.7-1.613-1.384-3.187-2.041-4.633-.856,1.095-2.248,3.337-3.851,5.919C28.343,77.02,24.56,82.825,22.267,82.825M1,7.621C.948,8.953,4.4,15.493,5.73,18c.419.793.757,1.433.952,1.824.352.709.818,1.61,1.363,2.664C11.732,29.622,18.595,42.9,19.476,52.278c.321,3.417.452,7.737.579,11.915.212,6.985.532,17.541,2.2,17.612h.026c1.891,0,7.138-8.449,10.278-13.507,1.67-2.689,3.112-5.012,4-6.117.078-.1.16-.2.243-.3a43.664,43.664,0,0,0-2.022-3.928l-.717-1.192c-3.816-6.35-10.2-16.978-17.7-23.88-2.487-2.288-5.611-8.367-8.632-14.246C5.474,14.25,2.081,7.648,1,7.621" transform="translate(0 -2.593)" fill="#f6f6f6"/>
              <path id="Path_48304" data-name="Path 48304" d="M70.107,62.643a.51.51,0,0,1-.495-.39C67.262,52.6,58.386,41.492,51.9,33.381a95.625,95.625,0,0,1-6.19-8.236c-1.287-2.128-2.429-6.779-3.638-11.7-1.3-5.284-2.767-11.272-4.127-12.092A.26.26,0,0,0,37.73,1.3c-.09.022-.9.4-1.212,6.417-.2,3.878-.157,8.865-.114,13.688.055,6.065.106,11.794-.361,14.34a28.969,28.969,0,0,1-5.391,11.733.51.51,0,0,1-.793-.643,28.458,28.458,0,0,0,5.18-11.275c.45-2.45.4-8.131.344-14.146-.125-13.958.041-20.59,2.1-21.1a1.294,1.294,0,0,1,.992.168c1.606.969,2.806,5.452,4.591,12.722,1.137,4.634,2.314,9.425,3.52,11.42A95.485,95.485,0,0,0,52.7,32.745c6.54,8.184,15.5,19.393,17.9,29.268a.511.511,0,0,1-.375.616.547.547,0,0,1-.121.014" transform="translate(-11.681 -0.107)" fill="#f6f6f6"/>
              <path id="Path_48305" data-name="Path 48305" d="M32.03,65.5a.466.466,0,0,1-.064,0,.509.509,0,0,1-.442-.57C32.946,53.657,42.542,40.677,47.7,33.7c.553-.748,1.049-1.419,1.47-2,2.465-3.408,3.583-11.023,4.569-17.741C54.948,5.708,55.808.622,58.128.063a2.02,2.02,0,0,1,1.735.346c2.184,1.632,2.523,8.149,2.821,13.9.107,2.047.207,3.981.384,5.376a45.486,45.486,0,0,0,5.043,14.721c1.464,2.408,3.083,15.978,3.151,16.555a.51.51,0,0,1-1.013.12c-.457-3.865-1.889-14.3-3.01-16.144a46.724,46.724,0,0,1-5.183-15.123c-.182-1.433-.284-3.385-.391-5.452-.257-4.976-.611-11.789-2.412-13.134a.992.992,0,0,0-.885-.172C56.6,1.481,55.657,7.9,54.746,14.11c-1,6.834-2.141,14.581-4.752,18.19-.423.585-.921,1.258-1.477,2.01-5.1,6.9-14.593,19.739-15.982,30.741a.511.511,0,0,1-.506.446" transform="translate(-12.378 0)" fill="#f6f6f6"/>
              <path id="Path_48306" data-name="Path 48306" d="M32.518,72.747a.521.521,0,0,1-.148-.022.51.51,0,0,1-.341-.636c3.748-12.381,20.636-33.437,26.034-39.3a43.081,43.081,0,0,0,9.326-14.7c.25-.664.55-1.54.892-2.537C70.77,8.29,73.225,1.825,76.117,2.573c1.931.5,1.192,5.226-.527,15.017-1.389,7.919-3.118,17.773-2.548,24.6a.51.51,0,1,1-1.016.085c-.582-6.961,1.159-16.887,2.559-24.863,1-5.726,2.379-13.568,1.276-13.852-2.181-.568-5.182,8.139-6.616,12.321-.346,1.007-.65,1.893-.9,2.565a44.055,44.055,0,0,1-9.529,15.034C53.456,39.3,36.7,60.172,33.006,72.384a.51.51,0,0,1-.488.363" transform="translate(-12.569 -0.987)" fill="#f6f6f6"/>
              <path id="Path_48307" data-name="Path 48307" d="M51.78,104.3c-6.017,0-10.11-12.863-12.348-19.894l-.224-.7C37.129,77.189,28.388,63.583,28.3,63.447a.51.51,0,0,1,.858-.553c.363.563,8.9,13.856,11.022,20.493l.225.706c2.071,6.509,6.387,20.05,11.912,19.138,4.8-.793,14.126-24.828,17.314-34.022a.51.51,0,1,1,.964.334C69.4,72.985,58.754,103.2,52.484,104.238a4.282,4.282,0,0,1-.7.058" transform="translate(-11.082 -24.607)" fill="#f6f6f6"/>
              <path id="Path_48308" data-name="Path 48308" d="M43.18,102.687h0c-3.742,0-6.666-10.228-7.251-15.95-.61-5.961-6.663-18.393-6.724-18.517a.51.51,0,1,1,.916-.448c.253.516,6.194,12.721,6.822,18.861.678,6.625,3.749,15.031,6.237,15.034h0c2.828,0,9.332-11.386,15.07-21.432,5.288-9.257,10.756-18.829,14.92-22.935a.51.51,0,1,1,.717.727c-4.064,4.007-9.5,13.517-14.75,22.714-7.8,13.655-12.767,21.947-15.956,21.947" transform="translate(-11.448 -22.444)" fill="#f6f6f6"/>
              <path id="Path_48309" data-name="Path 48309" d="M33.265,81.32a.51.51,0,0,1-.372-.859l3.38-3.592c.39-.519,1.664-2.24,3.442-4.64,6.275-8.471,19.33-26.1,22.66-29.949,2.546-2.945,4.866-5.768,7.109-8.5A194.991,194.991,0,0,1,86.067,15.342a.51.51,0,0,1,.706.737,194.464,194.464,0,0,0-16.5,18.352c-2.247,2.735-4.571,5.562-7.125,8.517C59.842,46.77,46.8,64.376,40.535,72.836c-1.781,2.406-3.058,4.13-3.485,4.691l-3.414,3.632a.509.509,0,0,1-.372.161" transform="translate(-12.863 -5.969)" fill="#f6f6f6"/>
            </g>
          </g>
          <path id="hoop" d="M219.377,239.2H144.513a3.649,3.649,0,0,1-3.639-3.639v-6.968a3.649,3.649,0,0,1,3.639-3.639h74.864a3.649,3.649,0,0,1,3.639,3.639v6.968a3.649,3.649,0,0,1-3.639,3.639" transform="translate(-140.874 -224.949)" fill="#fc3388"/>
        </g>
      </g>
    </g>
  </g>
</svg>
