<svg xmlns="http://www.w3.org/2000/svg" xmlns:xlink="http://www.w3.org/1999/xlink" width="789" height="250" viewBox="0 0 789 250">
  <defs>
    <clipPath id="clip-_300x250_WiFi_DEV_ASSET_2">
      <rect width="789" height="250"/>
    </clipPath>
  </defs>
  <g id="_300x250_WiFi_DEV_ASSET_2" data-name="300x250_WiFi_DEV ASSET – 2" clip-path="url(#clip-_300x250_WiFi_DEV_ASSET_2)">
    <g id="_2" data-name="2" transform="translate(-386.825 -310.735)">
      <path id="Path_47977" data-name="Path 47977" d="M779.111,7H753.158a4.291,4.291,0,0,1,2.672-1.623,5.09,5.09,0,0,1,5.419-2.637A5.651,5.651,0,0,1,766.135,0a3.847,3.847,0,0,1,3.588,2.784,4.616,4.616,0,0,1,3.206,1.989A6.813,6.813,0,0,1,779.111,7" transform="translate(-300.286 371.736)" fill="#fff"/>
    </g>
    <g id="_7" data-name="7" transform="translate(71.307 126.632)">
      <path id="Path_47982" data-name="Path 47982" d="M324.713,105.118H355.9s-3.873-4.59-8.941-3.92c0,0-2.789-4.112-6.9-4.112a8.611,8.611,0,0,0-6.518,3.443s-8.446.1-8.828,4.59" transform="translate(-324.713 -97.086)" fill="#fff"/>
    </g>
    <g id="_2-2" data-name="2" transform="translate(-98.278 -315.463)">
      <path id="Path_47977-2" data-name="Path 47977" d="M779.149,6.727H753.158a4.349,4.349,0,0,1,2.676-1.56,5.2,5.2,0,0,1,5.427-2.535A5.678,5.678,0,0,1,766.154,0a3.8,3.8,0,0,1,3.593,2.675,4.675,4.675,0,0,1,3.211,1.911,7.015,7.015,0,0,1,6.192,2.14" transform="translate(-300.286 371.736)" fill="#fff"/>
    </g>
    <g id="_6" data-name="6" transform="translate(405.237 124.816)">
      <path id="Path_47981" data-name="Path 47981" d="M522.872,222.186h30.434s-1.455-4.028-7.161-2.685c0,0-1.231-5.035-5.259-5.035a6.03,6.03,0,0,0-5.482,3.021s-5.259-.9-7.608,2.909c0,0-3.692.224-4.923,1.79" transform="translate(-522.872 -214.466)" fill="#fff"/>
    </g>
    <g id="_7-2" data-name="7" transform="translate(435.671 134.888)">
      <path id="Path_47982-2" data-name="Path 47982" d="M324.713,103.352h24.329s-3.021-3.58-6.974-3.058c0,0-2.176-3.208-5.383-3.208a6.717,6.717,0,0,0-5.085,2.685s-6.588.075-6.887,3.58" transform="translate(-324.713 -97.086)" fill="#fff"/>
    </g>
  </g>
</svg>
