<svg xmlns="http://www.w3.org/2000/svg" xmlns:xlink="http://www.w3.org/1999/xlink" width="300" height="250" viewBox="0 0 300 250"><defs><clipPath id="a"><rect width="300" height="250" fill="#fff" stroke="#707070" stroke-width="1"/></clipPath><clipPath id="b"><rect width="157.495" height="74.159" fill="none"/></clipPath></defs><g clip-path="url(#a)"><g transform="translate(121.895 119.578) rotate(60)"><g transform="translate(0 0)" clip-path="url(#b)"><path d="M0,4.142,5.2,0a4.134,4.134,0,0,1,.176,3.085C4.76,4.583,1.41,8.02,1.41,8.02Z" transform="translate(2.813 4.551)" fill="#77281b"/><path d="M77.762,74.159C45.727,65.9,16.189,39.2,8.634,30.883,5.686,28.392,1.755,22.071,1.369,19.97c-.36-1.954-1.525-8.3-1.351-10.275C.205,7.543,1.5,2.017,1.65.023c2.149-.3,3.456,2.315,3.39,4.065s-1.457,4.319-.922,5.986,4.932,4.468,6.659,4.182c1.53-1.508,1.488-3.438,1.7-5.9s2.245-3.772,4.024-3.1c.139,1.177-2.76,7.73-1.447,10.618,1.683,3.7-.7,6.912.389,7.894,6.245,3.514,16.445,8.774,25.105,10.988,15.393,3.935,30.161,16.307,30.161,16.307a280.718,280.718,0,0,1,43.015-18c14.954,1.288,43.774,11.024,43.774,11.024C125.626,67.511,77.762,74.159,77.762,74.159" transform="translate(0 0)" fill="#c24434"/></g></g></g></svg>