<svg xmlns="http://www.w3.org/2000/svg" width="15.338" height="15.338" viewBox="0 0 15.338 15.338"><path d="M61.867,134.557a7.669,7.669,0,1,1-7.669-7.669,7.669,7.669,0,0,1,7.669,7.669" transform="translate(-46.529 -126.888)" fill="#ee7c54"/><path d="M61.867,134.557a7.669,7.669,0,1,1-7.669-7.669,7.669,7.669,0,0,1,7.669,7.669" transform="translate(-46.529 -126.888)" fill="#ff6433"/><path d="M61.51,142.071A7.671,7.671,0,0,1,46.8,146.077a7.67,7.67,0,1,0,14.706-4.006" transform="translate(-46.717 -137.245)" fill="#cc4b29"/><path d="M61.951,127.992q-.35.11-.686.252a8.274,8.274,0,0,1,8.061,8.262,10.72,10.72,0,0,1-1.5,5.589q.259-.137.506-.293a11.032,11.032,0,0,0,1.286-5.3,8.572,8.572,0,0,0-7.67-8.514" transform="translate(-56.581 -127.641)" fill="#402f28"/><path d="M52.333,146.052a14.289,14.289,0,0,1,11.925-9.6q-.1-.14-.206-.275a14.316,14.316,0,0,0-8.248,3.947,14.008,14.008,0,0,0-3.693,5.676c.072.086.146.172.221.255" transform="translate(-50.338 -133.222)" fill="#402f28"/><path d="M75.5,143.556a2.021,2.021,0,0,0-2.285-.635,2.719,2.719,0,0,0-2.036,2.5,12,12,0,0,1-1.742,5.936,6.006,6.006,0,0,1-1.524,1.691q.217.025.437.037a6.912,6.912,0,0,0,1.336-1.568,12.3,12.3,0,0,0,1.788-6.081,2.4,2.4,0,0,1,1.82-2.225,1.758,1.758,0,0,1,1.961.514,10.5,10.5,0,0,1,1.144,2.64,7.711,7.711,0,0,0,.055-.79,9.343,9.343,0,0,0-.953-2.014" transform="translate(-61.113 -137.754)" fill="#402f28"/><path d="M57.808,129.336a1.072,1.072,0,0,1-.443.833,2.886,2.886,0,0,1-2.33.4,7.714,7.714,0,0,0-5.927,1.109,10.651,10.651,0,0,0-1.183.865q-.12.288-.217.586a10.5,10.5,0,0,1,1.558-1.2,7.424,7.424,0,0,1,5.7-1.071,3.194,3.194,0,0,0,2.581-.459,1.343,1.343,0,0,0,.555-1.064,2.954,2.954,0,0,0-.168-.92q-.182-.075-.368-.141a2.985,2.985,0,0,1,.241,1.061" transform="translate(-47.333 -127.834)" fill="#402f28"/><path d="M62.1,142.307a13.985,13.985,0,0,1,1.212-1.149c.212-.181.431-.354.653-.523s.45-.33.683-.482a14.777,14.777,0,0,1,1.446-.839,12.593,12.593,0,0,1,1.534-.661c-.261.1-.516.209-.769.324s-.5.238-.75.366-.49.263-.731.4c-.119.072-.24.141-.357.216l-.177.11-.175.114c-.233.151-.459.313-.683.478-.11.085-.222.167-.331.255l-.163.129-.161.132q-.321.266-.63.548c-.206.188-.407.38-.6.58" transform="translate(-57.15 -134.913)" fill="#f2ad7f"/><path d="M54.718,135.644A6.93,6.93,0,0,1,56.3,135a6.322,6.322,0,0,1,.842-.172A6.849,6.849,0,0,1,58,134.77a9.834,9.834,0,0,1,1.708.173c.141.025.281.051.422.074l.106.017.106.014.106.01.107.005a3.142,3.142,0,0,0,.427-.015,3.076,3.076,0,0,0,.422-.072,3.052,3.052,0,0,1-.421.082,3.162,3.162,0,0,1-.429.025l-.107,0-.107-.009-.107-.013-.106-.016c-.141-.022-.282-.046-.423-.069-.282-.045-.564-.089-.848-.118a8.26,8.26,0,0,0-.854-.045,6.315,6.315,0,0,0-1.692.216,7.46,7.46,0,0,0-.814.264c-.133.051-.265.106-.4.165s-.259.121-.384.191" transform="translate(-52.115 -132.265)" fill="#f2ad7f"/><path d="M70.207,129.61c.147.049.29.107.432.168.07.031.141.063.211.1s.14.066.208.1a8.251,8.251,0,0,1,.8.466l.1.064c.032.022.063.045.095.067l.189.135.183.142c.03.024.062.046.091.072L72.6,131c.058.051.118.1.175.152l.169.159c.028.027.057.053.083.08l.08.084.159.168-.166-.161-.083-.08c-.028-.027-.058-.051-.086-.077l-.172-.154c-.058-.051-.119-.1-.178-.147-.118-.1-.243-.19-.365-.284l-.189-.133-.1-.066-.1-.063c-.127-.086-.259-.166-.391-.246l-.2-.115-.2-.111c-.068-.037-.137-.071-.205-.106s-.139-.067-.208-.1c-.14-.066-.28-.128-.424-.185" transform="translate(-62.681 -128.745)" fill="#f2ad7f"/></svg>