<svg id="Group_20968" data-name="Group 20968" xmlns="http://www.w3.org/2000/svg" xmlns:xlink="http://www.w3.org/1999/xlink" width="23.312" height="30.872" viewBox="0 0 23.312 30.872">
  <defs>
    <clipPath id="clip-path">
      <path id="Subtraction_1" data-name="Subtraction 1" d="M9.9,27.354a9.888,9.888,0,0,1-9.9-9.9V9.9A9.9,9.9,0,0,1,19.016,6.045,9.838,9.838,0,0,1,19.793,9.9v7.561a9.887,9.887,0,0,1-9.9,9.9Z" fill="#00e1ff" stroke="#646060" stroke-width="4"/>
    </clipPath>
  </defs>
  <g id="sun" fill="none" opacity="0.999">
    <path d="M11.656,0A11.656,11.656,0,0,1,23.312,11.656v7.561A11.656,11.656,0,0,1,0,19.217V11.656A11.656,11.656,0,0,1,11.656,0Z" stroke="none"/>
    <path d="M 11.65592384338379 2.500003814697266 C 6.607334136962891 2.500003814697266 2.500003814697266 6.607332229614258 2.500003814697266 11.65592384338379 L 2.500003814697266 19.21652221679688 C 2.500003814697266 24.26511383056641 6.607334136962891 28.3724422454834 11.65592384338379 28.3724422454834 C 16.70451354980469 28.3724422454834 20.81184387207031 24.26511383056641 20.81184387207031 19.21652221679688 L 20.81184387207031 11.65592384338379 C 20.81184387207031 6.607332229614258 16.70451354980469 2.500003814697266 11.65592384338379 2.500003814697266 M 11.65592384338379 3.814697265625e-06 C 18.09331321716309 3.814697265625e-06 23.31184387207031 5.218532562255859 23.31184387207031 11.65592384338379 L 23.31184387207031 19.21652221679688 C 23.31184387207031 25.6539134979248 18.09331321716309 30.8724422454834 11.65592384338379 30.8724422454834 C 5.218534469604492 30.8724422454834 3.814697265625e-06 25.6539134979248 3.814697265625e-06 19.21652221679688 L 3.814697265625e-06 11.65592384338379 C 3.814697265625e-06 5.218532562255859 5.218534469604492 3.814697265625e-06 11.65592384338379 3.814697265625e-06 Z" stroke="none" fill="#c6c6c6"/>
  </g>
  <g id="sun-2" data-name="sun" fill="none" opacity="0.996">
    <path d="M11.656,0A11.656,11.656,0,0,1,23.312,11.656v7.561A11.656,11.656,0,0,1,0,19.217V11.656A11.656,11.656,0,0,1,11.656,0Z" stroke="none"/>
    <path d="M 11.65592384338379 1.500003814697266 C 6.055932998657227 1.500003814697266 1.500003814697266 6.055932998657227 1.500003814697266 11.65592384338379 L 1.500003814697266 19.21652221679688 C 1.500003814697266 24.81651306152344 6.055932998657227 29.3724422454834 11.65592384338379 29.3724422454834 C 17.25591278076172 29.3724422454834 21.81184387207031 24.81651306152344 21.81184387207031 19.21652221679688 L 21.81184387207031 11.65592384338379 C 21.81184387207031 6.055932998657227 17.25591278076172 1.500003814697266 11.65592384338379 1.500003814697266 M 11.65592384338379 3.814697265625e-06 C 18.09331321716309 3.814697265625e-06 23.31184387207031 5.218532562255859 23.31184387207031 11.65592384338379 L 23.31184387207031 19.21652221679688 C 23.31184387207031 25.6539134979248 18.09331321716309 30.8724422454834 11.65592384338379 30.8724422454834 C 5.218534469604492 30.8724422454834 3.814697265625e-06 25.6539134979248 3.814697265625e-06 19.21652221679688 L 3.814697265625e-06 11.65592384338379 C 3.814697265625e-06 5.218532562255859 5.218534469604492 3.814697265625e-06 11.65592384338379 3.814697265625e-06 Z" stroke="none" fill="#fff"/>
  </g>
  <g id="Group_20967" data-name="Group 20967" transform="translate(1.76 1.759)">
    <g id="Mask_Group_6" data-name="Mask Group 6" transform="translate(0)" clip-path="url(#clip-path)">
      <path id="Path_99338" data-name="Path 99338" d="M9946.074,3877.631h36.248l-9.938-15.921-21.693-.751Z" transform="translate(-9951.761 -3873.427)" fill="#fff"/>
      <path id="Path_99339" data-name="Path 99339" d="M-.5.206a3.961,3.961,0,0,1-2-.486A.22.22,0,0,1-2.28-.5H1.239a.22.22,0,0,1,.22.22A3.792,3.792,0,0,1-.5.206Z" transform="translate(10.417 2.565)" fill="#b1aeae"/>
    </g>
  </g>
</svg>
