<svg xmlns="http://www.w3.org/2000/svg" xmlns:xlink="http://www.w3.org/1999/xlink" width="300" height="250" viewBox="0 0 300 250"><defs><clipPath id="b"><rect width="300" height="250"/></clipPath></defs><g id="a" clip-path="url(#b)"><path d="M43.528,102.682l11.235,58.1h77.581l11.235-58.1Z" transform="translate(56.446 40.724)" fill="#44447e"/><path d="M137.661,138.444a2.175,2.175,0,0,0-.947-.217H54.99a2.175,2.175,0,0,0-.947.217l-3.051,1.895.327,1.808,2.609-1.739a2.554,2.554,0,0,1,1.045-.224h81.757a2.554,2.554,0,0,1,1.045.224l2.609,1.739.327-1.808Z" transform="translate(54.148 29.779)" fill="#000064"/><path d="M123.942,126.518l-.51-.8a7.075,7.075,0,0,0-5.971-3.247h-17.9a7.075,7.075,0,0,0-5.971,3.247l-.51.8a6.18,6.18,0,0,0-.109,6.5l4.6,7.713a8.55,8.55,0,0,0,7.359,4.127h7.161a8.55,8.55,0,0,0,7.359-4.127l4.6-7.713a6.18,6.18,0,0,0-.109-6.5" transform="translate(41.49 34.631)" fill="#cccce0" opacity="0.25"/><path d="M114.838,143.411h-.278a2.585,2.585,0,0,1-2.6-2.561l.034-8.155a2.575,2.575,0,0,1,2.6-2.521h.275a2.563,2.563,0,0,1,2.59,2.521v8.155a2.6,2.6,0,0,1-2.615,2.561" transform="translate(35.376 32.258)" fill="#000064"/></g></svg>