<svg xmlns="http://www.w3.org/2000/svg" width="172" height="56" viewBox="0 0 172 56">
  <path id="JetBlue_Logo" data-name="JetBlue Logo" d="M2.522,56H0V49.983H1.827a3.869,3.869,0,0,0,2.625-.8A3.279,3.279,0,0,0,5.421,46.6V12.848h6.431V47.1a9.417,9.417,0,0,1-.7,3.638,8.118,8.118,0,0,1-1.937,2.81,8.659,8.659,0,0,1-2.953,1.811A10.747,10.747,0,0,1,2.522,56ZM154.641,45a17.144,17.144,0,0,1-4.981-.693,12.153,12.153,0,0,1-4.568-2.5c-3.074-2.721-4.633-7.086-4.633-12.974a23.216,23.216,0,0,1,1.19-7.764,13.53,13.53,0,0,1,3.081-5.044,11.652,11.652,0,0,1,4.239-2.729,13.606,13.606,0,0,1,13.9,2.808,12.518,12.518,0,0,1,2.875,4.226,14.386,14.386,0,0,1,1.066,5.559v5.264H146.888a7.912,7.912,0,0,0,2.159,5.868,7.676,7.676,0,0,0,5.469,1.966,10.033,10.033,0,0,0,7-3.07l4.665,3.948a14.6,14.6,0,0,1-5.343,3.933A15.753,15.753,0,0,1,154.641,45Zm-1.008-26.511a6.391,6.391,0,0,0-4.743,1.888,8.078,8.078,0,0,0-2,5.508h13.491a8.283,8.283,0,0,0-2.025-5.508A6.34,6.34,0,0,0,153.633,18.488ZM122.189,45a10.933,10.933,0,0,1-7.25-2.812,10.7,10.7,0,0,1-3.468-8.218V12.848H117.9V31.775a7.042,7.042,0,0,0,1.812,5.038,6.171,6.171,0,0,0,4.554,1.794,6.078,6.078,0,0,0,4.5-1.794,7.069,7.069,0,0,0,1.8-5.038V12.848H137V44.623h-6.432V41.238h-.125A10.2,10.2,0,0,1,122.189,45Zm-92,0a17.144,17.144,0,0,1-4.981-.693,12.153,12.153,0,0,1-4.568-2.5C17.56,39.082,16,34.717,16,28.829a23.217,23.217,0,0,1,1.19-7.764,13.53,13.53,0,0,1,3.081-5.044,11.651,11.651,0,0,1,4.239-2.729,13.605,13.605,0,0,1,13.9,2.808,12.517,12.517,0,0,1,2.874,4.226,14.391,14.391,0,0,1,1.066,5.559v5.264H22.431a7.912,7.912,0,0,0,2.159,5.868,7.675,7.675,0,0,0,5.469,1.966,10.028,10.028,0,0,0,7-3.07l4.665,3.948a14.6,14.6,0,0,1-5.343,3.933A15.751,15.751,0,0,1,30.184,45ZM29.176,18.488a6.392,6.392,0,0,0-4.743,1.888,8.08,8.08,0,0,0-2,5.508H35.922A8.282,8.282,0,0,0,33.9,20.376,6.34,6.34,0,0,0,29.176,18.488Zm79.585,26.135h-2.836a8.963,8.963,0,0,1-5.847-1.716C98.52,41.617,97.73,39.6,97.73,36.915V0h6.429V36.413a2.118,2.118,0,0,0,.607,1.637,2.577,2.577,0,0,0,1.789.556h2.206v6.017Zm-27.21,0H62.639V0h17.4a17.678,17.678,0,0,1,5.775.883,11.4,11.4,0,0,1,4.162,2.47A11.51,11.51,0,0,1,93.34,11.97a9.937,9.937,0,0,1-1.348,5.311,11.142,11.142,0,0,1-5.271,4.278v.125a8.815,8.815,0,0,1,5.5,3.871,11.856,11.856,0,0,1,1.813,6.409,13.558,13.558,0,0,1-1,5.23,11.819,11.819,0,0,1-2.71,3.99A12.512,12.512,0,0,1,81.551,44.623Zm-12.1-19.8V38.23H79.912a7.491,7.491,0,0,0,5.548-2.037,6.637,6.637,0,0,0,1.765-4.668,6.639,6.639,0,0,0-1.765-4.67,7.491,7.491,0,0,0-5.548-2.037Zm0-18.8V18.8h9.834a7.674,7.674,0,0,0,5.469-1.88,6.1,6.1,0,0,0,1.78-4.513,6.176,6.176,0,0,0-1.78-4.488,7.64,7.64,0,0,0-5.469-1.9ZM58.542,44.623H55.2a7.292,7.292,0,0,1-7.754-7.834V17.736H44.231V12.848h3.216V3.2h6.429v9.652h4.665v4.887H53.877V36.225a2.52,2.52,0,0,0,.544,1.848,2.3,2.3,0,0,0,1.727.533h2.394v6.017Zm110.615-26.67A2.827,2.827,0,1,1,172,15.126,2.839,2.839,0,0,1,169.156,17.953Zm0-5.093a2.175,2.175,0,0,0-2.231,2.265,2.231,2.231,0,1,0,4.462,0A2.174,2.174,0,0,0,169.156,12.861Zm-.51,3.836h-.566V13.4h1.257c.777,0,1.138.313,1.138.984a.866.866,0,0,1-.849.96l.95,1.351h-.659l-.951-1.336h-.322V16.7Zm0-2.782v.93h.392c.46,0,.872-.035.872-.461,0-.311-.251-.469-.747-.469ZM11.852,6.393H5.421V0h6.431V6.392Z" fill="#fff"/>
</svg>
